<?xml version="1.0" encoding="UTF-8"?>
<!DOCTYPE score-partwise PUBLIC "-//Recordare//DTD MusicXML 3.0 Partwise//EN" "http://www.musicxml.org/dtds/partwise.dtd">
<score-partwise version="3.0">
  <work>
    <work-title>Acemaşîrân Peşrev</work-title>
  </work>
  <identification>
  <creator type="composer">Beste: Nuri Halil Poyraz</creator>
  <creator type="lyricist">?</creator>
  <rights>acemasiran--pesrev--frenkcin----nuri_halil_poyraz.xml</rights>
  </identification>
<defaults>
  <scaling>
      <millimeters>7.05556</millimeters>
      <tenths>40</tenths>
      </scaling>
    <page-layout>
      <page-height>1683.36</page-height>
      <page-width>1190.88</page-width>
      <page-margins type="even">
        <left-margin>100</left-margin>
        <right-margin>100</right-margin>
        <top-margin>56.6929</top-margin>
        <bottom-margin>113.386</bottom-margin>
        </page-margins>
      <page-margins type="odd">
        <left-margin>100</left-margin>
        <right-margin>100</right-margin>
        <top-margin>56.6929</top-margin>
        <bottom-margin>113.386</bottom-margin>
        </page-margins>
      </page-layout>
    <word-font font-family="FreeSerif" font-size="10"/>
    <lyric-font font-family="FreeSerif" font-size="11"/>
    </defaults>
  <credit page="1">
    <credit-words default-x="595.276" default-y="1627.09" justify="center" valign="top" font-size="24">Acemaşîrân Peşrev</credit-words>
    </credit>
  <credit page="1">
    <credit-words default-x="1133.86" default-y="1527.09" justify="right" valign="bottom" font-size="12">Beste: Nuri Halil Poyraz</credit-words>
          <credit-words>?</credit-words>
    </credit>
  <credit page="1">
    <credit-words default-x="595.44" default-y="1569.97" justify="center" valign="top" font-size="14">Makam: Acemaşîrân Peşrev</credit-words>
    </credit>
  <credit page="1">
    <credit-words default-x="56.6929" default-y="1526.67" justify="left" valign="bottom" font-size="12">Usul: Frenkçîn (12/4)</credit-words>
    </credit>
  <credit page="1">
    <credit-words default-x="595.44" default-y="113.386" justify="center" valign="bottom">acemasiran--pesrev--frenkcin----nuri_halil_poyraz.xml</credit-words>
</credit>
<part-list>
<score-part id="P1">
<part-name>S</part-name>
<part-abbreviation>S</part-abbreviation>
<score-instrument id="P1-I1">
<instrument-name>S</instrument-name>
</score-instrument>
<midi-device id="P1-I1" port="1"></midi-device>
<midi-instrument id="P1-I1">
<midi-channel>1</midi-channel>
<midi-program>1</midi-program>
<volume>80</volume>
<pan>0</pan>
</midi-instrument>
</score-part>
</part-list>
<part id="P1">
<measure number="1">
    <attributes>
      <divisions>192</divisions>
      <time>
        <beats>12</beats>
        <beat-type>4</beat-type>
      </time>
      </attributes>
      <attributes>
        <key>
        <key-step>B</key-step>
        <key-alter>-1</key-alter>
        <key-accidental>flat</key-accidental>
        <key-octave number="1">4</key-octave>
        </key>
      </attributes>
    <direction placement="above">
      <direction-type>
        <segno/>
        </direction-type>
        <sound segno="segno"/>
        </direction>
    <direction placement="above">
      <direction-type>
        <segno/>
        </direction-type>
        <sound segno="segno"/>
        </direction>
    <direction placement="above">
      <direction-type>
        <metronome parentheses="no">
          <beat-unit>quarter</beat-unit>
          <per-minute>84</per-minute>
          </metronome>
        </direction-type>
      <sound tempo="84"/>
      </direction>
 <direction placement="above">
   <direction-type>
     <words default-y="40" font-family="FreeSerif">Usul: Frenkçîn (12/4)</words>
     </direction-type>
   </direction>
  <note>
    <pitch>
      <step>F</step>
      <alter>-0.07547169</alter>
      <octave>5</octave>
      </pitch>
    <duration>384</duration>
    <type>half</type>
    <lyric number="1">
      <syllabic>single</syllabic>
      <text>ZİME</text>
    </lyric>
    <lyric number="2">
      <syllabic>single</syllabic>
      <text>^^</text>
    </lyric>
  </note>
  <note>
    <pitch>
      <step>F</step>
      <alter>-0.07547169</alter>
      <octave>5</octave>
      </pitch>
    <duration>96</duration>
    <type>eighth</type>
    <beam number="1">begin</beam>
  </note>
  <note>
    <pitch>
      <step>E</step>
      <alter>0.01886793</alter>
      <octave>5</octave>
      </pitch>
    <duration>96</duration>
    <type>eighth</type>
    <beam number="1">end</beam>
  </note>
  <note>
    <pitch>
      <step>F</step>
      <alter>-0.07547169</alter>
      <octave>5</octave>
      </pitch>
    <duration>384</duration>
    <type>half</type>
  </note>
    <direction placement="above">
      <direction-type>
        <wedge type="stop" number="1"/>
        </direction-type>
      </direction>
      <direction placement="above">
      <direction-type>
        <wedge type="diminuendo" number="1"/>
        </direction-type>
      </direction>
  <note>
    <pitch>
      <step>G</step>
      <alter>-0.03773585</alter>
      <octave>5</octave>
      </pitch>
    <duration>192</duration>
    <type>quarter</type>
  </note>
  <note>
    <pitch>
      <step>F</step>
      <alter>-0.07547169</alter>
      <octave>5</octave>
      </pitch>
    <duration>192</duration>
    <type>quarter</type>
  </note>
  <note>
    <pitch>
      <step>E</step>
      <alter>0.01886793</alter>
      <octave>5</octave>
      </pitch>
    <duration>192</duration>
    <type>quarter</type>
  </note>
  <note>
    <pitch>
      <step>D</step>
      <alter>-0.01886792</alter>
      <octave>5</octave>
      </pitch>
    <duration>192</duration>
    <type>quarter</type>
  </note>
    <direction placement="above">
      <direction-type>
        <wedge type="stop" number="1"/>
        </direction-type>
      </direction>
  <note>
    <pitch>
      <step>E</step>
      <alter>0.01886793</alter>
      <octave>5</octave>
      </pitch>
    <duration>96</duration>
    <type>eighth</type>
    <beam number="1">begin</beam>
  </note>
  <note>
    <pitch>
      <step>F</step>
      <alter>-0.07547169</alter>
      <octave>5</octave>
      </pitch>
    <duration>96</duration>
    <type>eighth</type>
    <beam number="1">continue</beam>
  </note>
  <note>
    <pitch>
      <step>E</step>
      <alter>0.01886793</alter>
      <octave>5</octave>
      </pitch>
    <duration>96</duration>
    <type>eighth</type>
    <beam number="1">continue</beam>
  </note>
  <note>
    <pitch>
      <step>D</step>
      <alter>-0.01886792</alter>
      <octave>5</octave>
      </pitch>
    <duration>96</duration>
    <type>eighth</type>
    <beam number="1">end</beam>
  </note>
</measure>
<measure number="2">
  <note>
    <pitch>
      <step>C</step>
      <alter>-0.05660377</alter>
      <octave>5</octave>
      </pitch>
    <duration>192</duration>
    <type>quarter</type>
  </note>
    <direction placement="above">
      <direction-type>
        <dynamics>
          <f/>
          </dynamics>
        </direction-type>
      <sound dynamics="140.00"/>
      </direction>
  <note>
    <pitch>
      <step>G</step>
      <alter>-0.03773585</alter>
      <octave>5</octave>
      </pitch>
    <duration>384</duration>
    <type>half</type>
  </note>
  <note>
    <pitch>
      <step>G</step>
      <alter>-0.03773585</alter>
      <octave>5</octave>
      </pitch>
    <duration>96</duration>
    <type>eighth</type>
    <beam number="1">begin</beam>
  </note>
  <note>
    <pitch>
      <step>F</step>
      <alter>0.83018868</alter>
      <octave>5</octave>
      </pitch>
    <duration>96</duration>
    <type>eighth</type>
    <accidental>sharp</accidental>
    <beam number="1">continue</beam>
  </note>
  <note>
    <pitch>
      <step>A</step>
      <alter>0.00000000</alter>
      <octave>5</octave>
      </pitch>
    <duration>96</duration>
    <type>eighth</type>
    <beam number="1">continue</beam>
  </note>
  <note>
    <pitch>
      <step>B</step>
      <alter>-1.09433962</alter>
      <octave>5</octave>
      </pitch>
    <duration>96</duration>
    <type>eighth</type>
    <beam number="1">continue</beam>
  </note>
  <note>
    <pitch>
      <step>A</step>
      <alter>0.00000000</alter>
      <octave>5</octave>
      </pitch>
    <duration>96</duration>
    <type>eighth</type>
    <beam number="1">continue</beam>
  </note>
  <note>
    <pitch>
      <step>G</step>
      <alter>-0.03773585</alter>
      <octave>5</octave>
      </pitch>
    <duration>96</duration>
    <type>eighth</type>
    <beam number="1">end</beam>
  </note>
  <note>
    <pitch>
      <step>F</step>
      <alter>-0.07547169</alter>
      <octave>5</octave>
      </pitch>
    <duration>96</duration>
    <type>eighth</type>
    <accidental>natural</accidental>
    <beam number="1">begin</beam>
  </note>
  <note>
    <pitch>
      <step>E</step>
      <alter>0.01886793</alter>
      <octave>5</octave>
      </pitch>
    <duration>96</duration>
    <type>eighth</type>
    <beam number="1">continue</beam>
  </note>
    <direction placement="above">
      <direction-type>
        <wedge type="crescendo" number="1"/>
        </direction-type>
      </direction>
  <note>
    <pitch>
      <step>D</step>
      <alter>-0.01886792</alter>
      <octave>5</octave>
      </pitch>
    <duration>96</duration>
    <type>eighth</type>
    <beam number="1">continue</beam>
  </note>
  <note>
    <pitch>
      <step>E</step>
      <alter>0.01886793</alter>
      <octave>5</octave>
      </pitch>
    <duration>96</duration>
    <type>eighth</type>
    <beam number="1">continue</beam>
  </note>
  <note>
    <pitch>
      <step>F</step>
      <alter>-0.07547169</alter>
      <octave>5</octave>
      </pitch>
    <duration>96</duration>
    <type>eighth</type>
    <beam number="1">continue</beam>
  </note>
  <note>
    <pitch>
      <step>E</step>
      <alter>0.01886793</alter>
      <octave>5</octave>
      </pitch>
    <duration>96</duration>
    <type>eighth</type>
    <beam number="1">end</beam>
  </note>
  <note>
    <pitch>
      <step>F</step>
      <alter>-0.07547169</alter>
      <octave>5</octave>
      </pitch>
    <duration>576</duration>
    <type>half</type><dot/>
  </note>
    <direction placement="above">
      <direction-type>
        <wedge type="stop" number="1"/>
        </direction-type>
      </direction>
</measure>
<measure number="3">
  <note>
    <pitch>
      <step>E</step>
      <alter>0.01886793</alter>
      <octave>5</octave>
      </pitch>
    <duration>192</duration>
    <type>quarter</type>
  </note>
    <direction placement="above">
      <direction-type>
        <dynamics>
          <p/>
          </dynamics>
        </direction-type>
      <sound dynamics="140.00"/>
      </direction>
  <note>
    <pitch>
      <step>F</step>
      <alter>-0.07547169</alter>
      <octave>5</octave>
      </pitch>
    <duration>384</duration>
    <type>half</type>
  </note>
  <note>
    <pitch>
      <step>F</step>
      <alter>-0.07547169</alter>
      <octave>5</octave>
      </pitch>
    <duration>96</duration>
    <type>eighth</type>
    <beam number="1">begin</beam>
  </note>
  <note>
    <pitch>
      <step>G</step>
      <alter>-0.03773585</alter>
      <octave>5</octave>
      </pitch>
    <duration>96</duration>
    <type>eighth</type>
    <beam number="1">end</beam>
  </note>
      <direction placement="above">
      <direction-type>
        <wedge type="diminuendo" number="1"/>
        </direction-type>
      </direction>
  <note>
    <pitch>
      <step>F</step>
      <alter>-0.07547169</alter>
      <octave>5</octave>
      </pitch>
    <duration>192</duration>
    <type>quarter</type>
  </note>
  <note>
    <pitch>
      <step>E</step>
      <alter>0.01886793</alter>
      <octave>5</octave>
      </pitch>
    <duration>192</duration>
    <type>quarter</type>
  </note>
  <note>
    <pitch>
      <step>D</step>
      <alter>-0.01886792</alter>
      <octave>5</octave>
      </pitch>
    <duration>192</duration>
    <type>quarter</type>
  </note>
  <note>
    <pitch>
      <step>F</step>
      <alter>-0.07547169</alter>
      <octave>5</octave>
      </pitch>
    <duration>192</duration>
    <type>quarter</type>
  </note>
  <note>
    <pitch>
      <step>E</step>
      <alter>0.01886793</alter>
      <octave>5</octave>
      </pitch>
    <duration>192</duration>
    <type>quarter</type>
  </note>
  <note>
    <pitch>
      <step>D</step>
      <alter>-0.01886792</alter>
      <octave>5</octave>
      </pitch>
    <duration>192</duration>
    <type>quarter</type>
  </note>
  <note>
    <pitch>
      <step>C</step>
      <alter>-0.05660377</alter>
      <octave>5</octave>
      </pitch>
    <duration>192</duration>
    <type>quarter</type>
  </note>
  <note>
    <pitch>
      <step>B</step>
      <alter>-1.09433962</alter>
      <octave>4</octave>
      </pitch>
    <duration>192</duration>
    <type>quarter</type>
  </note>
</measure>
<measure number="4">
  <note>
    <pitch>
      <step>A</step>
      <alter>0.00000000</alter>
      <octave>4</octave>
      </pitch>
    <duration>192</duration>
    <type>quarter</type>
  </note>
    <direction placement="above">
      <direction-type>
        <wedge type="stop" number="1"/>
        </direction-type>
      </direction>
    <direction placement="above">
      <direction-type>
        <dynamics>
          <p/>
          </dynamics>
        </direction-type>
      <sound dynamics="140.00"/>
      </direction>
  <note>
    <pitch>
      <step>D</step>
      <alter>-0.01886792</alter>
      <octave>5</octave>
      </pitch>
    <duration>384</duration>
    <type>half</type>
  </note>
  <note>
    <pitch>
      <step>C</step>
      <alter>-0.05660377</alter>
      <octave>5</octave>
      </pitch>
    <duration>96</duration>
    <type>eighth</type>
    <beam number="1">begin</beam>
  </note>
  <note>
    <pitch>
      <step>B</step>
      <alter>-1.09433962</alter>
      <octave>4</octave>
      </pitch>
    <duration>96</duration>
    <type>eighth</type>
    <beam number="1">end</beam>
  </note>
  <note>
    <pitch>
      <step>A</step>
      <alter>0.00000000</alter>
      <octave>4</octave>
      </pitch>
    <duration>288</duration>
    <type>quarter</type><dot/>
  </note>
  <note>
    <pitch>
      <step>G</step>
      <alter>-0.03773585</alter>
      <octave>4</octave>
      </pitch>
    <duration>96</duration>
    <type>eighth</type>
  </note>
  <note>
    <pitch>
      <step>A</step>
      <alter>0.00000000</alter>
      <octave>4</octave>
      </pitch>
    <duration>96</duration>
    <type>eighth</type>
    <beam number="1">begin</beam>
  </note>
  <note>
    <pitch>
      <step>B</step>
      <alter>-1.09433962</alter>
      <octave>4</octave>
      </pitch>
    <duration>96</duration>
    <type>eighth</type>
    <beam number="1">continue</beam>
  </note>
  <note>
    <pitch>
      <step>C</step>
      <alter>-0.05660377</alter>
      <octave>5</octave>
      </pitch>
    <duration>96</duration>
    <type>eighth</type>
    <beam number="1">continue</beam>
  </note>
  <note>
    <pitch>
      <step>D</step>
      <alter>-0.01886792</alter>
      <octave>5</octave>
      </pitch>
    <duration>96</duration>
    <type>eighth</type>
    <beam number="1">continue</beam>
  </note>
  <note>
    <pitch>
      <step>C</step>
      <alter>-0.05660377</alter>
      <octave>5</octave>
      </pitch>
    <duration>96</duration>
    <type>eighth</type>
    <beam number="1">continue</beam>
  </note>
  <note>
    <pitch>
      <step>B</step>
      <alter>-1.09433962</alter>
      <octave>4</octave>
      </pitch>
    <duration>96</duration>
    <type>eighth</type>
    <beam number="1">continue</beam>
  </note>
  <note>
    <pitch>
      <step>A</step>
      <alter>0.00000000</alter>
      <octave>4</octave>
      </pitch>
    <duration>96</duration>
    <type>eighth</type>
    <beam number="1">continue</beam>
  </note>
  <note>
    <pitch>
      <step>G</step>
      <alter>-0.03773585</alter>
      <octave>4</octave>
      </pitch>
    <duration>96</duration>
    <type>eighth</type>
    <beam number="1">continue</beam>
  </note>
  <note>
    <pitch>
      <step>F</step>
      <alter>-0.07547169</alter>
      <octave>4</octave>
      </pitch>
    <duration>96</duration>
    <type>eighth</type>
    <beam number="1">continue</beam>
  </note>
  <note>
    <pitch>
      <step>E</step>
      <alter>0.01886793</alter>
      <octave>4</octave>
      </pitch>
    <duration>96</duration>
    <type>eighth</type>
    <beam number="1">end</beam>
  </note>
    <direction placement="above">
      <direction-type>
        <dynamics>
          <pp/>
          </dynamics>
        </direction-type>
      <sound dynamics="140.00"/>
      </direction>
  <note>
    <pitch>
      <step>F</step>
      <alter>-0.07547169</alter>
      <octave>4</octave>
      </pitch>
    <duration>192</duration>
    <type>quarter</type>
  </note>
     <direction placement="below">
      <direction-type>
        <words>[SON]</words>
        </direction-type>
        </direction>
</measure>
<measure number="5">
    <barline location="left">
      <bar-style>heavy-light</bar-style>
        <repeat direction="forward"/>
        </barline>
    <direction placement="above">
      <direction-type>
        <dynamics>
          <f/>
          </dynamics>
        </direction-type>
      <sound dynamics="140.00"/>
      </direction>
  <note>
    <pitch>
      <step>B</step>
      <alter>-0.41509434</alter>
      <octave>4</octave>
      </pitch>
    <duration>192</duration>
    <type>quarter</type>
    <accidental>quarter-flat</accidental>
    <lyric number="1">
      <syllabic>single</syllabic>
      <text>2. HANE</text>
    </lyric>
    <lyric number="2">
      <syllabic>single</syllabic>
      <text>^</text>
    </lyric>
  </note>
    <direction placement="above">
      <direction-type>
        <dynamics>
          <f/>
          </dynamics>
        </direction-type>
      <sound dynamics="140.00"/>
      </direction>
  <note>
    <pitch>
      <step>C</step>
      <alter>-0.05660377</alter>
      <octave>5</octave>
      </pitch>
    <duration>384</duration>
    <type>half</type>
  </note>
    <direction placement="above">
      <direction-type>
        <dynamics>
          <p/>
          </dynamics>
        </direction-type>
      <sound dynamics="140.00"/>
      </direction>
  <note>
    <pitch>
      <step>D</step>
      <alter>-0.69811320</alter>
      <octave>5</octave>
      </pitch>
    <duration>96</duration>
    <type>eighth</type>
    <accidental>slash-flat</accidental>
    <beam number="1">begin</beam>
  </note>
    <direction placement="above">
      <direction-type>
        <dynamics>
          <p/>
          </dynamics>
        </direction-type>
      <sound dynamics="140.00"/>
      </direction>
  <note>
    <pitch>
      <step>B</step>
      <alter>-0.18867924</alter>
      <octave>4</octave>
      </pitch>
    <duration>96</duration>
    <type>eighth</type>
    <beam number="1">end</beam>
  </note>
    <direction placement="above">
      <direction-type>
        <dynamics>
          <p/>
          </dynamics>
        </direction-type>
      <sound dynamics="140.00"/>
      </direction>
  <note>
    <pitch>
      <step>C</step>
      <alter>-0.05660377</alter>
      <octave>5</octave>
      </pitch>
    <duration>384</duration>
    <type>half</type>
  </note>
    <direction placement="above">
      <direction-type>
        <wedge type="crescendo" number="1"/>
        </direction-type>
      </direction>
  <note>
    <pitch>
      <step>C</step>
      <alter>-0.05660377</alter>
      <octave>5</octave>
      </pitch>
    <duration>96</duration>
    <type>eighth</type>
    <beam number="1">begin</beam>
  </note>
  <note>
    <pitch>
      <step>D</step>
      <alter>-0.69811320</alter>
      <octave>5</octave>
      </pitch>
    <duration>96</duration>
    <type>eighth</type>
    <beam number="1">continue</beam>
  </note>
  <note>
    <pitch>
      <step>E</step>
      <alter>0.01886793</alter>
      <octave>5</octave>
      </pitch>
    <duration>96</duration>
    <type>eighth</type>
    <beam number="1">continue</beam>
  </note>
  <note>
    <pitch>
      <step>F</step>
      <alter>-0.07547169</alter>
      <octave>5</octave>
      </pitch>
    <duration>96</duration>
    <type>eighth</type>
    <beam number="1">continue</beam>
  </note>
    <direction placement="above">
      <direction-type>
        <wedge type="stop" number="1"/>
        </direction-type>
      </direction>
      <direction placement="above">
      <direction-type>
        <wedge type="diminuendo" number="1"/>
        </direction-type>
      </direction>
  <note>
    <pitch>
      <step>E</step>
      <alter>0.01886793</alter>
      <octave>5</octave>
      </pitch>
    <duration>96</duration>
    <type>eighth</type>
    <beam number="1">continue</beam>
  </note>
  <note>
    <pitch>
      <step>D</step>
      <alter>-0.69811320</alter>
      <octave>5</octave>
      </pitch>
    <duration>96</duration>
    <type>eighth</type>
    <beam number="1">continue</beam>
  </note>
  <note>
    <pitch>
      <step>C</step>
      <alter>-0.05660377</alter>
      <octave>5</octave>
      </pitch>
    <duration>96</duration>
    <type>eighth</type>
    <beam number="1">continue</beam>
  </note>
  <note>
    <pitch>
      <step>D</step>
      <alter>-0.69811320</alter>
      <octave>5</octave>
      </pitch>
    <duration>96</duration>
    <type>eighth</type>
    <beam number="1">continue</beam>
  </note>
  <note>
    <pitch>
      <step>C</step>
      <alter>-0.05660377</alter>
      <octave>5</octave>
      </pitch>
    <duration>96</duration>
    <type>eighth</type>
    <beam number="1">continue</beam>
  </note>
  <note>
    <pitch>
      <step>B</step>
      <alter>-0.18867924</alter>
      <octave>4</octave>
      </pitch>
    <duration>96</duration>
    <type>eighth</type>
    <beam number="1">continue</beam>
  </note>
  <note>
    <pitch>
      <step>A</step>
      <alter>0.00000000</alter>
      <octave>4</octave>
      </pitch>
    <duration>96</duration>
    <type>eighth</type>
    <beam number="1">continue</beam>
  </note>
  <note>
    <pitch>
      <step>G</step>
      <alter>-0.03773585</alter>
      <octave>4</octave>
      </pitch>
    <duration>96</duration>
    <type>eighth</type>
    <beam number="1">end</beam>
  </note>
    <direction placement="above">
      <direction-type>
        <wedge type="stop" number="1"/>
        </direction-type>
      </direction>
</measure>
<measure number="6">
  <note>
    <pitch>
      <step>C</step>
      <alter>-0.05660377</alter>
      <octave>5</octave>
      </pitch>
    <duration>192</duration>
    <type>quarter</type>
  </note>
    <direction placement="above">
      <direction-type>
        <dynamics>
          <p/>
          </dynamics>
        </direction-type>
      <sound dynamics="140.00"/>
      </direction>
  <note>
    <pitch>
      <step>C</step>
      <alter>-0.05660377</alter>
      <octave>5</octave>
      </pitch>
    <duration>384</duration>
    <type>half</type>
  </note>
  <note>
    <pitch>
      <step>D</step>
      <alter>-0.69811320</alter>
      <octave>5</octave>
      </pitch>
    <duration>96</duration>
    <type>eighth</type>
    <accidental>slash-flat</accidental>
    <beam number="1">begin</beam>
  </note>
  <note>
    <pitch>
      <step>B</step>
      <alter>-0.41509434</alter>
      <octave>4</octave>
      </pitch>
    <duration>96</duration>
    <type>eighth</type>
    <accidental>quarter-flat</accidental>
    <beam number="1">end</beam>
  </note>
  <note>
    <pitch>
      <step>C</step>
      <alter>-0.05660377</alter>
      <octave>5</octave>
      </pitch>
    <duration>384</duration>
    <type>half</type>
  </note>
    <direction placement="above">
      <direction-type>
        <wedge type="crescendo" number="1"/>
        </direction-type>
      </direction>
  <note>
    <pitch>
      <step>C</step>
      <alter>-0.05660377</alter>
      <octave>5</octave>
      </pitch>
    <duration>96</duration>
    <type>eighth</type>
    <beam number="1">begin</beam>
  </note>
  <note>
    <pitch>
      <step>D</step>
      <alter>-0.69811320</alter>
      <octave>5</octave>
      </pitch>
    <duration>96</duration>
    <type>eighth</type>
    <beam number="1">continue</beam>
  </note>
  <note>
    <pitch>
      <step>E</step>
      <alter>0.01886793</alter>
      <octave>5</octave>
      </pitch>
    <duration>96</duration>
    <type>eighth</type>
    <beam number="1">continue</beam>
  </note>
  <note>
    <pitch>
      <step>F</step>
      <alter>-0.07547169</alter>
      <octave>5</octave>
      </pitch>
    <duration>96</duration>
    <type>eighth</type>
    <beam number="1">continue</beam>
  </note>
  <note>
    <pitch>
      <step>G</step>
      <alter>-0.03773585</alter>
      <octave>5</octave>
      </pitch>
    <duration>96</duration>
    <type>eighth</type>
    <beam number="1">continue</beam>
  </note>
    <direction placement="above">
      <direction-type>
        <wedge type="stop" number="1"/>
        </direction-type>
      </direction>
  <note>
    <pitch>
      <step>A</step>
      <alter>-0.90566037</alter>
      <octave>5</octave>
      </pitch>
    <duration>96</duration>
    <type>eighth</type>
    <accidental>slash-flat</accidental>
    <beam number="1">continue</beam>
  </note>
  <note>
    <pitch>
      <step>G</step>
      <alter>-0.03773585</alter>
      <octave>5</octave>
      </pitch>
    <duration>96</duration>
    <type>eighth</type>
    <beam number="1">continue</beam>
  </note>
  <note>
    <pitch>
      <step>F</step>
      <alter>-0.07547169</alter>
      <octave>5</octave>
      </pitch>
    <duration>96</duration>
    <type>eighth</type>
    <beam number="1">continue</beam>
  </note>
  <note>
    <pitch>
      <step>E</step>
      <alter>0.01886793</alter>
      <octave>5</octave>
      </pitch>
    <duration>96</duration>
    <type>eighth</type>
    <beam number="1">continue</beam>
  </note>
  <note>
    <pitch>
      <step>F</step>
      <alter>-0.07547169</alter>
      <octave>5</octave>
      </pitch>
    <duration>96</duration>
    <type>eighth</type>
    <beam number="1">continue</beam>
  </note>
  <note>
    <pitch>
      <step>E</step>
      <alter>0.01886793</alter>
      <octave>5</octave>
      </pitch>
    <duration>96</duration>
    <type>eighth</type>
    <beam number="1">continue</beam>
  </note>
</measure>
<measure number="7">
  <note>
    <pitch>
      <step>D</step>
      <alter>-0.69811320</alter>
      <octave>5</octave>
      </pitch>
    <duration>96</duration>
    <type>eighth</type>
    <accidental>slash-flat</accidental>
    <beam number="1">end</beam>
  </note>
  <note>
    <pitch>
      <step>C</step>
      <alter>-0.05660377</alter>
      <octave>5</octave>
      </pitch>
    <duration>192</duration>
    <type>quarter</type>
  </note>
      <direction placement="above">
      <direction-type>
        <wedge type="diminuendo" number="1"/>
        </direction-type>
      </direction>
  <note>
    <pitch>
      <step>F</step>
      <alter>-0.07547169</alter>
      <octave>5</octave>
      </pitch>
    <duration>384</duration>
    <type>half</type>
  </note>
  <note>
    <pitch>
      <step>F</step>
      <alter>-0.07547169</alter>
      <octave>5</octave>
      </pitch>
    <duration>96</duration>
    <type>eighth</type>
    <beam number="1">begin</beam>
  </note>
  <note>
    <pitch>
      <step>E</step>
      <alter>0.01886793</alter>
      <octave>5</octave>
      </pitch>
    <duration>96</duration>
    <type>eighth</type>
    <beam number="1">end</beam>
  </note>
  <note>
    <pitch>
      <step>F</step>
      <alter>-0.07547169</alter>
      <octave>5</octave>
      </pitch>
    <duration>384</duration>
    <type>half</type>
  </note>
  <note>
    <pitch>
      <step>E</step>
      <alter>0.01886793</alter>
      <octave>5</octave>
      </pitch>
    <duration>192</duration>
    <type>quarter</type>
  </note>
  <note>
    <pitch>
      <step>D</step>
      <alter>-0.01886792</alter>
      <octave>5</octave>
      </pitch>
    <duration>192</duration>
    <type>quarter</type>
    <accidental>natural</accidental>
  </note>
  <note>
    <pitch>
      <step>C</step>
      <alter>-0.05660377</alter>
      <octave>5</octave>
      </pitch>
    <duration>192</duration>
    <type>quarter</type>
  </note>
  <note>
    <pitch>
      <step>B</step>
      <alter>-1.09433962</alter>
      <octave>4</octave>
      </pitch>
    <duration>192</duration>
    <type>quarter</type>
  </note>
  <note>
    <pitch>
      <step>A</step>
      <alter>0.00000000</alter>
      <octave>4</octave>
      </pitch>
    <duration>192</duration>
    <type>quarter</type>
  </note>
</measure>
<measure number="8">
  <note>
    <pitch>
      <step>G</step>
      <alter>-0.03773585</alter>
      <octave>4</octave>
      </pitch>
    <duration>192</duration>
    <type>quarter</type>
  </note>
  <note>
    <pitch>
      <step>F</step>
      <alter>-0.07547169</alter>
      <octave>4</octave>
      </pitch>
    <duration>192</duration>
    <type>quarter</type>
  </note>
    <direction placement="above">
      <direction-type>
        <wedge type="stop" number="1"/>
        </direction-type>
      </direction>
  <note>
    <pitch>
      <step>A</step>
      <alter>0.00000000</alter>
      <octave>4</octave>
      </pitch>
    <duration>384</duration>
    <type>half</type>
  </note>
  <note>
    <pitch>
      <step>C</step>
      <alter>-0.05660377</alter>
      <octave>5</octave>
      </pitch>
    <duration>192</duration>
    <type>quarter</type>
  </note>
    <direction placement="above">
      <direction-type>
        <dynamics>
          <f/>
          </dynamics>
        </direction-type>
      <sound dynamics="140.00"/>
      </direction>
  <note>
    <pitch>
      <step>F</step>
      <alter>-0.07547169</alter>
      <octave>5</octave>
      </pitch>
    <duration>384</duration>
    <type>half</type>
  </note>
  <note>
    <pitch>
      <step>G</step>
      <alter>-0.03773585</alter>
      <octave>5</octave>
      </pitch>
    <duration>96</duration>
    <type>eighth</type>
    <beam number="1">begin</beam>
  </note>
  <note>
    <pitch>
      <step>F</step>
      <alter>-0.07547169</alter>
      <octave>5</octave>
      </pitch>
    <duration>96</duration>
    <type>eighth</type>
    <beam number="1">continue</beam>
  </note>
  <note>
    <pitch>
      <step>E</step>
      <alter>0.01886793</alter>
      <octave>5</octave>
      </pitch>
    <duration>96</duration>
    <type>eighth</type>
    <beam number="1">continue</beam>
  </note>
  <note>
    <pitch>
      <step>D</step>
      <alter>-0.01886792</alter>
      <octave>5</octave>
      </pitch>
    <duration>96</duration>
    <type>eighth</type>
    <beam number="1">end</beam>
  </note>
  <note>
    <pitch>
      <step>C</step>
      <alter>-0.05660377</alter>
      <octave>5</octave>
      </pitch>
    <duration>192</duration>
    <type>quarter</type>
  </note>
  <note>
    <pitch>
      <step>D</step>
      <alter>-0.01886792</alter>
      <octave>5</octave>
      </pitch>
    <duration>96</duration>
    <type>eighth</type>
    <beam number="1">begin</beam>
  </note>
  <note>
    <pitch>
      <step>E</step>
      <alter>0.01886793</alter>
      <octave>5</octave>
      </pitch>
    <duration>96</duration>
    <type>eighth</type>
    <beam number="1">continue</beam>
  </note>
  <note>
    <pitch>
      <step>F</step>
      <alter>-0.07547169</alter>
      <octave>5</octave>
      </pitch>
    <duration>96</duration>
    <type>eighth</type>
    <beam number="1">continue</beam>
  </note>
  <note>
    <pitch>
      <step>E</step>
      <alter>0.01886793</alter>
      <octave>5</octave>
      </pitch>
    <duration>96</duration>
    <type>eighth</type>
    <beam number="1">end</beam>
  </note>
</measure>
<measure number="9">
  <note>
    <pitch>
      <step>F</step>
      <alter>-0.07547169</alter>
      <octave>5</octave>
      </pitch>
    <duration>192</duration>
    <type>quarter</type>
  </note>
    <barline location="right">
      <bar-style>light-heavy</bar-style>
        <repeat direction="backward"/>
        </barline>
     <direction placement="above">
      <direction-type>
        <words>D.S.</words>
        </direction-type>
        <sound dalsegno="segno"/>
        </direction>
    <barline location="left">
      <bar-style>heavy-light</bar-style>
        <repeat direction="forward"/>
        </barline>
      <direction placement="above">
      <direction-type>
        <wedge type="diminuendo" number="1"/>
        </direction-type>
      </direction>
  <note>
    <pitch>
      <step>G</step>
      <alter>-0.03773585</alter>
      <octave>5</octave>
      </pitch>
    <duration>192</duration>
    <type>quarter</type>
    <lyric number="1">
      <syllabic>single</syllabic>
      <text>3. HANE</text>
    </lyric>
    <lyric number="2">
      <syllabic>single</syllabic>
      <text>^</text>
    </lyric>
  </note>
  <note>
    <pitch>
      <step>A</step>
      <alter>0.00000000</alter>
      <octave>5</octave>
      </pitch>
    <duration>384</duration>
    <type>half</type>
  </note>
  <note>
    <pitch>
      <step>A</step>
      <alter>0.00000000</alter>
      <octave>5</octave>
      </pitch>
    <duration>96</duration>
    <type>eighth</type>
    <beam number="1">begin</beam>
  </note>
  <note>
    <pitch>
      <step>B</step>
      <alter>-1.09433962</alter>
      <octave>5</octave>
      </pitch>
    <duration>96</duration>
    <type>eighth</type>
    <beam number="1">end</beam>
  </note>
  <note>
    <pitch>
      <step>A</step>
      <alter>0.00000000</alter>
      <octave>5</octave>
      </pitch>
    <duration>192</duration>
    <type>quarter</type>
  </note>
  <note>
    <pitch>
      <step>G</step>
      <alter>-0.03773585</alter>
      <octave>5</octave>
      </pitch>
    <duration>192</duration>
    <type>quarter</type>
  </note>
  <note>
    <pitch>
      <step>F</step>
      <alter>-0.07547169</alter>
      <octave>5</octave>
      </pitch>
    <duration>192</duration>
    <type>quarter</type>
  </note>
  <note>
    <pitch>
      <step>E</step>
      <alter>0.01886793</alter>
      <octave>5</octave>
      </pitch>
    <duration>192</duration>
    <type>quarter</type>
  </note>
  <note>
    <pitch>
      <step>D</step>
      <alter>-0.01886792</alter>
      <octave>5</octave>
      </pitch>
    <duration>192</duration>
    <type>quarter</type>
  </note>
  <note>
    <pitch>
      <step>C</step>
      <alter>0.84905661</alter>
      <octave>5</octave>
      </pitch>
    <duration>192</duration>
    <type>quarter</type>
    <accidental>sharp</accidental>
  </note>
</measure>
<measure number="10">
  <note>
    <pitch>
      <step>D</step>
      <alter>-0.01886792</alter>
      <octave>5</octave>
      </pitch>
    <duration>384</duration>
    <type>half</type>
  </note>
    <direction placement="above">
      <direction-type>
        <wedge type="stop" number="1"/>
        </direction-type>
      </direction>
    <direction placement="above">
      <direction-type>
        <wedge type="crescendo" number="1"/>
        </direction-type>
      </direction>
  <note>
    <pitch>
      <step>A</step>
      <alter>0.00000000</alter>
      <octave>5</octave>
      </pitch>
    <duration>192</duration>
    <type>quarter</type>
  </note>
  <note>
    <pitch>
      <step>B</step>
      <alter>-1.09433962</alter>
      <octave>5</octave>
      </pitch>
    <duration>384</duration>
    <type>half</type>
  </note>
  <note>
    <pitch>
      <step>C</step>
      <alter>-0.05660377</alter>
      <octave>6</octave>
      </pitch>
    <duration>96</duration>
    <type>eighth</type>
    <beam number="1">begin</beam>
  </note>
  <note>
    <pitch>
      <step>D</step>
      <alter>-0.01886792</alter>
      <octave>6</octave>
      </pitch>
    <duration>96</duration>
    <type>eighth</type>
    <beam number="1">end</beam>
  </note>
    <direction placement="above">
      <direction-type>
        <wedge type="stop" number="1"/>
        </direction-type>
      </direction>
  <note>
    <pitch>
      <step>C</step>
      <alter>-0.05660377</alter>
      <octave>6</octave>
      </pitch>
    <duration>192</duration>
    <type>quarter</type>
  </note>
  <note>
    <pitch>
      <step>B</step>
      <alter>-1.09433962</alter>
      <octave>5</octave>
      </pitch>
    <duration>192</duration>
    <type>quarter</type>
  </note>
  <note>
    <pitch>
      <step>A</step>
      <alter>0.00000000</alter>
      <octave>5</octave>
      </pitch>
    <duration>96</duration>
    <type>eighth</type>
    <beam number="1">begin</beam>
  </note>
  <note>
    <pitch>
      <step>B</step>
      <alter>-1.09433962</alter>
      <octave>5</octave>
      </pitch>
    <duration>96</duration>
    <type>eighth</type>
    <beam number="1">continue</beam>
  </note>
  <note>
    <pitch>
      <step>A</step>
      <alter>0.00000000</alter>
      <octave>5</octave>
      </pitch>
    <duration>96</duration>
    <type>eighth</type>
    <beam number="1">continue</beam>
  </note>
  <note>
    <pitch>
      <step>G</step>
      <alter>-0.03773585</alter>
      <octave>5</octave>
      </pitch>
    <duration>96</duration>
    <type>eighth</type>
    <beam number="1">continue</beam>
  </note>
  <note>
    <pitch>
      <step>F</step>
      <alter>-0.07547169</alter>
      <octave>5</octave>
      </pitch>
    <duration>96</duration>
    <type>eighth</type>
    <beam number="1">continue</beam>
  </note>
  <note>
    <pitch>
      <step>E</step>
      <alter>0.01886793</alter>
      <octave>5</octave>
      </pitch>
    <duration>96</duration>
    <type>eighth</type>
    <beam number="1">continue</beam>
  </note>
  <note>
    <pitch>
      <step>F</step>
      <alter>-0.07547169</alter>
      <octave>5</octave>
      </pitch>
    <duration>96</duration>
    <type>eighth</type>
    <beam number="1">continue</beam>
  </note>
  <note>
    <pitch>
      <step>G</step>
      <alter>-0.03773585</alter>
      <octave>5</octave>
      </pitch>
    <duration>96</duration>
    <type>eighth</type>
    <beam number="1">continue</beam>
  </note>
  <note>
    <pitch>
      <step>A</step>
      <alter>0.00000000</alter>
      <octave>5</octave>
      </pitch>
    <duration>96</duration>
    <type>eighth</type>
    <beam number="1">continue</beam>
  </note>
  <note>
    <pitch>
      <step>G</step>
      <alter>-0.03773585</alter>
      <octave>5</octave>
      </pitch>
    <duration>96</duration>
    <type>eighth</type>
    <beam number="1">end</beam>
  </note>
  <note>
    <pitch>
      <step>A</step>
      <alter>0.00000000</alter>
      <octave>5</octave>
      </pitch>
    <duration>192</duration>
    <type>quarter</type>
  </note>
</measure>
<measure number="11">
  <note>
    <pitch>
      <step>F</step>
      <alter>-0.07547169</alter>
      <octave>5</octave>
      </pitch>
    <duration>192</duration>
    <type>quarter</type>
  </note>
  <note>
    <pitch>
      <step>G</step>
      <alter>-0.03773585</alter>
      <octave>5</octave>
      </pitch>
    <duration>384</duration>
    <type>half</type>
  </note>
  <note>
    <pitch>
      <step>G</step>
      <alter>-0.03773585</alter>
      <octave>5</octave>
      </pitch>
    <duration>96</duration>
    <type>eighth</type>
    <beam number="1">begin</beam>
  </note>
  <note>
    <pitch>
      <step>A</step>
      <alter>-0.90566037</alter>
      <octave>5</octave>
      </pitch>
    <duration>96</duration>
    <type>eighth</type>
    <accidental>slash-flat</accidental>
    <beam number="1">end</beam>
  </note>
  <note>
    <pitch>
      <step>G</step>
      <alter>-0.03773585</alter>
      <octave>5</octave>
      </pitch>
    <duration>192</duration>
    <type>quarter</type>
  </note>
  <note>
    <pitch>
      <step>F</step>
      <alter>-0.07547169</alter>
      <octave>5</octave>
      </pitch>
    <duration>192</duration>
    <type>quarter</type>
  </note>
  <note>
    <pitch>
      <step>E</step>
      <alter>0.01886793</alter>
      <octave>5</octave>
      </pitch>
    <duration>192</duration>
    <type>quarter</type>
  </note>
  <note>
    <pitch>
      <step>D</step>
      <alter>-0.69811320</alter>
      <octave>5</octave>
      </pitch>
    <duration>192</duration>
    <type>quarter</type>
    <accidental>slash-flat</accidental>
  </note>
  <note>
    <pitch>
      <step>C</step>
      <alter>-0.05660377</alter>
      <octave>5</octave>
      </pitch>
    <duration>192</duration>
    <type>quarter</type>
  </note>
  <note>
    <pitch>
      <step>B</step>
      <alter>-0.41509434</alter>
      <octave>4</octave>
      </pitch>
    <duration>192</duration>
    <type>quarter</type>
    <accidental>quarter-flat</accidental>
  </note>
    <direction placement="above">
      <direction-type>
        <dynamics>
          <p/>
          </dynamics>
        </direction-type>
      <sound dynamics="140.00"/>
      </direction>
  <note>
    <pitch>
      <step>C</step>
      <alter>-0.05660377</alter>
      <octave>5</octave>
      </pitch>
    <duration>384</duration>
    <type>half</type>
  </note>
</measure>
<measure number="12">
  <note>
    <pitch>
      <step>F</step>
      <alter>-0.07547169</alter>
      <octave>5</octave>
      </pitch>
    <duration>96</duration>
    <type>eighth</type>
    <beam number="1">begin</beam>
  </note>
  <note>
    <pitch>
      <step>E</step>
      <alter>0.01886793</alter>
      <octave>5</octave>
      </pitch>
    <duration>96</duration>
    <type>eighth</type>
    <beam number="1">end</beam>
  </note>
    <direction placement="above">
      <direction-type>
        <dynamics>
          <f/>
          </dynamics>
        </direction-type>
      <sound dynamics="140.00"/>
      </direction>
  <note>
    <pitch>
      <step>F</step>
      <alter>-0.07547169</alter>
      <octave>5</octave>
      </pitch>
    <duration>384</duration>
    <type>half</type>
  </note>
  <note>
    <pitch>
      <step>E</step>
      <alter>0.01886793</alter>
      <octave>5</octave>
      </pitch>
    <duration>192</duration>
    <type>quarter</type>
  </note>
  <note>
    <pitch>
      <step>F</step>
      <alter>-0.07547169</alter>
      <octave>5</octave>
      </pitch>
    <duration>192</duration>
    <type>quarter</type>
  </note>
  <note>
    <pitch>
      <step>G</step>
      <alter>-0.03773585</alter>
      <octave>5</octave>
      </pitch>
    <duration>192</duration>
    <type>quarter</type>
  </note>
      <direction placement="above">
      <direction-type>
        <wedge type="diminuendo" number="1"/>
        </direction-type>
      </direction>
  <note>
    <pitch>
      <step>C</step>
      <alter>-0.05660377</alter>
      <octave>6</octave>
      </pitch>
    <duration>96</duration>
    <type>eighth</type>
    <beam number="1">begin</beam>
  </note>
  <note>
    <pitch>
      <step>B</step>
      <alter>-0.18867924</alter>
      <octave>5</octave>
      </pitch>
    <duration>96</duration>
    <type>eighth</type>
    <accidental>quarter-flat</accidental>
    <beam number="1">continue</beam>
  </note>
  <note>
    <pitch>
      <step>A</step>
      <alter>-0.90566037</alter>
      <octave>5</octave>
      </pitch>
    <duration>96</duration>
    <type>eighth</type>
    <accidental>slash-flat</accidental>
    <beam number="1">continue</beam>
  </note>
  <note>
    <pitch>
      <step>G</step>
      <alter>-0.03773585</alter>
      <octave>5</octave>
      </pitch>
    <duration>96</duration>
    <type>eighth</type>
    <beam number="1">continue</beam>
  </note>
  <note>
    <pitch>
      <step>F</step>
      <alter>-0.07547169</alter>
      <octave>5</octave>
      </pitch>
    <duration>96</duration>
    <type>eighth</type>
    <beam number="1">continue</beam>
  </note>
  <note>
    <pitch>
      <step>E</step>
      <alter>0.01886793</alter>
      <octave>5</octave>
      </pitch>
    <duration>96</duration>
    <type>eighth</type>
    <beam number="1">continue</beam>
  </note>
  <note>
    <pitch>
      <step>D</step>
      <alter>-0.01886792</alter>
      <octave>5</octave>
      </pitch>
    <duration>96</duration>
    <type>eighth</type>
    <beam number="1">continue</beam>
  </note>
    <direction placement="above">
      <direction-type>
        <wedge type="stop" number="1"/>
        </direction-type>
      </direction>
  <note>
    <pitch>
      <step>E</step>
      <alter>0.01886793</alter>
      <octave>5</octave>
      </pitch>
    <duration>96</duration>
    <type>eighth</type>
    <beam number="1">continue</beam>
  </note>
  <note>
    <pitch>
      <step>F</step>
      <alter>-0.07547169</alter>
      <octave>5</octave>
      </pitch>
    <duration>96</duration>
    <type>eighth</type>
    <beam number="1">continue</beam>
  </note>
  <note>
    <pitch>
      <step>E</step>
      <alter>0.01886793</alter>
      <octave>5</octave>
      </pitch>
    <duration>96</duration>
    <type>eighth</type>
    <beam number="1">end</beam>
  </note>
    <direction placement="above">
      <direction-type>
        <dynamics>
          <p/>
          </dynamics>
        </direction-type>
      <sound dynamics="140.00"/>
      </direction>
  <note>
    <pitch>
      <step>F</step>
      <alter>-0.07547169</alter>
      <octave>5</octave>
      </pitch>
    <duration>192</duration>
    <type>quarter</type>
  </note>
    <barline location="right">
      <bar-style>light-heavy</bar-style>
        <repeat direction="backward"/>
        </barline>
    <attributes>
      <divisions>192</divisions>
      <time>
        <beats>12</beats>
        <beat-type>4</beat-type>
      </time>
      </attributes>
</measure>
<measure number="13">
    <barline location="left">
      <bar-style>heavy-light</bar-style>
        <repeat direction="forward"/>
        </barline>
    <direction placement="above">
      <direction-type>
        <metronome parentheses="no">
          <beat-unit>quarter</beat-unit>
          <per-minute>0</per-minute>
          </metronome>
        </direction-type>
      <sound tempo="0"/>
      </direction>
 <direction placement="above">
   <direction-type>
     <words default-y="40" font-family="FreeSerif">Usul: Frenkçîn (12/4)</words>
     </direction-type>
   </direction>
  <note>
    <pitch>
      <step>C</step>
      <alter>-0.05660377</alter>
      <octave>5</octave>
      </pitch>
    <duration>192</duration>
    <type>quarter</type>
    <lyric number="1">
      <syllabic>single</syllabic>
      <text>4. HANE</text>
    </lyric>
    <lyric number="2">
      <syllabic>single</syllabic>
      <text>^</text>
    </lyric>
  </note>
  <note>
    <pitch>
      <step>F</step>
      <alter>-0.07547169</alter>
      <octave>5</octave>
      </pitch>
    <duration>96</duration>
    <type>eighth</type>
    <beam number="1">begin</beam>
  </note>
  <note>
    <pitch>
      <step>E</step>
      <alter>0.01886793</alter>
      <octave>5</octave>
      </pitch>
    <duration>96</duration>
    <type>eighth</type>
    <beam number="1">continue</beam>
  </note>
  <note>
    <pitch>
      <step>D</step>
      <alter>-0.01886792</alter>
      <octave>5</octave>
      </pitch>
    <duration>96</duration>
    <type>eighth</type>
    <beam number="1">continue</beam>
  </note>
  <note>
    <pitch>
      <step>C</step>
      <alter>-0.05660377</alter>
      <octave>5</octave>
      </pitch>
    <duration>96</duration>
    <type>eighth</type>
    <beam number="1">continue</beam>
  </note>
  <note>
    <pitch>
      <step>D</step>
      <alter>-0.01886792</alter>
      <octave>5</octave>
      </pitch>
    <duration>96</duration>
    <type>eighth</type>
    <beam number="1">continue</beam>
  </note>
  <note>
    <pitch>
      <step>E</step>
      <alter>0.01886793</alter>
      <octave>5</octave>
      </pitch>
    <duration>96</duration>
    <type>eighth</type>
    <beam number="1">end</beam>
  </note>
  <note>
    <pitch>
      <step>F</step>
      <alter>-0.07547169</alter>
      <octave>5</octave>
      </pitch>
    <duration>384</duration>
    <type>half</type>
  </note>
      <direction placement="above">
      <direction-type>
        <wedge type="diminuendo" number="1"/>
        </direction-type>
      </direction>
  <note>
    <pitch>
      <step>E</step>
      <alter>0.01886793</alter>
      <octave>5</octave>
      </pitch>
    <duration>96</duration>
    <type>eighth</type>
    <beam number="1">begin</beam>
  </note>
  <note>
    <pitch>
      <step>D</step>
      <alter>-0.01886792</alter>
      <octave>5</octave>
      </pitch>
    <duration>96</duration>
    <type>eighth</type>
    <beam number="1">continue</beam>
  </note>
  <note>
    <pitch>
      <step>C</step>
      <alter>-0.05660377</alter>
      <octave>5</octave>
      </pitch>
    <duration>96</duration>
    <type>eighth</type>
    <beam number="1">continue</beam>
  </note>
  <note>
    <pitch>
      <step>D</step>
      <alter>-0.01886792</alter>
      <octave>5</octave>
      </pitch>
    <duration>96</duration>
    <type>eighth</type>
    <beam number="1">continue</beam>
  </note>
  <note>
    <pitch>
      <step>C</step>
      <alter>-0.05660377</alter>
      <octave>5</octave>
      </pitch>
    <duration>96</duration>
    <type>eighth</type>
    <beam number="1">continue</beam>
  </note>
  <note>
    <pitch>
      <step>B</step>
      <alter>-1.09433962</alter>
      <octave>4</octave>
      </pitch>
    <duration>96</duration>
    <type>eighth</type>
    <beam number="1">continue</beam>
  </note>
  <note>
    <pitch>
      <step>A</step>
      <alter>0.00000000</alter>
      <octave>4</octave>
      </pitch>
    <duration>96</duration>
    <type>eighth</type>
    <beam number="1">continue</beam>
  </note>
  <note>
    <pitch>
      <step>G</step>
      <alter>-0.03773585</alter>
      <octave>4</octave>
      </pitch>
    <duration>96</duration>
    <type>eighth</type>
    <beam number="1">end</beam>
  </note>
  <note>
    <pitch>
      <step>F</step>
      <alter>-0.07547169</alter>
      <octave>4</octave>
      </pitch>
    <duration>192</duration>
    <type>quarter</type>
  </note>
    <direction placement="above">
      <direction-type>
        <wedge type="stop" number="1"/>
        </direction-type>
      </direction>
<note>
  <rest/>
  <duration>192</duration>
  </note>
</measure>
<measure number="14">
    <direction placement="above">
      <direction-type>
        <wedge type="crescendo" number="1"/>
        </direction-type>
      </direction>
  <note>
    <pitch>
      <step>C</step>
      <alter>-0.05660377</alter>
      <octave>5</octave>
      </pitch>
    <duration>192</duration>
    <type>quarter</type>
  </note>
  <note>
    <pitch>
      <step>F</step>
      <alter>-0.07547169</alter>
      <octave>5</octave>
      </pitch>
    <duration>96</duration>
    <type>eighth</type>
    <beam number="1">begin</beam>
  </note>
  <note>
    <pitch>
      <step>E</step>
      <alter>0.01886793</alter>
      <octave>5</octave>
      </pitch>
    <duration>96</duration>
    <type>eighth</type>
    <beam number="1">end</beam>
  </note>
  <note>
    <pitch>
      <step>F</step>
      <alter>-0.07547169</alter>
      <octave>5</octave>
      </pitch>
    <duration>192</duration>
    <type>quarter</type>
  </note>
  <note>
    <pitch>
      <step>G</step>
      <alter>-0.03773585</alter>
      <octave>5</octave>
      </pitch>
    <duration>192</duration>
    <type>quarter</type>
  </note>
  <note>
    <pitch>
      <step>A</step>
      <alter>0.00000000</alter>
      <octave>5</octave>
      </pitch>
    <duration>384</duration>
    <type>half</type>
  </note>
    <direction placement="above">
      <direction-type>
        <wedge type="stop" number="1"/>
        </direction-type>
      </direction>
  <note>
    <pitch>
      <step>G</step>
      <alter>-0.03773585</alter>
      <octave>5</octave>
      </pitch>
    <duration>96</duration>
    <type>eighth</type>
    <beam number="1">begin</beam>
  </note>
  <note>
    <pitch>
      <step>A</step>
      <alter>0.00000000</alter>
      <octave>5</octave>
      </pitch>
    <duration>96</duration>
    <type>eighth</type>
    <beam number="1">continue</beam>
  </note>
  <note>
    <pitch>
      <step>G</step>
      <alter>-0.03773585</alter>
      <octave>5</octave>
      </pitch>
    <duration>96</duration>
    <type>eighth</type>
    <beam number="1">continue</beam>
  </note>
  <note>
    <pitch>
      <step>B</step>
      <alter>-1.09433962</alter>
      <octave>5</octave>
      </pitch>
    <duration>96</duration>
    <type>eighth</type>
    <beam number="1">continue</beam>
  </note>
  <note>
    <pitch>
      <step>A</step>
      <alter>0.00000000</alter>
      <octave>5</octave>
      </pitch>
    <duration>96</duration>
    <type>eighth</type>
    <beam number="1">continue</beam>
  </note>
  <note>
    <pitch>
      <step>G</step>
      <alter>-0.03773585</alter>
      <octave>5</octave>
      </pitch>
    <duration>96</duration>
    <type>eighth</type>
    <beam number="1">continue</beam>
  </note>
  <note>
    <pitch>
      <step>F</step>
      <alter>-0.07547169</alter>
      <octave>5</octave>
      </pitch>
    <duration>96</duration>
    <type>eighth</type>
    <beam number="1">continue</beam>
  </note>
  <note>
    <pitch>
      <step>E</step>
      <alter>0.01886793</alter>
      <octave>5</octave>
      </pitch>
    <duration>96</duration>
    <type>eighth</type>
    <beam number="1">end</beam>
  </note>
  <note>
    <pitch>
      <step>F</step>
      <alter>-0.07547169</alter>
      <octave>5</octave>
      </pitch>
    <duration>192</duration>
    <type>quarter</type>
  </note>
<note>
  <rest/>
  <duration>192</duration>
  </note>
    <barline location="right">
      <bar-style>light-heavy</bar-style>
        <repeat direction="backward"/>
        </barline>
</measure>
<measure number="15">
    <barline location="left">
      <bar-style>heavy-light</bar-style>
        <repeat direction="forward"/>
        </barline>
    <direction placement="above">
      <direction-type>
        <dynamics>
          <f/>
          </dynamics>
        </direction-type>
      <sound dynamics="140.00"/>
      </direction>
  <note>
    <pitch>
      <step>A</step>
      <alter>0.00000000</alter>
      <octave>5</octave>
      </pitch>
    <duration>576</duration>
    <type>half</type><dot/>
  </note>
    <direction placement="above">
      <direction-type>
        <dynamics>
          <p/>
          </dynamics>
        </direction-type>
      <sound dynamics="140.00"/>
      </direction>
  <note>
    <pitch>
      <step>F</step>
      <alter>-0.07547169</alter>
      <octave>5</octave>
      </pitch>
    <duration>192</duration>
    <type>quarter</type>
  </note>
  <note>
    <pitch>
      <step>A</step>
      <alter>0.00000000</alter>
      <octave>5</octave>
      </pitch>
    <duration>384</duration>
    <type>half</type>
  </note>
    <direction placement="above">
      <direction-type>
        <dynamics>
          <f/>
          </dynamics>
        </direction-type>
      <sound dynamics="140.00"/>
      </direction>
  <note>
    <pitch>
      <step>G</step>
      <alter>-0.03773585</alter>
      <octave>5</octave>
      </pitch>
    <duration>576</duration>
    <type>half</type><dot/>
  </note>
    <direction placement="above">
      <direction-type>
        <dynamics>
          <p/>
          </dynamics>
        </direction-type>
      <sound dynamics="140.00"/>
      </direction>
  <note>
    <pitch>
      <step>E</step>
      <alter>0.01886793</alter>
      <octave>5</octave>
      </pitch>
    <duration>192</duration>
    <type>quarter</type>
  </note>
  <note>
    <pitch>
      <step>G</step>
      <alter>-0.03773585</alter>
      <octave>5</octave>
      </pitch>
    <duration>384</duration>
    <type>half</type>
  </note>
</measure>
<measure number="16">
    <direction placement="above">
      <direction-type>
        <dynamics>
          <f/>
          </dynamics>
        </direction-type>
      <sound dynamics="140.00"/>
      </direction>
  <note>
    <pitch>
      <step>C</step>
      <alter>-0.05660377</alter>
      <octave>5</octave>
      </pitch>
    <duration>576</duration>
    <type>half</type><dot/>
  </note>
    <direction placement="above">
      <direction-type>
        <dynamics>
          <p/>
          </dynamics>
        </direction-type>
      <sound dynamics="140.00"/>
      </direction>
  <note>
    <pitch>
      <step>D</step>
      <alter>-0.01886792</alter>
      <octave>5</octave>
      </pitch>
    <duration>192</duration>
    <type>quarter</type>
  </note>
  <note>
    <pitch>
      <step>C</step>
      <alter>-0.05660377</alter>
      <octave>5</octave>
      </pitch>
    <duration>384</duration>
    <type>half</type>
  </note>
    <direction placement="above">
      <direction-type>
        <wedge type="crescendo" number="1"/>
        </direction-type>
      </direction>
  <note>
    <pitch>
      <step>D</step>
      <alter>-0.01886792</alter>
      <octave>5</octave>
      </pitch>
    <duration>192</duration>
    <type>quarter</type>
  </note>
  <note>
    <pitch>
      <step>E</step>
      <alter>0.01886793</alter>
      <octave>5</octave>
      </pitch>
    <duration>192</duration>
    <type>quarter</type>
  </note>
  <note>
    <pitch>
      <step>F</step>
      <alter>-0.07547169</alter>
      <octave>5</octave>
      </pitch>
    <duration>192</duration>
    <type>quarter</type>
  </note>
  <note>
    <pitch>
      <step>G</step>
      <alter>-0.03773585</alter>
      <octave>5</octave>
      </pitch>
    <duration>192</duration>
    <type>quarter</type>
  </note>
  <note>
    <pitch>
      <step>A</step>
      <alter>0.00000000</alter>
      <octave>5</octave>
      </pitch>
    <duration>384</duration>
    <type>half</type>
  </note>
    <direction placement="above">
      <direction-type>
        <wedge type="stop" number="1"/>
        </direction-type>
      </direction>
    <barline location="right">
      <bar-style>light-heavy</bar-style>
        <repeat direction="backward"/>
        </barline>
    <attributes>
      <divisions>192</divisions>
      <time>
        <beats>12</beats>
        <beat-type>4</beat-type>
      </time>
      </attributes>
</measure>
<measure number="17">
    <barline location="left">
      <bar-style>heavy-light</bar-style>
        <repeat direction="forward"/>
        </barline>
    <direction placement="above">
      <direction-type>
        <dynamics>
          <f/>
          </dynamics>
        </direction-type>
      <sound dynamics="140.00"/>
      </direction>
    <direction placement="above">
      <direction-type>
        <metronome parentheses="no">
          <beat-unit>quarter</beat-unit>
          <per-minute>35</per-minute>
          </metronome>
        </direction-type>
      <sound tempo="35"/>
      </direction>
 <direction placement="above">
   <direction-type>
     <words default-y="40" font-family="FreeSerif">Usul: Frenkçîn (12/4)</words>
     </direction-type>
   </direction>
  <note>
    <pitch>
      <step>A</step>
      <alter>0.00000000</alter>
      <octave>5</octave>
      </pitch>
    <duration>144</duration>
    <type>eighth</type><dot/>
  </note>
    <direction placement="above">
      <direction-type>
        <dynamics>
          <f/>
          </dynamics>
        </direction-type>
      <sound dynamics="140.00"/>
      </direction>
  <note>
    <pitch>
      <step>G</step>
      <alter>-0.03773585</alter>
      <octave>5</octave>
      </pitch>
    <duration>48</duration>
    <type>16th</type>
    <beam number="1">begin</beam>
  </note>
    <direction placement="above">
      <direction-type>
        <dynamics>
          <f/>
          </dynamics>
        </direction-type>
      <sound dynamics="140.00"/>
      </direction>
  <note>
    <pitch>
      <step>A</step>
      <alter>0.00000000</alter>
      <octave>5</octave>
      </pitch>
    <duration>96</duration>
    <type>eighth</type>
    <beam number="1">continue</beam>
  </note>
    <direction placement="above">
      <direction-type>
        <dynamics>
          <f/>
          </dynamics>
        </direction-type>
      <sound dynamics="140.00"/>
      </direction>
  <note>
    <pitch>
      <step>B</step>
      <alter>-1.09433962</alter>
      <octave>5</octave>
      </pitch>
    <duration>96</duration>
    <type>eighth</type>
    <beam number="1">continue</beam>
  </note>
    <direction placement="above">
      <direction-type>
        <dynamics>
          <f/>
          </dynamics>
        </direction-type>
      <sound dynamics="140.00"/>
      </direction>
  <note>
    <pitch>
      <step>A</step>
      <alter>0.00000000</alter>
      <octave>5</octave>
      </pitch>
    <duration>96</duration>
    <type>eighth</type>
    <beam number="1">continue</beam>
  </note>
    <direction placement="above">
      <direction-type>
        <dynamics>
          <f/>
          </dynamics>
        </direction-type>
      <sound dynamics="140.00"/>
      </direction>
  <note>
    <pitch>
      <step>G</step>
      <alter>-0.03773585</alter>
      <octave>5</octave>
      </pitch>
    <duration>96</duration>
    <type>eighth</type>
    <beam number="1">end</beam>
  </note>
    <direction placement="above">
      <direction-type>
        <dynamics>
          <p/>
          </dynamics>
        </direction-type>
      <sound dynamics="140.00"/>
      </direction>
  <note>
    <pitch>
      <step>F</step>
      <alter>-0.07547169</alter>
      <octave>5</octave>
      </pitch>
    <duration>144</duration>
    <type>eighth</type><dot/>
  </note>
    <direction placement="above">
      <direction-type>
        <dynamics>
          <p/>
          </dynamics>
        </direction-type>
      <sound dynamics="140.00"/>
      </direction>
  <note>
    <pitch>
      <step>E</step>
      <alter>0.01886793</alter>
      <octave>5</octave>
      </pitch>
    <duration>48</duration>
    <type>16th</type>
    <beam number="1">begin</beam>
  </note>
    <direction placement="above">
      <direction-type>
        <dynamics>
          <p/>
          </dynamics>
        </direction-type>
      <sound dynamics="140.00"/>
      </direction>
  <note>
    <pitch>
      <step>F</step>
      <alter>-0.07547169</alter>
      <octave>5</octave>
      </pitch>
    <duration>96</duration>
    <type>eighth</type>
    <beam number="1">continue</beam>
  </note>
    <direction placement="above">
      <direction-type>
        <dynamics>
          <p/>
          </dynamics>
        </direction-type>
      <sound dynamics="140.00"/>
      </direction>
  <note>
    <pitch>
      <step>G</step>
      <alter>-0.03773585</alter>
      <octave>5</octave>
      </pitch>
    <duration>96</duration>
    <type>eighth</type>
    <beam number="1">continue</beam>
  </note>
    <direction placement="above">
      <direction-type>
        <dynamics>
          <p/>
          </dynamics>
        </direction-type>
      <sound dynamics="140.00"/>
      </direction>
  <note>
    <pitch>
      <step>F</step>
      <alter>-0.07547169</alter>
      <octave>5</octave>
      </pitch>
    <duration>96</duration>
    <type>eighth</type>
    <beam number="1">continue</beam>
  </note>
    <direction placement="above">
      <direction-type>
        <dynamics>
          <p/>
          </dynamics>
        </direction-type>
      <sound dynamics="140.00"/>
      </direction>
  <note>
    <pitch>
      <step>E</step>
      <alter>0.01886793</alter>
      <octave>5</octave>
      </pitch>
    <duration>96</duration>
    <type>eighth</type>
    <beam number="1">end</beam>
  </note>
  <note>
    <pitch>
      <step>D</step>
      <alter>-0.01886792</alter>
      <octave>5</octave>
      </pitch>
    <duration>144</duration>
    <type>eighth</type><dot/>
  </note>
  <note>
    <pitch>
      <step>C</step>
      <alter>-0.05660377</alter>
      <octave>5</octave>
      </pitch>
    <duration>48</duration>
    <type>16th</type>
    <beam number="1">begin</beam>
  </note>
  <note>
    <pitch>
      <step>D</step>
      <alter>-0.01886792</alter>
      <octave>5</octave>
      </pitch>
    <duration>96</duration>
    <type>eighth</type>
    <beam number="1">continue</beam>
  </note>
  <note>
    <pitch>
      <step>F</step>
      <alter>-0.07547169</alter>
      <octave>5</octave>
      </pitch>
    <duration>96</duration>
    <type>eighth</type>
    <beam number="1">continue</beam>
  </note>
  <note>
    <pitch>
      <step>E</step>
      <alter>0.01886793</alter>
      <octave>5</octave>
      </pitch>
    <duration>96</duration>
    <type>eighth</type>
    <beam number="1">continue</beam>
  </note>
  <note>
    <pitch>
      <step>D</step>
      <alter>-0.01886792</alter>
      <octave>5</octave>
      </pitch>
    <duration>96</duration>
    <type>eighth</type>
    <beam number="1">end</beam>
  </note>
  <note>
    <pitch>
      <step>C</step>
      <alter>-0.05660377</alter>
      <octave>5</octave>
      </pitch>
    <duration>384</duration>
    <type>half</type>
  </note>
<note>
  <rest/>
  <duration>192</duration>
  </note>
</measure>
<measure number="18">
    <barline location="left">
      <ending number="1" type="start"/>
        </barline>
  <note>
    <pitch>
      <step>B</step>
      <alter>0.03773585</alter>
      <octave>4</octave>
      </pitch>
    <duration>96</duration>
    <type>eighth</type>
    <accidental>natural</accidental>
    <beam number="1">begin</beam>
  </note>
  <note>
    <pitch>
      <step>C</step>
      <alter>-0.05660377</alter>
      <octave>5</octave>
      </pitch>
    <duration>96</duration>
    <type>eighth</type>
    <beam number="1">continue</beam>
  </note>
  <note>
    <pitch>
      <step>D</step>
      <alter>-0.01886792</alter>
      <octave>5</octave>
      </pitch>
    <duration>96</duration>
    <type>eighth</type>
    <beam number="1">continue</beam>
  </note>
  <note>
    <pitch>
      <step>B</step>
      <alter>0.03773585</alter>
      <octave>4</octave>
      </pitch>
    <duration>96</duration>
    <type>eighth</type>
    <beam number="1">continue</beam>
  </note>
  <note>
    <pitch>
      <step>C</step>
      <alter>-0.05660377</alter>
      <octave>5</octave>
      </pitch>
    <duration>96</duration>
    <type>eighth</type>
    <beam number="1">continue</beam>
  </note>
  <note>
    <pitch>
      <step>D</step>
      <alter>-0.01886792</alter>
      <octave>5</octave>
      </pitch>
    <duration>96</duration>
    <type>eighth</type>
    <beam number="1">continue</beam>
  </note>
  <note>
    <pitch>
      <step>C</step>
      <alter>-0.05660377</alter>
      <octave>5</octave>
      </pitch>
    <duration>96</duration>
    <type>eighth</type>
    <beam number="1">continue</beam>
  </note>
  <note>
    <pitch>
      <step>D</step>
      <alter>-0.01886792</alter>
      <octave>5</octave>
      </pitch>
    <duration>96</duration>
    <type>eighth</type>
    <beam number="1">continue</beam>
  </note>
  <note>
    <pitch>
      <step>E</step>
      <alter>0.01886793</alter>
      <octave>5</octave>
      </pitch>
    <duration>96</duration>
    <type>eighth</type>
    <beam number="1">continue</beam>
  </note>
  <note>
    <pitch>
      <step>C</step>
      <alter>-0.05660377</alter>
      <octave>5</octave>
      </pitch>
    <duration>96</duration>
    <type>eighth</type>
    <beam number="1">continue</beam>
  </note>
  <note>
    <pitch>
      <step>D</step>
      <alter>-0.01886792</alter>
      <octave>5</octave>
      </pitch>
    <duration>96</duration>
    <type>eighth</type>
    <beam number="1">continue</beam>
  </note>
  <note>
    <pitch>
      <step>E</step>
      <alter>0.01886793</alter>
      <octave>5</octave>
      </pitch>
    <duration>96</duration>
    <type>eighth</type>
    <beam number="1">end</beam>
  </note>
    <direction placement="above">
      <direction-type>
        <dynamics>
          <p/>
          </dynamics>
        </direction-type>
      <sound dynamics="140.00"/>
      </direction>
  <note>
    <pitch>
      <step>D</step>
      <alter>-0.01886792</alter>
      <octave>5</octave>
      </pitch>
    <duration>96</duration>
    <type>eighth</type>
    <beam number="1">begin</beam>
  </note>
    <direction placement="above">
      <direction-type>
        <dynamics>
          <p/>
          </dynamics>
        </direction-type>
      <sound dynamics="140.00"/>
      </direction>
  <note>
    <pitch>
      <step>E</step>
      <alter>0.01886793</alter>
      <octave>5</octave>
      </pitch>
    <duration>96</duration>
    <type>eighth</type>
    <beam number="1">continue</beam>
  </note>
    <direction placement="above">
      <direction-type>
        <dynamics>
          <p/>
          </dynamics>
        </direction-type>
      <sound dynamics="140.00"/>
      </direction>
  <note>
    <pitch>
      <step>F</step>
      <alter>-0.07547169</alter>
      <octave>5</octave>
      </pitch>
    <duration>96</duration>
    <type>eighth</type>
    <beam number="1">continue</beam>
  </note>
    <direction placement="above">
      <direction-type>
        <dynamics>
          <p/>
          </dynamics>
        </direction-type>
      <sound dynamics="140.00"/>
      </direction>
  <note>
    <pitch>
      <step>D</step>
      <alter>-0.01886792</alter>
      <octave>5</octave>
      </pitch>
    <duration>96</duration>
    <type>eighth</type>
    <beam number="1">continue</beam>
  </note>
    <direction placement="above">
      <direction-type>
        <dynamics>
          <p/>
          </dynamics>
        </direction-type>
      <sound dynamics="140.00"/>
      </direction>
  <note>
    <pitch>
      <step>E</step>
      <alter>0.01886793</alter>
      <octave>5</octave>
      </pitch>
    <duration>96</duration>
    <type>eighth</type>
    <beam number="1">continue</beam>
  </note>
    <direction placement="above">
      <direction-type>
        <dynamics>
          <p/>
          </dynamics>
        </direction-type>
      <sound dynamics="140.00"/>
      </direction>
  <note>
    <pitch>
      <step>F</step>
      <alter>-0.07547169</alter>
      <octave>5</octave>
      </pitch>
    <duration>96</duration>
    <type>eighth</type>
    <beam number="1">end</beam>
  </note>
    <direction placement="above">
      <direction-type>
        <dynamics>
          <f/>
          </dynamics>
        </direction-type>
      <sound dynamics="140.00"/>
      </direction>
  <note>
    <pitch>
      <step>A</step>
      <alter>0.00000000</alter>
      <octave>5</octave>
      </pitch>
    <duration>576</duration>
    <type>half</type><dot/>
  </note>
    <barline location="right">
      <bar-style>light-heavy</bar-style>
        <repeat direction="backward"/>
        </barline>
    <barline location="left">
      <ending number="1" type="stop"/>
        </barline>
</measure>
<measure number="19">
    <barline location="left">
      <ending number="2" type="start"/>
        </barline>
  <note>
    <pitch>
      <step>A</step>
      <alter>0.00000000</alter>
      <octave>4</octave>
      </pitch>
    <duration>192</duration>
    <type>quarter</type>
  </note>
  <note>
    <pitch>
      <step>B</step>
      <alter>-1.09433962</alter>
      <octave>4</octave>
      </pitch>
    <duration>192</duration>
    <type>quarter</type>
  </note>
  <note>
    <pitch>
      <step>C</step>
      <alter>-0.05660377</alter>
      <octave>5</octave>
      </pitch>
    <duration>192</duration>
    <type>quarter</type>
  </note>
      <direction placement="above">
      <direction-type>
        <wedge type="diminuendo" number="1"/>
        </direction-type>
      </direction>
  <note>
    <pitch>
      <step>D</step>
      <alter>-0.01886792</alter>
      <octave>5</octave>
      </pitch>
    <duration>192</duration>
    <type>quarter</type>
  </note>
  <note>
    <pitch>
      <step>C</step>
      <alter>-0.05660377</alter>
      <octave>5</octave>
      </pitch>
    <duration>192</duration>
    <type>quarter</type>
  </note>
  <note>
    <pitch>
      <step>B</step>
      <alter>-1.09433962</alter>
      <octave>4</octave>
      </pitch>
    <duration>192</duration>
    <type>quarter</type>
  </note>
  <note>
    <pitch>
      <step>A</step>
      <alter>0.00000000</alter>
      <octave>4</octave>
      </pitch>
    <duration>192</duration>
    <type>quarter</type>
  </note>
  <note>
    <pitch>
      <step>G</step>
      <alter>-0.03773585</alter>
      <octave>4</octave>
      </pitch>
    <duration>192</duration>
    <type>quarter</type>
  </note>
  <note>
    <pitch>
      <step>F</step>
      <alter>-0.07547169</alter>
      <octave>4</octave>
      </pitch>
    <duration>96</duration>
    <type>eighth</type>
    <beam number="1">begin</beam>
  </note>
  <note>
    <pitch>
      <step>E</step>
      <alter>0.01886793</alter>
      <octave>4</octave>
      </pitch>
    <duration>96</duration>
    <type>eighth</type>
    <beam number="1">end</beam>
  </note>
  <note>
    <pitch>
      <step>F</step>
      <alter>-0.07547169</alter>
      <octave>4</octave>
      </pitch>
    <duration>384</duration>
    <type>half</type>
  </note>
    <direction placement="above">
      <direction-type>
        <wedge type="stop" number="1"/>
        </direction-type>
      </direction>
<note>
  <rest/>
  <duration>192</duration>
  </note>
    <barline location="left">
      <ending number="2" type="stop"/>
        </barline>
</measure>
</part>
</score-partwise>
