<?xml version="1.0" encoding="UTF-8"?>
<!DOCTYPE score-partwise PUBLIC "-//Recordare//DTD MusicXML 3.0 Partwise//EN" "http://www.musicxml.org/dtds/partwise.dtd">
<score-partwise version="3.0">
  <work>
    <work-title>Gül Dalında Öten Bülbülün Olsam</work-title>
  </work>
  <identification>
  <creator type="composer">Beste: Nev´eser Kökdeş</creator>
  <creator type="lyricist">Nev´eser Kökdeş</creator>
  <rights>hicazkar--sarki--duyek--gul_dalinda--neveser_kokdes.xml</rights>
  </identification>
<defaults>
  <scaling>
      <millimeters>7.05556</millimeters>
      <tenths>40</tenths>
      </scaling>
    <page-layout>
      <page-height>1683.36</page-height>
      <page-width>1190.88</page-width>
      <page-margins type="even">
        <left-margin>100</left-margin>
        <right-margin>100</right-margin>
        <top-margin>56.6929</top-margin>
        <bottom-margin>113.386</bottom-margin>
        </page-margins>
      <page-margins type="odd">
        <left-margin>100</left-margin>
        <right-margin>100</right-margin>
        <top-margin>56.6929</top-margin>
        <bottom-margin>113.386</bottom-margin>
        </page-margins>
      </page-layout>
    <word-font font-family="FreeSerif" font-size="10"/>
    <lyric-font font-family="FreeSerif" font-size="11"/>
    </defaults>
  <credit page="1">
    <credit-words default-x="595.276" default-y="1627.09" justify="center" valign="top" font-size="24">Gül Dalında Öten Bülbülün Olsam</credit-words>
    </credit>
  <credit page="1">
    <credit-words default-x="1133.86" default-y="1527.09" justify="right" valign="bottom" font-size="12">Beste: Nev´eser Kökdeş</credit-words>
          <credit-words>Nev´eser Kökdeş</credit-words>
    </credit>
  <credit page="1">
    <credit-words default-x="595.44" default-y="1569.97" justify="center" valign="top" font-size="14">Makam: Hicazkâr Şarkı</credit-words>
    </credit>
  <credit page="1">
    <credit-words default-x="56.6929" default-y="1526.67" justify="left" valign="bottom" font-size="12">Usul: Düyek</credit-words>
    </credit>
  <credit page="1">
    <credit-words default-x="595.44" default-y="113.386" justify="center" valign="bottom">hicazkar--sarki--duyek--gul_dalinda--neveser_kokdes.xml</credit-words>
</credit>
<part-list>
<score-part id="P1">
<part-name>S</part-name>
<part-abbreviation>S</part-abbreviation>
<score-instrument id="P1-I1">
<instrument-name>S</instrument-name>
</score-instrument>
<midi-device id="P1-I1" port="1"></midi-device>
<midi-instrument id="P1-I1">
<midi-channel>1</midi-channel>
<midi-program>1</midi-program>
<volume>80</volume>
<pan>0</pan>
</midi-instrument>
</score-part>
</part-list>
<part id="P1">
<measure number="1">
    <attributes>
      <divisions>192</divisions>
      <time>
        <beats>8</beats>
        <beat-type>8</beat-type>
      </time>
      </attributes>
      <attributes>
        <key>
        <key-step>B</key-step>
        <key-alter>-0.5</key-alter>
        <key-accidental>quarter-flat</key-accidental>
        <key-step>E</key-step>
        <key-alter>-1</key-alter>
        <key-accidental>slash-flat</key-accidental>
        <key-step>A</key-step>
        <key-alter>-1</key-alter>
        <key-accidental>slash-flat</key-accidental>
        <key-step>F</key-step>
        <key-alter>1</key-alter>
        <key-accidental>sharp</key-accidental>
        <key-octave number="1">5</key-octave>
        </key>
      </attributes>
    <direction placement="above">
      <direction-type>
        <segno/>
        </direction-type>
        <sound segno="segno"/>
        </direction>
    <barline location="left">
      <bar-style>heavy-light</bar-style>
        <repeat direction="forward"/>
        </barline>
    <direction placement="above">
      <direction-type>
        <metronome parentheses="no">
          <beat-unit>eighth</beat-unit>
          <per-minute>144</per-minute>
          </metronome>
        </direction-type>
      <sound tempo="144"/>
      </direction>
 <direction placement="above">
   <direction-type>
     <words default-y="40" font-family="FreeSerif">Usul: Düyek</words>
     </direction-type>
   </direction>
  <note>
    <pitch>
      <step>G</step>
      <alter>-0.03773585</alter>
      <octave>4</octave>
      </pitch>
    <duration>48</duration>
    <type>16th</type>
    <beam number="1">begin</beam>
    <lyric number="1">
      <syllabic>single</syllabic>
      <text>ARANAĞME</text>
    </lyric>
  </note>
  <note>
    <pitch>
      <step>B</step>
      <alter>-0.18867924</alter>
      <octave>4</octave>
      </pitch>
    <duration>48</duration>
    <type>16th</type>
    <beam number="1">continue</beam>
    <lyric number="1">
      <syllabic>single</syllabic>
      <text>.</text>
    </lyric>
  </note>
  <note>
    <pitch>
      <step>D</step>
      <alter>-0.01886792</alter>
      <octave>5</octave>
      </pitch>
    <duration>48</duration>
    <type>16th</type>
    <beam number="1">continue</beam>
    <lyric number="1">
      <syllabic>single</syllabic>
      <text>.</text>
    </lyric>
  </note>
  <note>
    <pitch>
      <step>B</step>
      <alter>-0.18867924</alter>
      <octave>4</octave>
      </pitch>
    <duration>48</duration>
    <type>16th</type>
    <beam number="1">continue</beam>
    <lyric number="1">
      <syllabic>single</syllabic>
      <text>.</text>
    </lyric>
  </note>
  <note>
    <pitch>
      <step>C</step>
      <alter>-0.05660377</alter>
      <octave>5</octave>
      </pitch>
    <duration>96</duration>
    <type>eighth</type>
    <beam number="1">continue</beam>
    <lyric number="1">
      <syllabic>single</syllabic>
      <text>.</text>
    </lyric>
  </note>
  <note>
    <pitch>
      <step>D</step>
      <alter>-0.01886792</alter>
      <octave>5</octave>
      </pitch>
    <duration>96</duration>
    <type>eighth</type>
    <beam number="1">end</beam>
    <lyric number="1">
      <syllabic>single</syllabic>
      <text>.</text>
    </lyric>
  </note>
  <note>
    <pitch>
      <step>G</step>
      <alter>-0.03773585</alter>
      <octave>4</octave>
      </pitch>
    <duration>48</duration>
    <type>16th</type>
    <beam number="1">begin</beam>
    <lyric number="1">
      <syllabic>single</syllabic>
      <text>.</text>
    </lyric>
  </note>
  <note>
    <pitch>
      <step>B</step>
      <alter>-0.18867924</alter>
      <octave>4</octave>
      </pitch>
    <duration>48</duration>
    <type>16th</type>
    <beam number="1">continue</beam>
    <lyric number="1">
      <syllabic>single</syllabic>
      <text>.</text>
    </lyric>
  </note>
  <note>
    <pitch>
      <step>D</step>
      <alter>-0.01886792</alter>
      <octave>5</octave>
      </pitch>
    <duration>48</duration>
    <type>16th</type>
    <beam number="1">continue</beam>
    <lyric number="1">
      <syllabic>single</syllabic>
      <text>.</text>
    </lyric>
  </note>
  <note>
    <pitch>
      <step>B</step>
      <alter>-0.18867924</alter>
      <octave>4</octave>
      </pitch>
    <duration>48</duration>
    <type>16th</type>
    <beam number="1">continue</beam>
    <lyric number="1">
      <syllabic>single</syllabic>
      <text>.</text>
    </lyric>
  </note>
  <note>
    <pitch>
      <step>C</step>
      <alter>-0.05660377</alter>
      <octave>5</octave>
      </pitch>
    <duration>96</duration>
    <type>eighth</type>
    <beam number="1">continue</beam>
    <lyric number="1">
      <syllabic>single</syllabic>
      <text>.</text>
    </lyric>
  </note>
  <note>
    <pitch>
      <step>D</step>
      <alter>-0.01886792</alter>
      <octave>5</octave>
      </pitch>
    <duration>96</duration>
    <type>eighth</type>
    <beam number="1">end</beam>
    <lyric number="1">
      <syllabic>single</syllabic>
      <text>.</text>
    </lyric>
  </note>
</measure>
<measure number="2">
  <note>
    <pitch>
      <step>E</step>
      <alter>-0.88679245</alter>
      <octave>5</octave>
      </pitch>
    <duration>48</duration>
    <type>16th</type>
    <beam number="1">begin</beam>
    <lyric number="1">
      <syllabic>single</syllabic>
      <text>.</text>
    </lyric>
  </note>
  <note>
    <pitch>
      <step>D</step>
      <alter>-0.01886792</alter>
      <octave>5</octave>
      </pitch>
    <duration>48</duration>
    <type>16th</type>
    <beam number="1">continue</beam>
    <lyric number="1">
      <syllabic>single</syllabic>
      <text>.</text>
    </lyric>
  </note>
  <note>
    <pitch>
      <step>E</step>
      <alter>-0.88679245</alter>
      <octave>5</octave>
      </pitch>
    <duration>48</duration>
    <type>16th</type>
    <beam number="1">continue</beam>
    <lyric number="1">
      <syllabic>single</syllabic>
      <text>.</text>
    </lyric>
  </note>
  <note>
    <pitch>
      <step>G</step>
      <alter>-0.03773585</alter>
      <octave>5</octave>
      </pitch>
    <duration>48</duration>
    <type>16th</type>
    <beam number="1">continue</beam>
    <lyric number="1">
      <syllabic>single</syllabic>
      <text>.</text>
    </lyric>
  </note>
  <note>
    <pitch>
      <step>F</step>
      <alter>0.83018868</alter>
      <octave>5</octave>
      </pitch>
    <duration>48</duration>
    <type>16th</type>
    <beam number="1">continue</beam>
    <lyric number="1">
      <syllabic>single</syllabic>
      <text>.</text>
    </lyric>
  </note>
  <note>
    <pitch>
      <step>E</step>
      <alter>-0.88679245</alter>
      <octave>5</octave>
      </pitch>
    <duration>48</duration>
    <type>16th</type>
    <beam number="1">continue</beam>
    <lyric number="1">
      <syllabic>single</syllabic>
      <text>.</text>
    </lyric>
  </note>
  <note>
    <pitch>
      <step>D</step>
      <alter>-0.01886792</alter>
      <octave>5</octave>
      </pitch>
    <duration>48</duration>
    <type>16th</type>
    <beam number="1">continue</beam>
    <lyric number="1">
      <syllabic>single</syllabic>
      <text>.</text>
    </lyric>
  </note>
  <note>
    <pitch>
      <step>C</step>
      <alter>-0.05660377</alter>
      <octave>5</octave>
      </pitch>
    <duration>48</duration>
    <type>16th</type>
    <beam number="1">end</beam>
    <lyric number="1">
      <syllabic>single</syllabic>
      <text>.</text>
    </lyric>
  </note>
  <note>
    <pitch>
      <step>D</step>
      <alter>-0.01886792</alter>
      <octave>5</octave>
      </pitch>
    <duration>384</duration>
    <type>half</type>
    <lyric number="1">
      <syllabic>single</syllabic>
      <text>.</text>
    </lyric>
  </note>
</measure>
<measure number="3">
  <note>
    <pitch>
      <step>G</step>
      <alter>-0.03773585</alter>
      <octave>5</octave>
      </pitch>
    <duration>48</duration>
    <type>16th</type>
    <beam number="1">begin</beam>
    <lyric number="1">
      <syllabic>single</syllabic>
      <text>.</text>
    </lyric>
  </note>
  <note>
    <pitch>
      <step>F</step>
      <alter>0.83018868</alter>
      <octave>5</octave>
      </pitch>
    <duration>48</duration>
    <type>16th</type>
    <beam number="1">continue</beam>
    <lyric number="1">
      <syllabic>single</syllabic>
      <text>.</text>
    </lyric>
  </note>
  <note>
    <pitch>
      <step>E</step>
      <alter>-0.88679245</alter>
      <octave>5</octave>
      </pitch>
    <duration>48</duration>
    <type>16th</type>
    <beam number="1">continue</beam>
    <lyric number="1">
      <syllabic>single</syllabic>
      <text>.</text>
    </lyric>
  </note>
  <note>
    <pitch>
      <step>G</step>
      <alter>-0.03773585</alter>
      <octave>5</octave>
      </pitch>
    <duration>48</duration>
    <type>16th</type>
    <beam number="1">end</beam>
    <lyric number="1">
      <syllabic>single</syllabic>
      <text>.</text>
    </lyric>
  </note>
  <note>
    <pitch>
      <step>F</step>
      <alter>0.83018868</alter>
      <octave>5</octave>
      </pitch>
    <duration>192</duration>
    <type>quarter</type>
    <lyric number="1">
      <syllabic>single</syllabic>
      <text>.</text>
    </lyric>
  </note>
  <note>
    <pitch>
      <step>E</step>
      <alter>-0.88679245</alter>
      <octave>5</octave>
      </pitch>
    <duration>48</duration>
    <type>16th</type>
    <beam number="1">begin</beam>
    <lyric number="1">
      <syllabic>single</syllabic>
      <text>.</text>
    </lyric>
  </note>
  <note>
    <pitch>
      <step>D</step>
      <alter>-0.01886792</alter>
      <octave>5</octave>
      </pitch>
    <duration>48</duration>
    <type>16th</type>
    <beam number="1">continue</beam>
    <lyric number="1">
      <syllabic>single</syllabic>
      <text>.</text>
    </lyric>
  </note>
  <note>
    <pitch>
      <step>C</step>
      <alter>-0.05660377</alter>
      <octave>5</octave>
      </pitch>
    <duration>48</duration>
    <type>16th</type>
    <beam number="1">continue</beam>
    <lyric number="1">
      <syllabic>single</syllabic>
      <text>.</text>
    </lyric>
  </note>
  <note>
    <pitch>
      <step>E</step>
      <alter>-0.88679245</alter>
      <octave>5</octave>
      </pitch>
    <duration>48</duration>
    <type>16th</type>
    <beam number="1">end</beam>
    <lyric number="1">
      <syllabic>single</syllabic>
      <text>.</text>
    </lyric>
  </note>
  <note>
    <pitch>
      <step>D</step>
      <alter>-0.01886792</alter>
      <octave>5</octave>
      </pitch>
    <duration>192</duration>
    <type>quarter</type>
    <lyric number="1">
      <syllabic>single</syllabic>
      <text>.</text>
    </lyric>
  </note>
</measure>
<measure number="4">
  <note>
    <pitch>
      <step>C</step>
      <alter>-0.05660377</alter>
      <octave>5</octave>
      </pitch>
    <duration>48</duration>
    <type>16th</type>
    <beam number="1">begin</beam>
    <lyric number="1">
      <syllabic>single</syllabic>
      <text>.</text>
    </lyric>
  </note>
  <note>
    <pitch>
      <step>B</step>
      <alter>-0.18867924</alter>
      <octave>4</octave>
      </pitch>
    <duration>48</duration>
    <type>16th</type>
    <beam number="1">continue</beam>
    <lyric number="1">
      <syllabic>single</syllabic>
      <text>.</text>
    </lyric>
  </note>
  <note>
    <pitch>
      <step>C</step>
      <alter>-0.05660377</alter>
      <octave>5</octave>
      </pitch>
    <duration>48</duration>
    <type>16th</type>
    <beam number="1">continue</beam>
    <lyric number="1">
      <syllabic>single</syllabic>
      <text>.</text>
    </lyric>
  </note>
  <note>
    <pitch>
      <step>D</step>
      <alter>-0.01886792</alter>
      <octave>5</octave>
      </pitch>
    <duration>48</duration>
    <type>16th</type>
    <beam number="1">continue</beam>
    <lyric number="1">
      <syllabic>single</syllabic>
      <text>.</text>
    </lyric>
  </note>
  <note>
    <pitch>
      <step>B</step>
      <alter>-0.18867924</alter>
      <octave>4</octave>
      </pitch>
    <duration>48</duration>
    <type>16th</type>
    <beam number="1">continue</beam>
    <lyric number="1">
      <syllabic>single</syllabic>
      <text>.</text>
    </lyric>
  </note>
  <note>
    <pitch>
      <step>A</step>
      <alter>-0.90566037</alter>
      <octave>4</octave>
      </pitch>
    <duration>48</duration>
    <type>16th</type>
    <beam number="1">continue</beam>
    <lyric number="1">
      <syllabic>single</syllabic>
      <text>.</text>
    </lyric>
  </note>
  <note>
    <pitch>
      <step>A</step>
      <alter>-0.90566037</alter>
      <octave>4</octave>
      </pitch>
    <duration>48</duration>
    <type>16th</type>
    <beam number="1">continue</beam>
    <lyric number="1">
      <syllabic>single</syllabic>
      <text>.</text>
    </lyric>
  </note>
  <note>
    <pitch>
      <step>G</step>
      <alter>-0.03773585</alter>
      <octave>4</octave>
      </pitch>
    <duration>48</duration>
    <type>16th</type>
    <beam number="1">end</beam>
    <lyric number="1">
      <syllabic>single</syllabic>
      <text>.</text>
    </lyric>
  </note>
  <note>
    <pitch>
      <step>G</step>
      <alter>-0.03773585</alter>
      <octave>4</octave>
      </pitch>
    <duration>384</duration>
    <type>half</type>
    <lyric number="1">
      <syllabic>single</syllabic>
      <text>.</text>
    </lyric>
  </note>
    <barline location="right">
      <bar-style>light-heavy</bar-style>
        <repeat direction="backward"/>
        </barline>
</measure>
<measure number="5">
    <barline location="left">
      <bar-style>heavy-light</bar-style>
        <repeat direction="forward"/>
        </barline>
  <note>
    <pitch>
      <step>F</step>
      <alter>0.83018868</alter>
      <octave>5</octave>
      </pitch>
    <duration>96</duration>
    <type>eighth</type>
    <lyric number="1">
      <syllabic>begin</syllabic>
      <text>Gül </text>
    </lyric>
    <lyric number="2">
      <syllabic>begin</syllabic>
      <text>Bir </text>
    </lyric>
  </note>
  <note>
    <pitch>
      <step>G</step>
      <alter>-0.03773585</alter>
      <octave>5</octave>
      </pitch>
    <duration>192</duration>
    <type>quarter</type>
    <lyric number="1">
      <syllabic>single</syllabic>
      <text>da</text>
    </lyric>
    <lyric number="2">
      <syllabic>begin</syllabic>
      <text>kuş </text>
    </lyric>
  </note>
  <note>
    <pitch>
      <step>G</step>
      <alter>-0.03773585</alter>
      <octave>5</octave>
      </pitch>
    <duration>96</duration>
    <type>eighth</type>
    <lyric number="1">
      <syllabic>single</syllabic>
      <text>lın</text>
    </lyric>
    <lyric number="2">
      <syllabic>single</syllabic>
      <text>ol</text>
    </lyric>
  </note>
  <note>
    <pitch>
      <step>A</step>
      <alter>-0.90566037</alter>
      <octave>5</octave>
      </pitch>
    <duration>48</duration>
    <type>16th</type>
    <beam number="1">begin</beam>
        <notations>
          <slur type="start" number="1"/>
          </notations>
    <lyric number="1">
      <syllabic>begin</syllabic>
      <text>da </text>
    </lyric>
    <lyric number="2">
      <syllabic>begin</syllabic>
      <text>sam </text>
    </lyric>
  </note>
  <note>
    <pitch>
      <step>G</step>
      <alter>-0.03773585</alter>
      <octave>5</octave>
      </pitch>
    <duration>48</duration>
    <type>16th</type>
    <beam number="1">continue</beam>
        <notations>
          <slur type="stop" number="1"/>
          </notations>
  </note>
  <note>
    <pitch>
      <step>F</step>
      <alter>0.83018868</alter>
      <octave>5</octave>
      </pitch>
    <duration>48</duration>
    <type>16th</type>
    <beam number="1">continue</beam>
        <notations>
          <slur type="start" number="1"/>
          </notations>
    <lyric number="1">
      <syllabic>single</syllabic>
      <text>ö</text>
    </lyric>
    <lyric number="2">
      <syllabic>begin</syllabic>
      <text>da </text>
    </lyric>
  </note>
  <note>
    <pitch>
      <step>A</step>
      <alter>-0.90566037</alter>
      <octave>5</octave>
      </pitch>
    <duration>48</duration>
    <type>16th</type>
    <beam number="1">end</beam>
        <notations>
          <slur type="stop" number="1"/>
          </notations>
  </note>
  <note>
    <pitch>
      <step>G</step>
      <alter>-0.03773585</alter>
      <octave>5</octave>
      </pitch>
    <duration>192</duration>
    <type>quarter</type>
    <lyric number="1">
      <syllabic>begin</syllabic>
      <text>ten </text>
    </lyric>
    <lyric number="2">
      <syllabic>single</syllabic>
      <text>pen</text>
    </lyric>
  </note>
</measure>
<measure number="6">
  <note>
    <pitch>
      <step>A</step>
      <alter>-0.90566037</alter>
      <octave>5</octave>
      </pitch>
    <duration>48</duration>
    <type>16th</type>
    <beam number="1">begin</beam>
        <notations>
          <slur type="start" number="1"/>
          </notations>
    <lyric number="1">
      <syllabic>single</syllabic>
      <text>bül</text>
    </lyric>
    <lyric number="2">
      <syllabic>single</syllabic>
      <text>ce</text>
    </lyric>
  </note>
  <note>
    <pitch>
      <step>G</step>
      <alter>-0.03773585</alter>
      <octave>5</octave>
      </pitch>
    <duration>48</duration>
    <type>16th</type>
    <beam number="1">continue</beam>
        <notations>
          <slur type="stop" number="1"/>
          </notations>
  </note>
  <note>
    <pitch>
      <step>F</step>
      <alter>0.83018868</alter>
      <octave>5</octave>
      </pitch>
    <duration>48</duration>
    <type>16th</type>
    <beam number="1">continue</beam>
        <notations>
          <slur type="start" number="1"/>
          </notations>
    <lyric number="1">
      <syllabic>single</syllabic>
      <text>bü</text>
    </lyric>
    <lyric number="2">
      <syllabic>single</syllabic>
      <text>re</text>
    </lyric>
  </note>
  <note>
    <pitch>
      <step>G</step>
      <alter>-0.03773585</alter>
      <octave>5</octave>
      </pitch>
    <duration>48</duration>
    <type>16th</type>
    <beam number="1">continue</beam>
        <notations>
          <slur type="stop" number="1"/>
          </notations>
  </note>
  <note>
    <pitch>
      <step>F</step>
      <alter>0.83018868</alter>
      <octave>5</octave>
      </pitch>
    <duration>48</duration>
    <type>16th</type>
    <beam number="1">continue</beam>
        <notations>
          <slur type="start" number="1"/>
          </notations>
    <lyric number="1">
      <syllabic>begin</syllabic>
      <text>lün </text>
    </lyric>
    <lyric number="2">
      <syllabic>begin</syllabic>
      <text>ne </text>
    </lyric>
  </note>
  <note>
    <pitch>
      <step>E</step>
      <alter>-0.88679245</alter>
      <octave>5</octave>
      </pitch>
    <duration>48</duration>
    <type>16th</type>
    <beam number="1">continue</beam>
        <notations>
          <slur type="stop" number="1"/>
          </notations>
  </note>
  <note>
    <pitch>
      <step>D</step>
      <alter>-0.01886792</alter>
      <octave>5</octave>
      </pitch>
    <duration>48</duration>
    <type>16th</type>
    <beam number="1">continue</beam>
        <notations>
          <slur type="start" number="1"/>
          </notations>
    <lyric number="1">
      <syllabic>single</syllabic>
      <text>ol</text>
    </lyric>
    <lyric number="2">
      <syllabic>single</syllabic>
      <text>kon</text>
    </lyric>
  </note>
  <note>
    <pitch>
      <step>C</step>
      <alter>-0.05660377</alter>
      <octave>5</octave>
      </pitch>
    <duration>48</duration>
    <type>16th</type>
    <beam number="1">end</beam>
        <notations>
          <slur type="stop" number="1"/>
          </notations>
  </note>
  <note>
    <pitch>
      <step>D</step>
      <alter>-0.01886792</alter>
      <octave>5</octave>
      </pitch>
    <duration>384</duration>
    <type>half</type>
    <lyric number="1">
      <syllabic>begin</syllabic>
      <text>sam </text>
    </lyric>
    <lyric number="2">
      <syllabic>begin</syllabic>
      <text>sam </text>
    </lyric>
  </note>
    <barline location="right">
      <bar-style>light-heavy</bar-style>
        <repeat direction="backward"/>
        </barline>
</measure>
<measure number="7">
    <barline location="left">
      <bar-style>heavy-light</bar-style>
        <repeat direction="forward"/>
        </barline>
  <note>
    <pitch>
      <step>D</step>
      <alter>-0.01886792</alter>
      <octave>5</octave>
      </pitch>
    <duration>96</duration>
    <type>eighth</type>
    <lyric number="1">
      <syllabic>single</syllabic>
      <text>Öt</text>
    </lyric>
    <lyric number="2">
      <syllabic>single</syllabic>
      <text>Aş</text>
    </lyric>
  </note>
  <note>
    <pitch>
      <step>E</step>
      <alter>-0.88679245</alter>
      <octave>5</octave>
      </pitch>
    <duration>192</duration>
    <type>quarter</type>
    <lyric number="1">
      <syllabic>begin</syllabic>
      <text>sem </text>
    </lyric>
    <lyric number="2">
      <syllabic>begin</syllabic>
      <text>kın </text>
    </lyric>
  </note>
  <note>
    <pitch>
      <step>E</step>
      <alter>-0.88679245</alter>
      <octave>5</octave>
      </pitch>
    <duration>96</duration>
    <type>eighth</type>
    <lyric number="1">
      <syllabic>single</syllabic>
      <text>ya</text>
    </lyric>
    <lyric number="2">
      <syllabic>single</syllabic>
      <text>şar</text>
    </lyric>
  </note>
  <note>
    <pitch>
      <step>E</step>
      <alter>-0.88679245</alter>
      <octave>5</octave>
      </pitch>
    <duration>48</duration>
    <type>16th</type>
    <beam number="1">begin</beam>
        <notations>
          <slur type="start" number="1"/>
          </notations>
    <lyric number="1">
      <syllabic>begin</syllabic>
      <text>nık </text>
    </lyric>
    <lyric number="2">
      <syllabic>single</syllabic>
      <text>kı</text>
    </lyric>
  </note>
  <note>
    <pitch>
      <step>D</step>
      <alter>-0.01886792</alter>
      <octave>5</octave>
      </pitch>
    <duration>48</duration>
    <type>16th</type>
    <beam number="1">continue</beam>
        <notations>
          <slur type="stop" number="1"/>
          </notations>
  </note>
  <note>
    <pitch>
      <step>E</step>
      <alter>-0.88679245</alter>
      <octave>5</octave>
      </pitch>
    <duration>48</duration>
    <type>16th</type>
    <beam number="1">continue</beam>
        <notations>
          <slur type="start" number="1"/>
          </notations>
    <lyric number="1">
      <syllabic>single</syllabic>
      <text>ya</text>
    </lyric>
    <lyric number="2">
      <syllabic>single</syllabic>
      <text>sı</text>
    </lyric>
  </note>
  <note>
    <pitch>
      <step>G</step>
      <alter>-0.03773585</alter>
      <octave>5</octave>
      </pitch>
    <duration>48</duration>
    <type>16th</type>
    <beam number="1">continue</beam>
        <notations>
          <slur type="stop" number="1"/>
          </notations>
  </note>
  <note>
    <pitch>
      <step>F</step>
      <alter>0.83018868</alter>
      <octave>5</octave>
      </pitch>
    <duration>48</duration>
    <type>16th</type>
    <beam number="1">continue</beam>
        <notations>
          <slur type="start" number="1"/>
          </notations>
    <lyric number="1">
      <syllabic>begin</syllabic>
      <text>nık </text>
    </lyric>
    <lyric number="2">
      <syllabic>begin</syllabic>
      <text>nı </text>
    </lyric>
  </note>
  <note>
    <pitch>
      <step>E</step>
      <alter>-0.88679245</alter>
      <octave>5</octave>
      </pitch>
    <duration>48</duration>
    <type>16th</type>
    <beam number="1">continue</beam>
  </note>
  <note>
    <pitch>
      <step>D</step>
      <alter>-0.01886792</alter>
      <octave>5</octave>
      </pitch>
    <duration>48</duration>
    <type>16th</type>
    <beam number="1">continue</beam>
  </note>
  <note>
    <pitch>
      <step>C</step>
      <alter>-0.05660377</alter>
      <octave>5</octave>
      </pitch>
    <duration>48</duration>
    <type>16th</type>
    <beam number="1">end</beam>
        <notations>
          <slur type="stop" number="1"/>
          </notations>
  </note>
</measure>
<measure number="8">
    <barline location="left">
      <ending number="1" type="start"/>
        </barline>
  <note>
    <pitch>
      <step>B</step>
      <alter>-0.18867924</alter>
      <octave>4</octave>
      </pitch>
    <duration>96</duration>
    <type>eighth</type>
    <beam number="1">begin</beam>
    <lyric number="1">
      <syllabic>single</syllabic>
      <text>gön</text>
    </lyric>
    <lyric number="2">
      <syllabic>single</syllabic>
      <text>sa</text>
    </lyric>
  </note>
  <note>
    <pitch>
      <step>B</step>
      <alter>-0.18867924</alter>
      <octave>4</octave>
      </pitch>
    <duration>48</duration>
    <type>16th</type>
    <beam number="1">continue</beam>
        <notations>
          <slur type="start" number="1"/>
          </notations>
    <lyric number="1">
      <syllabic>single</syllabic>
      <text>lü</text>
    </lyric>
    <lyric number="2">
      <syllabic>begin</syllabic>
      <text>na </text>
    </lyric>
  </note>
  <note>
    <pitch>
      <step>C</step>
      <alter>-0.05660377</alter>
      <octave>5</octave>
      </pitch>
    <duration>48</duration>
    <type>16th</type>
    <beam number="1">continue</beam>
        <notations>
          <slur type="stop" number="1"/>
          </notations>
  </note>
  <note>
    <pitch>
      <step>B</step>
      <alter>-0.18867924</alter>
      <octave>4</octave>
      </pitch>
    <duration>48</duration>
    <type>16th</type>
    <beam number="1">continue</beam>
        <notations>
          <slur type="start" number="1"/>
          </notations>
    <lyric number="1">
      <syllabic>begin</syllabic>
      <text>ne </text>
    </lyric>
    <lyric number="2">
      <syllabic>single</syllabic>
      <text>o</text>
    </lyric>
  </note>
  <note>
    <pitch>
      <step>A</step>
      <alter>-0.90566037</alter>
      <octave>4</octave>
      </pitch>
    <duration>48</duration>
    <type>16th</type>
    <beam number="1">continue</beam>
        <notations>
          <slur type="stop" number="1"/>
          </notations>
  </note>
  <note>
    <pitch>
      <step>A</step>
      <alter>-0.90566037</alter>
      <octave>4</octave>
      </pitch>
    <duration>48</duration>
    <type>16th</type>
    <beam number="1">continue</beam>
        <notations>
          <slur type="start" number="1"/>
          </notations>
    <lyric number="1">
      <syllabic>single</syllabic>
      <text>dol</text>
    </lyric>
    <lyric number="2">
      <syllabic>single</syllabic>
      <text>ku</text>
    </lyric>
  </note>
  <note>
    <pitch>
      <step>G</step>
      <alter>-0.03773585</alter>
      <octave>4</octave>
      </pitch>
    <duration>48</duration>
    <type>16th</type>
    <beam number="1">end</beam>
        <notations>
          <slur type="stop" number="1"/>
          </notations>
  </note>
  <note>
    <pitch>
      <step>G</step>
      <alter>-0.03773585</alter>
      <octave>4</octave>
      </pitch>
    <duration>48</duration>
    <type>16th</type>
    <beam number="1">begin</beam>
        <notations>
          <slur type="start" number="1"/>
          </notations>
    <lyric number="1">
      <syllabic>begin</syllabic>
      <text>sam </text>
    </lyric>
    <lyric number="2">
      <syllabic>begin</syllabic>
      <text>sam </text>
    </lyric>
  </note>
  <note>
    <pitch>
      <step>A</step>
      <alter>-0.90566037</alter>
      <octave>4</octave>
      </pitch>
    <duration>48</duration>
    <type>16th</type>
    <beam number="1">continue</beam>
  </note>
  <note>
    <pitch>
      <step>B</step>
      <alter>-0.18867924</alter>
      <octave>4</octave>
      </pitch>
    <duration>48</duration>
    <type>16th</type>
    <beam number="1">continue</beam>
  </note>
  <note>
    <pitch>
      <step>C</step>
      <alter>-0.05660377</alter>
      <octave>5</octave>
      </pitch>
    <duration>48</duration>
    <type>16th</type>
    <beam number="1">end</beam>
  </note>
  <note>
    <pitch>
      <step>D</step>
      <alter>-0.01886792</alter>
      <octave>5</octave>
      </pitch>
    <duration>192</duration>
    <type>quarter</type>
        <notations>
          <slur type="stop" number="1"/>
          </notations>
  </note>
    <barline location="right">
      <bar-style>light-heavy</bar-style>
        <repeat direction="backward"/>
        </barline>
    <barline location="left">
      <ending number="1" type="stop"/>
        </barline>
</measure>
<measure number="9">
    <barline location="left">
      <ending number="2" type="start"/>
        </barline>
  <note>
    <pitch>
      <step>B</step>
      <alter>-0.18867924</alter>
      <octave>4</octave>
      </pitch>
    <duration>96</duration>
    <type>eighth</type>
    <beam number="1">begin</beam>
    <lyric number="1">
      <syllabic>single</syllabic>
      <text>gön</text>
    </lyric>
    <lyric number="2">
      <syllabic>single</syllabic>
      <text>sa</text>
    </lyric>
  </note>
  <note>
    <pitch>
      <step>B</step>
      <alter>-0.18867924</alter>
      <octave>4</octave>
      </pitch>
    <duration>48</duration>
    <type>16th</type>
    <beam number="1">continue</beam>
        <notations>
          <slur type="start" number="1"/>
          </notations>
    <lyric number="1">
      <syllabic>single</syllabic>
      <text>lü</text>
    </lyric>
    <lyric number="2">
      <syllabic>begin</syllabic>
      <text>na </text>
    </lyric>
  </note>
  <note>
    <pitch>
      <step>C</step>
      <alter>-0.05660377</alter>
      <octave>5</octave>
      </pitch>
    <duration>48</duration>
    <type>16th</type>
    <beam number="1">continue</beam>
        <notations>
          <slur type="stop" number="1"/>
          </notations>
  </note>
  <note>
    <pitch>
      <step>B</step>
      <alter>-0.18867924</alter>
      <octave>4</octave>
      </pitch>
    <duration>48</duration>
    <type>16th</type>
    <beam number="1">continue</beam>
        <notations>
          <slur type="start" number="1"/>
          </notations>
    <lyric number="1">
      <syllabic>begin</syllabic>
      <text>ne </text>
    </lyric>
    <lyric number="2">
      <syllabic>single</syllabic>
      <text>o</text>
    </lyric>
  </note>
  <note>
    <pitch>
      <step>A</step>
      <alter>-0.90566037</alter>
      <octave>4</octave>
      </pitch>
    <duration>48</duration>
    <type>16th</type>
    <beam number="1">continue</beam>
        <notations>
          <slur type="stop" number="1"/>
          </notations>
  </note>
  <note>
    <pitch>
      <step>A</step>
      <alter>-0.90566037</alter>
      <octave>4</octave>
      </pitch>
    <duration>48</duration>
    <type>16th</type>
    <beam number="1">continue</beam>
        <notations>
          <slur type="start" number="1"/>
          </notations>
    <lyric number="1">
      <syllabic>single</syllabic>
      <text>dol</text>
    </lyric>
    <lyric number="2">
      <syllabic>single</syllabic>
      <text>ku</text>
    </lyric>
  </note>
  <note>
    <pitch>
      <step>G</step>
      <alter>-0.03773585</alter>
      <octave>4</octave>
      </pitch>
    <duration>48</duration>
    <type>16th</type>
    <beam number="1">end</beam>
        <notations>
          <slur type="stop" number="1"/>
          </notations>
  </note>
  <note>
    <pitch>
      <step>G</step>
      <alter>-0.03773585</alter>
      <octave>4</octave>
      </pitch>
    <duration>192</duration>
    <type>quarter</type>
    <lyric number="1">
      <syllabic>begin</syllabic>
      <text>sam </text>
    </lyric>
    <lyric number="2">
      <syllabic>begin</syllabic>
      <text>sam </text>
    </lyric>
  </note>
  <note>
    <pitch>
      <step>G</step>
      <alter>-0.03773585</alter>
      <octave>5</octave>
      </pitch>
    <duration>192</duration>
    <type>quarter</type>
    <lyric number="1">
      <syllabic>single</syllabic>
      <text>SAZ</text>
    </lyric>
  </note>
    <barline location="left">
      <ending number="2" type="stop"/>
        </barline>
</measure>
<measure number="10">
    <barline location="left">
      <bar-style>heavy-light</bar-style>
        <repeat direction="forward"/>
        </barline>
  <note>
    <pitch>
      <step>F</step>
      <alter>0.83018868</alter>
      <octave>5</octave>
      </pitch>
    <duration>96</duration>
    <type>eighth</type>
    <lyric number="1">
      <syllabic>single</syllabic>
      <text>Aş</text>
    </lyric>
    <lyric number="2">
      <syllabic>single</syllabic>
      <text>Göğ</text>
    </lyric>
  </note>
  <note>
    <pitch>
      <step>G</step>
      <alter>-0.03773585</alter>
      <octave>5</octave>
      </pitch>
    <duration>192</duration>
    <type>quarter</type>
    <lyric number="1">
      <syllabic>single</syllabic>
      <text>kı</text>
    </lyric>
    <lyric number="2">
      <syllabic>single</syllabic>
      <text>sün</text>
    </lyric>
  </note>
  <note>
    <pitch>
      <step>G</step>
      <alter>-0.03773585</alter>
      <octave>5</octave>
      </pitch>
    <duration>96</duration>
    <type>eighth</type>
    <lyric number="1">
      <syllabic>begin</syllabic>
      <text>nı </text>
    </lyric>
    <lyric number="2">
      <syllabic>begin</syllabic>
      <text>de </text>
    </lyric>
  </note>
  <note>
    <pitch>
      <step>A</step>
      <alter>-0.90566037</alter>
      <octave>5</octave>
      </pitch>
    <duration>48</duration>
    <type>16th</type>
    <beam number="1">begin</beam>
        <notations>
          <slur type="start" number="1"/>
          </notations>
    <lyric number="1">
      <syllabic>single</syllabic>
      <text>di</text>
    </lyric>
    <lyric number="2">
      <syllabic>single</syllabic>
      <text>yat</text>
    </lyric>
  </note>
  <note>
    <pitch>
      <step>G</step>
      <alter>-0.03773585</alter>
      <octave>5</octave>
      </pitch>
    <duration>48</duration>
    <type>16th</type>
    <beam number="1">continue</beam>
        <notations>
          <slur type="stop" number="1"/>
          </notations>
  </note>
  <note>
    <pitch>
      <step>F</step>
      <alter>0.83018868</alter>
      <octave>5</octave>
      </pitch>
    <duration>48</duration>
    <type>16th</type>
    <beam number="1">continue</beam>
        <notations>
          <slur type="start" number="1"/>
          </notations>
    <lyric number="1">
      <syllabic>single</syllabic>
      <text>le</text>
    </lyric>
    <lyric number="2">
      <syllabic>begin</syllabic>
      <text>sam </text>
    </lyric>
  </note>
  <note>
    <pitch>
      <step>A</step>
      <alter>-0.90566037</alter>
      <octave>5</octave>
      </pitch>
    <duration>48</duration>
    <type>16th</type>
    <beam number="1">end</beam>
        <notations>
          <slur type="stop" number="1"/>
          </notations>
  </note>
  <note>
    <pitch>
      <step>G</step>
      <alter>-0.03773585</alter>
      <octave>5</octave>
      </pitch>
    <duration>192</duration>
    <type>quarter</type>
    <lyric number="1">
      <syllabic>begin</syllabic>
      <text>sem </text>
    </lyric>
    <lyric number="2">
      <syllabic>begin</syllabic>
      <text>da </text>
    </lyric>
  </note>
</measure>
<measure number="11">
  <note>
    <pitch>
      <step>A</step>
      <alter>-0.90566037</alter>
      <octave>5</octave>
      </pitch>
    <duration>48</duration>
    <type>16th</type>
    <beam number="1">begin</beam>
        <notations>
          <slur type="start" number="1"/>
          </notations>
    <lyric number="1">
      <syllabic>single</syllabic>
      <text>kal</text>
    </lyric>
    <lyric number="2">
      <syllabic>single</syllabic>
      <text>bi</text>
    </lyric>
  </note>
  <note>
    <pitch>
      <step>G</step>
      <alter>-0.03773585</alter>
      <octave>5</octave>
      </pitch>
    <duration>48</duration>
    <type>16th</type>
    <beam number="1">continue</beam>
        <notations>
          <slur type="stop" number="1"/>
          </notations>
  </note>
  <note>
    <pitch>
      <step>F</step>
      <alter>0.83018868</alter>
      <octave>5</octave>
      </pitch>
    <duration>48</duration>
    <type>16th</type>
    <beam number="1">continue</beam>
        <notations>
          <slur type="start" number="1"/>
          </notations>
    <lyric number="1">
      <syllabic>single</syllabic>
      <text>bi</text>
    </lyric>
    <lyric number="2">
      <syllabic>single</syllabic>
      <text>raz</text>
    </lyric>
  </note>
  <note>
    <pitch>
      <step>G</step>
      <alter>-0.03773585</alter>
      <octave>5</octave>
      </pitch>
    <duration>48</duration>
    <type>16th</type>
    <beam number="1">continue</beam>
        <notations>
          <slur type="stop" number="1"/>
          </notations>
  </note>
  <note>
    <pitch>
      <step>F</step>
      <alter>0.83018868</alter>
      <octave>5</octave>
      </pitch>
    <duration>48</duration>
    <type>16th</type>
    <beam number="1">continue</beam>
        <notations>
          <slur type="start" number="1"/>
          </notations>
    <lyric number="1">
      <syllabic>begin</syllabic>
      <text>mi </text>
    </lyric>
    <lyric number="2">
      <syllabic>single</syllabic>
      <text>u</text>
    </lyric>
  </note>
  <note>
    <pitch>
      <step>E</step>
      <alter>-0.88679245</alter>
      <octave>5</octave>
      </pitch>
    <duration>48</duration>
    <type>16th</type>
    <beam number="1">continue</beam>
        <notations>
          <slur type="stop" number="1"/>
          </notations>
  </note>
  <note>
    <pitch>
      <step>D</step>
      <alter>-0.01886792</alter>
      <octave>5</octave>
      </pitch>
    <duration>48</duration>
    <type>16th</type>
    <beam number="1">continue</beam>
        <notations>
          <slur type="start" number="1"/>
          </notations>
    <lyric number="1">
      <syllabic>single</syllabic>
      <text>sun</text>
    </lyric>
    <lyric number="2">
      <syllabic>single</syllabic>
      <text>yu</text>
    </lyric>
  </note>
  <note>
    <pitch>
      <step>C</step>
      <alter>-0.05660377</alter>
      <octave>5</octave>
      </pitch>
    <duration>48</duration>
    <type>16th</type>
    <beam number="1">end</beam>
        <notations>
          <slur type="stop" number="1"/>
          </notations>
  </note>
  <note>
    <pitch>
      <step>D</step>
      <alter>-0.01886792</alter>
      <octave>5</octave>
      </pitch>
    <duration>384</duration>
    <type>half</type>
    <lyric number="1">
      <syllabic>begin</syllabic>
      <text>sam </text>
    </lyric>
    <lyric number="2">
      <syllabic>begin</syllabic>
      <text>sam </text>
    </lyric>
  </note>
    <barline location="right">
      <bar-style>light-heavy</bar-style>
        <repeat direction="backward"/>
        </barline>
</measure>
<measure number="12">
    <barline location="left">
      <bar-style>heavy-light</bar-style>
        <repeat direction="forward"/>
        </barline>
  <note>
    <pitch>
      <step>D</step>
      <alter>-0.01886792</alter>
      <octave>5</octave>
      </pitch>
    <duration>96</duration>
    <type>eighth</type>
    <lyric number="1">
      <syllabic>begin</syllabic>
      <text>Ne </text>
    </lyric>
    <lyric number="2">
      <syllabic>single</syllabic>
      <text>E</text>
    </lyric>
  </note>
  <note>
    <pitch>
      <step>E</step>
      <alter>-0.88679245</alter>
      <octave>5</octave>
      </pitch>
    <duration>192</duration>
    <type>quarter</type>
    <lyric number="1">
      <syllabic>single</syllabic>
      <text>o</text>
    </lyric>
    <lyric number="2">
      <syllabic>single</syllabic>
      <text>le</text>
    </lyric>
  </note>
  <note>
    <pitch>
      <step>E</step>
      <alter>-0.88679245</alter>
      <octave>5</octave>
      </pitch>
    <duration>96</duration>
    <type>eighth</type>
    <lyric number="1">
      <syllabic>begin</syllabic>
      <text>lur </text>
    </lyric>
    <lyric number="2">
      <syllabic>begin</syllabic>
      <text>mi </text>
    </lyric>
  </note>
  <note>
    <pitch>
      <step>E</step>
      <alter>-0.88679245</alter>
      <octave>5</octave>
      </pitch>
    <duration>48</duration>
    <type>16th</type>
    <beam number="1">begin</beam>
        <notations>
          <slur type="start" number="1"/>
          </notations>
    <lyric number="1">
      <syllabic>single</syllabic>
      <text>uğ</text>
    </lyric>
    <lyric number="2">
      <syllabic>single</syllabic>
      <text>u</text>
    </lyric>
  </note>
  <note>
    <pitch>
      <step>D</step>
      <alter>-0.01886792</alter>
      <octave>5</octave>
      </pitch>
    <duration>48</duration>
    <type>16th</type>
    <beam number="1">continue</beam>
        <notations>
          <slur type="stop" number="1"/>
          </notations>
  </note>
  <note>
    <pitch>
      <step>E</step>
      <alter>-0.88679245</alter>
      <octave>5</octave>
      </pitch>
    <duration>48</duration>
    <type>16th</type>
    <beam number="1">continue</beam>
        <notations>
          <slur type="start" number="1"/>
          </notations>
    <lyric number="1">
      <syllabic>single</syllabic>
      <text>ru</text>
    </lyric>
    <lyric number="2">
      <syllabic>single</syllabic>
      <text>nut</text>
    </lyric>
  </note>
  <note>
    <pitch>
      <step>G</step>
      <alter>-0.03773585</alter>
      <octave>5</octave>
      </pitch>
    <duration>48</duration>
    <type>16th</type>
    <beam number="1">continue</beam>
        <notations>
          <slur type="stop" number="1"/>
          </notations>
  </note>
  <note>
    <pitch>
      <step>F</step>
      <alter>0.83018868</alter>
      <octave>5</octave>
      </pitch>
    <duration>48</duration>
    <type>16th</type>
    <beam number="1">continue</beam>
        <notations>
          <slur type="start" number="1"/>
          </notations>
    <lyric number="1">
      <syllabic>begin</syllabic>
      <text>na </text>
    </lyric>
    <lyric number="2">
      <syllabic>begin</syllabic>
      <text>sam </text>
    </lyric>
  </note>
  <note>
    <pitch>
      <step>E</step>
      <alter>-0.88679245</alter>
      <octave>5</octave>
      </pitch>
    <duration>48</duration>
    <type>16th</type>
    <beam number="1">continue</beam>
  </note>
  <note>
    <pitch>
      <step>D</step>
      <alter>-0.01886792</alter>
      <octave>5</octave>
      </pitch>
    <duration>48</duration>
    <type>16th</type>
    <beam number="1">continue</beam>
  </note>
  <note>
    <pitch>
      <step>C</step>
      <alter>-0.05660377</alter>
      <octave>5</octave>
      </pitch>
    <duration>48</duration>
    <type>16th</type>
    <beam number="1">end</beam>
        <notations>
          <slur type="stop" number="1"/>
          </notations>
  </note>
</measure>
<measure number="13">
    <barline location="left">
      <ending number="1" type="start"/>
        </barline>
  <note>
    <pitch>
      <step>B</step>
      <alter>-0.18867924</alter>
      <octave>4</octave>
      </pitch>
    <duration>96</duration>
    <type>eighth</type>
    <beam number="1">begin</beam>
    <lyric number="1">
      <syllabic>single</syllabic>
      <text>sa</text>
    </lyric>
    <lyric number="2">
      <syllabic>single</syllabic>
      <text>neş</text>
    </lyric>
  </note>
  <note>
    <pitch>
      <step>B</step>
      <alter>-0.18867924</alter>
      <octave>4</octave>
      </pitch>
    <duration>48</duration>
    <type>16th</type>
    <beam number="1">continue</beam>
        <notations>
          <slur type="start" number="1"/>
          </notations>
    <lyric number="1">
      <syllabic>single</syllabic>
      <text>ra</text>
    </lyric>
    <lyric number="2">
      <syllabic>single</syllabic>
      <text>e</text>
    </lyric>
  </note>
  <note>
    <pitch>
      <step>C</step>
      <alter>-0.05660377</alter>
      <octave>5</octave>
      </pitch>
    <duration>48</duration>
    <type>16th</type>
    <beam number="1">continue</beam>
        <notations>
          <slur type="stop" number="1"/>
          </notations>
  </note>
  <note>
    <pitch>
      <step>B</step>
      <alter>-0.18867924</alter>
      <octave>4</octave>
      </pitch>
    <duration>48</duration>
    <type>16th</type>
    <beam number="1">continue</beam>
        <notations>
          <slur type="start" number="1"/>
          </notations>
    <lyric number="1">
      <syllabic>begin</syllabic>
      <text>rıp </text>
    </lyric>
    <lyric number="2">
      <syllabic>begin</syllabic>
      <text>mi </text>
    </lyric>
  </note>
  <note>
    <pitch>
      <step>A</step>
      <alter>-0.90566037</alter>
      <octave>4</octave>
      </pitch>
    <duration>48</duration>
    <type>16th</type>
    <beam number="1">continue</beam>
        <notations>
          <slur type="stop" number="1"/>
          </notations>
  </note>
  <note>
    <pitch>
      <step>A</step>
      <alter>-0.90566037</alter>
      <octave>4</octave>
      </pitch>
    <duration>48</duration>
    <type>16th</type>
    <beam number="1">continue</beam>
        <notations>
          <slur type="start" number="1"/>
          </notations>
    <lyric number="1">
      <syllabic>single</syllabic>
      <text>sol</text>
    </lyric>
    <lyric number="2">
      <syllabic>single</syllabic>
      <text>bul</text>
    </lyric>
  </note>
  <note>
    <pitch>
      <step>G</step>
      <alter>-0.03773585</alter>
      <octave>4</octave>
      </pitch>
    <duration>48</duration>
    <type>16th</type>
    <beam number="1">end</beam>
        <notations>
          <slur type="stop" number="1"/>
          </notations>
  </note>
  <note>
    <pitch>
      <step>G</step>
      <alter>-0.03773585</alter>
      <octave>4</octave>
      </pitch>
    <duration>48</duration>
    <type>16th</type>
    <beam number="1">begin</beam>
        <notations>
          <slur type="start" number="1"/>
          </notations>
    <lyric number="1">
      <syllabic>begin</syllabic>
      <text>sam </text>
    </lyric>
    <lyric number="2">
      <syllabic>begin</syllabic>
      <text>sam </text>
    </lyric>
  </note>
  <note>
    <pitch>
      <step>A</step>
      <alter>-0.90566037</alter>
      <octave>4</octave>
      </pitch>
    <duration>48</duration>
    <type>16th</type>
    <beam number="1">continue</beam>
  </note>
  <note>
    <pitch>
      <step>B</step>
      <alter>-0.18867924</alter>
      <octave>4</octave>
      </pitch>
    <duration>48</duration>
    <type>16th</type>
    <beam number="1">continue</beam>
  </note>
  <note>
    <pitch>
      <step>C</step>
      <alter>-0.05660377</alter>
      <octave>5</octave>
      </pitch>
    <duration>48</duration>
    <type>16th</type>
    <beam number="1">end</beam>
  </note>
  <note>
    <pitch>
      <step>D</step>
      <alter>-0.01886792</alter>
      <octave>5</octave>
      </pitch>
    <duration>192</duration>
    <type>quarter</type>
        <notations>
          <slur type="stop" number="1"/>
          </notations>
  </note>
    <barline location="right">
      <bar-style>light-heavy</bar-style>
        <repeat direction="backward"/>
        </barline>
    <barline location="left">
      <ending number="1" type="stop"/>
        </barline>
</measure>
<measure number="14">
    <barline location="left">
      <ending number="2" type="start"/>
        </barline>
  <note>
    <pitch>
      <step>B</step>
      <alter>-0.18867924</alter>
      <octave>4</octave>
      </pitch>
    <duration>96</duration>
    <type>eighth</type>
    <beam number="1">begin</beam>
    <lyric number="1">
      <syllabic>single</syllabic>
      <text>sa</text>
    </lyric>
    <lyric number="2">
      <syllabic>single</syllabic>
      <text>neş</text>
    </lyric>
  </note>
  <note>
    <pitch>
      <step>B</step>
      <alter>-0.18867924</alter>
      <octave>4</octave>
      </pitch>
    <duration>48</duration>
    <type>16th</type>
    <beam number="1">continue</beam>
        <notations>
          <slur type="start" number="1"/>
          </notations>
    <lyric number="1">
      <syllabic>single</syllabic>
      <text>ra</text>
    </lyric>
    <lyric number="2">
      <syllabic>single</syllabic>
      <text>e</text>
    </lyric>
  </note>
  <note>
    <pitch>
      <step>C</step>
      <alter>-0.05660377</alter>
      <octave>5</octave>
      </pitch>
    <duration>48</duration>
    <type>16th</type>
    <beam number="1">continue</beam>
        <notations>
          <slur type="stop" number="1"/>
          </notations>
  </note>
  <note>
    <pitch>
      <step>B</step>
      <alter>-0.18867924</alter>
      <octave>4</octave>
      </pitch>
    <duration>48</duration>
    <type>16th</type>
    <beam number="1">continue</beam>
        <notations>
          <slur type="start" number="1"/>
          </notations>
    <lyric number="1">
      <syllabic>begin</syllabic>
      <text>rıp </text>
    </lyric>
    <lyric number="2">
      <syllabic>begin</syllabic>
      <text>mi </text>
    </lyric>
  </note>
  <note>
    <pitch>
      <step>A</step>
      <alter>-0.90566037</alter>
      <octave>4</octave>
      </pitch>
    <duration>48</duration>
    <type>16th</type>
    <beam number="1">continue</beam>
        <notations>
          <slur type="stop" number="1"/>
          </notations>
  </note>
  <note>
    <pitch>
      <step>A</step>
      <alter>-0.90566037</alter>
      <octave>4</octave>
      </pitch>
    <duration>48</duration>
    <type>16th</type>
    <beam number="1">continue</beam>
        <notations>
          <slur type="start" number="1"/>
          </notations>
    <lyric number="1">
      <syllabic>single</syllabic>
      <text>sol</text>
    </lyric>
    <lyric number="2">
      <syllabic>single</syllabic>
      <text>bul</text>
    </lyric>
  </note>
  <note>
    <pitch>
      <step>G</step>
      <alter>-0.03773585</alter>
      <octave>4</octave>
      </pitch>
    <duration>48</duration>
    <type>16th</type>
    <beam number="1">end</beam>
        <notations>
          <slur type="stop" number="1"/>
          </notations>
  </note>
  <note>
    <pitch>
      <step>G</step>
      <alter>-0.03773585</alter>
      <octave>4</octave>
      </pitch>
    <duration>384</duration>
    <type>half</type>
    <lyric number="1">
      <syllabic>begin</syllabic>
      <text>sam </text>
    </lyric>
    <lyric number="2">
      <syllabic>begin</syllabic>
      <text>sam </text>
    </lyric>
  </note>
    <barline location="left">
      <ending number="2" type="stop"/>
        </barline>
</measure>
<measure number="15">
    <barline location="left">
      <bar-style>heavy-light</bar-style>
        <repeat direction="forward"/>
        </barline>
  <note>
    <pitch>
      <step>F</step>
      <alter>0.83018868</alter>
      <octave>4</octave>
      </pitch>
    <duration>48</duration>
    <type>16th</type>
    <beam number="1">begin</beam>
        <notations>
          <slur type="start" number="1"/>
          </notations>
    <lyric number="1">
      <syllabic>single</syllabic>
      <text>Ba</text>
    </lyric>
  </note>
  <note>
    <pitch>
      <step>G</step>
      <alter>-0.03773585</alter>
      <octave>4</octave>
      </pitch>
    <duration>48</duration>
    <type>16th</type>
    <beam number="1">continue</beam>
        <notations>
          <slur type="stop" number="1"/>
          </notations>
  </note>
  <note>
    <pitch>
      <step>A</step>
      <alter>-0.90566037</alter>
      <octave>4</octave>
      </pitch>
    <duration>48</duration>
    <type>16th</type>
    <beam number="1">continue</beam>
        <notations>
          <slur type="start" number="1"/>
          </notations>
    <lyric number="1">
      <syllabic>single</syllabic>
      <text>ha</text>
    </lyric>
  </note>
  <note>
    <pitch>
      <step>F</step>
      <alter>0.83018868</alter>
      <octave>4</octave>
      </pitch>
    <duration>48</duration>
    <type>16th</type>
    <beam number="1">end</beam>
        <notations>
          <slur type="stop" number="1"/>
          </notations>
  </note>
  <note>
    <pitch>
      <step>G</step>
      <alter>-0.03773585</alter>
      <octave>4</octave>
      </pitch>
    <duration>192</duration>
    <type>quarter</type>
    <lyric number="1">
      <syllabic>begin</syllabic>
      <text>rım </text>
    </lyric>
  </note>
  <note>
    <pitch>
      <step>E</step>
      <alter>-0.88679245</alter>
      <octave>5</octave>
      </pitch>
    <duration>48</duration>
    <type>16th</type>
    <beam number="1">begin</beam>
        <notations>
          <slur type="start" number="1"/>
          </notations>
    <lyric number="1">
      <syllabic>single</syllabic>
      <text>çi</text>
    </lyric>
  </note>
  <note>
    <pitch>
      <step>D</step>
      <alter>-0.01886792</alter>
      <octave>5</octave>
      </pitch>
    <duration>48</duration>
    <type>16th</type>
    <beam number="1">continue</beam>
        <notations>
          <slur type="stop" number="1"/>
          </notations>
  </note>
  <note>
    <pitch>
      <step>C</step>
      <alter>-0.05660377</alter>
      <octave>5</octave>
      </pitch>
    <duration>48</duration>
    <type>16th</type>
    <beam number="1">continue</beam>
        <notations>
          <slur type="start" number="1"/>
          </notations>
    <lyric number="1">
      <syllabic>single</syllabic>
      <text>çe</text>
    </lyric>
  </note>
  <note>
    <pitch>
      <step>E</step>
      <alter>-0.88679245</alter>
      <octave>5</octave>
      </pitch>
    <duration>48</duration>
    <type>16th</type>
    <beam number="1">end</beam>
        <notations>
          <slur type="stop" number="1"/>
          </notations>
  </note>
  <note>
    <pitch>
      <step>D</step>
      <alter>-0.01886792</alter>
      <octave>5</octave>
      </pitch>
    <duration>192</duration>
    <type>quarter</type>
    <lyric number="1">
      <syllabic>begin</syllabic>
      <text>ğim </text>
    </lyric>
  </note>
</measure>
<measure number="16">
  <note>
    <pitch>
      <step>F</step>
      <alter>0.83018868</alter>
      <octave>4</octave>
      </pitch>
    <duration>48</duration>
    <type>16th</type>
    <beam number="1">begin</beam>
        <notations>
          <slur type="start" number="1"/>
          </notations>
    <lyric number="1">
      <syllabic>single</syllabic>
      <text>gü</text>
    </lyric>
  </note>
  <note>
    <pitch>
      <step>G</step>
      <alter>-0.03773585</alter>
      <octave>4</octave>
      </pitch>
    <duration>48</duration>
    <type>16th</type>
    <beam number="1">continue</beam>
        <notations>
          <slur type="stop" number="1"/>
          </notations>
  </note>
  <note>
    <pitch>
      <step>A</step>
      <alter>-0.90566037</alter>
      <octave>4</octave>
      </pitch>
    <duration>48</duration>
    <type>16th</type>
    <beam number="1">continue</beam>
        <notations>
          <slur type="start" number="1"/>
          </notations>
    <lyric number="1">
      <syllabic>single</syllabic>
      <text>ze</text>
    </lyric>
  </note>
  <note>
    <pitch>
      <step>F</step>
      <alter>0.83018868</alter>
      <octave>4</octave>
      </pitch>
    <duration>48</duration>
    <type>16th</type>
    <beam number="1">end</beam>
        <notations>
          <slur type="stop" number="1"/>
          </notations>
  </note>
  <note>
    <pitch>
      <step>G</step>
      <alter>-0.03773585</alter>
      <octave>4</octave>
      </pitch>
    <duration>192</duration>
    <type>quarter</type>
    <lyric number="1">
      <syllabic>begin</syllabic>
      <text>lim </text>
    </lyric>
  </note>
  <note>
    <pitch>
      <step>E</step>
      <alter>-0.88679245</alter>
      <octave>5</octave>
      </pitch>
    <duration>48</duration>
    <type>16th</type>
    <beam number="1">begin</beam>
        <notations>
          <slur type="start" number="1"/>
          </notations>
    <lyric number="1">
      <syllabic>single</syllabic>
      <text>sev</text>
    </lyric>
  </note>
  <note>
    <pitch>
      <step>D</step>
      <alter>-0.01886792</alter>
      <octave>5</octave>
      </pitch>
    <duration>48</duration>
    <type>16th</type>
    <beam number="1">continue</beam>
  </note>
  <note>
    <pitch>
      <step>C</step>
      <alter>-0.05660377</alter>
      <octave>5</octave>
      </pitch>
    <duration>48</duration>
    <type>16th</type>
    <beam number="1">continue</beam>
        <notations>
          <slur type="stop" number="1"/>
          </notations>
  </note>
  <note>
    <pitch>
      <step>E</step>
      <alter>-0.88679245</alter>
      <octave>5</octave>
      </pitch>
    <duration>48</duration>
    <type>16th</type>
    <beam number="1">end</beam>
    <lyric number="1">
      <syllabic>single</syllabic>
      <text>gi</text>
    </lyric>
  </note>
  <note>
    <pitch>
      <step>D</step>
      <alter>-0.01886792</alter>
      <octave>5</octave>
      </pitch>
    <duration>192</duration>
    <type>quarter</type>
    <lyric number="1">
      <syllabic>begin</syllabic>
      <text>lim </text>
    </lyric>
  </note>
</measure>
<measure number="17">
  <note>
    <pitch>
      <step>F</step>
      <alter>0.83018868</alter>
      <octave>5</octave>
      </pitch>
    <duration>144</duration>
    <type>eighth</type><dot/>
    <lyric number="1">
      <syllabic>begin</syllabic>
      <text>Sar </text>
    </lyric>
  </note>
  <note>
    <pitch>
      <step>F</step>
      <alter>0.83018868</alter>
      <octave>5</octave>
      </pitch>
    <duration>48</duration>
    <type>16th</type>
    <beam number="1">begin</beam>
    <lyric number="1">
      <syllabic>single</syllabic>
      <text>be</text>
    </lyric>
  </note>
  <note>
    <pitch>
      <step>F</step>
      <alter>0.83018868</alter>
      <octave>5</octave>
      </pitch>
    <duration>96</duration>
    <type>eighth</type>
    <beam number="1">continue</beam>
    <lyric number="1">
      <syllabic>begin</syllabic>
      <text>ni </text>
    </lyric>
  </note>
  <note>
    <pitch>
      <step>F</step>
      <alter>0.83018868</alter>
      <octave>5</octave>
      </pitch>
    <duration>96</duration>
    <type>eighth</type>
    <beam number="1">end</beam>
    <lyric number="1">
      <syllabic>single</syllabic>
      <text>kol</text>
    </lyric>
  </note>
  <note>
    <pitch>
      <step>G</step>
      <alter>-0.03773585</alter>
      <octave>5</octave>
      </pitch>
    <duration>48</duration>
    <type>16th</type>
    <beam number="1">begin</beam>
        <notations>
          <slur type="start" number="1"/>
          </notations>
    <lyric number="1">
      <syllabic>single</syllabic>
      <text>la</text>
    </lyric>
  </note>
  <note>
    <pitch>
      <step>A</step>
      <alter>-0.90566037</alter>
      <octave>5</octave>
      </pitch>
    <duration>48</duration>
    <type>16th</type>
    <beam number="1">continue</beam>
        <notations>
          <slur type="stop" number="1"/>
          </notations>
  </note>
  <note>
    <pitch>
      <step>G</step>
      <alter>-0.03773585</alter>
      <octave>5</octave>
      </pitch>
    <duration>48</duration>
    <type>16th</type>
    <beam number="1">continue</beam>
        <notations>
          <slur type="start" number="1"/>
          </notations>
    <lyric number="1">
      <syllabic>single</syllabic>
      <text>rın</text>
    </lyric>
  </note>
  <note>
    <pitch>
      <step>F</step>
      <alter>0.83018868</alter>
      <octave>5</octave>
      </pitch>
    <duration>48</duration>
    <type>16th</type>
    <beam number="1">continue</beam>
        <notations>
          <slur type="stop" number="1"/>
          </notations>
  </note>
  <note>
    <pitch>
      <step>E</step>
      <alter>-0.88679245</alter>
      <octave>5</octave>
      </pitch>
    <duration>48</duration>
    <type>16th</type>
    <beam number="1">continue</beam>
        <notations>
          <slur type="start" number="1"/>
          </notations>
    <lyric number="1">
      <syllabic>begin</syllabic>
      <text>da </text>
    </lyric>
  </note>
  <note>
    <pitch>
      <step>D</step>
      <alter>-0.01886792</alter>
      <octave>5</octave>
      </pitch>
    <duration>48</duration>
    <type>16th</type>
    <beam number="1">continue</beam>
  </note>
  <note>
    <pitch>
      <step>C</step>
      <alter>-0.05660377</alter>
      <octave>5</octave>
      </pitch>
    <duration>96</duration>
    <type>eighth</type>
    <beam number="1">end</beam>
        <notations>
          <slur type="stop" number="1"/>
          </notations>
  </note>
</measure>
<measure number="18">
  <note>
    <pitch>
      <step>B</step>
      <alter>-0.18867924</alter>
      <octave>4</octave>
      </pitch>
    <duration>96</duration>
    <type>eighth</type>
    <beam number="1">begin</beam>
    <lyric number="1">
      <syllabic>single</syllabic>
      <text>ca</text>
    </lyric>
  </note>
  <note>
    <pitch>
      <step>C</step>
      <alter>-0.05660377</alter>
      <octave>5</octave>
      </pitch>
    <duration>48</duration>
    <type>16th</type>
    <beam number="1">continue</beam>
        <notations>
          <slur type="start" number="1"/>
          </notations>
    <lyric number="1">
      <syllabic>begin</syllabic>
      <text>nım </text>
    </lyric>
  </note>
  <note>
    <pitch>
      <step>D</step>
      <alter>-0.01886792</alter>
      <octave>5</octave>
      </pitch>
    <duration>48</duration>
    <type>16th</type>
    <beam number="1">continue</beam>
        <notations>
          <slur type="stop" number="1"/>
          </notations>
  </note>
  <note>
    <pitch>
      <step>B</step>
      <alter>-0.18867924</alter>
      <octave>4</octave>
      </pitch>
    <duration>48</duration>
    <type>16th</type>
    <beam number="1">continue</beam>
        <notations>
          <slur type="start" number="1"/>
          </notations>
    <lyric number="1">
      <syllabic>single</syllabic>
      <text>di</text>
    </lyric>
  </note>
  <note>
    <pitch>
      <step>A</step>
      <alter>-0.90566037</alter>
      <octave>4</octave>
      </pitch>
    <duration>48</duration>
    <type>16th</type>
    <beam number="1">continue</beam>
        <notations>
          <slur type="stop" number="1"/>
          </notations>
  </note>
  <note>
    <pitch>
      <step>A</step>
      <alter>-0.90566037</alter>
      <octave>4</octave>
      </pitch>
    <duration>48</duration>
    <type>16th</type>
    <beam number="1">continue</beam>
        <notations>
          <slur type="start" number="1"/>
          </notations>
    <lyric number="1">
      <syllabic>single</syllabic>
      <text>ye</text>
    </lyric>
  </note>
  <note>
    <pitch>
      <step>G</step>
      <alter>-0.03773585</alter>
      <octave>4</octave>
      </pitch>
    <duration>48</duration>
    <type>16th</type>
    <beam number="1">end</beam>
        <notations>
          <slur type="stop" number="1"/>
          </notations>
  </note>
  <note>
    <pitch>
      <step>G</step>
      <alter>-0.03773585</alter>
      <octave>4</octave>
      </pitch>
    <duration>384</duration>
    <type>half</type>
    <lyric number="1">
      <syllabic>begin</syllabic>
      <text>yim </text>
    </lyric>
  </note>
    <barline location="right">
      <bar-style>light-heavy</bar-style>
        <repeat direction="backward"/>
        </barline>
     <direction placement="above">
      <direction-type>
        <words>D.S.</words>
        </direction-type>
        <sound dalsegno="segno"/>
        </direction>
</measure>
</part>
</score-partwise>
