<?xml version="1.0" encoding="UTF-8"?>
<!DOCTYPE score-partwise PUBLIC "-//Recordare//DTD MusicXML 3.0 Partwise//EN" "http://www.musicxml.org/dtds/partwise.dtd">
<score-partwise version="3.0">
  <work>
    <work-title>Gönlümde Açmadan Solan...</work-title>
  </work>
  <identification>
  <creator type="composer">Beste: Şekip Ayhan Özışık</creator>
  <creator type="lyricist">Sadık Şendil</creator>
  <rights>hicaz_zirgule--sarki--duyek--gonlumde_acmadan--sekip_ayhan_ozisik.xml</rights>
  </identification>
<defaults>
  <scaling>
      <millimeters>7.05556</millimeters>
      <tenths>40</tenths>
      </scaling>
    <page-layout>
      <page-height>1683.36</page-height>
      <page-width>1190.88</page-width>
      <page-margins type="even">
        <left-margin>100</left-margin>
        <right-margin>100</right-margin>
        <top-margin>56.6929</top-margin>
        <bottom-margin>113.386</bottom-margin>
        </page-margins>
      <page-margins type="odd">
        <left-margin>100</left-margin>
        <right-margin>100</right-margin>
        <top-margin>56.6929</top-margin>
        <bottom-margin>113.386</bottom-margin>
        </page-margins>
      </page-layout>
    <word-font font-family="FreeSerif" font-size="10"/>
    <lyric-font font-family="FreeSerif" font-size="11"/>
    </defaults>
  <credit page="1">
    <credit-words default-x="595.276" default-y="1627.09" justify="center" valign="top" font-size="24">Gönlümde Açmadan Solan...</credit-words>
    </credit>
  <credit page="1">
    <credit-words default-x="1133.86" default-y="1527.09" justify="right" valign="bottom" font-size="12">Beste: Şekip Ayhan Özışık</credit-words>
          <credit-words>Sadık Şendil</credit-words>
    </credit>
  <credit page="1">
    <credit-words default-x="595.44" default-y="1569.97" justify="center" valign="top" font-size="14">Makam: Hicaz-Zirgüle Şarkı</credit-words>
    </credit>
  <credit page="1">
    <credit-words default-x="56.6929" default-y="1526.67" justify="left" valign="bottom" font-size="12">Usul: Düyek</credit-words>
    </credit>
  <credit page="1">
    <credit-words default-x="595.44" default-y="113.386" justify="center" valign="bottom">hicaz_zirgule--sarki--duyek--gonlumde_acmadan--sekip_ayhan_ozisik.xml</credit-words>
</credit>
<part-list>
<score-part id="P1">
<part-name>S</part-name>
<part-abbreviation>S</part-abbreviation>
<score-instrument id="P1-I1">
<instrument-name>S</instrument-name>
</score-instrument>
<midi-device id="P1-I1" port="1"></midi-device>
<midi-instrument id="P1-I1">
<midi-channel>1</midi-channel>
<midi-program>1</midi-program>
<volume>80</volume>
<pan>0</pan>
</midi-instrument>
</score-part>
</part-list>
<part id="P1">
<measure number="1">
    <attributes>
      <divisions>192</divisions>
      <time>
        <beats>8</beats>
        <beat-type>8</beat-type>
      </time>
      </attributes>
      <attributes>
        <key>
        <key-step>B</key-step>
        <key-alter>-1</key-alter>
        <key-accidental>slash-flat</key-accidental>
        <key-step>F</key-step>
        <key-alter>0.5</key-alter>
        <key-accidental>quarter-sharp</key-accidental>
        <key-step>C</key-step>
        <key-alter>1</key-alter>
        <key-accidental>sharp</key-accidental>
        <key-step>G</key-step>
        <key-alter>1</key-alter>
        <key-accidental>sharp</key-accidental>
        <key-octave number="1">5</key-octave>
        </key>
      </attributes>
    <direction placement="above">
      <direction-type>
        <segno/>
        </direction-type>
        <sound segno="segno"/>
        </direction>
    <barline location="left">
      <bar-style>heavy-light</bar-style>
        <repeat direction="forward"/>
        </barline>
    <direction placement="above">
      <direction-type>
        <metronome parentheses="no">
          <beat-unit>eighth</beat-unit>
          <per-minute>192</per-minute>
          </metronome>
        </direction-type>
      <sound tempo="192"/>
      </direction>
 <direction placement="above">
   <direction-type>
     <words default-y="40" font-family="FreeSerif">Usul: Düyek</words>
     </direction-type>
   </direction>
  <note>
    <pitch>
      <step>A</step>
      <alter>0.00000000</alter>
      <octave>4</octave>
      </pitch>
    <duration>96</duration>
    <type>eighth</type>
    <lyric number="1">
      <syllabic>single</syllabic>
      <text>ARANAĞME</text>
    </lyric>
  </note>
  <note>
    <pitch>
      <step>B</step>
      <alter>-0.86792452</alter>
      <octave>4</octave>
      </pitch>
    <duration>192</duration>
    <type>quarter</type>
    <lyric number="1">
      <syllabic>single</syllabic>
      <text>.</text>
    </lyric>
  </note>
  <note>
    <pitch>
      <step>A</step>
      <alter>0.00000000</alter>
      <octave>4</octave>
      </pitch>
    <duration>96</duration>
    <type>eighth</type>
    <lyric number="1">
      <syllabic>single</syllabic>
      <text>.</text>
    </lyric>
  </note>
  <note>
    <pitch>
      <step>G</step>
      <alter>0.86792453</alter>
      <octave>4</octave>
      </pitch>
    <duration>288</duration>
    <type>quarter</type><dot/>
    <lyric number="1">
      <syllabic>single</syllabic>
      <text>.</text>
    </lyric>
  </note>
  <note>
    <pitch>
      <step>F</step>
      <alter>0.15094340</alter>
      <octave>4</octave>
      </pitch>
    <duration>96</duration>
    <type>eighth</type>
    <lyric number="1">
      <syllabic>single</syllabic>
      <text>.</text>
    </lyric>
  </note>
</measure>
<measure number="2">
  <note>
    <pitch>
      <step>A</step>
      <alter>0.00000000</alter>
      <octave>4</octave>
      </pitch>
    <duration>768</duration>
    <type>whole</type>
    <lyric number="1">
      <syllabic>single</syllabic>
      <text>.</text>
    </lyric>
  </note>
</measure>
<measure number="3">
  <note>
    <pitch>
      <step>A</step>
      <alter>0.00000000</alter>
      <octave>4</octave>
      </pitch>
    <duration>96</duration>
    <type>eighth</type>
    <lyric number="1">
      <syllabic>single</syllabic>
      <text>.</text>
    </lyric>
  </note>
  <note>
    <pitch>
      <step>B</step>
      <alter>-0.86792452</alter>
      <octave>4</octave>
      </pitch>
    <duration>192</duration>
    <type>quarter</type>
    <lyric number="1">
      <syllabic>single</syllabic>
      <text>.</text>
    </lyric>
  </note>
  <note>
    <pitch>
      <step>A</step>
      <alter>0.00000000</alter>
      <octave>4</octave>
      </pitch>
    <duration>96</duration>
    <type>eighth</type>
    <lyric number="1">
      <syllabic>single</syllabic>
      <text>.</text>
    </lyric>
  </note>
  <note>
    <pitch>
      <step>G</step>
      <alter>0.86792453</alter>
      <octave>4</octave>
      </pitch>
    <duration>288</duration>
    <type>quarter</type><dot/>
    <lyric number="1">
      <syllabic>single</syllabic>
      <text>.</text>
    </lyric>
  </note>
  <note>
    <pitch>
      <step>F</step>
      <alter>0.15094340</alter>
      <octave>4</octave>
      </pitch>
    <duration>96</duration>
    <type>eighth</type>
    <lyric number="1">
      <syllabic>single</syllabic>
      <text>.</text>
    </lyric>
  </note>
</measure>
<measure number="4">
  <note>
    <pitch>
      <step>B</step>
      <alter>-0.86792452</alter>
      <octave>4</octave>
      </pitch>
    <duration>768</duration>
    <type>whole</type>
    <lyric number="1">
      <syllabic>single</syllabic>
      <text>.</text>
    </lyric>
  </note>
</measure>
<measure number="5">
<note>
  <rest/>
  <duration>96</duration>
  </note>
  <note>
    <pitch>
      <step>D</step>
      <alter>-0.01886792</alter>
      <octave>5</octave>
      </pitch>
    <duration>96</duration>
    <type>eighth</type>
    <beam number="1">begin</beam>
    <lyric number="1">
      <syllabic>single</syllabic>
      <text>.</text>
    </lyric>
  </note>
  <note>
    <pitch>
      <step>C</step>
      <alter>0.84905661</alter>
      <octave>5</octave>
      </pitch>
    <duration>96</duration>
    <type>eighth</type>
    <beam number="1">continue</beam>
    <lyric number="1">
      <syllabic>single</syllabic>
      <text>.</text>
    </lyric>
  </note>
  <note>
    <pitch>
      <step>B</step>
      <alter>-0.86792452</alter>
      <octave>4</octave>
      </pitch>
    <duration>96</duration>
    <type>eighth</type>
    <beam number="1">end</beam>
    <lyric number="1">
      <syllabic>single</syllabic>
      <text>.</text>
    </lyric>
  </note>
  <note>
    <pitch>
      <step>D</step>
      <alter>-0.01886792</alter>
      <octave>5</octave>
      </pitch>
    <duration>384</duration>
    <type>half</type>
    <lyric number="1">
      <syllabic>single</syllabic>
      <text>.</text>
    </lyric>
  </note>
</measure>
<measure number="6">
  <note>
    <pitch>
      <step>C</step>
      <alter>0.84905661</alter>
      <octave>5</octave>
      </pitch>
    <duration>768</duration>
    <type>whole</type>
    <lyric number="1">
      <syllabic>single</syllabic>
      <text>.</text>
    </lyric>
  </note>
</measure>
<measure number="7">
<note>
  <rest/>
  <duration>96</duration>
  </note>
  <note>
    <pitch>
      <step>B</step>
      <alter>-0.86792452</alter>
      <octave>4</octave>
      </pitch>
    <duration>96</duration>
    <type>eighth</type>
    <beam number="1">begin</beam>
    <lyric number="1">
      <syllabic>single</syllabic>
      <text>.</text>
    </lyric>
  </note>
  <note>
    <pitch>
      <step>A</step>
      <alter>0.00000000</alter>
      <octave>4</octave>
      </pitch>
    <duration>96</duration>
    <type>eighth</type>
    <beam number="1">continue</beam>
    <lyric number="1">
      <syllabic>single</syllabic>
      <text>.</text>
    </lyric>
  </note>
  <note>
    <pitch>
      <step>G</step>
      <alter>0.86792453</alter>
      <octave>4</octave>
      </pitch>
    <duration>96</duration>
    <type>eighth</type>
    <beam number="1">end</beam>
    <lyric number="1">
      <syllabic>single</syllabic>
      <text>.</text>
    </lyric>
  </note>
  <note>
    <pitch>
      <step>B</step>
      <alter>-0.86792452</alter>
      <octave>4</octave>
      </pitch>
    <duration>384</duration>
    <type>half</type>
    <lyric number="1">
      <syllabic>single</syllabic>
      <text>.</text>
    </lyric>
  </note>
</measure>
<measure number="8">
  <note>
    <pitch>
      <step>A</step>
      <alter>0.00000000</alter>
      <octave>4</octave>
      </pitch>
    <duration>768</duration>
    <type>whole</type>
    <lyric number="1">
      <syllabic>single</syllabic>
      <text>.</text>
    </lyric>
  </note>
</measure>
<measure number="9">
<note>
  <rest/>
  <duration>96</duration>
  </note>
  <note>
    <pitch>
      <step>D</step>
      <alter>-0.01886792</alter>
      <octave>5</octave>
      </pitch>
    <duration>96</duration>
    <type>eighth</type>
    <beam number="1">begin</beam>
    <lyric number="1">
      <syllabic>single</syllabic>
      <text>.</text>
    </lyric>
  </note>
  <note>
    <pitch>
      <step>C</step>
      <alter>0.84905661</alter>
      <octave>5</octave>
      </pitch>
    <duration>96</duration>
    <type>eighth</type>
    <beam number="1">continue</beam>
    <lyric number="1">
      <syllabic>single</syllabic>
      <text>.</text>
    </lyric>
  </note>
  <note>
    <pitch>
      <step>B</step>
      <alter>-0.86792452</alter>
      <octave>4</octave>
      </pitch>
    <duration>96</duration>
    <type>eighth</type>
    <beam number="1">end</beam>
    <lyric number="1">
      <syllabic>single</syllabic>
      <text>.</text>
    </lyric>
  </note>
  <note>
    <pitch>
      <step>D</step>
      <alter>-0.01886792</alter>
      <octave>5</octave>
      </pitch>
    <duration>384</duration>
    <type>half</type>
    <lyric number="1">
      <syllabic>single</syllabic>
      <text>.</text>
    </lyric>
  </note>
</measure>
<measure number="10">
  <note>
    <pitch>
      <step>C</step>
      <alter>0.84905661</alter>
      <octave>5</octave>
      </pitch>
    <duration>768</duration>
    <type>whole</type>
    <lyric number="1">
      <syllabic>single</syllabic>
      <text>.</text>
    </lyric>
  </note>
</measure>
<measure number="11">
<note>
  <rest/>
  <duration>96</duration>
  </note>
  <note>
    <pitch>
      <step>B</step>
      <alter>-0.86792452</alter>
      <octave>4</octave>
      </pitch>
    <duration>96</duration>
    <type>eighth</type>
    <beam number="1">begin</beam>
    <lyric number="1">
      <syllabic>single</syllabic>
      <text>.</text>
    </lyric>
  </note>
  <note>
    <pitch>
      <step>A</step>
      <alter>0.00000000</alter>
      <octave>4</octave>
      </pitch>
    <duration>96</duration>
    <type>eighth</type>
    <beam number="1">continue</beam>
    <lyric number="1">
      <syllabic>single</syllabic>
      <text>.</text>
    </lyric>
  </note>
  <note>
    <pitch>
      <step>G</step>
      <alter>0.86792453</alter>
      <octave>4</octave>
      </pitch>
    <duration>96</duration>
    <type>eighth</type>
    <beam number="1">end</beam>
    <lyric number="1">
      <syllabic>single</syllabic>
      <text>.</text>
    </lyric>
  </note>
  <note>
    <pitch>
      <step>B</step>
      <alter>-0.86792452</alter>
      <octave>4</octave>
      </pitch>
    <duration>384</duration>
    <type>half</type>
    <lyric number="1">
      <syllabic>single</syllabic>
      <text>.</text>
    </lyric>
  </note>
</measure>
<measure number="12">
  <note>
    <pitch>
      <step>A</step>
      <alter>0.00000000</alter>
      <octave>4</octave>
      </pitch>
    <duration>768</duration>
    <type>whole</type>
    <lyric number="1">
      <syllabic>single</syllabic>
      <text>.</text>
    </lyric>
  </note>
    <barline location="right">
      <bar-style>light-heavy</bar-style>
        <repeat direction="backward"/>
        </barline>
</measure>
<measure number="13">
    <barline location="left">
      <bar-style>heavy-light</bar-style>
        <repeat direction="forward"/>
        </barline>
  <note>
    <pitch>
      <step>A</step>
      <alter>0.00000000</alter>
      <octave>4</octave>
      </pitch>
    <duration>576</duration>
    <type>half</type><dot/>
    <lyric number="1">
      <syllabic>single</syllabic>
      <text>Gön</text>
    </lyric>
  </note>
  <note>
    <pitch>
      <step>B</step>
      <alter>-0.86792452</alter>
      <octave>4</octave>
      </pitch>
    <duration>96</duration>
    <type>eighth</type>
    <beam number="1">begin</beam>
        <notations>
          <slur type="start" number="1"/>
          </notations>
    <lyric number="1">
      <syllabic>single</syllabic>
      <text>lüm</text>
    </lyric>
  </note>
  <note>
    <pitch>
      <step>G</step>
      <alter>0.86792453</alter>
      <octave>4</octave>
      </pitch>
    <duration>96</duration>
    <type>eighth</type>
    <beam number="1">end</beam>
        <notations>
          <slur type="stop" number="1"/>
          </notations>
  </note>
</measure>
<measure number="14">
  <note>
    <pitch>
      <step>A</step>
      <alter>0.00000000</alter>
      <octave>4</octave>
      </pitch>
    <duration>768</duration>
    <type>whole</type>
    <lyric number="1">
      <syllabic>begin</syllabic>
      <text>de </text>
    </lyric>
  </note>
</measure>
<measure number="15">
<note>
  <rest/>
  <duration>96</duration>
  </note>
  <note>
    <pitch>
      <step>E</step>
      <alter>0.01886793</alter>
      <octave>5</octave>
      </pitch>
    <duration>192</duration>
    <type>quarter</type>
    <lyric number="1">
      <syllabic>single</syllabic>
      <text>aç</text>
    </lyric>
  </note>
  <note>
    <pitch>
      <step>D</step>
      <alter>-0.01886792</alter>
      <octave>5</octave>
      </pitch>
    <duration>96</duration>
    <type>eighth</type>
    <lyric number="1">
      <syllabic>single</syllabic>
      <text>ma</text>
    </lyric>
  </note>
  <note>
    <pitch>
      <step>C</step>
      <alter>0.84905661</alter>
      <octave>5</octave>
      </pitch>
    <duration>288</duration>
    <type>quarter</type><dot/>
    <lyric number="1">
      <syllabic>begin</syllabic>
      <text>dan </text>
    </lyric>
  </note>
  <note>
    <pitch>
      <step>B</step>
      <alter>-0.86792452</alter>
      <octave>4</octave>
      </pitch>
    <duration>96</duration>
    <type>eighth</type>
    <lyric number="1">
      <syllabic>single</syllabic>
      <text>so</text>
    </lyric>
  </note>
</measure>
<measure number="16">
  <note>
    <pitch>
      <step>A</step>
      <alter>0.00000000</alter>
      <octave>4</octave>
      </pitch>
    <duration>384</duration>
    <type>half</type>
    <lyric number="1">
      <syllabic>begin</syllabic>
      <text>lan </text>
    </lyric>
  </note>
  <note>
    <pitch>
      <step>E</step>
      <alter>0.01886793</alter>
      <octave>5</octave>
      </pitch>
    <duration>192</duration>
    <type>quarter</type>
    <notations>
      <articulations>
        <staccato/>
        </articulations>
    </notations>
    <lyric number="1">
      <syllabic>begin</syllabic>
      <text>bir </text>
    </lyric>
  </note>
  <note>
    <pitch>
      <step>C</step>
      <alter>0.84905661</alter>
      <octave>5</octave>
      </pitch>
    <duration>192</duration>
    <type>quarter</type>
    <notations>
      <articulations>
        <staccato/>
        </articulations>
    </notations>
    <lyric number="1">
      <syllabic>single</syllabic>
      <text>gül</text>
    </lyric>
  </note>
</measure>
<measure number="17">
  <note>
    <pitch>
      <step>A</step>
      <alter>0.00000000</alter>
      <octave>4</octave>
      </pitch>
    <duration>384</duration>
    <type>half</type>
    <lyric number="1">
      <syllabic>begin</syllabic>
      <text>sün  </text>
    </lyric>
  </note>
  <note>
    <pitch>
      <step>B</step>
      <alter>-0.86792452</alter>
      <octave>4</octave>
      </pitch>
    <duration>96</duration>
    <type>eighth</type>
    <beam number="1">begin</beam>
    <lyric number="1">
      <syllabic>begin</syllabic>
      <text>SAZ </text>
    </lyric>
  </note>
  <note>
    <pitch>
      <step>A</step>
      <alter>0.00000000</alter>
      <octave>4</octave>
      </pitch>
    <duration>96</duration>
    <type>eighth</type>
    <beam number="1">end</beam>
    <lyric number="1">
      <syllabic>single</syllabic>
      <text>.</text>
    </lyric>
  </note>
  <note>
    <pitch>
      <step>D</step>
      <alter>-0.01886792</alter>
      <octave>5</octave>
      </pitch>
    <duration>192</duration>
    <type>quarter</type>
    <lyric number="1">
      <syllabic>single</syllabic>
      <text>.</text>
    </lyric>
  </note>
</measure>
<measure number="18">
<note>
  <rest/>
  <duration>96</duration>
  </note>
  <note>
    <pitch>
      <step>D</step>
      <alter>-0.01886792</alter>
      <octave>5</octave>
      </pitch>
    <duration>192</duration>
    <type>quarter</type>
    <lyric number="1">
      <syllabic>begin</syllabic>
      <text>Her </text>
    </lyric>
  </note>
  <note>
    <pitch>
      <step>D</step>
      <alter>-0.01886792</alter>
      <octave>5</octave>
      </pitch>
    <duration>96</duration>
    <type>eighth</type>
    <lyric number="1">
      <syllabic>single</syllabic>
      <text>za</text>
    </lyric>
  </note>
  <note>
    <pitch>
      <step>D</step>
      <alter>-0.01886792</alter>
      <octave>5</octave>
      </pitch>
    <duration>192</duration>
    <type>quarter</type>
    <lyric number="1">
      <syllabic>begin</syllabic>
      <text>man </text>
    </lyric>
  </note>
  <note>
    <pitch>
      <step>E</step>
      <alter>0.01886793</alter>
      <octave>5</octave>
      </pitch>
    <duration>192</duration>
    <type>quarter</type>
    <lyric number="1">
      <syllabic>single</syllabic>
      <text>gam</text>
    </lyric>
  </note>
</measure>
<measure number="19">
  <note>
    <pitch>
      <step>D</step>
      <alter>-0.01886792</alter>
      <octave>5</octave>
      </pitch>
    <duration>96</duration>
    <type>eighth</type>
    <lyric number="1">
      <syllabic>single</syllabic>
      <text>lı</text>
    </lyric>
  </note>
  <note>
    <pitch>
      <step>C</step>
      <alter>0.84905661</alter>
      <octave>5</octave>
      </pitch>
    <duration>288</duration>
    <tie type="start"/>
    <type>quarter</type><dot/>
        <notations>
          <tied type="start"/>
          </notations>
    <lyric number="1">
      <syllabic>begin</syllabic>
      <text>yım </text>
    </lyric>
  </note>
  <note>
    <pitch>
      <step>C</step>
      <alter>0.84905661</alter>
      <octave>5</octave>
      </pitch>
    <duration>384</duration>
    <tie type="stop"/>
    <type>half</type>
        <notations>
          <tied type="stop"/>
          </notations>
  </note>
</measure>
<measure number="20">
<note>
  <rest/>
  <duration>96</duration>
  </note>
  <note>
    <pitch>
      <step>F</step>
      <alter>0.15094340</alter>
      <octave>5</octave>
      </pitch>
    <duration>192</duration>
    <type>quarter</type>
    <lyric number="1">
      <syllabic>begin</syllabic>
      <text>her </text>
    </lyric>
  </note>
  <note>
    <pitch>
      <step>E</step>
      <alter>0.01886793</alter>
      <octave>5</octave>
      </pitch>
    <duration>96</duration>
    <type>eighth</type>
    <lyric number="1">
      <syllabic>single</syllabic>
      <text>za</text>
    </lyric>
  </note>
  <note>
    <pitch>
      <step>D</step>
      <alter>-0.01886792</alter>
      <octave>5</octave>
      </pitch>
    <duration>192</duration>
    <type>quarter</type>
    <lyric number="1">
      <syllabic>begin</syllabic>
      <text>man </text>
    </lyric>
  </note>
  <note>
    <pitch>
      <step>C</step>
      <alter>0.84905661</alter>
      <octave>5</octave>
      </pitch>
    <duration>192</duration>
    <type>quarter</type>
    <lyric number="1">
      <syllabic>single</syllabic>
      <text>üz</text>
    </lyric>
  </note>
</measure>
<measure number="21">
  <note>
    <pitch>
      <step>D</step>
      <alter>-0.01886792</alter>
      <octave>5</octave>
      </pitch>
    <duration>768</duration>
    <type>whole</type>
    <lyric number="1">
      <syllabic>begin</syllabic>
      <text>gün  </text>
    </lyric>
  </note>
</measure>
<measure number="22">
<note>
  <rest/>
  <duration>96</duration>
  </note>
  <note>
    <pitch>
      <step>F</step>
      <alter>0.15094340</alter>
      <octave>5</octave>
      </pitch>
    <duration>192</duration>
    <type>quarter</type>
    <lyric number="1">
      <syllabic>begin</syllabic>
      <text>SAZ </text>
    </lyric>
  </note>
  <note>
    <pitch>
      <step>E</step>
      <alter>0.01886793</alter>
      <octave>5</octave>
      </pitch>
    <duration>96</duration>
    <type>eighth</type>
    <lyric number="1">
      <syllabic>single</syllabic>
      <text>.</text>
    </lyric>
  </note>
  <note>
    <pitch>
      <step>D</step>
      <alter>-0.01886792</alter>
      <octave>5</octave>
      </pitch>
    <duration>192</duration>
    <type>quarter</type>
    <lyric number="1">
      <syllabic>single</syllabic>
      <text>.</text>
    </lyric>
  </note>
  <note>
    <pitch>
      <step>C</step>
      <alter>0.84905661</alter>
      <octave>5</octave>
      </pitch>
    <duration>192</duration>
    <type>quarter</type>
    <lyric number="1">
      <syllabic>single</syllabic>
      <text>.</text>
    </lyric>
  </note>
</measure>
<measure number="23">
  <note>
    <pitch>
      <step>D</step>
      <alter>-0.01886792</alter>
      <octave>5</octave>
      </pitch>
    <duration>768</duration>
    <type>whole</type>
    <lyric number="1">
      <syllabic>single</syllabic>
      <text>.</text>
    </lyric>
  </note>
    <barline location="right">
      <bar-style>light-heavy</bar-style>
        <repeat direction="backward"/>
        </barline>
</measure>
<measure number="24">
    <barline location="left">
      <bar-style>heavy-light</bar-style>
        <repeat direction="forward"/>
        </barline>
<note>
  <rest/>
  <duration>96</duration>
  </note>
  <note>
    <pitch>
      <step>A</step>
      <alter>0.00000000</alter>
      <octave>5</octave>
      </pitch>
    <duration>192</duration>
    <type>quarter</type>
    <lyric number="1">
      <syllabic>single</syllabic>
      <text>Bek</text>
    </lyric>
  </note>
  <note>
    <pitch>
      <step>B</step>
      <alter>-0.86792452</alter>
      <octave>5</octave>
      </pitch>
    <duration>96</duration>
    <type>eighth</type>
    <lyric number="1">
      <syllabic>single</syllabic>
      <text>le</text>
    </lyric>
  </note>
  <note>
    <pitch>
      <step>A</step>
      <alter>0.00000000</alter>
      <octave>5</octave>
      </pitch>
    <duration>192</duration>
    <type>quarter</type>
    <lyric number="1">
      <syllabic>begin</syllabic>
      <text>rim </text>
    </lyric>
  </note>
  <note>
    <pitch>
      <step>G</step>
      <alter>0.86792453</alter>
      <octave>5</octave>
      </pitch>
    <duration>96</duration>
    <type>eighth</type>
    <beam number="1">begin</beam>
    <lyric number="1">
      <syllabic>single</syllabic>
      <text>yo</text>
    </lyric>
  </note>
  <note>
    <pitch>
      <step>F</step>
      <alter>0.15094340</alter>
      <octave>5</octave>
      </pitch>
    <duration>96</duration>
    <type>eighth</type>
    <beam number="1">end</beam>
    <lyric number="1">
      <syllabic>single</syllabic>
      <text>lu</text>
    </lyric>
  </note>
</measure>
<measure number="25">
  <note>
    <pitch>
      <step>A</step>
      <alter>0.00000000</alter>
      <octave>5</octave>
      </pitch>
    <duration>768</duration>
    <type>whole</type>
    <lyric number="1">
      <syllabic>begin</syllabic>
      <text>nu </text>
    </lyric>
  </note>
</measure>
<measure number="26">
  <note>
    <pitch>
      <step>G</step>
      <alter>-0.03773585</alter>
      <octave>5</octave>
      </pitch>
    <duration>192</duration>
    <type>quarter</type>
    <accidental>natural</accidental>
    <lyric number="1">
      <syllabic>single</syllabic>
      <text>ay</text>
    </lyric>
  </note>
  <note>
    <pitch>
      <step>F</step>
      <alter>0.15094340</alter>
      <octave>5</octave>
      </pitch>
    <duration>192</duration>
    <type>quarter</type>
    <lyric number="1">
      <syllabic>begin</syllabic>
      <text>lar </text>
    </lyric>
  </note>
  <note>
    <pitch>
      <step>E</step>
      <alter>0.01886793</alter>
      <octave>5</octave>
      </pitch>
    <duration>96</duration>
    <type>eighth</type>
    <lyric number="1">
      <syllabic>single</syllabic>
      <text>bo</text>
    </lyric>
  </note>
  <note>
    <pitch>
      <step>D</step>
      <alter>-0.01886792</alter>
      <octave>5</octave>
      </pitch>
    <duration>192</duration>
    <type>quarter</type>
        <notations>
          <slur type="start" number="1"/>
          </notations>
    <lyric number="1">
      <syllabic>single</syllabic>
      <text>yun</text>
    </lyric>
  </note>
  <note>
    <pitch>
      <step>E</step>
      <alter>0.01886793</alter>
      <octave>5</octave>
      </pitch>
    <duration>96</duration>
    <type>eighth</type>
        <notations>
          <slur type="stop" number="1"/>
          </notations>
  </note>
</measure>
<measure number="27">
  <note>
    <pitch>
      <step>C</step>
      <alter>0.84905661</alter>
      <octave>5</octave>
      </pitch>
    <duration>768</duration>
    <type>whole</type>
    <lyric number="1">
      <syllabic>begin</syllabic>
      <text>ca  </text>
    </lyric>
  </note>
</measure>
<measure number="28">
  <note>
    <pitch>
      <step>G</step>
      <alter>-0.03773585</alter>
      <octave>5</octave>
      </pitch>
    <duration>192</duration>
    <type>quarter</type>
    <accidental>natural</accidental>
    <lyric number="1">
      <syllabic>begin</syllabic>
      <text>SAZ </text>
    </lyric>
  </note>
  <note>
    <pitch>
      <step>F</step>
      <alter>0.15094340</alter>
      <octave>5</octave>
      </pitch>
    <duration>192</duration>
    <type>quarter</type>
    <lyric number="1">
      <syllabic>single</syllabic>
      <text>.</text>
    </lyric>
  </note>
  <note>
    <pitch>
      <step>E</step>
      <alter>0.01886793</alter>
      <octave>5</octave>
      </pitch>
    <duration>96</duration>
    <type>eighth</type>
    <lyric number="1">
      <syllabic>single</syllabic>
      <text>.</text>
    </lyric>
  </note>
  <note>
    <pitch>
      <step>D</step>
      <alter>-0.01886792</alter>
      <octave>5</octave>
      </pitch>
    <duration>192</duration>
    <type>quarter</type>
    <lyric number="1">
      <syllabic>single</syllabic>
      <text>.</text>
    </lyric>
  </note>
  <note>
    <pitch>
      <step>E</step>
      <alter>0.01886793</alter>
      <octave>5</octave>
      </pitch>
    <duration>96</duration>
    <type>eighth</type>
    <lyric number="1">
      <syllabic>single</syllabic>
      <text>.</text>
    </lyric>
  </note>
</measure>
<measure number="29">
  <note>
    <pitch>
      <step>C</step>
      <alter>0.84905661</alter>
      <octave>5</octave>
      </pitch>
    <duration>768</duration>
    <type>whole</type>
    <lyric number="1">
      <syllabic>single</syllabic>
      <text>.</text>
    </lyric>
  </note>
</measure>
<measure number="30">
  <note>
    <pitch>
      <step>A</step>
      <alter>0.00000000</alter>
      <octave>4</octave>
      </pitch>
    <duration>96</duration>
    <type>eighth</type>
    <lyric number="1">
      <syllabic>single</syllabic>
      <text>Ye</text>
    </lyric>
  </note>
  <note>
    <pitch>
      <step>B</step>
      <alter>-0.86792452</alter>
      <octave>4</octave>
      </pitch>
    <duration>192</duration>
    <type>quarter</type>
    <lyric number="1">
      <syllabic>begin</syllabic>
      <text>ter </text>
    </lyric>
  </note>
  <note>
    <pitch>
      <step>A</step>
      <alter>0.00000000</alter>
      <octave>4</octave>
      </pitch>
    <duration>96</duration>
    <type>eighth</type>
    <lyric number="1">
      <syllabic>begin</syllabic>
      <text>ki </text>
    </lyric>
  </note>
  <note>
    <pitch>
      <step>B</step>
      <alter>-0.86792452</alter>
      <octave>4</octave>
      </pitch>
    <duration>288</duration>
    <type>quarter</type><dot/>
    <lyric number="1">
      <syllabic>begin</syllabic>
      <text>gel </text>
    </lyric>
  </note>
  <note>
    <pitch>
      <step>A</step>
      <alter>0.00000000</alter>
      <octave>4</octave>
      </pitch>
    <duration>96</duration>
    <type>eighth</type>
    <lyric number="1">
      <syllabic>single</syllabic>
      <text>ba</text>
    </lyric>
  </note>
</measure>
<measure number="31">
  <note>
    <pitch>
      <step>E</step>
      <alter>0.01886793</alter>
      <octave>5</octave>
      </pitch>
    <duration>768</duration>
    <type>whole</type>
    <lyric number="1">
      <syllabic>begin</syllabic>
      <text>na </text>
    </lyric>
  </note>
</measure>
<measure number="32">
<note>
  <rest/>
  <duration>96</duration>
  </note>
  <note>
    <pitch>
      <step>D</step>
      <alter>-0.01886792</alter>
      <octave>5</octave>
      </pitch>
    <duration>96</duration>
    <type>eighth</type>
    <beam number="1">begin</beam>
    <lyric number="1">
      <syllabic>single</syllabic>
      <text>se</text>
    </lyric>
  </note>
  <note>
    <pitch>
      <step>C</step>
      <alter>0.84905661</alter>
      <octave>5</octave>
      </pitch>
    <duration>96</duration>
    <type>eighth</type>
    <beam number="1">continue</beam>
    <lyric number="1">
      <syllabic>single</syllabic>
      <text>ne</text>
    </lyric>
  </note>
  <note>
    <pitch>
      <step>B</step>
      <alter>-0.86792452</alter>
      <octave>4</octave>
      </pitch>
    <duration>96</duration>
    <type>eighth</type>
    <beam number="1">end</beam>
    <lyric number="1">
      <syllabic>begin</syllabic>
      <text>de </text>
    </lyric>
  </note>
  <note>
    <pitch>
      <step>D</step>
      <alter>-0.01886792</alter>
      <octave>5</octave>
      </pitch>
    <duration>384</duration>
    <type>half</type>
    <lyric number="1">
      <syllabic>begin</syllabic>
      <text>bir </text>
    </lyric>
  </note>
</measure>
<measure number="33">
  <note>
    <pitch>
      <step>C</step>
      <alter>0.84905661</alter>
      <octave>5</octave>
      </pitch>
    <duration>768</duration>
    <type>whole</type>
    <lyric number="1">
      <syllabic>begin</syllabic>
      <text>gün  </text>
    </lyric>
  </note>
</measure>
<measure number="34">
<note>
  <rest/>
  <duration>96</duration>
  </note>
  <note>
    <pitch>
      <step>B</step>
      <alter>-0.86792452</alter>
      <octave>4</octave>
      </pitch>
    <duration>96</duration>
    <type>eighth</type>
    <beam number="1">begin</beam>
    <lyric number="1">
      <syllabic>single</syllabic>
      <text>se</text>
    </lyric>
  </note>
  <note>
    <pitch>
      <step>A</step>
      <alter>0.00000000</alter>
      <octave>4</octave>
      </pitch>
    <duration>96</duration>
    <type>eighth</type>
    <beam number="1">continue</beam>
    <lyric number="1">
      <syllabic>single</syllabic>
      <text>ne</text>
    </lyric>
  </note>
  <note>
    <pitch>
      <step>G</step>
      <alter>0.86792453</alter>
      <octave>4</octave>
      </pitch>
    <duration>96</duration>
    <type>eighth</type>
    <beam number="1">end</beam>
    <lyric number="1">
      <syllabic>begin</syllabic>
      <text>de </text>
    </lyric>
  </note>
  <note>
    <pitch>
      <step>B</step>
      <alter>-0.86792452</alter>
      <octave>4</octave>
      </pitch>
    <duration>384</duration>
    <type>half</type>
    <lyric number="1">
      <syllabic>begin</syllabic>
      <text>bir </text>
    </lyric>
  </note>
</measure>
<measure number="35">
  <note>
    <pitch>
      <step>A</step>
      <alter>0.00000000</alter>
      <octave>4</octave>
      </pitch>
    <duration>768</duration>
    <type>whole</type>
    <lyric number="1">
      <syllabic>begin</syllabic>
      <text>gün  </text>
    </lyric>
  </note>
    <barline location="right">
      <bar-style>light-heavy</bar-style>
        <repeat direction="backward"/>
        </barline>
     <direction placement="above">
      <direction-type>
        <words>D.S.</words>
        </direction-type>
        <sound dalsegno="segno"/>
        </direction>
</measure>
<measure number="36">
    <barline location="left">
      <bar-style>heavy-light</bar-style>
        <repeat direction="forward"/>
        </barline>
  <note>
    <pitch>
      <step>E</step>
      <alter>0.01886793</alter>
      <octave>5</octave>
      </pitch>
    <duration>96</duration>
    <type>eighth</type>
    <lyric number="1">
      <syllabic>single</syllabic>
      <text>A</text>
    </lyric>
  </note>
  <note>
    <pitch>
      <step>E</step>
      <alter>0.01886793</alter>
      <octave>5</octave>
      </pitch>
    <duration>288</duration>
    <type>quarter</type><dot/>
    <lyric number="1">
      <syllabic>single</syllabic>
      <text>ğar</text>
    </lyric>
  </note>
  <note>
    <pitch>
      <step>C</step>
      <alter>0.84905661</alter>
      <octave>5</octave>
      </pitch>
    <duration>192</duration>
    <type>quarter</type>
    <lyric number="1">
      <syllabic>begin</syllabic>
      <text>sın </text>
    </lyric>
  </note>
  <note>
    <pitch>
      <step>B</step>
      <alter>-0.86792452</alter>
      <octave>4</octave>
      </pitch>
    <duration>192</duration>
    <type>quarter</type>
    <lyric number="1">
      <syllabic>single</syllabic>
      <text>saç</text>
    </lyric>
  </note>
</measure>
<measure number="37">
  <note>
    <pitch>
      <step>A</step>
      <alter>0.00000000</alter>
      <octave>4</octave>
      </pitch>
    <duration>96</duration>
    <type>eighth</type>
    <lyric number="1">
      <syllabic>single</syllabic>
      <text>la</text>
    </lyric>
  </note>
  <note>
    <pitch>
      <step>E</step>
      <alter>0.01886793</alter>
      <octave>5</octave>
      </pitch>
    <duration>288</duration>
    <tie type="start"/>
    <type>quarter</type><dot/>
        <notations>
          <tied type="start"/>
          </notations>
    <lyric number="1">
      <syllabic>begin</syllabic>
      <text>rım </text>
    </lyric>
  </note>
  <note>
    <pitch>
      <step>E</step>
      <alter>0.01886793</alter>
      <octave>5</octave>
      </pitch>
    <duration>384</duration>
    <tie type="stop"/>
    <type>half</type>
        <notations>
          <tied type="stop"/>
          </notations>
  </note>
</measure>
<measure number="38">
<note>
  <rest/>
  <duration>96</duration>
  </note>
  <note>
    <pitch>
      <step>F</step>
      <alter>0.15094340</alter>
      <octave>5</octave>
      </pitch>
    <duration>288</duration>
    <type>quarter</type><dot/>
    <lyric number="1">
      <syllabic>single</syllabic>
      <text>sol</text>
    </lyric>
  </note>
  <note>
    <pitch>
      <step>E</step>
      <alter>0.01886793</alter>
      <octave>5</octave>
      </pitch>
    <duration>192</duration>
    <type>quarter</type>
    <lyric number="1">
      <syllabic>begin</syllabic>
      <text>sun </text>
    </lyric>
  </note>
  <note>
    <pitch>
      <step>D</step>
      <alter>-0.01886792</alter>
      <octave>5</octave>
      </pitch>
    <duration>96</duration>
    <type>eighth</type>
    <beam number="1">begin</beam>
    <lyric number="1">
      <syllabic>single</syllabic>
      <text>ya</text>
    </lyric>
  </note>
  <note>
    <pitch>
      <step>C</step>
      <alter>0.84905661</alter>
      <octave>5</octave>
      </pitch>
    <duration>96</duration>
    <type>eighth</type>
    <beam number="1">end</beam>
    <lyric number="1">
      <syllabic>single</syllabic>
      <text>na</text>
    </lyric>
  </note>
</measure>
<measure number="39">
  <note>
    <pitch>
      <step>G</step>
      <alter>-0.03773585</alter>
      <octave>5</octave>
      </pitch>
    <duration>768</duration>
    <type>whole</type>
    <accidental>natural</accidental>
    <lyric number="1">
      <syllabic>begin</syllabic>
      <text>ğım  </text>
    </lyric>
  </note>
</measure>
<measure number="40">
<note>
  <rest/>
  <duration>96</duration>
  </note>
  <note>
    <pitch>
      <step>B</step>
      <alter>-0.86792452</alter>
      <octave>5</octave>
      </pitch>
    <duration>96</duration>
    <type>eighth</type>
    <beam number="1">begin</beam>
    <lyric number="1">
      <syllabic>single</syllabic>
      <text>A</text>
    </lyric>
  </note>
  <note>
    <pitch>
      <step>A</step>
      <alter>0.00000000</alter>
      <octave>5</octave>
      </pitch>
    <duration>96</duration>
    <type>eighth</type>
    <beam number="1">continue</beam>
    <lyric number="1">
      <syllabic>single</syllabic>
      <text>dı</text>
    </lyric>
  </note>
  <note>
    <pitch>
      <step>G</step>
      <alter>-0.03773585</alter>
      <octave>5</octave>
      </pitch>
    <duration>96</duration>
    <type>eighth</type>
    <accidental>natural</accidental>
    <beam number="1">end</beam>
    <lyric number="1">
      <syllabic>begin</syllabic>
      <text>nı </text>
    </lyric>
  </note>
  <note>
    <pitch>
      <step>F</step>
      <alter>0.15094340</alter>
      <octave>5</octave>
      </pitch>
    <duration>192</duration>
    <type>quarter</type>
    <lyric number="1">
      <syllabic>single</syllabic>
      <text>an</text>
    </lyric>
  </note>
  <note>
    <pitch>
      <step>D</step>
      <alter>-0.01886792</alter>
      <octave>5</octave>
      </pitch>
    <duration>192</duration>
    <type>quarter</type>
    <lyric number="1">
      <syllabic>single</syllabic>
      <text>mak</text>
    </lyric>
  </note>
</measure>
<measure number="41">
  <note>
    <pitch>
      <step>F</step>
      <alter>0.15094340</alter>
      <octave>5</octave>
      </pitch>
    <duration>768</duration>
    <type>whole</type>
    <lyric number="1">
      <syllabic>begin</syllabic>
      <text>tan </text>
    </lyric>
  </note>
</measure>
<measure number="42">
<note>
  <rest/>
  <duration>96</duration>
  </note>
  <note>
    <pitch>
      <step>F</step>
      <alter>0.15094340</alter>
      <octave>5</octave>
      </pitch>
    <duration>288</duration>
    <type>quarter</type><dot/>
    <lyric number="1">
      <syllabic>single</syllabic>
      <text>yan</text>
    </lyric>
  </note>
  <note>
    <pitch>
      <step>E</step>
      <alter>0.01886793</alter>
      <octave>5</octave>
      </pitch>
    <duration>192</duration>
    <type>quarter</type>
    <lyric number="1">
      <syllabic>begin</syllabic>
      <text>sın </text>
    </lyric>
  </note>
  <note>
    <pitch>
      <step>D</step>
      <alter>-0.01886792</alter>
      <octave>5</octave>
      </pitch>
    <duration>96</duration>
    <type>eighth</type>
    <beam number="1">begin</beam>
    <lyric number="1">
      <syllabic>single</syllabic>
      <text>du</text>
    </lyric>
  </note>
  <note>
    <pitch>
      <step>C</step>
      <alter>0.84905661</alter>
      <octave>5</octave>
      </pitch>
    <duration>96</duration>
    <type>eighth</type>
    <beam number="1">end</beam>
    <lyric number="1">
      <syllabic>single</syllabic>
      <text>da</text>
    </lyric>
  </note>
</measure>
<measure number="43">
  <note>
    <pitch>
      <step>D</step>
      <alter>-0.01886792</alter>
      <octave>5</octave>
      </pitch>
    <duration>768</duration>
    <type>whole</type>
    <lyric number="1">
      <syllabic>begin</syllabic>
      <text>ğım  </text>
    </lyric>
  </note>
</measure>
<measure number="44">
<note>
  <rest/>
  <duration>96</duration>
  </note>
  <note>
    <pitch>
      <step>F</step>
      <alter>0.15094340</alter>
      <octave>5</octave>
      </pitch>
    <duration>288</duration>
    <type>quarter</type><dot/>
    <lyric number="1">
      <syllabic>begin</syllabic>
      <text>SAZ </text>
    </lyric>
  </note>
  <note>
    <pitch>
      <step>E</step>
      <alter>0.01886793</alter>
      <octave>5</octave>
      </pitch>
    <duration>192</duration>
    <type>quarter</type>
    <lyric number="1">
      <syllabic>single</syllabic>
      <text>.</text>
    </lyric>
  </note>
  <note>
    <pitch>
      <step>D</step>
      <alter>-0.01886792</alter>
      <octave>5</octave>
      </pitch>
    <duration>96</duration>
    <type>eighth</type>
    <beam number="1">begin</beam>
    <lyric number="1">
      <syllabic>single</syllabic>
      <text>.</text>
    </lyric>
  </note>
  <note>
    <pitch>
      <step>C</step>
      <alter>0.84905661</alter>
      <octave>5</octave>
      </pitch>
    <duration>96</duration>
    <type>eighth</type>
    <beam number="1">end</beam>
    <lyric number="1">
      <syllabic>single</syllabic>
      <text>.</text>
    </lyric>
  </note>
</measure>
<measure number="45">
  <note>
    <pitch>
      <step>D</step>
      <alter>-0.01886792</alter>
      <octave>5</octave>
      </pitch>
    <duration>768</duration>
    <type>whole</type>
    <lyric number="1">
      <syllabic>single</syllabic>
      <text>.</text>
    </lyric>
  </note>
    <barline location="right">
      <bar-style>light-heavy</bar-style>
        <repeat direction="backward"/>
        </barline>
</measure>
<measure number="46">
    <barline location="left">
      <bar-style>heavy-light</bar-style>
        <repeat direction="forward"/>
        </barline>
  <note>
    <pitch>
      <step>A</step>
      <alter>0.00000000</alter>
      <octave>5</octave>
      </pitch>
    <duration>96</duration>
    <type>eighth</type>
    <lyric number="1">
      <syllabic>begin</syllabic>
      <text>Bu </text>
    </lyric>
  </note>
  <note>
    <pitch>
      <step>B</step>
      <alter>-0.86792452</alter>
      <octave>5</octave>
      </pitch>
    <duration>288</duration>
    <type>quarter</type><dot/>
    <lyric number="1">
      <syllabic>single</syllabic>
      <text>aş</text>
    </lyric>
  </note>
  <note>
    <pitch>
      <step>A</step>
      <alter>0.00000000</alter>
      <octave>5</octave>
      </pitch>
    <duration>192</duration>
    <type>quarter</type>
    <lyric number="1">
      <syllabic>begin</syllabic>
      <text>ka </text>
    </lyric>
  </note>
  <note>
    <pitch>
      <step>G</step>
      <alter>0.86792453</alter>
      <octave>5</octave>
      </pitch>
    <duration>96</duration>
    <type>eighth</type>
    <beam number="1">begin</beam>
    <lyric number="1">
      <syllabic>single</syllabic>
      <text>ca</text>
    </lyric>
  </note>
  <note>
    <pitch>
      <step>F</step>
      <alter>0.15094340</alter>
      <octave>5</octave>
      </pitch>
    <duration>96</duration>
    <type>eighth</type>
    <beam number="1">end</beam>
    <lyric number="1">
      <syllabic>single</syllabic>
      <text>nı</text>
    </lyric>
  </note>
</measure>
<measure number="47">
  <note>
    <pitch>
      <step>A</step>
      <alter>0.00000000</alter>
      <octave>5</octave>
      </pitch>
    <duration>768</duration>
    <type>whole</type>
    <lyric number="1">
      <syllabic>begin</syllabic>
      <text>mı </text>
    </lyric>
  </note>
</measure>
<measure number="48">
  <note>
    <pitch>
      <step>G</step>
      <alter>-0.03773585</alter>
      <octave>5</octave>
      </pitch>
    <duration>192</duration>
    <type>quarter</type>
    <accidental>natural</accidental>
    <lyric number="1">
      <syllabic>single</syllabic>
      <text>a</text>
    </lyric>
  </note>
  <note>
    <pitch>
      <step>F</step>
      <alter>0.15094340</alter>
      <octave>5</octave>
      </pitch>
    <duration>192</duration>
    <type>quarter</type>
    <lyric number="1">
      <syllabic>single</syllabic>
      <text>da</text>
    </lyric>
  </note>
  <note>
    <pitch>
      <step>E</step>
      <alter>0.01886793</alter>
      <octave>5</octave>
      </pitch>
    <duration>192</duration>
    <type>quarter</type>
    <lyric number="1">
      <syllabic>single</syllabic>
      <text>ya</text>
    </lyric>
  </note>
  <note>
    <pitch>
      <step>D</step>
      <alter>-0.01886792</alter>
      <octave>5</octave>
      </pitch>
    <duration>192</duration>
    <type>quarter</type>
    <lyric number="1">
      <syllabic>single</syllabic>
      <text>ca</text>
    </lyric>
  </note>
</measure>
<measure number="49">
  <note>
    <pitch>
      <step>C</step>
      <alter>0.84905661</alter>
      <octave>5</octave>
      </pitch>
    <duration>768</duration>
    <type>whole</type>
    <lyric number="1">
      <syllabic>begin</syllabic>
      <text>ğım  </text>
    </lyric>
  </note>
</measure>
<measure number="50">
  <note>
    <pitch>
      <step>G</step>
      <alter>-0.03773585</alter>
      <octave>5</octave>
      </pitch>
    <duration>192</duration>
    <type>quarter</type>
    <accidental>natural</accidental>
    <lyric number="1">
      <syllabic>begin</syllabic>
      <text>SAZ </text>
    </lyric>
  </note>
  <note>
    <pitch>
      <step>F</step>
      <alter>0.15094340</alter>
      <octave>5</octave>
      </pitch>
    <duration>192</duration>
    <type>quarter</type>
    <lyric number="1">
      <syllabic>single</syllabic>
      <text>.</text>
    </lyric>
  </note>
  <note>
    <pitch>
      <step>E</step>
      <alter>0.01886793</alter>
      <octave>5</octave>
      </pitch>
    <duration>192</duration>
    <type>quarter</type>
    <lyric number="1">
      <syllabic>single</syllabic>
      <text>.</text>
    </lyric>
  </note>
  <note>
    <pitch>
      <step>D</step>
      <alter>-0.01886792</alter>
      <octave>5</octave>
      </pitch>
    <duration>192</duration>
    <type>quarter</type>
    <lyric number="1">
      <syllabic>single</syllabic>
      <text>.</text>
    </lyric>
  </note>
</measure>
<measure number="51">
  <note>
    <pitch>
      <step>C</step>
      <alter>0.84905661</alter>
      <octave>5</octave>
      </pitch>
    <duration>768</duration>
    <type>whole</type>
    <lyric number="1">
      <syllabic>single</syllabic>
      <text>.</text>
    </lyric>
  </note>
</measure>
<measure number="52">
  <note>
    <pitch>
      <step>A</step>
      <alter>0.00000000</alter>
      <octave>4</octave>
      </pitch>
    <duration>96</duration>
    <type>eighth</type>
    <lyric number="1">
      <syllabic>single</syllabic>
      <text>Ye</text>
    </lyric>
  </note>
  <note>
    <pitch>
      <step>B</step>
      <alter>-0.86792452</alter>
      <octave>4</octave>
      </pitch>
    <duration>192</duration>
    <type>quarter</type>
    <lyric number="1">
      <syllabic>begin</syllabic>
      <text>ter </text>
    </lyric>
  </note>
  <note>
    <pitch>
      <step>A</step>
      <alter>0.00000000</alter>
      <octave>4</octave>
      </pitch>
    <duration>96</duration>
    <type>eighth</type>
    <lyric number="1">
      <syllabic>begin</syllabic>
      <text>ki </text>
    </lyric>
  </note>
  <note>
    <pitch>
      <step>B</step>
      <alter>-0.86792452</alter>
      <octave>4</octave>
      </pitch>
    <duration>288</duration>
    <type>quarter</type><dot/>
    <lyric number="1">
      <syllabic>begin</syllabic>
      <text>gel </text>
    </lyric>
  </note>
  <note>
    <pitch>
      <step>A</step>
      <alter>0.00000000</alter>
      <octave>4</octave>
      </pitch>
    <duration>96</duration>
    <type>eighth</type>
    <lyric number="1">
      <syllabic>single</syllabic>
      <text>ba</text>
    </lyric>
  </note>
</measure>
<measure number="53">
  <note>
    <pitch>
      <step>E</step>
      <alter>0.01886793</alter>
      <octave>5</octave>
      </pitch>
    <duration>768</duration>
    <type>whole</type>
    <lyric number="1">
      <syllabic>begin</syllabic>
      <text>na </text>
    </lyric>
  </note>
</measure>
<measure number="54">
<note>
  <rest/>
  <duration>96</duration>
  </note>
  <note>
    <pitch>
      <step>D</step>
      <alter>-0.01886792</alter>
      <octave>5</octave>
      </pitch>
    <duration>96</duration>
    <type>eighth</type>
    <beam number="1">begin</beam>
    <lyric number="1">
      <syllabic>single</syllabic>
      <text>se</text>
    </lyric>
  </note>
  <note>
    <pitch>
      <step>C</step>
      <alter>0.84905661</alter>
      <octave>5</octave>
      </pitch>
    <duration>96</duration>
    <type>eighth</type>
    <beam number="1">continue</beam>
    <lyric number="1">
      <syllabic>single</syllabic>
      <text>ne</text>
    </lyric>
  </note>
  <note>
    <pitch>
      <step>B</step>
      <alter>-0.86792452</alter>
      <octave>4</octave>
      </pitch>
    <duration>96</duration>
    <type>eighth</type>
    <beam number="1">end</beam>
    <lyric number="1">
      <syllabic>begin</syllabic>
      <text>de </text>
    </lyric>
  </note>
  <note>
    <pitch>
      <step>D</step>
      <alter>-0.01886792</alter>
      <octave>5</octave>
      </pitch>
    <duration>384</duration>
    <type>half</type>
    <lyric number="1">
      <syllabic>begin</syllabic>
      <text>bir </text>
    </lyric>
  </note>
</measure>
<measure number="55">
  <note>
    <pitch>
      <step>C</step>
      <alter>0.84905661</alter>
      <octave>5</octave>
      </pitch>
    <duration>768</duration>
    <type>whole</type>
    <lyric number="1">
      <syllabic>begin</syllabic>
      <text>gün  </text>
    </lyric>
  </note>
</measure>
<measure number="56">
<note>
  <rest/>
  <duration>96</duration>
  </note>
  <note>
    <pitch>
      <step>B</step>
      <alter>-0.86792452</alter>
      <octave>4</octave>
      </pitch>
    <duration>96</duration>
    <type>eighth</type>
    <beam number="1">begin</beam>
    <lyric number="1">
      <syllabic>single</syllabic>
      <text>se</text>
    </lyric>
  </note>
  <note>
    <pitch>
      <step>A</step>
      <alter>0.00000000</alter>
      <octave>4</octave>
      </pitch>
    <duration>96</duration>
    <type>eighth</type>
    <beam number="1">continue</beam>
    <lyric number="1">
      <syllabic>single</syllabic>
      <text>ne</text>
    </lyric>
  </note>
  <note>
    <pitch>
      <step>G</step>
      <alter>0.86792453</alter>
      <octave>4</octave>
      </pitch>
    <duration>96</duration>
    <type>eighth</type>
    <beam number="1">end</beam>
    <lyric number="1">
      <syllabic>begin</syllabic>
      <text>de </text>
    </lyric>
  </note>
  <note>
    <pitch>
      <step>B</step>
      <alter>-0.86792452</alter>
      <octave>4</octave>
      </pitch>
    <duration>384</duration>
    <type>half</type>
    <lyric number="1">
      <syllabic>begin</syllabic>
      <text>bir </text>
    </lyric>
  </note>
</measure>
<measure number="57">
  <note>
    <pitch>
      <step>A</step>
      <alter>0.00000000</alter>
      <octave>4</octave>
      </pitch>
    <duration>768</duration>
    <type>whole</type>
    <lyric number="1">
      <syllabic>begin</syllabic>
      <text>gün  </text>
    </lyric>
  </note>
    <barline location="right">
      <bar-style>light-heavy</bar-style>
        <repeat direction="backward"/>
        </barline>
</measure>
<measure number="58">
<note>
  <rest/>
  <duration>96</duration>
  </note>
  <note>
    <pitch>
      <step>D</step>
      <alter>-0.01886792</alter>
      <octave>5</octave>
      </pitch>
    <duration>96</duration>
    <type>eighth</type>
    <beam number="1">begin</beam>
    <lyric number="1">
      <syllabic>single</syllabic>
      <text>Se</text>
    </lyric>
  </note>
  <note>
    <pitch>
      <step>C</step>
      <alter>0.84905661</alter>
      <octave>5</octave>
      </pitch>
    <duration>96</duration>
    <type>eighth</type>
    <beam number="1">continue</beam>
    <lyric number="1">
      <syllabic>single</syllabic>
      <text>ne</text>
    </lyric>
  </note>
  <note>
    <pitch>
      <step>B</step>
      <alter>-0.86792452</alter>
      <octave>4</octave>
      </pitch>
    <duration>96</duration>
    <type>eighth</type>
    <beam number="1">end</beam>
    <lyric number="1">
      <syllabic>begin</syllabic>
      <text>de </text>
    </lyric>
  </note>
  <note>
    <pitch>
      <step>D</step>
      <alter>-0.01886792</alter>
      <octave>5</octave>
      </pitch>
    <duration>384</duration>
    <type>half</type>
    <lyric number="1">
      <syllabic>begin</syllabic>
      <text>bir </text>
    </lyric>
  </note>
</measure>
<measure number="59">
  <note>
    <pitch>
      <step>C</step>
      <alter>0.84905661</alter>
      <octave>5</octave>
      </pitch>
    <duration>768</duration>
    <type>whole</type>
    <lyric number="1">
      <syllabic>begin</syllabic>
      <text>gün </text>
    </lyric>
  </note>
</measure>
<measure number="60">
<note>
  <rest/>
  <duration>96</duration>
  </note>
  <note>
    <pitch>
      <step>B</step>
      <alter>-0.86792452</alter>
      <octave>4</octave>
      </pitch>
    <duration>96</duration>
    <type>eighth</type>
    <beam number="1">begin</beam>
    <lyric number="1">
      <syllabic>single</syllabic>
      <text>se</text>
    </lyric>
  </note>
  <note>
    <pitch>
      <step>A</step>
      <alter>0.00000000</alter>
      <octave>4</octave>
      </pitch>
    <duration>96</duration>
    <type>eighth</type>
    <beam number="1">continue</beam>
    <lyric number="1">
      <syllabic>single</syllabic>
      <text>ne</text>
    </lyric>
  </note>
  <note>
    <pitch>
      <step>G</step>
      <alter>0.86792453</alter>
      <octave>4</octave>
      </pitch>
    <duration>96</duration>
    <type>eighth</type>
    <beam number="1">end</beam>
    <lyric number="1">
      <syllabic>begin</syllabic>
      <text>de </text>
    </lyric>
  </note>
  <note>
    <pitch>
      <step>B</step>
      <alter>-0.86792452</alter>
      <octave>4</octave>
      </pitch>
    <duration>384</duration>
    <type>half</type>
    <lyric number="1">
      <syllabic>begin</syllabic>
      <text>bir </text>
    </lyric>
  </note>
</measure>
<measure number="61">
  <note>
    <pitch>
      <step>A</step>
      <alter>0.00000000</alter>
      <octave>4</octave>
      </pitch>
    <duration>768</duration>
    <type>whole</type>
    <lyric number="1">
      <syllabic>begin</syllabic>
      <text>gün  </text>
    </lyric>
  </note>
</measure>
</part>
</score-partwise>
