<?xml version="1.0" encoding="UTF-8"?>
<!DOCTYPE score-partwise PUBLIC "-//Recordare//DTD MusicXML 3.0 Partwise//EN" "http://www.musicxml.org/dtds/partwise.dtd">
<score-partwise version="3.0">
  <work>
    <work-title>Elmas Senin Yüzün Gören</work-title>
  </work>
  <identification>
  <creator type="composer">Beste: Tanburî Mustafa Çavuş</creator>
  <creator type="lyricist">Tanburî Mustafa Çavuş</creator>
  <rights>nikriz--sarki--aksak--elmas_senin--tanburi_mustafa_cavus.xml</rights>
  </identification>
<defaults>
  <scaling>
      <millimeters>7.05556</millimeters>
      <tenths>40</tenths>
      </scaling>
    <page-layout>
      <page-height>1683.36</page-height>
      <page-width>1190.88</page-width>
      <page-margins type="even">
        <left-margin>100</left-margin>
        <right-margin>100</right-margin>
        <top-margin>56.6929</top-margin>
        <bottom-margin>113.386</bottom-margin>
        </page-margins>
      <page-margins type="odd">
        <left-margin>100</left-margin>
        <right-margin>100</right-margin>
        <top-margin>56.6929</top-margin>
        <bottom-margin>113.386</bottom-margin>
        </page-margins>
      </page-layout>
    <word-font font-family="FreeSerif" font-size="10"/>
    <lyric-font font-family="FreeSerif" font-size="11"/>
    </defaults>
  <credit page="1">
    <credit-words default-x="595.276" default-y="1627.09" justify="center" valign="top" font-size="24">Elmas Senin Yüzün Gören</credit-words>
    </credit>
  <credit page="1">
    <credit-words default-x="1133.86" default-y="1527.09" justify="right" valign="bottom" font-size="12">Beste: Tanburî Mustafa Çavuş</credit-words>
          <credit-words>Tanburî Mustafa Çavuş</credit-words>
    </credit>
  <credit page="1">
    <credit-words default-x="595.44" default-y="1569.97" justify="center" valign="top" font-size="14">Makam: Nikrîz Şarkı</credit-words>
    </credit>
  <credit page="1">
    <credit-words default-x="56.6929" default-y="1526.67" justify="left" valign="bottom" font-size="12">Usul: Aksak</credit-words>
    </credit>
  <credit page="1">
    <credit-words default-x="595.44" default-y="113.386" justify="center" valign="bottom">nikriz--sarki--aksak--elmas_senin--tanburi_mustafa_cavus.xml</credit-words>
</credit>
<part-list>
<score-part id="P1">
<part-name>S</part-name>
<part-abbreviation>S</part-abbreviation>
<score-instrument id="P1-I1">
<instrument-name>S</instrument-name>
</score-instrument>
<midi-device id="P1-I1" port="1"></midi-device>
<midi-instrument id="P1-I1">
<midi-channel>1</midi-channel>
<midi-program>1</midi-program>
<volume>80</volume>
<pan>0</pan>
</midi-instrument>
</score-part>
</part-list>
<part id="P1">
<measure number="1">
    <attributes>
      <divisions>192</divisions>
      <time>
        <beats>9</beats>
        <beat-type>8</beat-type>
      </time>
      </attributes>
      <attributes>
        <key>
        <key-step>B</key-step>
        <key-alter>-1</key-alter>
        <key-accidental>slash-flat</key-accidental>
        <key-step>F</key-step>
        <key-alter>0.5</key-alter>
        <key-accidental>sharp</key-accidental>
        <key-step>C</key-step>
        <key-alter>1</key-alter>
        <key-accidental>sharp</key-accidental>
        <key-octave number="1">5</key-octave>
        </key>
      </attributes>
    <direction placement="above">
      <direction-type>
        <segno/>
        </direction-type>
        <sound segno="segno"/>
        </direction>
    <barline location="left">
      <bar-style>heavy-light</bar-style>
        <repeat direction="forward"/>
        </barline>
    <direction placement="above">
      <direction-type>
        <metronome parentheses="no">
          <beat-unit>eighth</beat-unit>
          <per-minute>174</per-minute>
          </metronome>
        </direction-type>
      <sound tempo="174"/>
      </direction>
 <direction placement="above">
   <direction-type>
     <words default-y="40" font-family="FreeSerif">Usul: Aksak</words>
     </direction-type>
   </direction>
  <note>
    <pitch>
      <step>G</step>
      <alter>-0.03773585</alter>
      <octave>5</octave>
      </pitch>
    <duration>48</duration>
    <type>16th</type>
    <beam number="1">begin</beam>
    <lyric number="1">
      <syllabic>begin</syllabic>
      <text>ARANAĞME </text>
    </lyric>
  </note>
  <note>
    <pitch>
      <step>F</step>
      <alter>0.60377359</alter>
      <octave>5</octave>
      </pitch>
    <duration>48</duration>
    <type>16th</type>
    <beam number="1">continue</beam>
    <lyric number="1">
      <syllabic>single</syllabic>
      <text>.</text>
    </lyric>
  </note>
  <note>
    <pitch>
      <step>G</step>
      <alter>-0.03773585</alter>
      <octave>5</octave>
      </pitch>
    <duration>48</duration>
    <type>16th</type>
    <beam number="1">continue</beam>
    <lyric number="1">
      <syllabic>single</syllabic>
      <text>.</text>
    </lyric>
  </note>
  <note>
    <pitch>
      <step>E</step>
      <alter>0.01886793</alter>
      <octave>5</octave>
      </pitch>
    <duration>48</duration>
    <type>16th</type>
    <beam number="1">continue</beam>
    <lyric number="1">
      <syllabic>single</syllabic>
      <text>.</text>
    </lyric>
  </note>
  <note>
    <pitch>
      <step>F</step>
      <alter>-0.07547169</alter>
      <octave>5</octave>
      </pitch>
    <duration>48</duration>
    <type>16th</type>
    <accidental>natural</accidental>
    <beam number="1">continue</beam>
    <lyric number="1">
      <syllabic>single</syllabic>
      <text>.</text>
    </lyric>
  </note>
  <note>
    <pitch>
      <step>D</step>
      <alter>-0.01886792</alter>
      <octave>5</octave>
      </pitch>
    <duration>48</duration>
    <type>16th</type>
    <beam number="1">end</beam>
    <lyric number="1">
      <syllabic>single</syllabic>
      <text>.</text>
    </lyric>
  </note>
  <note>
    <pitch>
      <step>F</step>
      <alter>-0.07547169</alter>
      <octave>5</octave>
      </pitch>
    <duration>48</duration>
    <type>16th</type>
    <beam number="1">begin</beam>
    <lyric number="1">
      <syllabic>single</syllabic>
      <text>.</text>
    </lyric>
  </note>
  <note>
    <pitch>
      <step>E</step>
      <alter>0.01886793</alter>
      <octave>5</octave>
      </pitch>
    <duration>48</duration>
    <type>16th</type>
    <beam number="1">continue</beam>
    <lyric number="1">
      <syllabic>single</syllabic>
      <text>.</text>
    </lyric>
  </note>
  <note>
    <pitch>
      <step>D</step>
      <alter>-0.01886792</alter>
      <octave>5</octave>
      </pitch>
    <duration>48</duration>
    <type>16th</type>
    <beam number="1">continue</beam>
    <lyric number="1">
      <syllabic>single</syllabic>
      <text>.</text>
    </lyric>
  </note>
  <note>
    <pitch>
      <step>E</step>
      <alter>0.01886793</alter>
      <octave>5</octave>
      </pitch>
    <duration>48</duration>
    <type>16th</type>
    <beam number="1">continue</beam>
    <lyric number="1">
      <syllabic>single</syllabic>
      <text>.</text>
    </lyric>
  </note>
  <note>
    <pitch>
      <step>D</step>
      <alter>-0.01886792</alter>
      <octave>5</octave>
      </pitch>
    <duration>48</duration>
    <type>16th</type>
    <beam number="1">continue</beam>
    <lyric number="1">
      <syllabic>single</syllabic>
      <text>.</text>
    </lyric>
  </note>
  <note>
    <pitch>
      <step>C</step>
      <alter>0.84905661</alter>
      <octave>5</octave>
      </pitch>
    <duration>48</duration>
    <type>16th</type>
    <beam number="1">continue</beam>
    <lyric number="1">
      <syllabic>single</syllabic>
      <text>.</text>
    </lyric>
  </note>
  <note>
    <pitch>
      <step>B</step>
      <alter>-0.86792452</alter>
      <octave>4</octave>
      </pitch>
    <duration>48</duration>
    <type>16th</type>
    <beam number="1">continue</beam>
    <lyric number="1">
      <syllabic>single</syllabic>
      <text>.</text>
    </lyric>
  </note>
  <note>
    <pitch>
      <step>A</step>
      <alter>0.00000000</alter>
      <octave>4</octave>
      </pitch>
    <duration>48</duration>
    <type>16th</type>
    <beam number="1">continue</beam>
    <lyric number="1">
      <syllabic>single</syllabic>
      <text>.</text>
    </lyric>
  </note>
  <note>
    <pitch>
      <step>G</step>
      <alter>-0.03773585</alter>
      <octave>4</octave>
      </pitch>
    <duration>48</duration>
    <type>16th</type>
    <beam number="1">end</beam>
    <lyric number="1">
      <syllabic>single</syllabic>
      <text>.</text>
    </lyric>
  </note>
</measure>
<measure number="2">
  <note>
    <pitch>
      <step>F</step>
      <alter>0.60377359</alter>
      <octave>4</octave>
      </pitch>
    <duration>48</duration>
    <type>16th</type>
    <beam number="1">begin</beam>
    <lyric number="1">
      <syllabic>single</syllabic>
      <text>.</text>
    </lyric>
  </note>
  <note>
    <pitch>
      <step>G</step>
      <alter>-0.03773585</alter>
      <octave>4</octave>
      </pitch>
    <duration>48</duration>
    <type>16th</type>
    <beam number="1">continue</beam>
    <lyric number="1">
      <syllabic>single</syllabic>
      <text>.</text>
    </lyric>
  </note>
  <note>
    <pitch>
      <step>A</step>
      <alter>0.00000000</alter>
      <octave>4</octave>
      </pitch>
    <duration>48</duration>
    <type>16th</type>
    <beam number="1">continue</beam>
    <lyric number="1">
      <syllabic>single</syllabic>
      <text>.</text>
    </lyric>
  </note>
  <note>
    <pitch>
      <step>B</step>
      <alter>-0.86792452</alter>
      <octave>4</octave>
      </pitch>
    <duration>48</duration>
    <type>16th</type>
    <beam number="1">continue</beam>
    <lyric number="1">
      <syllabic>single</syllabic>
      <text>.</text>
    </lyric>
  </note>
  <note>
    <pitch>
      <step>C</step>
      <alter>0.84905661</alter>
      <octave>5</octave>
      </pitch>
    <duration>48</duration>
    <type>16th</type>
    <beam number="1">continue</beam>
    <lyric number="1">
      <syllabic>single</syllabic>
      <text>.</text>
    </lyric>
  </note>
  <note>
    <pitch>
      <step>D</step>
      <alter>-0.01886792</alter>
      <octave>5</octave>
      </pitch>
    <duration>48</duration>
    <type>16th</type>
    <beam number="1">continue</beam>
    <lyric number="1">
      <syllabic>single</syllabic>
      <text>.</text>
    </lyric>
  </note>
  <note>
    <pitch>
      <step>E</step>
      <alter>0.01886793</alter>
      <octave>5</octave>
      </pitch>
    <duration>48</duration>
    <type>16th</type>
    <beam number="1">continue</beam>
    <lyric number="1">
      <syllabic>single</syllabic>
      <text>.</text>
    </lyric>
  </note>
  <note>
    <pitch>
      <step>F</step>
      <alter>-0.07547169</alter>
      <octave>5</octave>
      </pitch>
    <duration>48</duration>
    <type>16th</type>
    <accidental>natural</accidental>
    <beam number="1">continue</beam>
    <lyric number="1">
      <syllabic>single</syllabic>
      <text>.</text>
    </lyric>
  </note>
  <note>
    <pitch>
      <step>E</step>
      <alter>0.01886793</alter>
      <octave>5</octave>
      </pitch>
    <duration>48</duration>
    <type>16th</type>
    <beam number="1">end</beam>
    <lyric number="1">
      <syllabic>single</syllabic>
      <text>.</text>
    </lyric>
  </note>
  <note>
    <pitch>
      <step>D</step>
      <alter>-0.01886792</alter>
      <octave>5</octave>
      </pitch>
    <duration>48</duration>
    <type>16th</type>
    <beam number="1">begin</beam>
    <lyric number="1">
      <syllabic>single</syllabic>
      <text>.</text>
    </lyric>
  </note>
  <note>
    <pitch>
      <step>D</step>
      <alter>-0.01886792</alter>
      <octave>5</octave>
      </pitch>
    <duration>48</duration>
    <type>16th</type>
    <beam number="1">continue</beam>
    <lyric number="1">
      <syllabic>single</syllabic>
      <text>.</text>
    </lyric>
  </note>
  <note>
    <pitch>
      <step>C</step>
      <alter>0.84905661</alter>
      <octave>5</octave>
      </pitch>
    <duration>48</duration>
    <type>16th</type>
    <beam number="1">end</beam>
    <lyric number="1">
      <syllabic>single</syllabic>
      <text>.</text>
    </lyric>
  </note>
  <note>
    <pitch>
      <step>D</step>
      <alter>-0.01886792</alter>
      <octave>5</octave>
      </pitch>
    <duration>288</duration>
    <type>quarter</type><dot/>
    <lyric number="1">
      <syllabic>single</syllabic>
      <text>.</text>
    </lyric>
  </note>
</measure>
<measure number="3">
  <note>
    <pitch>
      <step>C</step>
      <alter>0.84905661</alter>
      <octave>5</octave>
      </pitch>
    <duration>48</duration>
    <type>16th</type>
    <beam number="1">begin</beam>
    <lyric number="1">
      <syllabic>single</syllabic>
      <text>.</text>
    </lyric>
  </note>
  <note>
    <pitch>
      <step>D</step>
      <alter>-0.01886792</alter>
      <octave>5</octave>
      </pitch>
    <duration>48</duration>
    <type>16th</type>
    <beam number="1">continue</beam>
    <lyric number="1">
      <syllabic>single</syllabic>
      <text>.</text>
    </lyric>
  </note>
  <note>
    <pitch>
      <step>E</step>
      <alter>0.01886793</alter>
      <octave>5</octave>
      </pitch>
    <duration>48</duration>
    <type>16th</type>
    <beam number="1">continue</beam>
    <lyric number="1">
      <syllabic>single</syllabic>
      <text>.</text>
    </lyric>
  </note>
  <note>
    <pitch>
      <step>F</step>
      <alter>0.37735849</alter>
      <octave>5</octave>
      </pitch>
    <duration>48</duration>
    <type>16th</type>
    <accidental>quarter-sharp</accidental>
    <beam number="1">continue</beam>
    <lyric number="1">
      <syllabic>single</syllabic>
      <text>.</text>
    </lyric>
  </note>
  <note>
    <pitch>
      <step>G</step>
      <alter>-0.03773585</alter>
      <octave>5</octave>
      </pitch>
    <duration>96</duration>
    <type>eighth</type>
    <beam number="1">continue</beam>
    <lyric number="1">
      <syllabic>single</syllabic>
      <text>.</text>
    </lyric>
  </note>
  <note>
    <pitch>
      <step>F</step>
      <alter>0.15094340</alter>
      <octave>5</octave>
      </pitch>
    <duration>48</duration>
    <type>16th</type>
    <beam number="1">continue</beam>
    <lyric number="1">
      <syllabic>single</syllabic>
      <text>.</text>
    </lyric>
  </note>
  <note>
    <pitch>
      <step>E</step>
      <alter>0.01886793</alter>
      <octave>5</octave>
      </pitch>
    <duration>48</duration>
    <type>16th</type>
    <beam number="1">continue</beam>
    <lyric number="1">
      <syllabic>single</syllabic>
      <text>.</text>
    </lyric>
  </note>
  <note>
    <pitch>
      <step>E</step>
      <alter>0.01886793</alter>
      <octave>5</octave>
      </pitch>
    <duration>48</duration>
    <type>16th</type>
    <beam number="1">end</beam>
    <lyric number="1">
      <syllabic>single</syllabic>
      <text>.</text>
    </lyric>
  </note>
  <note>
    <pitch>
      <step>D</step>
      <alter>-0.01886792</alter>
      <octave>5</octave>
      </pitch>
    <duration>48</duration>
    <type>16th</type>
    <beam number="1">begin</beam>
    <lyric number="1">
      <syllabic>single</syllabic>
      <text>.</text>
    </lyric>
  </note>
  <note>
    <pitch>
      <step>D</step>
      <alter>-0.01886792</alter>
      <octave>5</octave>
      </pitch>
    <duration>48</duration>
    <type>16th</type>
    <beam number="1">continue</beam>
    <lyric number="1">
      <syllabic>single</syllabic>
      <text>.</text>
    </lyric>
  </note>
  <note>
    <pitch>
      <step>C</step>
      <alter>0.84905661</alter>
      <octave>5</octave>
      </pitch>
    <duration>48</duration>
    <type>16th</type>
    <beam number="1">continue</beam>
    <lyric number="1">
      <syllabic>single</syllabic>
      <text>.</text>
    </lyric>
  </note>
  <note>
    <pitch>
      <step>D</step>
      <alter>-0.01886792</alter>
      <octave>5</octave>
      </pitch>
    <duration>48</duration>
    <type>16th</type>
    <beam number="1">continue</beam>
    <lyric number="1">
      <syllabic>single</syllabic>
      <text>.</text>
    </lyric>
  </note>
  <note>
    <pitch>
      <step>C</step>
      <alter>0.84905661</alter>
      <octave>5</octave>
      </pitch>
    <duration>48</duration>
    <type>16th</type>
    <beam number="1">continue</beam>
    <lyric number="1">
      <syllabic>single</syllabic>
      <text>.</text>
    </lyric>
  </note>
  <note>
    <pitch>
      <step>B</step>
      <alter>-0.86792452</alter>
      <octave>4</octave>
      </pitch>
    <duration>48</duration>
    <type>16th</type>
    <beam number="1">continue</beam>
    <lyric number="1">
      <syllabic>single</syllabic>
      <text>.</text>
    </lyric>
  </note>
  <note>
    <pitch>
      <step>A</step>
      <alter>0.00000000</alter>
      <octave>4</octave>
      </pitch>
    <duration>48</duration>
    <type>16th</type>
    <beam number="1">continue</beam>
    <lyric number="1">
      <syllabic>single</syllabic>
      <text>.</text>
    </lyric>
  </note>
  <note>
    <pitch>
      <step>G</step>
      <alter>-0.03773585</alter>
      <octave>4</octave>
      </pitch>
    <duration>96</duration>
    <type>eighth</type>
    <beam number="1">end</beam>
    <lyric number="1">
      <syllabic>single</syllabic>
      <text>.</text>
    </lyric>
  </note>
</measure>
<measure number="4">
  <note>
    <pitch>
      <step>F</step>
      <alter>0.83018868</alter>
      <octave>4</octave>
      </pitch>
    <duration>48</duration>
    <type>16th</type>
    <beam number="1">begin</beam>
    <lyric number="1">
      <syllabic>single</syllabic>
      <text>.</text>
    </lyric>
  </note>
  <note>
    <pitch>
      <step>G</step>
      <alter>-0.03773585</alter>
      <octave>4</octave>
      </pitch>
    <duration>48</duration>
    <type>16th</type>
    <beam number="1">continue</beam>
    <lyric number="1">
      <syllabic>single</syllabic>
      <text>.</text>
    </lyric>
  </note>
  <note>
    <pitch>
      <step>A</step>
      <alter>0.00000000</alter>
      <octave>4</octave>
      </pitch>
    <duration>48</duration>
    <type>16th</type>
    <beam number="1">continue</beam>
    <lyric number="1">
      <syllabic>single</syllabic>
      <text>.</text>
    </lyric>
  </note>
  <note>
    <pitch>
      <step>B</step>
      <alter>-0.86792452</alter>
      <octave>4</octave>
      </pitch>
    <duration>48</duration>
    <type>16th</type>
    <beam number="1">continue</beam>
    <lyric number="1">
      <syllabic>single</syllabic>
      <text>.</text>
    </lyric>
  </note>
  <note>
    <pitch>
      <step>D</step>
      <alter>-0.01886792</alter>
      <octave>5</octave>
      </pitch>
    <duration>48</duration>
    <type>16th</type>
    <beam number="1">continue</beam>
    <lyric number="1">
      <syllabic>single</syllabic>
      <text>.</text>
    </lyric>
  </note>
  <note>
    <pitch>
      <step>C</step>
      <alter>0.84905661</alter>
      <octave>5</octave>
      </pitch>
    <duration>48</duration>
    <type>16th</type>
    <beam number="1">continue</beam>
    <lyric number="1">
      <syllabic>single</syllabic>
      <text>.</text>
    </lyric>
  </note>
  <note>
    <pitch>
      <step>B</step>
      <alter>-0.86792452</alter>
      <octave>4</octave>
      </pitch>
    <duration>48</duration>
    <type>16th</type>
    <beam number="1">continue</beam>
    <lyric number="1">
      <syllabic>single</syllabic>
      <text>.</text>
    </lyric>
  </note>
  <note>
    <pitch>
      <step>A</step>
      <alter>0.00000000</alter>
      <octave>4</octave>
      </pitch>
    <duration>48</duration>
    <type>16th</type>
    <beam number="1">continue</beam>
    <lyric number="1">
      <syllabic>single</syllabic>
      <text>.</text>
    </lyric>
  </note>
  <note>
    <pitch>
      <step>A</step>
      <alter>0.00000000</alter>
      <octave>4</octave>
      </pitch>
    <duration>48</duration>
    <type>16th</type>
    <beam number="1">end</beam>
    <lyric number="1">
      <syllabic>single</syllabic>
      <text>.</text>
    </lyric>
  </note>
  <note>
    <pitch>
      <step>G</step>
      <alter>-0.03773585</alter>
      <octave>4</octave>
      </pitch>
    <duration>48</duration>
    <type>16th</type>
    <beam number="1">begin</beam>
    <lyric number="1">
      <syllabic>single</syllabic>
      <text>.</text>
    </lyric>
  </note>
  <note>
    <pitch>
      <step>G</step>
      <alter>-0.03773585</alter>
      <octave>4</octave>
      </pitch>
    <duration>48</duration>
    <type>16th</type>
    <beam number="1">continue</beam>
    <lyric number="1">
      <syllabic>single</syllabic>
      <text>.</text>
    </lyric>
  </note>
  <note>
    <pitch>
      <step>F</step>
      <alter>0.83018868</alter>
      <octave>4</octave>
      </pitch>
    <duration>48</duration>
    <type>16th</type>
    <beam number="1">end</beam>
    <lyric number="1">
      <syllabic>single</syllabic>
      <text>.</text>
    </lyric>
  </note>
  <note>
    <pitch>
      <step>G</step>
      <alter>-0.03773585</alter>
      <octave>4</octave>
      </pitch>
    <duration>144</duration>
    <type>eighth</type><dot/>
    <lyric number="1">
      <syllabic>single</syllabic>
      <text>.</text>
    </lyric>
  </note>
  <note>
    <pitch>
      <step>D</step>
      <alter>-0.01886792</alter>
      <octave>5</octave>
      </pitch>
    <duration>48</duration>
    <type size="cue">16th</type>
    <beam number="1">begin</beam>
    <lyric number="1">
      <syllabic>single</syllabic>
      <text>.</text>
    </lyric>
  </note>
  <note>
    <pitch>
      <step>C</step>
      <alter>0.84905661</alter>
      <octave>5</octave>
      </pitch>
    <duration>48</duration>
    <type size="cue">16th</type>
    <beam number="1">continue</beam>
    <lyric number="1">
      <syllabic>single</syllabic>
      <text>.</text>
    </lyric>
  </note>
  <note>
    <pitch>
      <step>E</step>
      <alter>0.01886793</alter>
      <octave>5</octave>
      </pitch>
    <duration>48</duration>
    <type size="cue">16th</type>
    <beam number="1">end</beam>
    <lyric number="1">
      <syllabic>single</syllabic>
      <text>.</text>
    </lyric>
  </note>
    <barline location="right">
      <bar-style>light-heavy</bar-style>
        <repeat direction="backward"/>
        </barline>
</measure>
<measure number="5">
  <note>
    <pitch>
      <step>D</step>
      <alter>-0.01886792</alter>
      <octave>5</octave>
      </pitch>
    <duration>192</duration>
    <type size="cue">quarter</type>
    <lyric number="1">
      <syllabic>single</syllabic>
      <text>.</text>
    </lyric>
  </note>
  <note>
    <pitch>
      <step>G</step>
      <alter>-0.03773585</alter>
      <octave>4</octave>
      </pitch>
    <duration>96</duration>
    <type>eighth</type>
    <beam number="1">begin</beam>
    <lyric number="1">
      <syllabic>single</syllabic>
      <text>El</text>
    </lyric>
    <lyric number="2">
      <syllabic>single</syllabic>
      <text>El</text>
    </lyric>
  </note>
  <note>
    <pitch>
      <step>D</step>
      <alter>-0.01886792</alter>
      <octave>5</octave>
      </pitch>
    <duration>96</duration>
    <type>eighth</type>
    <beam number="1">continue</beam>
    <lyric number="1">
      <syllabic>begin</syllabic>
      <text>mas </text>
    </lyric>
    <lyric number="2">
      <syllabic>single</syllabic>
      <text>ma</text>
    </lyric>
  </note>
  <note>
    <pitch>
      <step>D</step>
      <alter>-0.01886792</alter>
      <octave>5</octave>
      </pitch>
    <duration>96</duration>
    <type>eighth</type>
    <beam number="1">end</beam>
        <notations>
          <slur type="start" number="1"/>
          </notations>
    <lyric number="1">
      <syllabic>single</syllabic>
      <text>se</text>
    </lyric>
    <lyric number="2">
      <syllabic>single</syllabic>
      <text>sı</text>
    </lyric>
  </note>
<note>
<grace slash="yes"/>
<pitch>
<step>E</step>
<alter>0.07547170</alter>
<octave>5</octave>
</pitch>
<voice>1</voice>
<type>eighth</type>
<notations>
<slur type="start" number="2"/>
</notations>
  </note>
  <note>
    <pitch>
      <step>D</step>
      <alter>-0.01886792</alter>
      <octave>5</octave>
      </pitch>
    <duration>48</duration>
    <type>16th</type>
    <beam number="1">begin</beam>
    <notations>
      <slur type="stop" number="2"/>
    </notations>
  </note>
  <note>
    <pitch>
      <step>C</step>
      <alter>0.84905661</alter>
      <octave>5</octave>
      </pitch>
    <duration>48</duration>
    <type>16th</type>
    <beam number="1">end</beam>
        <notations>
          <slur type="stop" number="1"/>
          </notations>
  </note>
  <note>
    <pitch>
      <step>D</step>
      <alter>-0.01886792</alter>
      <octave>5</octave>
      </pitch>
    <duration>288</duration>
    <type>quarter</type><dot/>
    <lyric number="1">
      <syllabic>begin</syllabic>
      <text>nin </text>
    </lyric>
    <lyric number="2">
      <syllabic>begin</syllabic>
      <text>mın </text>
    </lyric>
  </note>
</measure>
<measure number="6">
  <note>
    <pitch>
      <step>E</step>
      <alter>0.01886793</alter>
      <octave>5</octave>
      </pitch>
    <duration>192</duration>
    <type>quarter</type>
    <lyric number="1">
      <syllabic>single</syllabic>
      <text>yü</text>
    </lyric>
    <lyric number="2">
      <syllabic>single</syllabic>
      <text>se</text>
    </lyric>
  </note>
  <note>
    <pitch>
      <step>G</step>
      <alter>-0.03773585</alter>
      <octave>5</octave>
      </pitch>
    <duration>96</duration>
    <type>eighth</type>
    <beam number="1">begin</beam>
        <notations>
          <slur type="start" number="1"/>
          </notations>
    <lyric number="1">
      <syllabic>begin</syllabic>
      <text>zün </text>
    </lyric>
    <lyric number="2">
      <syllabic>single</syllabic>
      <text>dâ</text>
    </lyric>
  </note>
  <note>
    <pitch>
      <step>F</step>
      <alter>-0.07547169</alter>
      <octave>5</octave>
      </pitch>
    <duration>48</duration>
    <type>16th</type>
    <accidental>natural</accidental>
    <beam number="1">continue</beam>
  </note>
  <note>
    <pitch>
      <step>E</step>
      <alter>0.01886793</alter>
      <octave>5</octave>
      </pitch>
    <duration>48</duration>
    <type>16th</type>
    <beam number="1">continue</beam>
        <notations>
          <slur type="stop" number="1"/>
          </notations>
  </note>
  <note>
    <pitch>
      <step>E</step>
      <alter>0.01886793</alter>
      <octave>5</octave>
      </pitch>
    <duration>48</duration>
    <type>16th</type>
    <beam number="1">end</beam>
        <notations>
          <slur type="start" number="1"/>
          </notations>
    <lyric number="1">
      <syllabic>single</syllabic>
      <text>gö</text>
    </lyric>
    <lyric number="2">
      <syllabic>single</syllabic>
      <text>sı</text>
    </lyric>
  </note>
  <note>
    <pitch>
      <step>D</step>
      <alter>-0.01886792</alter>
      <octave>5</octave>
      </pitch>
    <duration>48</duration>
    <type>16th</type>
    <beam number="1">begin</beam>
  </note>
  <note>
    <pitch>
      <step>D</step>
      <alter>-0.01886792</alter>
      <octave>5</octave>
      </pitch>
    <duration>48</duration>
    <type>16th</type>
    <beam number="1">continue</beam>
  </note>
  <note>
    <pitch>
      <step>C</step>
      <alter>0.84905661</alter>
      <octave>5</octave>
      </pitch>
    <duration>48</duration>
    <type>16th</type>
    <beam number="1">continue</beam>
        <notations>
          <slur type="stop" number="1"/>
          </notations>
  </note>
  <note>
    <pitch>
      <step>D</step>
      <alter>-0.01886792</alter>
      <octave>5</octave>
      </pitch>
    <duration>48</duration>
    <type>16th</type>
    <beam number="1">continue</beam>
        <notations>
          <slur type="start" number="1"/>
          </notations>
    <lyric number="1">
      <syllabic>begin</syllabic>
      <text>ren  </text>
    </lyric>
    <lyric number="2">
      <syllabic>begin</syllabic>
      <text>nı  </text>
    </lyric>
  </note>
  <note>
    <pitch>
      <step>C</step>
      <alter>0.84905661</alter>
      <octave>5</octave>
      </pitch>
    <duration>48</duration>
    <type>16th</type>
    <beam number="1">continue</beam>
  </note>
  <note>
    <pitch>
      <step>B</step>
      <alter>-0.86792452</alter>
      <octave>4</octave>
      </pitch>
    <duration>48</duration>
    <type>16th</type>
    <beam number="1">continue</beam>
  </note>
  <note>
    <pitch>
      <step>A</step>
      <alter>0.00000000</alter>
      <octave>4</octave>
      </pitch>
    <duration>48</duration>
    <type>16th</type>
    <beam number="1">continue</beam>
  </note>
  <note>
    <pitch>
      <step>G</step>
      <alter>-0.03773585</alter>
      <octave>4</octave>
      </pitch>
    <duration>48</duration>
    <type>16th</type>
    <beam number="1">continue</beam>
  </note>
  <note>
    <pitch>
      <step>F</step>
      <alter>0.60377359</alter>
      <octave>4</octave>
      </pitch>
    <duration>48</duration>
    <type>16th</type>
    <accidental>sharp</accidental>
    <beam number="1">end</beam>
  </note>
</measure>
<measure number="7">
  <note>
    <pitch>
      <step>G</step>
      <alter>-0.03773585</alter>
      <octave>4</octave>
      </pitch>
    <duration>96</duration>
    <type>eighth</type>
        <notations>
          <slur type="stop" number="1"/>
          </notations>
  </note>
<note>
  <rest/>
  <duration>96</duration>
  </note>
  <note>
    <pitch>
      <step>G</step>
      <alter>-0.03773585</alter>
      <octave>4</octave>
      </pitch>
    <duration>96</duration>
    <type>eighth</type>
    <beam number="1">begin</beam>
    <lyric number="1">
      <syllabic>single</syllabic>
      <text>El</text>
    </lyric>
    <lyric number="2">
      <syllabic>single</syllabic>
      <text>El</text>
    </lyric>
  </note>
  <note>
    <pitch>
      <step>D</step>
      <alter>-0.01886792</alter>
      <octave>5</octave>
      </pitch>
    <duration>96</duration>
    <type>eighth</type>
    <beam number="1">continue</beam>
    <lyric number="1">
      <syllabic>begin</syllabic>
      <text>mas </text>
    </lyric>
    <lyric number="2">
      <syllabic>single</syllabic>
      <text>ma</text>
    </lyric>
  </note>
  <note>
    <pitch>
      <step>D</step>
      <alter>-0.01886792</alter>
      <octave>5</octave>
      </pitch>
    <duration>96</duration>
    <type>eighth</type>
    <beam number="1">end</beam>
        <notations>
          <slur type="start" number="1"/>
          </notations>
    <lyric number="1">
      <syllabic>single</syllabic>
      <text>se</text>
    </lyric>
    <lyric number="2">
      <syllabic>single</syllabic>
      <text>sı</text>
    </lyric>
  </note>
<note>
<grace slash="yes"/>
<pitch>
<step>E</step>
<alter>0.07547170</alter>
<octave>5</octave>
</pitch>
<voice>1</voice>
<type>eighth</type>
<notations>
<slur type="start" number="2"/>
</notations>
  </note>
  <note>
    <pitch>
      <step>D</step>
      <alter>-0.01886792</alter>
      <octave>5</octave>
      </pitch>
    <duration>48</duration>
    <type>16th</type>
    <beam number="1">begin</beam>
    <notations>
      <slur type="stop" number="2"/>
    </notations>
  </note>
  <note>
    <pitch>
      <step>C</step>
      <alter>0.84905661</alter>
      <octave>5</octave>
      </pitch>
    <duration>48</duration>
    <type>16th</type>
    <beam number="1">end</beam>
        <notations>
          <slur type="stop" number="1"/>
          </notations>
  </note>
  <note>
    <pitch>
      <step>D</step>
      <alter>-0.01886792</alter>
      <octave>5</octave>
      </pitch>
    <duration>288</duration>
    <type>quarter</type><dot/>
    <lyric number="1">
      <syllabic>begin</syllabic>
      <text>nin </text>
    </lyric>
    <lyric number="2">
      <syllabic>begin</syllabic>
      <text>mın </text>
    </lyric>
  </note>
</measure>
<measure number="8">
  <note>
    <pitch>
      <step>E</step>
      <alter>0.01886793</alter>
      <octave>5</octave>
      </pitch>
    <duration>192</duration>
    <type>quarter</type>
    <lyric number="1">
      <syllabic>single</syllabic>
      <text>yü</text>
    </lyric>
    <lyric number="2">
      <syllabic>single</syllabic>
      <text>se</text>
    </lyric>
  </note>
  <note>
    <pitch>
      <step>G</step>
      <alter>-0.03773585</alter>
      <octave>5</octave>
      </pitch>
    <duration>96</duration>
    <type>eighth</type>
    <beam number="1">begin</beam>
        <notations>
          <slur type="start" number="1"/>
          </notations>
    <lyric number="1">
      <syllabic>begin</syllabic>
      <text>zün </text>
    </lyric>
    <lyric number="2">
      <syllabic>single</syllabic>
      <text>dâ</text>
    </lyric>
  </note>
  <note>
    <pitch>
      <step>F</step>
      <alter>-0.07547169</alter>
      <octave>5</octave>
      </pitch>
    <duration>48</duration>
    <type>16th</type>
    <accidental>natural</accidental>
    <beam number="1">continue</beam>
  </note>
  <note>
    <pitch>
      <step>E</step>
      <alter>0.01886793</alter>
      <octave>5</octave>
      </pitch>
    <duration>48</duration>
    <type>16th</type>
    <beam number="1">continue</beam>
        <notations>
          <slur type="stop" number="1"/>
          </notations>
  </note>
  <note>
    <pitch>
      <step>E</step>
      <alter>0.01886793</alter>
      <octave>5</octave>
      </pitch>
    <duration>48</duration>
    <type>16th</type>
    <beam number="1">end</beam>
        <notations>
          <slur type="start" number="1"/>
          </notations>
    <lyric number="1">
      <syllabic>single</syllabic>
      <text>gö</text>
    </lyric>
    <lyric number="2">
      <syllabic>single</syllabic>
      <text>sı</text>
    </lyric>
  </note>
  <note>
    <pitch>
      <step>D</step>
      <alter>-0.01886792</alter>
      <octave>5</octave>
      </pitch>
    <duration>48</duration>
    <type>16th</type>
    <beam number="1">begin</beam>
  </note>
  <note>
    <pitch>
      <step>D</step>
      <alter>-0.01886792</alter>
      <octave>5</octave>
      </pitch>
    <duration>48</duration>
    <type>16th</type>
    <beam number="1">continue</beam>
  </note>
  <note>
    <pitch>
      <step>C</step>
      <alter>0.84905661</alter>
      <octave>5</octave>
      </pitch>
    <duration>48</duration>
    <type>16th</type>
    <beam number="1">end</beam>
        <notations>
          <slur type="stop" number="1"/>
          </notations>
  </note>
  <note>
    <pitch>
      <step>D</step>
      <alter>-0.01886792</alter>
      <octave>5</octave>
      </pitch>
    <duration>192</duration>
    <type>quarter</type>
    <lyric number="1">
      <syllabic>begin</syllabic>
      <text>ren  </text>
    </lyric>
    <lyric number="2">
      <syllabic>begin</syllabic>
      <text>nı  </text>
    </lyric>
  </note>
  <note>
    <pitch>
      <step>C</step>
      <alter>0.84905661</alter>
      <octave>5</octave>
      </pitch>
    <duration>48</duration>
    <type>16th</type>
    <beam number="1">begin</beam>
    <lyric number="1">
      <syllabic>single</syllabic>
      <text>SAZ</text>
    </lyric>
  </note>
  <note>
    <pitch>
      <step>E</step>
      <alter>0.01886793</alter>
      <octave>5</octave>
      </pitch>
    <duration>48</duration>
    <type>16th</type>
    <beam number="1">end</beam>
    <lyric number="1">
      <syllabic>single</syllabic>
      <text>.</text>
    </lyric>
  </note>
</measure>
<measure number="9">
  <note>
    <pitch>
      <step>D</step>
      <alter>-0.01886792</alter>
      <octave>5</octave>
      </pitch>
    <duration>96</duration>
    <type>eighth</type>
    <lyric number="1">
      <syllabic>single</syllabic>
      <text>.</text>
    </lyric>
  </note>
<note>
  <rest/>
  <duration>96</duration>
  </note>
  <note>
    <pitch>
      <step>D</step>
      <alter>-0.01886792</alter>
      <octave>5</octave>
      </pitch>
    <duration>144</duration>
    <type>eighth</type><dot/>
    <lyric number="1">
      <syllabic>single</syllabic>
      <text>Ay</text>
    </lyric>
    <lyric number="2">
      <syllabic>single</syllabic>
      <text>Gö</text>
    </lyric>
  </note>
  <note>
    <pitch>
      <step>D</step>
      <alter>-0.01886792</alter>
      <octave>5</octave>
      </pitch>
    <duration>48</duration>
    <type>16th</type>
    <lyric number="1">
      <syllabic>single</syllabic>
      <text>rı</text>
    </lyric>
    <lyric number="2">
      <syllabic>begin</syllabic>
      <text>ren </text>
    </lyric>
  </note>
  <note>
    <pitch>
      <step>D</step>
      <alter>-0.01886792</alter>
      <octave>5</octave>
      </pitch>
    <duration>192</duration>
    <type>quarter</type>
    <lyric number="1">
      <syllabic>begin</syllabic>
      <text>lır </text>
    </lyric>
    <lyric number="2">
      <syllabic>single</syllabic>
      <text>bi</text>
    </lyric>
  </note>
  <note>
    <pitch>
      <step>D</step>
      <alter>-0.01886792</alter>
      <octave>5</octave>
      </pitch>
    <duration>48</duration>
    <type>16th</type>
    <beam number="1">begin</beam>
        <notations>
          <slur type="start" number="1"/>
          </notations>
    <lyric number="1">
      <syllabic>begin</syllabic>
      <text>mı </text>
    </lyric>
    <lyric number="2">
      <syllabic>begin</syllabic>
      <text>lir </text>
    </lyric>
  </note>
  <note>
    <pitch>
      <step>C</step>
      <alter>0.84905661</alter>
      <octave>5</octave>
      </pitch>
    <duration>48</duration>
    <type>16th</type>
    <beam number="1">continue</beam>
  </note>
  <note>
    <pitch>
      <step>B</step>
      <alter>-0.86792452</alter>
      <octave>4</octave>
      </pitch>
    <duration>48</duration>
    <type>16th</type>
    <beam number="1">continue</beam>
  </note>
  <note>
    <pitch>
      <step>A</step>
      <alter>0.00000000</alter>
      <octave>4</octave>
      </pitch>
    <duration>48</duration>
    <type>16th</type>
    <beam number="1">continue</beam>
  </note>
  <note>
    <pitch>
      <step>B</step>
      <alter>-0.86792452</alter>
      <octave>4</octave>
      </pitch>
    <duration>96</duration>
    <type>eighth</type>
    <beam number="1">end</beam>
        <notations>
          <slur type="stop" number="1"/>
          </notations>
  </note>
</measure>
<measure number="10">
  <note>
    <pitch>
      <step>C</step>
      <alter>0.84905661</alter>
      <octave>5</octave>
      </pitch>
    <duration>96</duration>
    <type>eighth</type>
    <beam number="1">begin</beam>
        <notations>
          <slur type="start" number="1"/>
          </notations>
    <lyric number="1">
      <syllabic>single</syllabic>
      <text>kad</text>
    </lyric>
    <lyric number="2">
      <syllabic>single</syllabic>
      <text>e</text>
    </lyric>
  </note>
  <note>
    <pitch>
      <step>B</step>
      <alter>-0.86792452</alter>
      <octave>4</octave>
      </pitch>
    <duration>48</duration>
    <type>16th</type>
    <beam number="1">continue</beam>
  </note>
  <note>
    <pitch>
      <step>A</step>
      <alter>0.00000000</alter>
      <octave>4</octave>
      </pitch>
    <duration>48</duration>
    <type>16th</type>
    <beam number="1">continue</beam>
        <notations>
          <slur type="stop" number="1"/>
          </notations>
  </note>
  <note>
    <pitch>
      <step>E</step>
      <alter>0.01886793</alter>
      <octave>5</octave>
      </pitch>
    <duration>96</duration>
    <type>eighth</type>
    <beam number="1">continue</beam>
        <notations>
          <slur type="start" number="1"/>
          </notations>
    <lyric number="1">
      <syllabic>begin</syllabic>
      <text>rin </text>
    </lyric>
    <lyric number="2">
      <syllabic>single</syllabic>
      <text>dâ</text>
    </lyric>
  </note>
  <note>
    <pitch>
      <step>D</step>
      <alter>-0.01886792</alter>
      <octave>5</octave>
      </pitch>
    <duration>48</duration>
    <type>16th</type>
    <beam number="1">continue</beam>
  </note>
  <note>
    <pitch>
      <step>C</step>
      <alter>0.84905661</alter>
      <octave>5</octave>
      </pitch>
    <duration>48</duration>
    <type>16th</type>
    <beam number="1">continue</beam>
        <notations>
          <slur type="stop" number="1"/>
          </notations>
  </note>
  <note>
    <pitch>
      <step>C</step>
      <alter>0.84905661</alter>
      <octave>5</octave>
      </pitch>
    <duration>48</duration>
    <type>16th</type>
    <beam number="1">end</beam>
        <notations>
          <slur type="start" number="1"/>
          </notations>
    <lyric number="1">
      <syllabic>single</syllabic>
      <text>bi</text>
    </lyric>
    <lyric number="2">
      <syllabic>single</syllabic>
      <text>sı</text>
    </lyric>
  </note>
  <note>
    <pitch>
      <step>B</step>
      <alter>-0.86792452</alter>
      <octave>4</octave>
      </pitch>
    <duration>48</duration>
    <type>16th</type>
    <beam number="1">begin</beam>
  </note>
  <note>
    <pitch>
      <step>B</step>
      <alter>-0.86792452</alter>
      <octave>4</octave>
      </pitch>
    <duration>48</duration>
    <type>16th</type>
    <beam number="1">continue</beam>
  </note>
  <note>
    <pitch>
      <step>A</step>
      <alter>0.00000000</alter>
      <octave>4</octave>
      </pitch>
    <duration>48</duration>
    <type>16th</type>
    <beam number="1">end</beam>
        <notations>
          <slur type="stop" number="1"/>
          </notations>
  </note>
  <note>
    <pitch>
      <step>B</step>
      <alter>-0.86792452</alter>
      <octave>4</octave>
      </pitch>
    <duration>192</duration>
    <type>quarter</type>
        <notations>
          <slur type="start" number="1"/>
          </notations>
        <notations>
        <ornaments>
          <tremolo>1</tremolo>
          </ornaments>
          </notations>
    <lyric number="1">
      <syllabic>begin</syllabic>
      <text>len  </text>
    </lyric>
    <lyric number="2">
      <syllabic>begin</syllabic>
      <text>nı  </text>
    </lyric>
  </note>
  <note>
    <pitch>
      <step>A</step>
      <alter>0.00000000</alter>
      <octave>4</octave>
      </pitch>
    <duration>48</duration>
    <type>16th</type>
    <beam number="1">begin</beam>
  </note>
  <note>
    <pitch>
      <step>G</step>
      <alter>-0.03773585</alter>
      <octave>4</octave>
      </pitch>
    <duration>48</duration>
    <type>16th</type>
    <beam number="1">end</beam>
  </note>
</measure>
<measure number="11">
  <note>
    <pitch>
      <step>G</step>
      <alter>-0.03773585</alter>
      <octave>4</octave>
      </pitch>
    <duration>96</duration>
    <type>eighth</type>
        <notations>
          <slur type="stop" number="1"/>
          </notations>
  </note>
<note>
  <rest/>
  <duration>96</duration>
  </note>
  <note>
    <pitch>
      <step>C</step>
      <alter>0.84905661</alter>
      <octave>5</octave>
      </pitch>
    <duration>96</duration>
    <type>eighth</type>
    <beam number="1">begin</beam>
    <lyric number="1">
      <syllabic>single</syllabic>
      <text>El</text>
    </lyric>
  </note>
  <note>
    <pitch>
      <step>D</step>
      <alter>-0.01886792</alter>
      <octave>5</octave>
      </pitch>
    <duration>96</duration>
    <type>eighth</type>
    <beam number="1">continue</beam>
    <lyric number="1">
      <syllabic>single</syllabic>
      <text>ma</text>
    </lyric>
  </note>
  <note>
    <pitch>
      <step>E</step>
      <alter>0.01886793</alter>
      <octave>5</octave>
      </pitch>
    <duration>96</duration>
    <type>eighth</type>
    <beam number="1">end</beam>
        <notations>
          <slur type="start" number="1"/>
          </notations>
    <lyric number="1">
      <syllabic>single</syllabic>
      <text>sım</text>
    </lyric>
  </note>
  <note>
    <pitch>
      <step>F</step>
      <alter>0.60377359</alter>
      <octave>5</octave>
      </pitch>
    <duration>96</duration>
    <type>eighth</type>
        <notations>
          <slur type="stop" number="1"/>
          </notations>
  </note>
  <note>
    <pitch>
      <step>G</step>
      <alter>-0.03773585</alter>
      <octave>5</octave>
      </pitch>
    <duration>192</duration>
    <tie type="start"/>
    <type>quarter</type>
        <notations>
          <tied type="start"/>
          </notations>
    <lyric number="1">
      <syllabic>begin</syllabic>
      <text>dan </text>
    </lyric>
  </note>
  <note>
    <pitch>
      <step>G</step>
      <alter>-0.03773585</alter>
      <octave>5</octave>
      </pitch>
    <duration>96</duration>
    <tie type="stop"/>
    <type>eighth</type>
        <notations>
          <tied type="stop"/>
          </notations>
  </note>
</measure>
<measure number="12">
  <note>
    <pitch>
      <step>G</step>
      <alter>-0.03773585</alter>
      <octave>5</octave>
      </pitch>
    <duration>144</duration>
    <type>eighth</type><dot/>
        <notations>
          <slur type="start" number="1"/>
          </notations>
    <lyric number="1">
      <syllabic>single</syllabic>
      <text>men</text>
    </lyric>
  </note>
  <note>
    <pitch>
      <step>F</step>
      <alter>0.37735849</alter>
      <octave>5</octave>
      </pitch>
    <duration>48</duration>
    <type>16th</type>
    <accidental>quarter-sharp</accidental>
    <beam number="1">begin</beam>
        <notations>
          <slur type="stop" number="1"/>
          </notations>
  </note>
  <note>
    <pitch>
      <step>F</step>
      <alter>0.15094340</alter>
      <octave>5</octave>
      </pitch>
    <duration>96</duration>
    <type>eighth</type>
    <beam number="1">end</beam>
        <notations>
          <slur type="start" number="1"/>
          </notations>
    <lyric number="1">
      <syllabic>begin</syllabic>
      <text>dil </text>
    </lyric>
  </note>
<note>
<grace slash="yes"/>
<pitch>
<step>G</step>
<alter>0.01886792</alter>
<octave>5</octave>
</pitch>
<voice>1</voice>
<type>eighth</type>
<notations>
<slur type="start" number="2"/>
</notations>
  </note>
  <note>
    <pitch>
      <step>F</step>
      <alter>0.15094340</alter>
      <octave>5</octave>
      </pitch>
    <duration>48</duration>
    <type>16th</type>
    <beam number="1">begin</beam>
    <notations>
      <slur type="stop" number="2"/>
    </notations>
  </note>
  <note>
    <pitch>
      <step>E</step>
      <alter>0.01886793</alter>
      <octave>5</octave>
      </pitch>
    <duration>48</duration>
    <type>16th</type>
    <beam number="1">continue</beam>
        <notations>
          <slur type="stop" number="1"/>
          </notations>
  </note>
  <note>
    <pitch>
      <step>E</step>
      <alter>0.01886793</alter>
      <octave>5</octave>
      </pitch>
    <duration>48</duration>
    <type>16th</type>
    <beam number="1">end</beam>
        <notations>
          <slur type="start" number="1"/>
          </notations>
    <lyric number="1">
      <syllabic>single</syllabic>
      <text>al</text>
    </lyric>
  </note>
  <note>
    <pitch>
      <step>F</step>
      <alter>-0.07547169</alter>
      <octave>5</octave>
      </pitch>
    <duration>48</duration>
    <type>16th</type>
    <accidental>natural</accidental>
    <beam number="1">begin</beam>
  </note>
  <note>
    <pitch>
      <step>E</step>
      <alter>0.01886793</alter>
      <octave>5</octave>
      </pitch>
    <duration>48</duration>
    <type>16th</type>
    <beam number="1">continue</beam>
  </note>
  <note>
    <pitch>
      <step>F</step>
      <alter>-0.07547169</alter>
      <octave>5</octave>
      </pitch>
    <duration>48</duration>
    <type>16th</type>
    <beam number="1">continue</beam>
        <notations>
          <slur type="stop" number="1"/>
          </notations>
  </note>
  <note>
    <pitch>
      <step>A</step>
      <alter>0.00000000</alter>
      <octave>5</octave>
      </pitch>
    <duration>48</duration>
    <type>16th</type>
    <beam number="1">continue</beam>
        <notations>
          <slur type="start" number="1"/>
          </notations>
    <lyric number="1">
      <syllabic>begin</syllabic>
      <text>dım  </text>
    </lyric>
  </note>
  <note>
    <pitch>
      <step>G</step>
      <alter>-0.03773585</alter>
      <octave>5</octave>
      </pitch>
    <duration>48</duration>
    <type>16th</type>
    <beam number="1">continue</beam>
  </note>
  <note>
    <pitch>
      <step>F</step>
      <alter>-0.07547169</alter>
      <octave>5</octave>
      </pitch>
    <duration>48</duration>
    <type>16th</type>
    <beam number="1">continue</beam>
  </note>
  <note>
    <pitch>
      <step>E</step>
      <alter>0.01886793</alter>
      <octave>5</octave>
      </pitch>
    <duration>48</duration>
    <type>16th</type>
    <beam number="1">continue</beam>
  </note>
  <note>
    <pitch>
      <step>D</step>
      <alter>-0.01886792</alter>
      <octave>5</octave>
      </pitch>
    <duration>48</duration>
    <type>16th</type>
    <beam number="1">continue</beam>
  </note>
  <note>
    <pitch>
      <step>C</step>
      <alter>0.84905661</alter>
      <octave>5</octave>
      </pitch>
    <duration>48</duration>
    <type>16th</type>
    <beam number="1">end</beam>
  </note>
</measure>
<measure number="13">
  <note>
    <pitch>
      <step>D</step>
      <alter>-0.01886792</alter>
      <octave>5</octave>
      </pitch>
    <duration>96</duration>
    <type>eighth</type>
        <notations>
          <slur type="stop" number="1"/>
          </notations>
  </note>
<note>
  <rest/>
  <duration>96</duration>
  </note>
  <note>
    <pitch>
      <step>C</step>
      <alter>0.84905661</alter>
      <octave>5</octave>
      </pitch>
    <duration>96</duration>
    <type>eighth</type>
    <beam number="1">begin</beam>
    <lyric number="1">
      <syllabic>single</syllabic>
      <text>El</text>
    </lyric>
  </note>
  <note>
    <pitch>
      <step>D</step>
      <alter>-0.01886792</alter>
      <octave>5</octave>
      </pitch>
    <duration>96</duration>
    <type>eighth</type>
    <beam number="1">continue</beam>
    <lyric number="1">
      <syllabic>single</syllabic>
      <text>ma</text>
    </lyric>
  </note>
  <note>
    <pitch>
      <step>E</step>
      <alter>0.01886793</alter>
      <octave>5</octave>
      </pitch>
    <duration>96</duration>
    <type>eighth</type>
    <beam number="1">end</beam>
        <notations>
          <slur type="start" number="1"/>
          </notations>
    <lyric number="1">
      <syllabic>single</syllabic>
      <text>sım</text>
    </lyric>
  </note>
  <note>
    <pitch>
      <step>F</step>
      <alter>0.60377359</alter>
      <octave>5</octave>
      </pitch>
    <duration>96</duration>
    <type>eighth</type>
        <notations>
          <slur type="stop" number="1"/>
          </notations>
  </note>
  <note>
    <pitch>
      <step>G</step>
      <alter>-0.03773585</alter>
      <octave>5</octave>
      </pitch>
    <duration>192</duration>
    <tie type="start"/>
    <type>quarter</type>
        <notations>
          <tied type="start"/>
          </notations>
    <lyric number="1">
      <syllabic>begin</syllabic>
      <text>dan </text>
    </lyric>
  </note>
  <note>
    <pitch>
      <step>G</step>
      <alter>-0.03773585</alter>
      <octave>5</octave>
      </pitch>
    <duration>96</duration>
    <tie type="stop"/>
    <type>eighth</type>
        <notations>
          <tied type="stop"/>
          </notations>
  </note>
</measure>
<measure number="14">
  <note>
    <pitch>
      <step>G</step>
      <alter>-0.03773585</alter>
      <octave>5</octave>
      </pitch>
    <duration>144</duration>
    <type>eighth</type><dot/>
        <notations>
          <slur type="start" number="1"/>
          </notations>
    <lyric number="1">
      <syllabic>single</syllabic>
      <text>men</text>
    </lyric>
  </note>
  <note>
    <pitch>
      <step>F</step>
      <alter>0.37735849</alter>
      <octave>5</octave>
      </pitch>
    <duration>48</duration>
    <type>16th</type>
    <accidental>quarter-sharp</accidental>
    <beam number="1">begin</beam>
        <notations>
          <slur type="stop" number="1"/>
          </notations>
  </note>
  <note>
    <pitch>
      <step>F</step>
      <alter>0.15094340</alter>
      <octave>5</octave>
      </pitch>
    <duration>96</duration>
    <type>eighth</type>
    <beam number="1">end</beam>
        <notations>
          <slur type="start" number="1"/>
          </notations>
    <lyric number="1">
      <syllabic>begin</syllabic>
      <text>dil </text>
    </lyric>
  </note>
<note>
<grace slash="yes"/>
<pitch>
<step>G</step>
<alter>0.01886792</alter>
<octave>5</octave>
</pitch>
<voice>1</voice>
<type>eighth</type>
<notations>
<slur type="start" number="2"/>
</notations>
  </note>
  <note>
    <pitch>
      <step>F</step>
      <alter>0.15094340</alter>
      <octave>5</octave>
      </pitch>
    <duration>48</duration>
    <type>16th</type>
    <beam number="1">begin</beam>
    <notations>
      <slur type="stop" number="2"/>
    </notations>
  </note>
  <note>
    <pitch>
      <step>E</step>
      <alter>0.01886793</alter>
      <octave>5</octave>
      </pitch>
    <duration>48</duration>
    <type>16th</type>
    <beam number="1">continue</beam>
        <notations>
          <slur type="stop" number="1"/>
          </notations>
  </note>
  <note>
    <pitch>
      <step>E</step>
      <alter>0.01886793</alter>
      <octave>5</octave>
      </pitch>
    <duration>48</duration>
    <type>16th</type>
    <beam number="1">end</beam>
        <notations>
          <slur type="start" number="1"/>
          </notations>
    <lyric number="1">
      <syllabic>single</syllabic>
      <text>al</text>
    </lyric>
  </note>
  <note>
    <pitch>
      <step>F</step>
      <alter>-0.07547169</alter>
      <octave>5</octave>
      </pitch>
    <duration>48</duration>
    <type>16th</type>
    <accidental>natural</accidental>
    <beam number="1">begin</beam>
  </note>
  <note>
    <pitch>
      <step>E</step>
      <alter>0.01886793</alter>
      <octave>5</octave>
      </pitch>
    <duration>48</duration>
    <type>16th</type>
    <beam number="1">continue</beam>
  </note>
  <note>
    <pitch>
      <step>F</step>
      <alter>-0.07547169</alter>
      <octave>5</octave>
      </pitch>
    <duration>48</duration>
    <type>16th</type>
    <beam number="1">continue</beam>
        <notations>
          <slur type="stop" number="1"/>
          </notations>
  </note>
  <note>
    <pitch>
      <step>A</step>
      <alter>0.00000000</alter>
      <octave>5</octave>
      </pitch>
    <duration>48</duration>
    <type>16th</type>
    <beam number="1">continue</beam>
        <notations>
          <slur type="start" number="1"/>
          </notations>
    <lyric number="1">
      <syllabic>begin</syllabic>
      <text>dım  </text>
    </lyric>
  </note>
  <note>
    <pitch>
      <step>G</step>
      <alter>-0.03773585</alter>
      <octave>5</octave>
      </pitch>
    <duration>48</duration>
    <type>16th</type>
    <beam number="1">continue</beam>
  </note>
  <note>
    <pitch>
      <step>F</step>
      <alter>-0.07547169</alter>
      <octave>5</octave>
      </pitch>
    <duration>48</duration>
    <type>16th</type>
    <beam number="1">continue</beam>
  </note>
  <note>
    <pitch>
      <step>E</step>
      <alter>0.01886793</alter>
      <octave>5</octave>
      </pitch>
    <duration>48</duration>
    <type>16th</type>
    <beam number="1">continue</beam>
  </note>
  <note>
    <pitch>
      <step>D</step>
      <alter>-0.01886792</alter>
      <octave>5</octave>
      </pitch>
    <duration>48</duration>
    <type>16th</type>
    <beam number="1">continue</beam>
  </note>
  <note>
    <pitch>
      <step>C</step>
      <alter>0.84905661</alter>
      <octave>5</octave>
      </pitch>
    <duration>48</duration>
    <type>16th</type>
    <beam number="1">end</beam>
  </note>
</measure>
<measure number="15">
  <note>
    <pitch>
      <step>D</step>
      <alter>-0.01886792</alter>
      <octave>5</octave>
      </pitch>
    <duration>96</duration>
    <type>eighth</type>
        <notations>
          <slur type="stop" number="1"/>
          </notations>
  </note>
<note>
  <rest/>
  <duration>96</duration>
  </note>
  <note>
    <pitch>
      <step>E</step>
      <alter>0.01886793</alter>
      <octave>5</octave>
      </pitch>
    <duration>48</duration>
    <type>16th</type>
    <beam number="1">begin</beam>
        <notations>
          <slur type="start" number="1"/>
          </notations>
    <lyric number="1">
      <syllabic>single</syllabic>
      <text>Mec</text>
    </lyric>
  </note>
  <note>
    <pitch>
      <step>D</step>
      <alter>-0.01886792</alter>
      <octave>5</octave>
      </pitch>
    <duration>48</duration>
    <type>16th</type>
    <beam number="1">continue</beam>
  </note>
  <note>
    <pitch>
      <step>C</step>
      <alter>0.84905661</alter>
      <octave>5</octave>
      </pitch>
    <duration>48</duration>
    <type>16th</type>
    <beam number="1">continue</beam>
  </note>
  <note>
    <pitch>
      <step>D</step>
      <alter>-0.01886792</alter>
      <octave>5</octave>
      </pitch>
    <duration>48</duration>
    <type>16th</type>
    <beam number="1">end</beam>
        <notations>
          <slur type="stop" number="1"/>
          </notations>
  </note>
  <note>
    <pitch>
      <step>E</step>
      <alter>0.01886793</alter>
      <octave>5</octave>
      </pitch>
    <duration>192</duration>
    <type>quarter</type>
    <lyric number="1">
      <syllabic>begin</syllabic>
      <text>nûn </text>
    </lyric>
  </note>
  <note>
    <pitch>
      <step>E</step>
      <alter>0.01886793</alter>
      <octave>5</octave>
      </pitch>
    <duration>96</duration>
    <type>eighth</type>
    <lyric number="1">
      <syllabic>single</syllabic>
      <text>o</text>
    </lyric>
  </note>
  <note>
    <pitch>
      <step>E</step>
      <alter>0.01886793</alter>
      <octave>5</octave>
      </pitch>
    <duration>192</duration>
    <type>quarter</type>
    <lyric number="1">
      <syllabic>begin</syllabic>
      <text>lur </text>
    </lyric>
  </note>
</measure>
<measure number="16">
  <note>
    <pitch>
      <step>E</step>
      <alter>0.01886793</alter>
      <octave>5</octave>
      </pitch>
    <duration>48</duration>
    <type>16th</type>
    <beam number="1">begin</beam>
        <notations>
          <slur type="start" number="1"/>
          </notations>
    <lyric number="1">
      <syllabic>single</syllabic>
      <text>gö</text>
    </lyric>
  </note>
  <note>
    <pitch>
      <step>F</step>
      <alter>0.37735849</alter>
      <octave>5</octave>
      </pitch>
    <duration>48</duration>
    <type>16th</type>
    <accidental>quarter-sharp</accidental>
    <beam number="1">continue</beam>
  </note>
  <note>
    <pitch>
      <step>E</step>
      <alter>0.01886793</alter>
      <octave>5</octave>
      </pitch>
    <duration>48</duration>
    <type>16th</type>
    <beam number="1">continue</beam>
  </note>
  <note>
    <pitch>
      <step>F</step>
      <alter>0.37735849</alter>
      <octave>5</octave>
      </pitch>
    <duration>48</duration>
    <type>16th</type>
    <beam number="1">continue</beam>
        <notations>
          <slur type="stop" number="1"/>
          </notations>
  </note>
  <note>
    <pitch>
      <step>G</step>
      <alter>-0.03773585</alter>
      <octave>5</octave>
      </pitch>
    <duration>96</duration>
    <type>eighth</type>
    <beam number="1">end</beam>
        <notations>
          <slur type="start" number="1"/>
          </notations>
    <lyric number="1">
      <syllabic>begin</syllabic>
      <text>nül </text>
    </lyric>
  </note>
<note>
<grace slash="yes"/>
<pitch>
<step>B</step>
<alter>-0.81132075</alter>
<octave>5</octave>
</pitch>
<voice>1</voice>
<type>eighth</type>
<accidental>slash-flat</accidental>
<notations>
<slur type="start" number="2"/>
</notations>
  </note>
  <note>
    <pitch>
      <step>A</step>
      <alter>0.00000000</alter>
      <octave>5</octave>
      </pitch>
    <duration>48</duration>
    <type>16th</type>
    <beam number="1">begin</beam>
    <notations>
      <slur type="stop" number="2"/>
    </notations>
  </note>
  <note>
    <pitch>
      <step>G</step>
      <alter>-0.03773585</alter>
      <octave>5</octave>
      </pitch>
    <duration>48</duration>
    <type>16th</type>
    <beam number="1">continue</beam>
        <notations>
          <slur type="stop" number="1"/>
          </notations>
  </note>
  <note>
    <pitch>
      <step>F</step>
      <alter>0.15094340</alter>
      <octave>5</octave>
      </pitch>
    <duration>48</duration>
    <type>16th</type>
    <beam number="1">end</beam>
        <notations>
          <slur type="start" number="1"/>
          </notations>
    <lyric number="1">
      <syllabic>single</syllabic>
      <text>ve</text>
    </lyric>
  </note>
  <note>
    <pitch>
      <step>E</step>
      <alter>0.01886793</alter>
      <octave>5</octave>
      </pitch>
    <duration>48</duration>
    <type>16th</type>
    <beam number="1">begin</beam>
  </note>
  <note>
    <pitch>
      <step>D</step>
      <alter>-0.01886792</alter>
      <octave>5</octave>
      </pitch>
    <duration>96</duration>
    <type>eighth</type>
    <beam number="1">continue</beam>
        <notations>
          <slur type="stop" number="1"/>
          </notations>
  </note>
  <note>
    <pitch>
      <step>E</step>
      <alter>0.01886793</alter>
      <octave>5</octave>
      </pitch>
    <duration>96</duration>
    <type>eighth</type>
    <beam number="1">continue</beam>
        <notations>
          <slur type="start" number="1"/>
          </notations>
    <lyric number="1">
      <syllabic>begin</syllabic>
      <text>ren  </text>
    </lyric>
  </note>
  <note>
    <pitch>
      <step>F</step>
      <alter>-0.07547169</alter>
      <octave>5</octave>
      </pitch>
    <duration>96</duration>
    <type>eighth</type>
    <accidental>natural</accidental>
    <beam number="1">continue</beam>
        <notations>
          <slur type="stop" number="1"/>
          </notations>
  </note>
  <note>
    <pitch>
      <step>E</step>
      <alter>0.01886793</alter>
      <octave>5</octave>
      </pitch>
    <duration>48</duration>
    <type>16th</type>
    <beam number="1">continue</beam>
        <notations>
          <slur type="start" number="1"/>
          </notations>
    <lyric number="1">
      <syllabic>single</syllabic>
      <text>a</text>
    </lyric>
  </note>
  <note>
    <pitch>
      <step>D</step>
      <alter>-0.01886792</alter>
      <octave>5</octave>
      </pitch>
    <duration>48</duration>
    <type>16th</type>
    <beam number="1">end</beam>
        <notations>
          <slur type="stop" number="1"/>
          </notations>
  </note>
</measure>
<measure number="17">
  <note>
    <pitch>
      <step>C</step>
      <alter>0.84905661</alter>
      <octave>5</octave>
      </pitch>
    <duration>96</duration>
    <type>eighth</type>
        <notations>
          <slur type="start" number="1"/>
          </notations>
    <lyric number="1">
      <syllabic>begin</syllabic>
      <text>man </text>
    </lyric>
  </note>
  <note>
    <pitch>
      <step>D</step>
      <alter>-0.01886792</alter>
      <octave>5</octave>
      </pitch>
    <duration>192</duration>
    <type>quarter</type>
        <notations>
          <slur type="stop" number="1"/>
          </notations>
  </note>
  <note>
    <pitch>
      <step>E</step>
      <alter>0.01886793</alter>
      <octave>5</octave>
      </pitch>
    <duration>48</duration>
    <type>16th</type>
    <beam number="1">begin</beam>
        <notations>
          <slur type="start" number="1"/>
          </notations>
    <lyric number="1">
      <syllabic>single</syllabic>
      <text>a</text>
    </lyric>
  </note>
  <note>
    <pitch>
      <step>F</step>
      <alter>0.83018868</alter>
      <octave>5</octave>
      </pitch>
    <duration>48</duration>
    <type>16th</type>
    <beam number="1">continue</beam>
        <notations>
          <slur type="stop" number="1"/>
          </notations>
  </note>
  <note>
    <pitch>
      <step>E</step>
      <alter>0.01886793</alter>
      <octave>5</octave>
      </pitch>
    <duration>48</duration>
    <type>16th</type>
    <beam number="1">end</beam>
        <notations>
          <slur type="start" number="1"/>
          </notations>
    <lyric number="1">
      <syllabic>begin</syllabic>
      <text>man </text>
    </lyric>
  </note>
  <note>
    <pitch>
      <step>D</step>
      <alter>-0.01886792</alter>
      <octave>5</octave>
      </pitch>
    <duration>48</duration>
    <type>16th</type>
        <notations>
          <slur type="stop" number="1"/>
          </notations>
  </note>
  <note>
    <pitch>
      <step>D</step>
      <alter>-0.01886792</alter>
      <octave>5</octave>
      </pitch>
    <duration>48</duration>
    <type>16th</type>
    <beam number="1">begin</beam>
        <notations>
          <slur type="start" number="1"/>
          </notations>
    <lyric number="1">
      <syllabic>single</syllabic>
      <text>a</text>
    </lyric>
  </note>
  <note>
    <pitch>
      <step>C</step>
      <alter>0.84905661</alter>
      <octave>5</octave>
      </pitch>
    <duration>48</duration>
    <type>16th</type>
    <beam number="1">end</beam>
        <notations>
          <slur type="stop" number="1"/>
          </notations>
  </note>
  <note>
    <pitch>
      <step>D</step>
      <alter>-0.01886792</alter>
      <octave>5</octave>
      </pitch>
    <duration>192</duration>
    <type>quarter</type>
        <notations>
          <slur type="start" number="1"/>
          </notations>
    <lyric number="1">
      <syllabic>begin</syllabic>
      <text>man </text>
    </lyric>
  </note>
  <note>
    <pitch>
      <step>D</step>
      <alter>-0.01886792</alter>
      <octave>5</octave>
      </pitch>
    <duration>48</duration>
    <type>16th</type>
    <beam number="1">begin</beam>
  </note>
  <note>
    <pitch>
      <step>C</step>
      <alter>0.84905661</alter>
      <octave>5</octave>
      </pitch>
    <duration>48</duration>
    <type>16th</type>
    <beam number="1">end</beam>
  </note>
</measure>
<measure number="18">
  <note>
    <pitch>
      <step>C</step>
      <alter>0.84905661</alter>
      <octave>5</octave>
      </pitch>
    <duration>48</duration>
    <type>16th</type>
    <beam number="1">begin</beam>
  </note>
  <note>
    <pitch>
      <step>B</step>
      <alter>-0.86792452</alter>
      <octave>4</octave>
      </pitch>
    <duration>48</duration>
    <type>16th</type>
    <beam number="1">continue</beam>
  </note>
  <note>
    <pitch>
      <step>B</step>
      <alter>-0.86792452</alter>
      <octave>4</octave>
      </pitch>
    <duration>48</duration>
    <type>16th</type>
    <beam number="1">continue</beam>
  </note>
  <note>
    <pitch>
      <step>A</step>
      <alter>0.00000000</alter>
      <octave>4</octave>
      </pitch>
    <duration>48</duration>
    <type>16th</type>
    <beam number="1">continue</beam>
        <notations>
          <slur type="stop" number="1"/>
          </notations>
  </note>
  <note>
    <pitch>
      <step>D</step>
      <alter>-0.01886792</alter>
      <octave>5</octave>
      </pitch>
    <duration>96</duration>
    <type>eighth</type>
    <beam number="1">continue</beam>
    <lyric number="1">
      <syllabic>single</syllabic>
      <text>Ha</text>
    </lyric>
  </note>
  <note>
    <pitch>
      <step>D</step>
      <alter>-0.01886792</alter>
      <octave>5</octave>
      </pitch>
    <duration>96</duration>
    <type>eighth</type>
    <beam number="1">continue</beam>
    <lyric number="1">
      <syllabic>begin</syllabic>
      <text>lim </text>
    </lyric>
  </note>
  <note>
    <pitch>
      <step>D</step>
      <alter>-0.01886792</alter>
      <octave>5</octave>
      </pitch>
    <duration>48</duration>
    <type>16th</type>
    <beam number="1">end</beam>
        <notations>
          <slur type="start" number="1"/>
          </notations>
    <lyric number="1">
      <syllabic>begin</syllabic>
      <text>pek </text>
    </lyric>
  </note>
  <note>
    <pitch>
      <step>C</step>
      <alter>0.84905661</alter>
      <octave>5</octave>
      </pitch>
    <duration>48</duration>
    <type>16th</type>
    <beam number="1">begin</beam>
  </note>
  <note>
    <pitch>
      <step>B</step>
      <alter>-0.86792452</alter>
      <octave>4</octave>
      </pitch>
    <duration>48</duration>
    <type>16th</type>
    <beam number="1">continue</beam>
  </note>
  <note>
    <pitch>
      <step>A</step>
      <alter>0.00000000</alter>
      <octave>4</octave>
      </pitch>
    <duration>48</duration>
    <type>16th</type>
    <beam number="1">continue</beam>
        <notations>
          <slur type="stop" number="1"/>
          </notations>
  </note>
  <note>
    <pitch>
      <step>D</step>
      <alter>-0.01886792</alter>
      <octave>5</octave>
      </pitch>
    <duration>48</duration>
    <type>16th</type>
    <beam number="1">continue</beam>
        <notations>
          <slur type="start" number="1"/>
          </notations>
    <lyric number="1">
      <syllabic>single</syllabic>
      <text>ya</text>
    </lyric>
  </note>
  <note>
    <pitch>
      <step>C</step>
      <alter>0.84905661</alter>
      <octave>5</octave>
      </pitch>
    <duration>48</duration>
    <type>16th</type>
    <beam number="1">continue</beam>
  </note>
  <note>
    <pitch>
      <step>B</step>
      <alter>-0.86792452</alter>
      <octave>4</octave>
      </pitch>
    <duration>48</duration>
    <type>16th</type>
    <beam number="1">continue</beam>
  </note>
  <note>
    <pitch>
      <step>A</step>
      <alter>0.00000000</alter>
      <octave>4</octave>
      </pitch>
    <duration>48</duration>
    <type>16th</type>
    <beam number="1">continue</beam>
  </note>
  <note>
    <pitch>
      <step>G</step>
      <alter>-0.03773585</alter>
      <octave>4</octave>
      </pitch>
    <duration>48</duration>
    <type>16th</type>
    <beam number="1">continue</beam>
  </note>
  <note>
    <pitch>
      <step>F</step>
      <alter>0.83018868</alter>
      <octave>4</octave>
      </pitch>
    <duration>48</duration>
    <type>16th</type>
    <beam number="1">end</beam>
        <notations>
          <slur type="stop" number="1"/>
          </notations>
  </note>
     <direction placement="above">
      <direction-type>
        <words>D.S.</words>
        </direction-type>
        <sound dalsegno="segno"/>
        </direction>
</measure>
<measure number="19">
  <note>
    <pitch>
      <step>G</step>
      <alter>-0.03773585</alter>
      <octave>4</octave>
      </pitch>
    <duration>384</duration>
    <tie type="start"/>
    <type>half</type>
        <notations>
          <tied type="start"/>
          </notations>
    <lyric number="1">
      <syllabic>begin</syllabic>
      <text>man  </text>
    </lyric>
  </note>
  <note>
    <pitch>
      <step>G</step>
      <alter>-0.03773585</alter>
      <octave>4</octave>
      </pitch>
    <duration>384</duration>
    <tie type="stop"/>
    <type>half</type>
        <notations>
          <tied type="stop"/>
          </notations>
    <lyric number="1">
      <syllabic>single</syllabic>
      <text>KARAR</text>
    </lyric>
    <lyric number="2">
      <syllabic>single</syllabic>
      <text>^</text>
    </lyric>
  </note>
<note>
  <rest/>
  <duration>96</duration>
  </note>
</measure>
</part>
</score-partwise>
