<?xml version="1.0" encoding="UTF-8"?>
<!DOCTYPE score-partwise PUBLIC "-//Recordare//DTD MusicXML 3.0 Partwise//EN" "http://www.musicxml.org/dtds/partwise.dtd">
<score-partwise version="3.0">
  <work>
    <work-title>Biz Âlûde-i Sâgâr-ı Bâdeyiz</work-title>
  </work>
  <identification>
  <creator type="composer">Beste: Hâfız Post</creator>
  <creator type="lyricist">Veysî</creator>
  <rights>rehavi--nakis--yuruksemai--biz_alude-i--hafiz_post.xml</rights>
  </identification>
<defaults>
  <scaling>
      <millimeters>7.05556</millimeters>
      <tenths>40</tenths>
      </scaling>
    <page-layout>
      <page-height>1683.36</page-height>
      <page-width>1190.88</page-width>
      <page-margins type="even">
        <left-margin>100</left-margin>
        <right-margin>100</right-margin>
        <top-margin>56.6929</top-margin>
        <bottom-margin>113.386</bottom-margin>
        </page-margins>
      <page-margins type="odd">
        <left-margin>100</left-margin>
        <right-margin>100</right-margin>
        <top-margin>56.6929</top-margin>
        <bottom-margin>113.386</bottom-margin>
        </page-margins>
      </page-layout>
    <word-font font-family="FreeSerif" font-size="10"/>
    <lyric-font font-family="FreeSerif" font-size="11"/>
    </defaults>
  <credit page="1">
    <credit-words default-x="595.276" default-y="1627.09" justify="center" valign="top" font-size="24">Biz Âlûde-i Sâgâr-ı Bâdeyiz</credit-words>
    </credit>
  <credit page="1">
    <credit-words default-x="1133.86" default-y="1527.09" justify="right" valign="bottom" font-size="12">Beste: Hâfız Post</credit-words>
          <credit-words>Veysî</credit-words>
    </credit>
  <credit page="1">
    <credit-words default-x="595.44" default-y="1569.97" justify="center" valign="top" font-size="14">Makam: Rehâvî Nakış</credit-words>
    </credit>
  <credit page="1">
    <credit-words default-x="56.6929" default-y="1526.67" justify="left" valign="bottom" font-size="12">Usul: Yürüksemâî</credit-words>
    </credit>
  <credit page="1">
    <credit-words default-x="595.44" default-y="113.386" justify="center" valign="bottom">rehavi--nakis--yuruksemai--biz_alude-i--hafiz_post.xml</credit-words>
</credit>
<part-list>
<score-part id="P1">
<part-name>S</part-name>
<part-abbreviation>S</part-abbreviation>
<score-instrument id="P1-I1">
<instrument-name>S</instrument-name>
</score-instrument>
<midi-device id="P1-I1" port="1"></midi-device>
<midi-instrument id="P1-I1">
<midi-channel>1</midi-channel>
<midi-program>1</midi-program>
<volume>80</volume>
<pan>0</pan>
</midi-instrument>
</score-part>
</part-list>
<part id="P1">
<measure number="1">
    <attributes>
      <divisions>192</divisions>
      <time>
        <beats>6</beats>
        <beat-type>8</beat-type>
      </time>
      </attributes>
      <attributes>
        <key>
        <key-step>B</key-step>
        <key-alter>-0.5</key-alter>
        <key-accidental>quarter-flat</key-accidental>
        <key-step>F</key-step>
        <key-alter>1</key-alter>
        <key-accidental>sharp</key-accidental>
        <key-octave number="1">5</key-octave>
        </key>
      </attributes>
    <barline location="left">
      <bar-style>heavy-light</bar-style>
        <repeat direction="forward"/>
        </barline>
    <direction placement="above">
      <direction-type>
        <metronome parentheses="no">
          <beat-unit>eighth</beat-unit>
          <per-minute>102</per-minute>
          </metronome>
        </direction-type>
      <sound tempo="102"/>
      </direction>
 <direction placement="above">
   <direction-type>
     <words default-y="40" font-family="FreeSerif">Usul: Yürüksemâî</words>
     </direction-type>
   </direction>
  <note>
    <pitch>
      <step>E</step>
      <alter>0.01886793</alter>
      <octave>5</octave>
      </pitch>
    <duration>96</duration>
    <type>eighth</type>
    <beam number="1">begin</beam>
    <lyric number="1">
      <syllabic>single</syllabic>
      <text>Biz_</text>
    </lyric>
    <lyric number="2">
      <syllabic>single</syllabic>
      <text>A</text>
    </lyric>
  </note>
  <note>
    <pitch>
      <step>D</step>
      <alter>-0.01886792</alter>
      <octave>5</octave>
      </pitch>
    <duration>96</duration>
    <type>eighth</type>
    <beam number="1">continue</beam>
        <notations>
          <slur type="start" number="1"/>
          </notations>
    <lyric number="1">
      <syllabic>single</syllabic>
      <text>â</text>
    </lyric>
    <lyric number="2">
      <syllabic>begin</syllabic>
      <text>nın </text>
    </lyric>
  </note>
  <note>
    <pitch>
      <step>C</step>
      <alter>-0.05660377</alter>
      <octave>5</octave>
      </pitch>
    <duration>96</duration>
    <type>eighth</type>
    <beam number="1">end</beam>
        <notations>
          <slur type="stop" number="1"/>
          </notations>
  </note>
  <note>
    <pitch>
      <step>B</step>
      <alter>-0.18867924</alter>
      <octave>4</octave>
      </pitch>
    <duration>96</duration>
    <type>eighth</type>
    <beam number="1">begin</beam>
        <notations>
          <slur type="start" number="1"/>
          </notations>
    <lyric number="1">
      <syllabic>single</syllabic>
      <text>lû</text>
    </lyric>
    <lyric number="2">
      <syllabic>begin</syllabic>
      <text>çün </text>
    </lyric>
  </note>
  <note>
    <pitch>
      <step>A</step>
      <alter>0.00000000</alter>
      <octave>4</octave>
      </pitch>
    <duration>96</duration>
    <type>eighth</type>
    <beam number="1">continue</beam>
  </note>
  <note>
    <pitch>
      <step>B</step>
      <alter>-0.18867924</alter>
      <octave>4</octave>
      </pitch>
    <duration>96</duration>
    <type>eighth</type>
    <beam number="1">end</beam>
        <notations>
          <slur type="stop" number="1"/>
          </notations>
  </note>
</measure>
<measure number="2">
  <note>
    <pitch>
      <step>D</step>
      <alter>-0.01886792</alter>
      <octave>5</octave>
      </pitch>
    <duration>96</duration>
    <type>eighth</type>
    <beam number="1">begin</beam>
    <lyric number="1">
      <syllabic>begin</syllabic>
      <text>de </text>
    </lyric>
    <lyric number="2">
      <syllabic>single</syllabic>
      <text>leb_</text>
    </lyric>
  </note>
  <note>
    <pitch>
      <step>C</step>
      <alter>-0.05660377</alter>
      <octave>5</octave>
      </pitch>
    <duration>96</duration>
    <type>eighth</type>
    <beam number="1">continue</beam>
        <notations>
          <slur type="start" number="1"/>
          </notations>
    <lyric number="1">
      <syllabic>begin</syllabic>
      <text>i </text>
    </lyric>
    <lyric number="2">
      <syllabic>begin</syllabic>
      <text>i </text>
    </lyric>
  </note>
  <note>
    <pitch>
      <step>B</step>
      <alter>-0.18867924</alter>
      <octave>4</octave>
      </pitch>
    <duration>96</duration>
    <type>eighth</type>
    <beam number="1">end</beam>
        <notations>
          <slur type="stop" number="1"/>
          </notations>
  </note>
  <note>
    <pitch>
      <step>A</step>
      <alter>0.00000000</alter>
      <octave>4</octave>
      </pitch>
    <duration>288</duration>
    <type>quarter</type><dot/>
    <lyric number="1">
      <syllabic>single</syllabic>
      <text>sâ</text>
    </lyric>
    <lyric number="2">
      <syllabic>single</syllabic>
      <text>yâ</text>
    </lyric>
  </note>
</measure>
<measure number="3">
  <note>
    <pitch>
      <step>C</step>
      <alter>-0.05660377</alter>
      <octave>5</octave>
      </pitch>
    <duration>96</duration>
    <type>eighth</type>
    <beam number="1">begin</beam>
    <lyric number="1">
      <syllabic>single</syllabic>
      <text>gar_</text>
    </lyric>
    <lyric number="2">
      <syllabic>begin</syllabic>
      <text>re </text>
    </lyric>
  </note>
  <note>
    <pitch>
      <step>B</step>
      <alter>-0.18867924</alter>
      <octave>4</octave>
      </pitch>
    <duration>96</duration>
    <type>eighth</type>
    <beam number="1">continue</beam>
        <notations>
          <slur type="start" number="1"/>
          </notations>
    <lyric number="1">
      <syllabic>begin</syllabic>
      <text>ı </text>
    </lyric>
    <lyric number="2">
      <syllabic>single</syllabic>
      <text>dil</text>
    </lyric>
  </note>
  <note>
    <pitch>
      <step>A</step>
      <alter>0.00000000</alter>
      <octave>4</octave>
      </pitch>
    <duration>96</duration>
    <type>eighth</type>
    <beam number="1">end</beam>
        <notations>
          <slur type="stop" number="1"/>
          </notations>
  </note>
  <note>
    <pitch>
      <step>G</step>
      <alter>-0.03773585</alter>
      <octave>4</octave>
      </pitch>
    <duration>288</duration>
    <type>quarter</type><dot/>
    <lyric number="1">
      <syllabic>single</syllabic>
      <text>bâ</text>
    </lyric>
    <lyric number="2">
      <syllabic>single</syllabic>
      <text>dâ</text>
    </lyric>
  </note>
</measure>
<measure number="4">
  <note>
    <pitch>
      <step>E</step>
      <alter>0.01886793</alter>
      <octave>5</octave>
      </pitch>
    <duration>96</duration>
    <type>eighth</type>
    <beam number="1">begin</beam>
    <lyric number="1">
      <syllabic>single</syllabic>
      <text>de</text>
    </lyric>
    <lyric number="2">
      <syllabic>single</syllabic>
      <text>de</text>
    </lyric>
  </note>
  <note>
    <pitch>
      <step>D</step>
      <alter>-0.01886792</alter>
      <octave>5</octave>
      </pitch>
    <duration>96</duration>
    <type>eighth</type>
    <beam number="1">continue</beam>
        <notations>
          <slur type="start" number="1"/>
          </notations>
    <lyric number="1">
      <syllabic>begin</syllabic>
      <text>yiz </text>
    </lyric>
    <lyric number="2">
      <syllabic>begin</syllabic>
      <text>yiz </text>
    </lyric>
  </note>
  <note>
    <pitch>
      <step>C</step>
      <alter>-0.05660377</alter>
      <octave>5</octave>
      </pitch>
    <duration>96</duration>
    <type>eighth</type>
    <beam number="1">end</beam>
  </note>
  <note>
    <pitch>
      <step>B</step>
      <alter>-0.18867924</alter>
      <octave>4</octave>
      </pitch>
    <duration>96</duration>
    <type>eighth</type>
  </note>
<note>
<grace slash="yes"/>
<pitch>
<step>F</step>
<alter>-0.01886792</alter>
<octave>5</octave>
</pitch>
<voice>1</voice>
<type>eighth</type>
<notations>
<slur type="start" number="2"/>
</notations>
  </note>
  <note>
    <pitch>
      <step>E</step>
      <alter>0.01886793</alter>
      <octave>5</octave>
      </pitch>
    <duration>96</duration>
    <type>eighth</type>
    <beam number="1">begin</beam>
    <notations>
      <slur type="stop" number="2"/>
    </notations>
  </note>
  <note>
    <pitch>
      <step>D</step>
      <alter>-0.01886792</alter>
      <octave>5</octave>
      </pitch>
    <duration>96</duration>
    <type>eighth</type>
    <beam number="1">end</beam>
        <notations>
          <slur type="stop" number="1"/>
          </notations>
  </note>
</measure>
<measure number="5">
  <note>
    <pitch>
      <step>D</step>
      <alter>-0.01886792</alter>
      <octave>5</octave>
      </pitch>
    <duration>384</duration>
    <tie type="start"/>
    <type>half</type>
        <notations>
          <tied type="start"/>
          </notations>
    <lyric number="1">
      <syllabic>begin</syllabic>
      <text>yâr  </text>
    </lyric>
    <lyric number="2">
      <syllabic>begin</syllabic>
      <text>yâr  </text>
    </lyric>
  </note>
  <note>
    <pitch>
      <step>D</step>
      <alter>-0.01886792</alter>
      <octave>5</octave>
      </pitch>
    <duration>96</duration>
    <tie type="stop"/>
    <type>eighth</type>
        <notations>
          <tied type="stop"/>
          </notations>
  </note>
<note>
  <rest/>
  <duration>96</duration>
  </note>
</measure>
<measure number="6">
  <note>
    <pitch>
      <step>E</step>
      <alter>0.01886793</alter>
      <octave>5</octave>
      </pitch>
    <duration>96</duration>
    <type>eighth</type>
    <beam number="1">begin</beam>
    <lyric number="1">
      <syllabic>begin</syllabic>
      <text>Ye </text>
    </lyric>
  </note>
  <note>
    <pitch>
      <step>D</step>
      <alter>-0.01886792</alter>
      <octave>5</octave>
      </pitch>
    <duration>96</duration>
    <type>eighth</type>
    <beam number="1">continue</beam>
        <notations>
          <slur type="start" number="1"/>
          </notations>
    <lyric number="1">
      <syllabic>begin</syllabic>
      <text>lel </text>
    </lyric>
  </note>
  <note>
    <pitch>
      <step>C</step>
      <alter>-0.05660377</alter>
      <octave>5</octave>
      </pitch>
    <duration>96</duration>
    <type>eighth</type>
    <beam number="1">end</beam>
        <notations>
          <slur type="stop" number="1"/>
          </notations>
  </note>
  <note>
    <pitch>
      <step>B</step>
      <alter>-0.18867924</alter>
      <octave>4</octave>
      </pitch>
    <duration>288</duration>
    <type>quarter</type><dot/>
    <lyric number="1">
      <syllabic>begin</syllabic>
      <text>lel </text>
    </lyric>
  </note>
</measure>
<measure number="7">
  <note>
    <pitch>
      <step>D</step>
      <alter>-0.01886792</alter>
      <octave>5</octave>
      </pitch>
    <duration>96</duration>
    <type>eighth</type>
    <beam number="1">begin</beam>
    <lyric number="1">
      <syllabic>begin</syllabic>
      <text>le </text>
    </lyric>
  </note>
  <note>
    <pitch>
      <step>C</step>
      <alter>-0.05660377</alter>
      <octave>5</octave>
      </pitch>
    <duration>96</duration>
    <type>eighth</type>
    <beam number="1">continue</beam>
        <notations>
          <slur type="start" number="1"/>
          </notations>
    <lyric number="1">
      <syllabic>begin</syllabic>
      <text>lel </text>
    </lyric>
  </note>
  <note>
    <pitch>
      <step>B</step>
      <alter>-0.18867924</alter>
      <octave>4</octave>
      </pitch>
    <duration>96</duration>
    <type>eighth</type>
    <beam number="1">end</beam>
        <notations>
          <slur type="stop" number="1"/>
          </notations>
  </note>
  <note>
    <pitch>
      <step>A</step>
      <alter>0.00000000</alter>
      <octave>4</octave>
      </pitch>
    <duration>192</duration>
    <type>quarter</type>
    <lyric number="1">
      <syllabic>begin</syllabic>
      <text>lel </text>
    </lyric>
  </note>
<note>
  <rest/>
  <duration>96</duration>
  </note>
</measure>
<measure number="8">
  <note>
    <pitch>
      <step>C</step>
      <alter>-0.05660377</alter>
      <octave>5</octave>
      </pitch>
    <duration>96</duration>
    <type>eighth</type>
    <beam number="1">begin</beam>
    <lyric number="1">
      <syllabic>begin</syllabic>
      <text>le </text>
    </lyric>
  </note>
  <note>
    <pitch>
      <step>B</step>
      <alter>-0.18867924</alter>
      <octave>4</octave>
      </pitch>
    <duration>96</duration>
    <type>eighth</type>
    <beam number="1">continue</beam>
        <notations>
          <slur type="start" number="1"/>
          </notations>
    <lyric number="1">
      <syllabic>begin</syllabic>
      <text>lel </text>
    </lyric>
  </note>
  <note>
    <pitch>
      <step>A</step>
      <alter>0.00000000</alter>
      <octave>4</octave>
      </pitch>
    <duration>96</duration>
    <type>eighth</type>
    <beam number="1">end</beam>
        <notations>
          <slur type="stop" number="1"/>
          </notations>
  </note>
  <note>
    <pitch>
      <step>G</step>
      <alter>-0.03773585</alter>
      <octave>4</octave>
      </pitch>
    <duration>192</duration>
    <type>quarter</type>
    <lyric number="1">
      <syllabic>begin</syllabic>
      <text>lel </text>
    </lyric>
  </note>
<note>
  <rest/>
  <duration>96</duration>
  </note>
</measure>
<measure number="9">
  <note>
    <pitch>
      <step>G</step>
      <alter>-0.03773585</alter>
      <octave>4</octave>
      </pitch>
    <duration>192</duration>
    <type>quarter</type>
    <lyric number="1">
      <syllabic>begin</syllabic>
      <text>lel </text>
    </lyric>
  </note>
  <note>
    <pitch>
      <step>A</step>
      <alter>0.00000000</alter>
      <octave>4</octave>
      </pitch>
    <duration>96</duration>
    <type>eighth</type>
    <lyric number="1">
      <syllabic>begin</syllabic>
      <text>le </text>
    </lyric>
  </note>
  <note>
    <pitch>
      <step>G</step>
      <alter>-0.03773585</alter>
      <octave>4</octave>
      </pitch>
    <duration>96</duration>
    <type>eighth</type>
    <lyric number="1">
      <syllabic>begin</syllabic>
      <text>le </text>
    </lyric>
  </note>
<note>
<grace slash="yes"/>
<pitch>
<step>F</step>
<alter>-0.01886792</alter>
<octave>5</octave>
</pitch>
<voice>1</voice>
<type>eighth</type>
<notations>
<slur type="start" number="2"/>
</notations>
  </note>
  <note>
    <pitch>
      <step>E</step>
      <alter>0.01886793</alter>
      <octave>5</octave>
      </pitch>
    <duration>96</duration>
    <type>eighth</type>
    <beam number="1">begin</beam>
    <notations>
      <slur type="stop" number="2"/>
    </notations>
        <notations>
          <slur type="start" number="1"/>
          </notations>
    <lyric number="1">
      <syllabic>begin</syllabic>
      <text>li </text>
    </lyric>
  </note>
  <note>
    <pitch>
      <step>D</step>
      <alter>-0.01886792</alter>
      <octave>5</octave>
      </pitch>
    <duration>96</duration>
    <type>eighth</type>
    <beam number="1">end</beam>
        <notations>
          <slur type="stop" number="1"/>
          </notations>
  </note>
</measure>
<measure number="10">
  <note>
    <pitch>
      <step>D</step>
      <alter>-0.01886792</alter>
      <octave>5</octave>
      </pitch>
    <duration>384</duration>
    <tie type="start"/>
    <type>half</type>
        <notations>
          <tied type="start"/>
          </notations>
    <lyric number="1">
      <syllabic>begin</syllabic>
      <text>yâr  </text>
    </lyric>
  </note>
  <note>
    <pitch>
      <step>D</step>
      <alter>-0.01886792</alter>
      <octave>5</octave>
      </pitch>
    <duration>96</duration>
    <tie type="stop"/>
    <type>eighth</type>
        <notations>
          <tied type="stop"/>
          </notations>
  </note>
<note>
  <rest/>
  <duration>96</duration>
  </note>
</measure>
<measure number="11">
  <note>
    <pitch>
      <step>E</step>
      <alter>0.01886793</alter>
      <octave>5</octave>
      </pitch>
    <duration>96</duration>
    <type>eighth</type>
    <beam number="1">begin</beam>
    <lyric number="1">
      <syllabic>begin</syllabic>
      <text>Biz </text>
    </lyric>
    <lyric number="2">
      <syllabic>single</syllabic>
      <text>A</text>
    </lyric>
  </note>
  <note>
    <pitch>
      <step>D</step>
      <alter>-0.01886792</alter>
      <octave>5</octave>
      </pitch>
    <duration>96</duration>
    <type>eighth</type>
    <beam number="1">continue</beam>
        <notations>
          <slur type="start" number="1"/>
          </notations>
    <lyric number="1">
      <syllabic>single</syllabic>
      <text>â</text>
    </lyric>
    <lyric number="2">
      <syllabic>begin</syllabic>
      <text>nın </text>
    </lyric>
  </note>
  <note>
    <pitch>
      <step>C</step>
      <alter>-0.05660377</alter>
      <octave>5</octave>
      </pitch>
    <duration>96</duration>
    <type>eighth</type>
    <beam number="1">end</beam>
        <notations>
          <slur type="stop" number="1"/>
          </notations>
  </note>
  <note>
    <pitch>
      <step>B</step>
      <alter>-0.18867924</alter>
      <octave>4</octave>
      </pitch>
    <duration>96</duration>
    <type>eighth</type>
    <beam number="1">begin</beam>
        <notations>
          <slur type="start" number="1"/>
          </notations>
    <lyric number="1">
      <syllabic>single</syllabic>
      <text>lû</text>
    </lyric>
    <lyric number="2">
      <syllabic>begin</syllabic>
      <text>çün </text>
    </lyric>
  </note>
  <note>
    <pitch>
      <step>A</step>
      <alter>0.00000000</alter>
      <octave>4</octave>
      </pitch>
    <duration>96</duration>
    <type>eighth</type>
    <beam number="1">continue</beam>
  </note>
  <note>
    <pitch>
      <step>B</step>
      <alter>-0.18867924</alter>
      <octave>4</octave>
      </pitch>
    <duration>96</duration>
    <type>eighth</type>
    <beam number="1">end</beam>
        <notations>
          <slur type="stop" number="1"/>
          </notations>
  </note>
</measure>
<measure number="12">
  <note>
    <pitch>
      <step>D</step>
      <alter>-0.01886792</alter>
      <octave>5</octave>
      </pitch>
    <duration>96</duration>
    <type>eighth</type>
    <beam number="1">begin</beam>
    <lyric number="1">
      <syllabic>single</syllabic>
      <text>de</text>
    </lyric>
    <lyric number="2">
      <syllabic>single</syllabic>
      <text>leb_</text>
    </lyric>
  </note>
  <note>
    <pitch>
      <step>C</step>
      <alter>-0.05660377</alter>
      <octave>5</octave>
      </pitch>
    <duration>96</duration>
    <type>eighth</type>
    <beam number="1">continue</beam>
        <notations>
          <slur type="start" number="1"/>
          </notations>
    <lyric number="1">
      <syllabic>begin</syllabic>
      <text>i </text>
    </lyric>
    <lyric number="2">
      <syllabic>begin</syllabic>
      <text>i </text>
    </lyric>
  </note>
  <note>
    <pitch>
      <step>B</step>
      <alter>-0.18867924</alter>
      <octave>4</octave>
      </pitch>
    <duration>96</duration>
    <type>eighth</type>
    <beam number="1">end</beam>
        <notations>
          <slur type="stop" number="1"/>
          </notations>
  </note>
  <note>
    <pitch>
      <step>A</step>
      <alter>0.00000000</alter>
      <octave>4</octave>
      </pitch>
    <duration>288</duration>
    <type>quarter</type><dot/>
    <lyric number="1">
      <syllabic>single</syllabic>
      <text>sâ</text>
    </lyric>
    <lyric number="2">
      <syllabic>single</syllabic>
      <text>yâ</text>
    </lyric>
  </note>
</measure>
<measure number="13">
  <note>
    <pitch>
      <step>C</step>
      <alter>-0.05660377</alter>
      <octave>5</octave>
      </pitch>
    <duration>96</duration>
    <type>eighth</type>
    <beam number="1">begin</beam>
    <lyric number="1">
      <syllabic>single</syllabic>
      <text>gar_</text>
    </lyric>
    <lyric number="2">
      <syllabic>begin</syllabic>
      <text>re </text>
    </lyric>
  </note>
  <note>
    <pitch>
      <step>B</step>
      <alter>-0.18867924</alter>
      <octave>4</octave>
      </pitch>
    <duration>96</duration>
    <type>eighth</type>
    <beam number="1">continue</beam>
        <notations>
          <slur type="start" number="1"/>
          </notations>
    <lyric number="1">
      <syllabic>begin</syllabic>
      <text>ı </text>
    </lyric>
    <lyric number="2">
      <syllabic>single</syllabic>
      <text>dil</text>
    </lyric>
  </note>
  <note>
    <pitch>
      <step>A</step>
      <alter>0.00000000</alter>
      <octave>4</octave>
      </pitch>
    <duration>96</duration>
    <type>eighth</type>
    <beam number="1">end</beam>
        <notations>
          <slur type="stop" number="1"/>
          </notations>
  </note>
  <note>
    <pitch>
      <step>G</step>
      <alter>-0.03773585</alter>
      <octave>4</octave>
      </pitch>
    <duration>288</duration>
    <type>quarter</type><dot/>
    <lyric number="1">
      <syllabic>single</syllabic>
      <text>bâ</text>
    </lyric>
    <lyric number="2">
      <syllabic>single</syllabic>
      <text>dâ</text>
    </lyric>
  </note>
</measure>
<measure number="14">
  <note>
    <pitch>
      <step>D</step>
      <alter>-0.01886792</alter>
      <octave>4</octave>
      </pitch>
    <duration>96</duration>
    <type>eighth</type>
    <lyric number="1">
      <syllabic>single</syllabic>
      <text>de</text>
    </lyric>
    <lyric number="2">
      <syllabic>single</syllabic>
      <text>de</text>
    </lyric>
  </note>
  <note>
    <pitch>
      <step>D</step>
      <alter>-0.01886792</alter>
      <octave>4</octave>
      </pitch>
    <duration>192</duration>
    <type>quarter</type>
        <notations>
          <slur type="start" number="1"/>
          </notations>
    <lyric number="1">
      <syllabic>begin</syllabic>
      <text>yiz </text>
    </lyric>
    <lyric number="2">
      <syllabic>begin</syllabic>
      <text>yiz </text>
    </lyric>
  </note>
  <note>
    <pitch>
      <step>D</step>
      <alter>-0.01886792</alter>
      <octave>4</octave>
      </pitch>
    <duration>96</duration>
    <type>eighth</type>
    <beam number="1">begin</beam>
  </note>
  <note>
    <pitch>
      <step>B</step>
      <alter>-0.18867924</alter>
      <octave>4</octave>
      </pitch>
    <duration>96</duration>
    <type>eighth</type>
    <beam number="1">continue</beam>
  </note>
  <note>
    <pitch>
      <step>A</step>
      <alter>0.00000000</alter>
      <octave>4</octave>
      </pitch>
    <duration>96</duration>
    <type>eighth</type>
    <beam number="1">end</beam>
        <notations>
          <slur type="stop" number="1"/>
          </notations>
  </note>
</measure>
<measure number="15">
  <note>
    <pitch>
      <step>G</step>
      <alter>-0.03773585</alter>
      <octave>4</octave>
      </pitch>
    <duration>384</duration>
    <tie type="start"/>
    <type>half</type>
        <notations>
          <tied type="start"/>
          </notations>
    <lyric number="1">
      <syllabic>begin</syllabic>
      <text>yâr  </text>
    </lyric>
    <lyric number="2">
      <syllabic>begin</syllabic>
      <text>yâr  </text>
    </lyric>
  </note>
  <note>
    <pitch>
      <step>G</step>
      <alter>-0.03773585</alter>
      <octave>4</octave>
      </pitch>
    <duration>96</duration>
    <tie type="stop"/>
    <type>eighth</type>
        <notations>
          <tied type="stop"/>
          </notations>
  </note>
<note>
  <rest/>
  <duration>96</duration>
  </note>
    <barline location="right">
      <bar-style>light-heavy</bar-style>
        <repeat direction="backward"/>
        </barline>
</measure>
<measure number="16">
  <note>
    <pitch>
      <step>A</step>
      <alter>0.00000000</alter>
      <octave>5</octave>
      </pitch>
    <duration>96</duration>
    <type>eighth</type>
    <beam number="1">begin</beam>
    <lyric number="1">
      <syllabic>single</syllabic>
      <text>A</text>
    </lyric>
  </note>
  <note>
    <pitch>
      <step>G</step>
      <alter>-0.03773585</alter>
      <octave>5</octave>
      </pitch>
    <duration>96</duration>
    <type>eighth</type>
    <beam number="1">continue</beam>
        <notations>
          <slur type="start" number="1"/>
          </notations>
    <lyric number="1">
      <syllabic>begin</syllabic>
      <text>cep </text>
    </lyric>
  </note>
  <note>
    <pitch>
      <step>F</step>
      <alter>0.83018868</alter>
      <octave>5</octave>
      </pitch>
    <duration>96</duration>
    <type>eighth</type>
    <beam number="1">end</beam>
        <notations>
          <slur type="stop" number="1"/>
          </notations>
  </note>
  <note>
    <pitch>
      <step>G</step>
      <alter>-0.03773585</alter>
      <octave>5</octave>
      </pitch>
    <duration>96</duration>
    <type>eighth</type>
    <beam number="1">begin</beam>
        <notations>
          <slur type="start" number="1"/>
          </notations>
    <lyric number="1">
      <syllabic>single</syllabic>
      <text>der</text>
    </lyric>
  </note>
  <note>
    <pitch>
      <step>A</step>
      <alter>0.00000000</alter>
      <octave>5</octave>
      </pitch>
    <duration>96</duration>
    <type>eighth</type>
    <beam number="1">continue</beam>
  </note>
  <note>
    <pitch>
      <step>B</step>
      <alter>-0.18867924</alter>
      <octave>5</octave>
      </pitch>
    <duration>96</duration>
    <type>eighth</type>
    <beam number="1">end</beam>
        <notations>
          <slur type="stop" number="1"/>
          </notations>
  </note>
</measure>
<measure number="17">
  <note>
    <pitch>
      <step>A</step>
      <alter>0.00000000</alter>
      <octave>5</octave>
      </pitch>
    <duration>96</duration>
    <type>eighth</type>
    <beam number="1">begin</beam>
    <lyric number="1">
      <syllabic>single</syllabic>
      <text>di</text>
    </lyric>
  </note>
  <note>
    <pitch>
      <step>G</step>
      <alter>-0.03773585</alter>
      <octave>5</octave>
      </pitch>
    <duration>96</duration>
    <type>eighth</type>
    <beam number="1">continue</beam>
        <notations>
          <slur type="start" number="1"/>
          </notations>
    <lyric number="1">
      <syllabic>begin</syllabic>
      <text>miz </text>
    </lyric>
  </note>
  <note>
    <pitch>
      <step>F</step>
      <alter>0.83018868</alter>
      <octave>5</octave>
      </pitch>
    <duration>96</duration>
    <type>eighth</type>
    <beam number="1">end</beam>
        <notations>
          <slur type="stop" number="1"/>
          </notations>
  </note>
  <note>
    <pitch>
      <step>G</step>
      <alter>-0.03773585</alter>
      <octave>5</octave>
      </pitch>
    <duration>288</duration>
    <type>quarter</type><dot/>
    <lyric number="1">
      <syllabic>begin</syllabic>
      <text>var </text>
    </lyric>
  </note>
</measure>
<measure number="18">
  <note>
    <pitch>
      <step>D</step>
      <alter>-0.01886792</alter>
      <octave>6</octave>
      </pitch>
    <duration>96</duration>
    <type>eighth</type>
    <beam number="1">begin</beam>
    <lyric number="1">
      <syllabic>single</syllabic>
      <text>so</text>
    </lyric>
  </note>
  <note>
    <pitch>
      <step>C</step>
      <alter>-0.05660377</alter>
      <octave>6</octave>
      </pitch>
    <duration>96</duration>
    <type>eighth</type>
    <beam number="1">continue</beam>
        <notations>
          <slur type="start" number="1"/>
          </notations>
    <lyric number="1">
      <syllabic>single</syllabic>
      <text>rar</text>
    </lyric>
  </note>
  <note>
    <pitch>
      <step>B</step>
      <alter>-0.18867924</alter>
      <octave>5</octave>
      </pitch>
    <duration>96</duration>
    <type>eighth</type>
    <beam number="1">end</beam>
        <notations>
          <slur type="stop" number="1"/>
          </notations>
  </note>
  <note>
    <pitch>
      <step>A</step>
      <alter>0.00000000</alter>
      <octave>5</octave>
      </pitch>
    <duration>48</duration>
    <type>16th</type>
    <beam number="1">begin</beam>
        <notations>
          <slur type="start" number="1"/>
          </notations>
    <lyric number="1">
      <syllabic>begin</syllabic>
      <text>sa </text>
    </lyric>
  </note>
  <note>
    <pitch>
      <step>G</step>
      <alter>-0.03773585</alter>
      <octave>5</octave>
      </pitch>
    <duration>48</duration>
    <type>16th</type>
    <beam number="1">continue</beam>
  </note>
  <note>
    <pitch>
      <step>F</step>
      <alter>0.83018868</alter>
      <octave>5</octave>
      </pitch>
    <duration>48</duration>
    <type>16th</type>
    <beam number="1">continue</beam>
  </note>
  <note>
    <pitch>
      <step>E</step>
      <alter>0.01886793</alter>
      <octave>5</octave>
      </pitch>
    <duration>48</duration>
    <type>16th</type>
    <beam number="1">continue</beam>
  </note>
  <note>
    <pitch>
      <step>D</step>
      <alter>-0.01886792</alter>
      <octave>5</octave>
      </pitch>
    <duration>96</duration>
    <type>eighth</type>
    <beam number="1">end</beam>
        <notations>
          <slur type="stop" number="1"/>
          </notations>
  </note>
</measure>
<measure number="19">
  <note>
    <pitch>
      <step>E</step>
      <alter>0.01886793</alter>
      <octave>5</octave>
      </pitch>
    <duration>96</duration>
    <type>eighth</type>
    <beam number="1">begin</beam>
    <lyric number="1">
      <syllabic>single</syllabic>
      <text>bi</text>
    </lyric>
  </note>
  <note>
    <pitch>
      <step>F</step>
      <alter>0.83018868</alter>
      <octave>5</octave>
      </pitch>
    <duration>96</duration>
    <type>eighth</type>
    <beam number="1">continue</beam>
        <notations>
          <slur type="start" number="1"/>
          </notations>
    <lyric number="1">
      <syllabic>begin</syllabic>
      <text>zi </text>
    </lyric>
  </note>
  <note>
    <pitch>
      <step>G</step>
      <alter>-0.03773585</alter>
      <octave>5</octave>
      </pitch>
    <duration>96</duration>
    <type>eighth</type>
    <beam number="1">end</beam>
  </note>
  <note>
    <pitch>
      <step>F</step>
      <alter>0.83018868</alter>
      <octave>5</octave>
      </pitch>
    <duration>96</duration>
    <type>eighth</type>
    <beam number="1">begin</beam>
  </note>
  <note>
    <pitch>
      <step>B</step>
      <alter>-0.18867924</alter>
      <octave>5</octave>
      </pitch>
    <duration>96</duration>
    <type>eighth</type>
    <beam number="1">continue</beam>
  </note>
  <note>
    <pitch>
      <step>A</step>
      <alter>0.00000000</alter>
      <octave>5</octave>
      </pitch>
    <duration>96</duration>
    <type>eighth</type>
    <beam number="1">end</beam>
        <notations>
          <slur type="stop" number="1"/>
          </notations>
  </note>
</measure>
<measure number="20">
  <note>
    <pitch>
      <step>G</step>
      <alter>-0.03773585</alter>
      <octave>5</octave>
      </pitch>
    <duration>384</duration>
    <tie type="start"/>
    <type>half</type>
        <notations>
          <tied type="start"/>
          </notations>
    <lyric number="1">
      <syllabic>begin</syllabic>
      <text>yâr  </text>
    </lyric>
  </note>
  <note>
    <pitch>
      <step>G</step>
      <alter>-0.03773585</alter>
      <octave>5</octave>
      </pitch>
    <duration>96</duration>
    <tie type="stop"/>
    <type>eighth</type>
        <notations>
          <tied type="stop"/>
          </notations>
  </note>
<note>
  <rest/>
  <duration>96</duration>
  </note>
</measure>
<measure number="21">
  <note>
    <pitch>
      <step>D</step>
      <alter>-0.01886792</alter>
      <octave>5</octave>
      </pitch>
    <duration>96</duration>
    <type>eighth</type>
    <lyric number="1">
      <syllabic>begin</syllabic>
      <text>Ye </text>
    </lyric>
  </note>
  <note>
    <pitch>
      <step>G</step>
      <alter>-0.03773585</alter>
      <octave>5</octave>
      </pitch>
    <duration>192</duration>
    <type>quarter</type>
    <lyric number="1">
      <syllabic>begin</syllabic>
      <text>lel </text>
    </lyric>
  </note>
  <note>
    <pitch>
      <step>F</step>
      <alter>-0.07547169</alter>
      <octave>5</octave>
      </pitch>
    <duration>96</duration>
    <type>eighth</type>
    <accidental>natural</accidental>
    <beam number="1">begin</beam>
        <notations>
          <slur type="start" number="1"/>
          </notations>
    <lyric number="1">
      <syllabic>begin</syllabic>
      <text>lel </text>
    </lyric>
  </note>
  <note>
    <pitch>
      <step>E</step>
      <alter>0.01886793</alter>
      <octave>5</octave>
      </pitch>
    <duration>96</duration>
    <type>eighth</type>
    <beam number="1">continue</beam>
  </note>
  <note>
    <pitch>
      <step>D</step>
      <alter>-0.01886792</alter>
      <octave>5</octave>
      </pitch>
    <duration>96</duration>
    <type>eighth</type>
    <beam number="1">end</beam>
        <notations>
          <slur type="stop" number="1"/>
          </notations>
  </note>
</measure>
<measure number="22">
  <note>
    <pitch>
      <step>C</step>
      <alter>-0.05660377</alter>
      <octave>5</octave>
      </pitch>
    <duration>96</duration>
    <type>eighth</type>
    <lyric number="1">
      <syllabic>begin</syllabic>
      <text>le </text>
    </lyric>
  </note>
  <note>
    <pitch>
      <step>E</step>
      <alter>0.01886793</alter>
      <octave>5</octave>
      </pitch>
    <duration>192</duration>
    <type>quarter</type>
    <lyric number="1">
      <syllabic>begin</syllabic>
      <text>lel </text>
    </lyric>
  </note>
  <note>
    <pitch>
      <step>D</step>
      <alter>-0.01886792</alter>
      <octave>5</octave>
      </pitch>
    <duration>96</duration>
    <type>eighth</type>
    <beam number="1">begin</beam>
        <notations>
          <slur type="start" number="1"/>
          </notations>
    <lyric number="1">
      <syllabic>begin</syllabic>
      <text>lel </text>
    </lyric>
  </note>
  <note>
    <pitch>
      <step>C</step>
      <alter>-0.05660377</alter>
      <octave>5</octave>
      </pitch>
    <duration>96</duration>
    <type>eighth</type>
    <beam number="1">continue</beam>
  </note>
  <note>
    <pitch>
      <step>B</step>
      <alter>-0.18867924</alter>
      <octave>4</octave>
      </pitch>
    <duration>96</duration>
    <type>eighth</type>
    <beam number="1">end</beam>
        <notations>
          <slur type="stop" number="1"/>
          </notations>
  </note>
</measure>
<measure number="23">
  <note>
    <pitch>
      <step>D</step>
      <alter>-0.01886792</alter>
      <octave>5</octave>
      </pitch>
    <duration>96</duration>
    <type>eighth</type>
    <beam number="1">begin</beam>
    <lyric number="1">
      <syllabic>begin</syllabic>
      <text>le </text>
    </lyric>
  </note>
  <note>
    <pitch>
      <step>C</step>
      <alter>-0.05660377</alter>
      <octave>5</octave>
      </pitch>
    <duration>96</duration>
    <type>eighth</type>
    <beam number="1">continue</beam>
        <notations>
          <slur type="start" number="1"/>
          </notations>
    <lyric number="1">
      <syllabic>begin</syllabic>
      <text>lel </text>
    </lyric>
  </note>
  <note>
    <pitch>
      <step>B</step>
      <alter>-0.18867924</alter>
      <octave>4</octave>
      </pitch>
    <duration>96</duration>
    <type>eighth</type>
    <beam number="1">end</beam>
        <notations>
          <slur type="stop" number="1"/>
          </notations>
  </note>
  <note>
    <pitch>
      <step>A</step>
      <alter>0.00000000</alter>
      <octave>4</octave>
      </pitch>
    <duration>192</duration>
    <type>quarter</type>
        <notations>
          <slur type="start" number="1"/>
          </notations>
    <lyric number="1">
      <syllabic>begin</syllabic>
      <text>lel </text>
    </lyric>
  </note>
  <note>
    <pitch>
      <step>B</step>
      <alter>-0.18867924</alter>
      <octave>4</octave>
      </pitch>
    <duration>96</duration>
    <type>eighth</type>
        <notations>
          <slur type="stop" number="1"/>
          </notations>
  </note>
</measure>
<measure number="24">
  <note>
    <pitch>
      <step>G</step>
      <alter>-0.03773585</alter>
      <octave>4</octave>
      </pitch>
    <duration>192</duration>
    <type>quarter</type>
    <lyric number="1">
      <syllabic>begin</syllabic>
      <text>lel </text>
    </lyric>
  </note>
  <note>
    <pitch>
      <step>A</step>
      <alter>0.00000000</alter>
      <octave>4</octave>
      </pitch>
    <duration>96</duration>
    <type>eighth</type>
    <lyric number="1">
      <syllabic>begin</syllabic>
      <text>le </text>
    </lyric>
  </note>
  <note>
    <pitch>
      <step>G</step>
      <alter>-0.03773585</alter>
      <octave>4</octave>
      </pitch>
    <duration>96</duration>
    <type>eighth</type>
    <beam number="1">begin</beam>
    <lyric number="1">
      <syllabic>begin</syllabic>
      <text>le </text>
    </lyric>
  </note>
  <note>
    <pitch>
      <step>E</step>
      <alter>0.01886793</alter>
      <octave>5</octave>
      </pitch>
    <duration>96</duration>
    <type>eighth</type>
    <beam number="1">continue</beam>
        <notations>
          <slur type="start" number="1"/>
          </notations>
    <lyric number="1">
      <syllabic>begin</syllabic>
      <text>li </text>
    </lyric>
  </note>
  <note>
    <pitch>
      <step>D</step>
      <alter>-0.01886792</alter>
      <octave>5</octave>
      </pitch>
    <duration>96</duration>
    <type>eighth</type>
    <beam number="1">end</beam>
        <notations>
          <slur type="stop" number="1"/>
          </notations>
  </note>
</measure>
<measure number="25">
  <note>
    <pitch>
      <step>D</step>
      <alter>-0.01886792</alter>
      <octave>5</octave>
      </pitch>
    <duration>384</duration>
    <tie type="start"/>
    <type>half</type>
        <notations>
          <tied type="start"/>
          </notations>
    <lyric number="1">
      <syllabic>begin</syllabic>
      <text>yâr  </text>
    </lyric>
  </note>
  <note>
    <pitch>
      <step>D</step>
      <alter>-0.01886792</alter>
      <octave>5</octave>
      </pitch>
    <duration>96</duration>
    <tie type="stop"/>
    <type>eighth</type>
        <notations>
          <tied type="stop"/>
          </notations>
  </note>
<note>
  <rest/>
  <duration>96</duration>
  </note>
</measure>
<measure number="26">
  <note>
    <pitch>
      <step>E</step>
      <alter>0.01886793</alter>
      <octave>5</octave>
      </pitch>
    <duration>96</duration>
    <type>eighth</type>
    <beam number="1">begin</beam>
    <lyric number="1">
      <syllabic>single</syllabic>
      <text>A</text>
    </lyric>
  </note>
  <note>
    <pitch>
      <step>D</step>
      <alter>-0.01886792</alter>
      <octave>5</octave>
      </pitch>
    <duration>96</duration>
    <type>eighth</type>
    <beam number="1">continue</beam>
        <notations>
          <slur type="start" number="1"/>
          </notations>
    <lyric number="1">
      <syllabic>begin</syllabic>
      <text>cep </text>
    </lyric>
  </note>
  <note>
    <pitch>
      <step>C</step>
      <alter>-0.05660377</alter>
      <octave>5</octave>
      </pitch>
    <duration>96</duration>
    <type>eighth</type>
    <beam number="1">end</beam>
        <notations>
          <slur type="stop" number="1"/>
          </notations>
  </note>
  <note>
    <pitch>
      <step>B</step>
      <alter>-0.18867924</alter>
      <octave>4</octave>
      </pitch>
    <duration>96</duration>
    <type>eighth</type>
    <beam number="1">begin</beam>
        <notations>
          <slur type="start" number="1"/>
          </notations>
    <lyric number="1">
      <syllabic>single</syllabic>
      <text>der</text>
    </lyric>
  </note>
  <note>
    <pitch>
      <step>A</step>
      <alter>0.00000000</alter>
      <octave>4</octave>
      </pitch>
    <duration>96</duration>
    <type>eighth</type>
    <beam number="1">continue</beam>
  </note>
  <note>
    <pitch>
      <step>B</step>
      <alter>-0.18867924</alter>
      <octave>4</octave>
      </pitch>
    <duration>96</duration>
    <type>eighth</type>
    <beam number="1">end</beam>
        <notations>
          <slur type="stop" number="1"/>
          </notations>
  </note>
</measure>
<measure number="27">
  <note>
    <pitch>
      <step>D</step>
      <alter>-0.01886792</alter>
      <octave>5</octave>
      </pitch>
    <duration>96</duration>
    <type>eighth</type>
    <beam number="1">begin</beam>
    <lyric number="1">
      <syllabic>single</syllabic>
      <text>di</text>
    </lyric>
  </note>
  <note>
    <pitch>
      <step>C</step>
      <alter>-0.05660377</alter>
      <octave>5</octave>
      </pitch>
    <duration>96</duration>
    <type>eighth</type>
    <beam number="1">continue</beam>
        <notations>
          <slur type="start" number="1"/>
          </notations>
    <lyric number="1">
      <syllabic>begin</syllabic>
      <text>miz </text>
    </lyric>
  </note>
  <note>
    <pitch>
      <step>B</step>
      <alter>-0.18867924</alter>
      <octave>4</octave>
      </pitch>
    <duration>96</duration>
    <type>eighth</type>
    <beam number="1">end</beam>
        <notations>
          <slur type="stop" number="1"/>
          </notations>
  </note>
  <note>
    <pitch>
      <step>A</step>
      <alter>0.00000000</alter>
      <octave>4</octave>
      </pitch>
    <duration>288</duration>
    <type>quarter</type><dot/>
    <lyric number="1">
      <syllabic>begin</syllabic>
      <text>var </text>
    </lyric>
  </note>
</measure>
<measure number="28">
  <note>
    <pitch>
      <step>C</step>
      <alter>-0.05660377</alter>
      <octave>5</octave>
      </pitch>
    <duration>96</duration>
    <type>eighth</type>
    <beam number="1">begin</beam>
    <lyric number="1">
      <syllabic>single</syllabic>
      <text>so</text>
    </lyric>
  </note>
  <note>
    <pitch>
      <step>B</step>
      <alter>-0.18867924</alter>
      <octave>4</octave>
      </pitch>
    <duration>96</duration>
    <type>eighth</type>
    <beam number="1">continue</beam>
        <notations>
          <slur type="start" number="1"/>
          </notations>
    <lyric number="1">
      <syllabic>single</syllabic>
      <text>rar</text>
    </lyric>
  </note>
  <note>
    <pitch>
      <step>A</step>
      <alter>0.00000000</alter>
      <octave>4</octave>
      </pitch>
    <duration>96</duration>
    <type>eighth</type>
    <beam number="1">end</beam>
        <notations>
          <slur type="stop" number="1"/>
          </notations>
  </note>
  <note>
    <pitch>
      <step>G</step>
      <alter>-0.03773585</alter>
      <octave>4</octave>
      </pitch>
    <duration>288</duration>
    <type>quarter</type><dot/>
    <lyric number="1">
      <syllabic>begin</syllabic>
      <text>sa </text>
    </lyric>
  </note>
</measure>
<measure number="29">
  <note>
    <pitch>
      <step>D</step>
      <alter>-0.01886792</alter>
      <octave>4</octave>
      </pitch>
    <duration>96</duration>
    <type>eighth</type>
    <lyric number="1">
      <syllabic>single</syllabic>
      <text>bi</text>
    </lyric>
  </note>
  <note>
    <pitch>
      <step>D</step>
      <alter>-0.01886792</alter>
      <octave>4</octave>
      </pitch>
    <duration>192</duration>
    <type>quarter</type>
        <notations>
          <slur type="start" number="1"/>
          </notations>
    <lyric number="1">
      <syllabic>begin</syllabic>
      <text>zi </text>
    </lyric>
  </note>
  <note>
    <pitch>
      <step>D</step>
      <alter>-0.01886792</alter>
      <octave>4</octave>
      </pitch>
    <duration>96</duration>
    <type>eighth</type>
    <beam number="1">begin</beam>
  </note>
  <note>
    <pitch>
      <step>B</step>
      <alter>-0.18867924</alter>
      <octave>4</octave>
      </pitch>
    <duration>96</duration>
    <type>eighth</type>
    <beam number="1">continue</beam>
  </note>
  <note>
    <pitch>
      <step>A</step>
      <alter>0.00000000</alter>
      <octave>4</octave>
      </pitch>
    <duration>96</duration>
    <type>eighth</type>
    <beam number="1">end</beam>
        <notations>
          <slur type="stop" number="1"/>
          </notations>
  </note>
</measure>
<measure number="30">
  <note>
    <pitch>
      <step>G</step>
      <alter>-0.03773585</alter>
      <octave>4</octave>
      </pitch>
    <duration>384</duration>
    <tie type="start"/>
    <type>half</type>
        <notations>
          <tied type="start"/>
          </notations>
    <lyric number="1">
      <syllabic>begin</syllabic>
      <text>yâr  </text>
    </lyric>
  </note>
  <note>
    <pitch>
      <step>G</step>
      <alter>-0.03773585</alter>
      <octave>4</octave>
      </pitch>
    <duration>96</duration>
    <tie type="stop"/>
    <type>eighth</type>
        <notations>
          <tied type="stop"/>
          </notations>
  </note>
<note>
  <rest/>
  <duration>96</duration>
  </note>
</measure>
<measure number="31">
  <note>
    <pitch>
      <step>E</step>
      <alter>0.01886793</alter>
      <octave>5</octave>
      </pitch>
    <duration>96</duration>
    <type>eighth</type>
    <beam number="1">begin</beam>
    <lyric number="1">
      <syllabic>single</syllabic>
      <text>Ra</text>
    </lyric>
  </note>
  <note>
    <pitch>
      <step>D</step>
      <alter>-0.01886792</alter>
      <octave>5</octave>
      </pitch>
    <duration>96</duration>
    <type>eighth</type>
    <beam number="1">continue</beam>
        <notations>
          <slur type="start" number="1"/>
          </notations>
    <lyric number="1">
      <syllabic>single</syllabic>
      <text>kîb_</text>
    </lyric>
  </note>
  <note>
    <pitch>
      <step>C</step>
      <alter>-0.05660377</alter>
      <octave>5</octave>
      </pitch>
    <duration>96</duration>
    <type>eighth</type>
    <beam number="1">end</beam>
        <notations>
          <slur type="stop" number="1"/>
          </notations>
    <lyric number="1">
      <syllabic>single</syllabic>
      <text>i</text>
    </lyric>
  </note>
  <note>
    <pitch>
      <step>B</step>
      <alter>-0.18867924</alter>
      <octave>4</octave>
      </pitch>
    <duration>96</duration>
    <type>eighth</type>
    <beam number="1">begin</beam>
        <notations>
          <slur type="start" number="1"/>
          </notations>
  </note>
  <note>
    <pitch>
      <step>A</step>
      <alter>0.00000000</alter>
      <octave>4</octave>
      </pitch>
    <duration>96</duration>
    <type>eighth</type>
    <beam number="1">continue</beam>
  </note>
  <note>
    <pitch>
      <step>B</step>
      <alter>-0.18867924</alter>
      <octave>4</octave>
      </pitch>
    <duration>96</duration>
    <type>eighth</type>
    <beam number="1">end</beam>
        <notations>
          <slur type="stop" number="1"/>
          </notations>
  </note>
</measure>
<measure number="32">
  <note>
    <pitch>
      <step>D</step>
      <alter>-0.01886792</alter>
      <octave>5</octave>
      </pitch>
    <duration>96</duration>
    <type>eighth</type>
    <beam number="1">begin</beam>
    <lyric number="1">
      <syllabic>begin</syllabic>
      <text>le </text>
    </lyric>
  </note>
  <note>
    <pitch>
      <step>C</step>
      <alter>-0.05660377</alter>
      <octave>5</octave>
      </pitch>
    <duration>96</duration>
    <type>eighth</type>
    <beam number="1">continue</beam>
        <notations>
          <slur type="start" number="1"/>
          </notations>
    <lyric number="1">
      <syllabic>begin</syllabic>
      <text>her </text>
    </lyric>
  </note>
  <note>
    <pitch>
      <step>B</step>
      <alter>-0.18867924</alter>
      <octave>4</octave>
      </pitch>
    <duration>96</duration>
    <type>eighth</type>
    <beam number="1">end</beam>
        <notations>
          <slur type="stop" number="1"/>
          </notations>
  </note>
  <note>
    <pitch>
      <step>A</step>
      <alter>0.00000000</alter>
      <octave>4</octave>
      </pitch>
    <duration>288</duration>
    <type>quarter</type><dot/>
    <lyric number="1">
      <syllabic>begin</syllabic>
      <text>dem </text>
    </lyric>
  </note>
</measure>
<measure number="33">
  <note>
    <pitch>
      <step>C</step>
      <alter>-0.05660377</alter>
      <octave>5</octave>
      </pitch>
    <duration>96</duration>
    <type>eighth</type>
    <beam number="1">begin</beam>
    <lyric number="1">
      <syllabic>single</syllabic>
      <text>mü</text>
    </lyric>
  </note>
  <note>
    <pitch>
      <step>B</step>
      <alter>-0.18867924</alter>
      <octave>4</octave>
      </pitch>
    <duration>96</duration>
    <type>eighth</type>
    <beam number="1">continue</beam>
        <notations>
          <slur type="start" number="1"/>
          </notations>
    <lyric number="1">
      <syllabic>single</syllabic>
      <text>dâ</text>
    </lyric>
  </note>
  <note>
    <pitch>
      <step>A</step>
      <alter>0.00000000</alter>
      <octave>4</octave>
      </pitch>
    <duration>96</duration>
    <type>eighth</type>
    <beam number="1">end</beam>
        <notations>
          <slur type="stop" number="1"/>
          </notations>
  </note>
  <note>
    <pitch>
      <step>G</step>
      <alter>-0.03773585</alter>
      <octave>4</octave>
      </pitch>
    <duration>288</duration>
    <type>quarter</type><dot/>
    <lyric number="1">
      <syllabic>single</syllabic>
      <text>râ</text>
    </lyric>
  </note>
</measure>
<measure number="34">
  <note>
    <pitch>
      <step>E</step>
      <alter>0.01886793</alter>
      <octave>5</octave>
      </pitch>
    <duration>96</duration>
    <type>eighth</type>
    <beam number="1">begin</beam>
    <lyric number="1">
      <syllabic>single</syllabic>
      <text>da</text>
    </lyric>
  </note>
  <note>
    <pitch>
      <step>D</step>
      <alter>-0.01886792</alter>
      <octave>5</octave>
      </pitch>
    <duration>96</duration>
    <type>eighth</type>
    <beam number="1">continue</beam>
        <notations>
          <slur type="start" number="1"/>
          </notations>
    <lyric number="1">
      <syllabic>begin</syllabic>
      <text>yız </text>
    </lyric>
  </note>
  <note>
    <pitch>
      <step>C</step>
      <alter>-0.05660377</alter>
      <octave>5</octave>
      </pitch>
    <duration>96</duration>
    <type>eighth</type>
    <beam number="1">end</beam>
  </note>
  <note>
    <pitch>
      <step>B</step>
      <alter>-0.18867924</alter>
      <octave>4</octave>
      </pitch>
    <duration>96</duration>
    <type>eighth</type>
  </note>
<note>
<grace slash="yes"/>
<pitch>
<step>F</step>
<alter>-0.01886792</alter>
<octave>5</octave>
</pitch>
<voice>1</voice>
<type>eighth</type>
<notations>
<slur type="start" number="2"/>
</notations>
  </note>
  <note>
    <pitch>
      <step>E</step>
      <alter>0.01886793</alter>
      <octave>5</octave>
      </pitch>
    <duration>96</duration>
    <type>eighth</type>
    <beam number="1">begin</beam>
    <notations>
      <slur type="stop" number="2"/>
    </notations>
  </note>
  <note>
    <pitch>
      <step>D</step>
      <alter>-0.01886792</alter>
      <octave>5</octave>
      </pitch>
    <duration>96</duration>
    <type>eighth</type>
    <beam number="1">end</beam>
        <notations>
          <slur type="stop" number="1"/>
          </notations>
  </note>
</measure>
<measure number="35">
  <note>
    <pitch>
      <step>D</step>
      <alter>-0.01886792</alter>
      <octave>5</octave>
      </pitch>
    <duration>384</duration>
    <tie type="start"/>
    <type>half</type>
        <notations>
          <tied type="start"/>
          </notations>
    <lyric number="1">
      <syllabic>begin</syllabic>
      <text>yâr  </text>
    </lyric>
  </note>
  <note>
    <pitch>
      <step>D</step>
      <alter>-0.01886792</alter>
      <octave>5</octave>
      </pitch>
    <duration>96</duration>
    <tie type="stop"/>
    <type>eighth</type>
        <notations>
          <tied type="stop"/>
          </notations>
  </note>
<note>
  <rest/>
  <duration>96</duration>
  </note>
</measure>
<measure number="36">
  <note>
    <pitch>
      <step>E</step>
      <alter>0.01886793</alter>
      <octave>5</octave>
      </pitch>
    <duration>96</duration>
    <type>eighth</type>
    <beam number="1">begin</beam>
    <lyric number="1">
      <syllabic>begin</syllabic>
      <text>Ye </text>
    </lyric>
  </note>
  <note>
    <pitch>
      <step>D</step>
      <alter>-0.01886792</alter>
      <octave>5</octave>
      </pitch>
    <duration>96</duration>
    <type>eighth</type>
    <beam number="1">continue</beam>
        <notations>
          <slur type="start" number="1"/>
          </notations>
    <lyric number="1">
      <syllabic>begin</syllabic>
      <text>lel </text>
    </lyric>
  </note>
  <note>
    <pitch>
      <step>C</step>
      <alter>-0.05660377</alter>
      <octave>5</octave>
      </pitch>
    <duration>96</duration>
    <type>eighth</type>
    <beam number="1">end</beam>
        <notations>
          <slur type="stop" number="1"/>
          </notations>
  </note>
  <note>
    <pitch>
      <step>B</step>
      <alter>-0.18867924</alter>
      <octave>4</octave>
      </pitch>
    <duration>288</duration>
    <type>quarter</type><dot/>
    <lyric number="1">
      <syllabic>begin</syllabic>
      <text>lel </text>
    </lyric>
  </note>
</measure>
<measure number="37">
  <note>
    <pitch>
      <step>D</step>
      <alter>-0.01886792</alter>
      <octave>5</octave>
      </pitch>
    <duration>96</duration>
    <type>eighth</type>
    <beam number="1">begin</beam>
    <lyric number="1">
      <syllabic>begin</syllabic>
      <text>le </text>
    </lyric>
  </note>
  <note>
    <pitch>
      <step>C</step>
      <alter>-0.05660377</alter>
      <octave>5</octave>
      </pitch>
    <duration>96</duration>
    <type>eighth</type>
    <beam number="1">continue</beam>
        <notations>
          <slur type="start" number="1"/>
          </notations>
    <lyric number="1">
      <syllabic>begin</syllabic>
      <text>lel </text>
    </lyric>
  </note>
  <note>
    <pitch>
      <step>B</step>
      <alter>-0.18867924</alter>
      <octave>4</octave>
      </pitch>
    <duration>96</duration>
    <type>eighth</type>
    <beam number="1">end</beam>
        <notations>
          <slur type="stop" number="1"/>
          </notations>
  </note>
  <note>
    <pitch>
      <step>A</step>
      <alter>0.00000000</alter>
      <octave>4</octave>
      </pitch>
    <duration>192</duration>
    <type>quarter</type>
    <lyric number="1">
      <syllabic>begin</syllabic>
      <text>lel </text>
    </lyric>
  </note>
<note>
  <rest/>
  <duration>96</duration>
  </note>
</measure>
<measure number="38">
  <note>
    <pitch>
      <step>C</step>
      <alter>-0.05660377</alter>
      <octave>5</octave>
      </pitch>
    <duration>96</duration>
    <type>eighth</type>
    <beam number="1">begin</beam>
    <lyric number="1">
      <syllabic>begin</syllabic>
      <text>le </text>
    </lyric>
  </note>
  <note>
    <pitch>
      <step>B</step>
      <alter>-0.18867924</alter>
      <octave>4</octave>
      </pitch>
    <duration>96</duration>
    <type>eighth</type>
    <beam number="1">continue</beam>
        <notations>
          <slur type="start" number="1"/>
          </notations>
    <lyric number="1">
      <syllabic>begin</syllabic>
      <text>lel </text>
    </lyric>
  </note>
  <note>
    <pitch>
      <step>A</step>
      <alter>0.00000000</alter>
      <octave>4</octave>
      </pitch>
    <duration>96</duration>
    <type>eighth</type>
    <beam number="1">end</beam>
        <notations>
          <slur type="stop" number="1"/>
          </notations>
  </note>
  <note>
    <pitch>
      <step>G</step>
      <alter>-0.03773585</alter>
      <octave>4</octave>
      </pitch>
    <duration>192</duration>
    <type>quarter</type>
    <lyric number="1">
      <syllabic>begin</syllabic>
      <text>lel </text>
    </lyric>
  </note>
<note>
  <rest/>
  <duration>96</duration>
  </note>
</measure>
<measure number="39">
  <note>
    <pitch>
      <step>G</step>
      <alter>-0.03773585</alter>
      <octave>4</octave>
      </pitch>
    <duration>192</duration>
    <type>quarter</type>
    <lyric number="1">
      <syllabic>begin</syllabic>
      <text>lel </text>
    </lyric>
  </note>
  <note>
    <pitch>
      <step>A</step>
      <alter>0.00000000</alter>
      <octave>4</octave>
      </pitch>
    <duration>96</duration>
    <type>eighth</type>
    <lyric number="1">
      <syllabic>begin</syllabic>
      <text>le </text>
    </lyric>
  </note>
  <note>
    <pitch>
      <step>G</step>
      <alter>-0.03773585</alter>
      <octave>4</octave>
      </pitch>
    <duration>96</duration>
    <type>eighth</type>
    <lyric number="1">
      <syllabic>begin</syllabic>
      <text>le </text>
    </lyric>
  </note>
<note>
<grace slash="yes"/>
<pitch>
<step>F</step>
<alter>-0.01886792</alter>
<octave>5</octave>
</pitch>
<voice>1</voice>
<type>eighth</type>
<notations>
<slur type="start" number="2"/>
</notations>
  </note>
  <note>
    <pitch>
      <step>E</step>
      <alter>0.01886793</alter>
      <octave>5</octave>
      </pitch>
    <duration>96</duration>
    <type>eighth</type>
    <beam number="1">begin</beam>
    <notations>
      <slur type="stop" number="2"/>
    </notations>
        <notations>
          <slur type="start" number="1"/>
          </notations>
    <lyric number="1">
      <syllabic>begin</syllabic>
      <text>li </text>
    </lyric>
  </note>
  <note>
    <pitch>
      <step>D</step>
      <alter>-0.01886792</alter>
      <octave>5</octave>
      </pitch>
    <duration>96</duration>
    <type>eighth</type>
    <beam number="1">end</beam>
        <notations>
          <slur type="stop" number="1"/>
          </notations>
  </note>
</measure>
<measure number="40">
  <note>
    <pitch>
      <step>D</step>
      <alter>-0.01886792</alter>
      <octave>5</octave>
      </pitch>
    <duration>384</duration>
    <tie type="start"/>
    <type>half</type>
        <notations>
          <tied type="start"/>
          </notations>
    <lyric number="1">
      <syllabic>begin</syllabic>
      <text>yâr  </text>
    </lyric>
  </note>
  <note>
    <pitch>
      <step>D</step>
      <alter>-0.01886792</alter>
      <octave>5</octave>
      </pitch>
    <duration>96</duration>
    <tie type="stop"/>
    <type>eighth</type>
        <notations>
          <tied type="stop"/>
          </notations>
  </note>
<note>
  <rest/>
  <duration>96</duration>
  </note>
</measure>
<measure number="41">
    <direction placement="above">
      <direction-type>
        <metronome parentheses="no">
          <beat-unit>eighth</beat-unit>
          <per-minute>0</per-minute>
          </metronome>
        </direction-type>
      <sound tempo="0"/>
      </direction>
  <note>
    <pitch>
      <step>E</step>
      <alter>0.01886793</alter>
      <octave>5</octave>
      </pitch>
    <duration>96</duration>
    <type>eighth</type>
    <beam number="1">begin</beam>
    <lyric number="1">
      <syllabic>single</syllabic>
      <text>Ra</text>
    </lyric>
  </note>
  <note>
    <pitch>
      <step>D</step>
      <alter>-0.01886792</alter>
      <octave>5</octave>
      </pitch>
    <duration>96</duration>
    <type>eighth</type>
    <beam number="1">continue</beam>
        <notations>
          <slur type="start" number="1"/>
          </notations>
    <lyric number="1">
      <syllabic>single</syllabic>
      <text>kîb_</text>
    </lyric>
  </note>
  <note>
    <pitch>
      <step>C</step>
      <alter>-0.05660377</alter>
      <octave>5</octave>
      </pitch>
    <duration>96</duration>
    <type>eighth</type>
    <beam number="1">end</beam>
        <notations>
          <slur type="stop" number="1"/>
          </notations>
  </note>
  <note>
    <pitch>
      <step>B</step>
      <alter>-0.18867924</alter>
      <octave>4</octave>
      </pitch>
    <duration>96</duration>
    <type>eighth</type>
    <beam number="1">begin</beam>
        <notations>
          <slur type="start" number="1"/>
          </notations>
    <lyric number="1">
      <syllabic>single</syllabic>
      <text>i</text>
    </lyric>
  </note>
  <note>
    <pitch>
      <step>A</step>
      <alter>0.00000000</alter>
      <octave>4</octave>
      </pitch>
    <duration>96</duration>
    <type>eighth</type>
    <beam number="1">continue</beam>
  </note>
  <note>
    <pitch>
      <step>B</step>
      <alter>-0.18867924</alter>
      <octave>4</octave>
      </pitch>
    <duration>96</duration>
    <type>eighth</type>
    <beam number="1">end</beam>
        <notations>
          <slur type="stop" number="1"/>
          </notations>
  </note>
</measure>
<measure number="42">
  <note>
    <pitch>
      <step>D</step>
      <alter>-0.01886792</alter>
      <octave>5</octave>
      </pitch>
    <duration>96</duration>
    <type>eighth</type>
    <beam number="1">begin</beam>
    <lyric number="1">
      <syllabic>begin</syllabic>
      <text>le </text>
    </lyric>
  </note>
  <note>
    <pitch>
      <step>C</step>
      <alter>-0.05660377</alter>
      <octave>5</octave>
      </pitch>
    <duration>96</duration>
    <type>eighth</type>
    <beam number="1">continue</beam>
        <notations>
          <slur type="start" number="1"/>
          </notations>
    <lyric number="1">
      <syllabic>begin</syllabic>
      <text>her </text>
    </lyric>
  </note>
  <note>
    <pitch>
      <step>B</step>
      <alter>-0.18867924</alter>
      <octave>4</octave>
      </pitch>
    <duration>96</duration>
    <type>eighth</type>
    <beam number="1">end</beam>
        <notations>
          <slur type="stop" number="1"/>
          </notations>
  </note>
  <note>
    <pitch>
      <step>A</step>
      <alter>0.00000000</alter>
      <octave>4</octave>
      </pitch>
    <duration>288</duration>
    <type>quarter</type><dot/>
    <lyric number="1">
      <syllabic>begin</syllabic>
      <text>dem </text>
    </lyric>
  </note>
</measure>
<measure number="43">
  <note>
    <pitch>
      <step>C</step>
      <alter>-0.05660377</alter>
      <octave>5</octave>
      </pitch>
    <duration>96</duration>
    <type>eighth</type>
    <beam number="1">begin</beam>
    <lyric number="1">
      <syllabic>single</syllabic>
      <text>mü</text>
    </lyric>
  </note>
  <note>
    <pitch>
      <step>B</step>
      <alter>-0.18867924</alter>
      <octave>4</octave>
      </pitch>
    <duration>96</duration>
    <type>eighth</type>
    <beam number="1">continue</beam>
        <notations>
          <slur type="start" number="1"/>
          </notations>
    <lyric number="1">
      <syllabic>single</syllabic>
      <text>dâ</text>
    </lyric>
  </note>
  <note>
    <pitch>
      <step>A</step>
      <alter>0.00000000</alter>
      <octave>4</octave>
      </pitch>
    <duration>96</duration>
    <type>eighth</type>
    <beam number="1">end</beam>
        <notations>
          <slur type="stop" number="1"/>
          </notations>
  </note>
  <note>
    <pitch>
      <step>G</step>
      <alter>-0.03773585</alter>
      <octave>4</octave>
      </pitch>
    <duration>288</duration>
    <type>quarter</type><dot/>
    <lyric number="1">
      <syllabic>single</syllabic>
      <text>râ</text>
    </lyric>
  </note>
</measure>
<measure number="44">
  <note>
    <pitch>
      <step>D</step>
      <alter>-0.01886792</alter>
      <octave>4</octave>
      </pitch>
    <duration>96</duration>
    <type>eighth</type>
    <lyric number="1">
      <syllabic>single</syllabic>
      <text>da</text>
    </lyric>
  </note>
  <note>
    <pitch>
      <step>D</step>
      <alter>-0.01886792</alter>
      <octave>4</octave>
      </pitch>
    <duration>192</duration>
    <type>quarter</type>
        <notations>
          <slur type="start" number="1"/>
          </notations>
    <lyric number="1">
      <syllabic>begin</syllabic>
      <text>yız </text>
    </lyric>
  </note>
  <note>
    <pitch>
      <step>D</step>
      <alter>-0.01886792</alter>
      <octave>4</octave>
      </pitch>
    <duration>96</duration>
    <type>eighth</type>
    <beam number="1">begin</beam>
  </note>
  <note>
    <pitch>
      <step>B</step>
      <alter>-0.18867924</alter>
      <octave>4</octave>
      </pitch>
    <duration>96</duration>
    <type>eighth</type>
    <beam number="1">continue</beam>
  </note>
  <note>
    <pitch>
      <step>A</step>
      <alter>0.00000000</alter>
      <octave>4</octave>
      </pitch>
    <duration>96</duration>
    <type>eighth</type>
    <beam number="1">end</beam>
        <notations>
          <slur type="stop" number="1"/>
          </notations>
  </note>
</measure>
<measure number="45">
  <note>
    <pitch>
      <step>G</step>
      <alter>-0.03773585</alter>
      <octave>4</octave>
      </pitch>
    <duration>384</duration>
    <tie type="start"/>
    <type>half</type>
        <notations>
          <tied type="start"/>
          </notations>
    <lyric number="1">
      <syllabic>begin</syllabic>
      <text>yâr  </text>
    </lyric>
  </note>
  <note>
    <pitch>
      <step>G</step>
      <alter>-0.03773585</alter>
      <octave>4</octave>
      </pitch>
    <duration>96</duration>
    <tie type="stop"/>
    <type>eighth</type>
        <notations>
          <tied type="stop"/>
          </notations>
  </note>
<note>
  <rest/>
  <duration>96</duration>
  </note>
</measure>
</part>
</score-partwise>
