<?xml version="1.0" encoding="UTF-8"?>
<!DOCTYPE score-partwise PUBLIC "-//Recordare//DTD MusicXML 3.0 Partwise//EN" "http://www.musicxml.org/dtds/partwise.dtd">
<score-partwise version="3.0">
  <work>
    <work-title>Kayada Yatan Oğlan</work-title>
  </work>
  <identification>
  <creator type="composer">Beste: Yağcıoğlu Fehmi Efe</creator>
  <creator type="lyricist">[Anonim]</creator>
  <rights>tahir--turku--sofyan--kayada_yatan--ankara.xml</rights>
  </identification>
<defaults>
  <scaling>
      <millimeters>7.05556</millimeters>
      <tenths>40</tenths>
      </scaling>
    <page-layout>
      <page-height>1683.36</page-height>
      <page-width>1190.88</page-width>
      <page-margins type="even">
        <left-margin>100</left-margin>
        <right-margin>100</right-margin>
        <top-margin>56.6929</top-margin>
        <bottom-margin>113.386</bottom-margin>
        </page-margins>
      <page-margins type="odd">
        <left-margin>100</left-margin>
        <right-margin>100</right-margin>
        <top-margin>56.6929</top-margin>
        <bottom-margin>113.386</bottom-margin>
        </page-margins>
      </page-layout>
    <word-font font-family="FreeSerif" font-size="10"/>
    <lyric-font font-family="FreeSerif" font-size="11"/>
    </defaults>
  <credit page="1">
    <credit-words default-x="595.276" default-y="1627.09" justify="center" valign="top" font-size="24">Kayada Yatan Oğlan</credit-words>
    </credit>
  <credit page="1">
    <credit-words default-x="1133.86" default-y="1527.09" justify="right" valign="bottom" font-size="12">Beste: Yağcıoğlu Fehmi Efe</credit-words>
          <credit-words>[Anonim]</credit-words>
    </credit>
  <credit page="1">
    <credit-words default-x="595.44" default-y="1569.97" justify="center" valign="top" font-size="14">Makam: Tâhir Türkü</credit-words>
    </credit>
  <credit page="1">
    <credit-words default-x="56.6929" default-y="1526.67" justify="left" valign="bottom" font-size="12">Usul: Sofyan</credit-words>
    </credit>
  <credit page="1">
    <credit-words default-x="595.44" default-y="113.386" justify="center" valign="bottom">tahir--turku--sofyan--kayada_yatan--ankara.xml</credit-words>
</credit>
<part-list>
<score-part id="P1">
<part-name>S</part-name>
<part-abbreviation>S</part-abbreviation>
<score-instrument id="P1-I1">
<instrument-name>S</instrument-name>
</score-instrument>
<midi-device id="P1-I1" port="1"></midi-device>
<midi-instrument id="P1-I1">
<midi-channel>1</midi-channel>
<midi-program>1</midi-program>
<volume>80</volume>
<pan>0</pan>
</midi-instrument>
</score-part>
</part-list>
<part id="P1">
<measure number="1">
    <attributes>
      <divisions>192</divisions>
      <time>
        <beats>4</beats>
        <beat-type>4</beat-type>
      </time>
      </attributes>
      <attributes>
        <key>
        <key-step>B</key-step>
        <key-alter>-0.5</key-alter>
        <key-accidental>quarter-flat</key-accidental>
        <key-step>F</key-step>
        <key-alter>0.5</key-alter>
        <key-accidental>sharp</key-accidental>
        <key-octave number="1">5</key-octave>
        </key>
      </attributes>
    <direction placement="above">
      <direction-type>
        <segno/>
        </direction-type>
        <sound segno="segno"/>
        </direction>
<note>
  <rest/>
  <duration>96</duration>
  </note>
    <direction placement="above">
      <direction-type>
        <metronome parentheses="no">
          <beat-unit>quarter</beat-unit>
          <per-minute>93</per-minute>
          </metronome>
        </direction-type>
      <sound tempo="93"/>
      </direction>
 <direction placement="above">
   <direction-type>
     <words default-y="40" font-family="FreeSerif">Usul: Sofyan</words>
     </direction-type>
   </direction>
  <note>
    <pitch>
      <step>F</step>
      <alter>0.60377359</alter>
      <octave>5</octave>
      </pitch>
    <duration>48</duration>
    <type>16th</type>
    <beam number="1">begin</beam>
    <lyric number="1">
      <syllabic>single</syllabic>
      <text>Ka</text>
    </lyric>
    <lyric number="2">
      <syllabic>single</syllabic>
      <text>Ka</text>
    </lyric>
  </note>
  <note>
    <pitch>
      <step>G</step>
      <alter>-0.03773585</alter>
      <octave>5</octave>
      </pitch>
    <duration>48</duration>
    <type>16th</type>
    <beam number="1">continue</beam>
    <lyric number="1">
      <syllabic>single</syllabic>
      <text>ya</text>
    </lyric>
    <lyric number="2">
      <syllabic>single</syllabic>
      <text>ya</text>
    </lyric>
  </note>
  <note>
    <pitch>
      <step>A</step>
      <alter>0.00000000</alter>
      <octave>5</octave>
      </pitch>
    <duration>96</duration>
    <type>eighth</type>
    <beam number="1">continue</beam>
    <lyric number="1">
      <syllabic>begin</syllabic>
      <text>da </text>
    </lyric>
    <lyric number="2">
      <syllabic>begin</syllabic>
      <text>ya </text>
    </lyric>
  </note>
  <note>
    <pitch>
      <step>A</step>
      <alter>0.00000000</alter>
      <octave>5</octave>
      </pitch>
    <duration>96</duration>
    <type>eighth</type>
    <beam number="1">end</beam>
    <lyric number="1">
      <syllabic>single</syllabic>
      <text>ya</text>
    </lyric>
    <lyric number="2">
      <syllabic>single</syllabic>
      <text>koy</text>
    </lyric>
  </note>
  <note>
    <pitch>
      <step>A</step>
      <alter>0.00000000</alter>
      <octave>5</octave>
      </pitch>
    <duration>96</duration>
    <type>eighth</type>
    <beam number="1">begin</beam>
    <lyric number="1">
      <syllabic>begin</syllabic>
      <text>tan </text>
    </lyric>
    <lyric number="2">
      <syllabic>begin</syllabic>
      <text>dum </text>
    </lyric>
  </note>
  <note>
    <pitch>
      <step>C</step>
      <alter>-0.05660377</alter>
      <octave>6</octave>
      </pitch>
    <duration>48</duration>
    <type>16th</type>
    <beam number="1">continue</beam>
        <notations>
          <slur type="start" number="1"/>
          </notations>
    <lyric number="1">
      <syllabic>single</syllabic>
      <text>oğ</text>
    </lyric>
    <lyric number="2">
      <syllabic>single</syllabic>
      <text>ku</text>
    </lyric>
  </note>
  <note>
    <pitch>
      <step>B</step>
      <alter>-0.41509434</alter>
      <octave>5</octave>
      </pitch>
    <duration>48</duration>
    <type>16th</type>
    <beam number="1">end</beam>
        <notations>
          <slur type="stop" number="1"/>
          </notations>
  </note>
  <note>
    <pitch>
      <step>A</step>
      <alter>0.00000000</alter>
      <octave>5</octave>
      </pitch>
    <duration>192</duration>
    <type>quarter</type>
    <lyric number="1">
      <syllabic>begin</syllabic>
      <text>lan  </text>
    </lyric>
    <lyric number="2">
      <syllabic>begin</syllabic>
      <text>tu  </text>
    </lyric>
  </note>
</measure>
<measure number="2">
<note>
  <rest/>
  <duration>96</duration>
  </note>
  <note>
    <pitch>
      <step>F</step>
      <alter>0.60377359</alter>
      <octave>5</octave>
      </pitch>
    <duration>48</duration>
    <type>16th</type>
    <beam number="1">begin</beam>
    <lyric number="1">
      <syllabic>single</syllabic>
      <text>Göm</text>
    </lyric>
    <lyric number="2">
      <syllabic>single</syllabic>
      <text>Her</text>
    </lyric>
  </note>
  <note>
    <pitch>
      <step>G</step>
      <alter>-0.03773585</alter>
      <octave>5</octave>
      </pitch>
    <duration>48</duration>
    <type>16th</type>
    <beam number="1">continue</beam>
    <lyric number="1">
      <syllabic>single</syllabic>
      <text>le</text>
    </lyric>
    <lyric number="2">
      <syllabic>begin</syllabic>
      <text>kes </text>
    </lyric>
  </note>
  <note>
    <pitch>
      <step>G</step>
      <alter>-0.03773585</alter>
      <octave>5</octave>
      </pitch>
    <duration>96</duration>
    <type>eighth</type>
    <beam number="1">continue</beam>
    <lyric number="1">
      <syllabic>begin</syllabic>
      <text>ği </text>
    </lyric>
    <lyric number="2">
      <syllabic>single</syllabic>
      <text>yâ</text>
    </lyric>
  </note>
  <note>
    <pitch>
      <step>G</step>
      <alter>-0.03773585</alter>
      <octave>5</octave>
      </pitch>
    <duration>48</duration>
    <type>16th</type>
    <beam number="1">continue</beam>
        <notations>
          <slur type="start" number="1"/>
          </notations>
    <lyric number="1">
      <syllabic>single</syllabic>
      <text>ke</text>
    </lyric>
    <lyric number="2">
      <syllabic>single</syllabic>
      <text>ri</text>
    </lyric>
  </note>
  <note>
    <pitch>
      <step>F</step>
      <alter>0.60377359</alter>
      <octave>5</octave>
      </pitch>
    <duration>48</duration>
    <type>16th</type>
    <beam number="1">end</beam>
        <notations>
          <slur type="stop" number="1"/>
          </notations>
  </note>
  <note>
    <pitch>
      <step>G</step>
      <alter>-0.03773585</alter>
      <octave>5</octave>
      </pitch>
    <duration>48</duration>
    <type>16th</type>
    <beam number="1">begin</beam>
        <notations>
          <slur type="start" number="1"/>
          </notations>
    <lyric number="1">
      <syllabic>begin</syllabic>
      <text>ten </text>
    </lyric>
    <lyric number="2">
      <syllabic>begin</syllabic>
      <text>ne </text>
    </lyric>
  </note>
  <note>
    <pitch>
      <step>A</step>
      <alter>0.00000000</alter>
      <octave>5</octave>
      </pitch>
    <duration>48</duration>
    <type>16th</type>
    <beam number="1">continue</beam>
        <notations>
          <slur type="stop" number="1"/>
          </notations>
  </note>
  <note>
    <pitch>
      <step>F</step>
      <alter>0.60377359</alter>
      <octave>5</octave>
      </pitch>
    <duration>48</duration>
    <type>16th</type>
    <beam number="1">continue</beam>
        <notations>
          <slur type="start" number="1"/>
          </notations>
    <lyric number="1">
      <syllabic>single</syllabic>
      <text>oğ</text>
    </lyric>
    <lyric number="2">
      <syllabic>single</syllabic>
      <text>mu</text>
    </lyric>
  </note>
  <note>
    <pitch>
      <step>G</step>
      <alter>-0.03773585</alter>
      <octave>5</octave>
      </pitch>
    <duration>48</duration>
    <type>16th</type>
    <beam number="1">continue</beam>
        <notations>
          <slur type="stop" number="1"/>
          </notations>
  </note>
  <note>
    <pitch>
      <step>E</step>
      <alter>0.01886793</alter>
      <octave>5</octave>
      </pitch>
    <duration>96</duration>
    <type>eighth</type>
    <beam number="1">continue</beam>
        <notations>
          <slur type="start" number="1"/>
          </notations>
    <notations>
      <ornaments>
        <trill-mark default-y="39"/>
      </ornaments>
    </notations>
    <lyric number="1">
      <syllabic>begin</syllabic>
      <text>lan  </text>
    </lyric>
    <lyric number="2">
      <syllabic>begin</syllabic>
      <text>tu  </text>
    </lyric>
  </note>
  <note>
    <pitch>
      <step>D</step>
      <alter>-0.01886792</alter>
      <octave>5</octave>
      </pitch>
    <duration>96</duration>
    <type>eighth</type>
    <beam number="1">end</beam>
        <notations>
          <slur type="stop" number="1"/>
          </notations>
  </note>
</measure>
<measure number="3">
  <note>
    <pitch>
      <step>D</step>
      <alter>-0.01886792</alter>
      <octave>5</octave>
      </pitch>
    <duration>48</duration>
    <type>16th</type>
    <lyric number="1">
      <syllabic>single</syllabic>
      <text>Ka</text>
    </lyric>
    <lyric number="2">
      <syllabic>single</syllabic>
      <text>Ka</text>
    </lyric>
  </note>
  <note>
    <pitch>
      <step>D</step>
      <alter>-0.01886792</alter>
      <octave>5</octave>
      </pitch>
    <duration>144</duration>
    <type>eighth</type><dot/>
    <lyric number="1">
      <syllabic>single</syllabic>
      <text>ya</text>
    </lyric>
    <lyric number="2">
      <syllabic>single</syllabic>
      <text>ya</text>
    </lyric>
  </note>
  <note>
    <pitch>
      <step>F</step>
      <alter>0.60377359</alter>
      <octave>5</octave>
      </pitch>
    <duration>48</duration>
    <type>16th</type>
    <beam number="1">begin</beam>
        <notations>
          <slur type="start" number="1"/>
          </notations>
    <lyric number="1">
      <syllabic>begin</syllabic>
      <text>da </text>
    </lyric>
    <lyric number="2">
      <syllabic>begin</syllabic>
      <text>ya </text>
    </lyric>
  </note>
  <note>
    <pitch>
      <step>G</step>
      <alter>-0.03773585</alter>
      <octave>5</octave>
      </pitch>
    <duration>48</duration>
    <type>16th</type>
    <beam number="1">continue</beam>
        <notations>
          <slur type="stop" number="1"/>
          </notations>
  </note>
  <note>
    <pitch>
      <step>A</step>
      <alter>0.00000000</alter>
      <octave>5</octave>
      </pitch>
    <duration>96</duration>
    <type>eighth</type>
    <beam number="1">end</beam>
    <lyric number="1">
      <syllabic>single</syllabic>
      <text>ya</text>
    </lyric>
    <lyric number="2">
      <syllabic>single</syllabic>
      <text>koy</text>
    </lyric>
  </note>
  <note>
    <pitch>
      <step>A</step>
      <alter>0.00000000</alter>
      <octave>5</octave>
      </pitch>
    <duration>96</duration>
    <type>eighth</type>
    <beam number="1">begin</beam>
    <lyric number="1">
      <syllabic>begin</syllabic>
      <text>tan </text>
    </lyric>
    <lyric number="2">
      <syllabic>begin</syllabic>
      <text>dum </text>
    </lyric>
  </note>
  <note>
    <pitch>
      <step>C</step>
      <alter>-0.05660377</alter>
      <octave>6</octave>
      </pitch>
    <duration>48</duration>
    <type>16th</type>
    <beam number="1">continue</beam>
        <notations>
          <slur type="start" number="1"/>
          </notations>
    <lyric number="1">
      <syllabic>single</syllabic>
      <text>oğ</text>
    </lyric>
    <lyric number="2">
      <syllabic>single</syllabic>
      <text>ku</text>
    </lyric>
  </note>
  <note>
    <pitch>
      <step>B</step>
      <alter>-0.41509434</alter>
      <octave>5</octave>
      </pitch>
    <duration>48</duration>
    <type>16th</type>
    <beam number="1">end</beam>
        <notations>
          <slur type="stop" number="1"/>
          </notations>
  </note>
  <note>
    <pitch>
      <step>A</step>
      <alter>0.00000000</alter>
      <octave>5</octave>
      </pitch>
    <duration>192</duration>
    <type>quarter</type>
    <lyric number="1">
      <syllabic>begin</syllabic>
      <text>lan  </text>
    </lyric>
    <lyric number="2">
      <syllabic>begin</syllabic>
      <text>tu  </text>
    </lyric>
  </note>
</measure>
<measure number="4">
<note>
  <rest/>
  <duration>96</duration>
  </note>
  <note>
    <pitch>
      <step>F</step>
      <alter>0.60377359</alter>
      <octave>5</octave>
      </pitch>
    <duration>48</duration>
    <type>16th</type>
    <beam number="1">begin</beam>
    <lyric number="1">
      <syllabic>single</syllabic>
      <text>Göm</text>
    </lyric>
    <lyric number="2">
      <syllabic>single</syllabic>
      <text>Her</text>
    </lyric>
  </note>
  <note>
    <pitch>
      <step>G</step>
      <alter>-0.03773585</alter>
      <octave>5</octave>
      </pitch>
    <duration>48</duration>
    <type>16th</type>
    <beam number="1">continue</beam>
    <lyric number="1">
      <syllabic>single</syllabic>
      <text>le</text>
    </lyric>
    <lyric number="2">
      <syllabic>begin</syllabic>
      <text>kes </text>
    </lyric>
  </note>
  <note>
    <pitch>
      <step>G</step>
      <alter>-0.03773585</alter>
      <octave>5</octave>
      </pitch>
    <duration>96</duration>
    <type>eighth</type>
    <beam number="1">continue</beam>
    <lyric number="1">
      <syllabic>begin</syllabic>
      <text>ği </text>
    </lyric>
    <lyric number="2">
      <syllabic>single</syllabic>
      <text>yâ</text>
    </lyric>
  </note>
  <note>
    <pitch>
      <step>G</step>
      <alter>-0.03773585</alter>
      <octave>5</octave>
      </pitch>
    <duration>48</duration>
    <type>16th</type>
    <beam number="1">continue</beam>
        <notations>
          <slur type="start" number="1"/>
          </notations>
    <lyric number="1">
      <syllabic>single</syllabic>
      <text>ke</text>
    </lyric>
    <lyric number="2">
      <syllabic>single</syllabic>
      <text>ri</text>
    </lyric>
  </note>
  <note>
    <pitch>
      <step>F</step>
      <alter>0.60377359</alter>
      <octave>5</octave>
      </pitch>
    <duration>48</duration>
    <type>16th</type>
    <beam number="1">end</beam>
        <notations>
          <slur type="stop" number="1"/>
          </notations>
  </note>
  <note>
    <pitch>
      <step>G</step>
      <alter>-0.03773585</alter>
      <octave>5</octave>
      </pitch>
    <duration>48</duration>
    <type>16th</type>
    <beam number="1">begin</beam>
        <notations>
          <slur type="start" number="1"/>
          </notations>
    <lyric number="1">
      <syllabic>begin</syllabic>
      <text>ten </text>
    </lyric>
    <lyric number="2">
      <syllabic>begin</syllabic>
      <text>ne </text>
    </lyric>
  </note>
  <note>
    <pitch>
      <step>A</step>
      <alter>0.00000000</alter>
      <octave>5</octave>
      </pitch>
    <duration>48</duration>
    <type>16th</type>
    <beam number="1">continue</beam>
        <notations>
          <slur type="stop" number="1"/>
          </notations>
  </note>
  <note>
    <pitch>
      <step>F</step>
      <alter>0.60377359</alter>
      <octave>5</octave>
      </pitch>
    <duration>48</duration>
    <type>16th</type>
    <beam number="1">continue</beam>
        <notations>
          <slur type="start" number="1"/>
          </notations>
    <lyric number="1">
      <syllabic>single</syllabic>
      <text>oğ</text>
    </lyric>
    <lyric number="2">
      <syllabic>single</syllabic>
      <text>mu</text>
    </lyric>
  </note>
  <note>
    <pitch>
      <step>G</step>
      <alter>-0.03773585</alter>
      <octave>5</octave>
      </pitch>
    <duration>48</duration>
    <type>16th</type>
    <beam number="1">continue</beam>
        <notations>
          <slur type="stop" number="1"/>
          </notations>
  </note>
  <note>
    <pitch>
      <step>E</step>
      <alter>0.01886793</alter>
      <octave>5</octave>
      </pitch>
    <duration>96</duration>
    <type>eighth</type>
    <beam number="1">continue</beam>
        <notations>
          <slur type="start" number="1"/>
          </notations>
    <notations>
      <ornaments>
        <trill-mark default-y="39"/>
      </ornaments>
    </notations>
    <lyric number="1">
      <syllabic>begin</syllabic>
      <text>lan  </text>
    </lyric>
    <lyric number="2">
      <syllabic>begin</syllabic>
      <text>tu  </text>
    </lyric>
  </note>
  <note>
    <pitch>
      <step>D</step>
      <alter>-0.01886792</alter>
      <octave>5</octave>
      </pitch>
    <duration>96</duration>
    <type>eighth</type>
    <beam number="1">end</beam>
        <notations>
          <slur type="stop" number="1"/>
          </notations>
  </note>
</measure>
<measure number="5">
<note>
  <rest/>
  <duration>96</duration>
  </note>
  <note>
    <pitch>
      <step>F</step>
      <alter>0.60377359</alter>
      <octave>5</octave>
      </pitch>
    <duration>48</duration>
    <type>16th</type>
    <beam number="1">begin</beam>
    <lyric number="1">
      <syllabic>single</syllabic>
      <text>Ge</text>
    </lyric>
    <lyric number="2">
      <syllabic>single</syllabic>
      <text>Ge</text>
    </lyric>
  </note>
  <note>
    <pitch>
      <step>G</step>
      <alter>-0.03773585</alter>
      <octave>5</octave>
      </pitch>
    <duration>48</duration>
    <type>16th</type>
    <beam number="1">continue</beam>
    <lyric number="1">
      <syllabic>begin</syllabic>
      <text>ce </text>
    </lyric>
    <lyric number="2">
      <syllabic>single</syllabic>
      <text>lin</text>
    </lyric>
  </note>
  <note>
    <pitch>
      <step>G</step>
      <alter>-0.03773585</alter>
      <octave>5</octave>
      </pitch>
    <duration>96</duration>
    <type>eighth</type>
    <beam number="1">continue</beam>
    <lyric number="1">
      <syllabic>single</syllabic>
      <text>gel</text>
    </lyric>
    <lyric number="2">
      <syllabic>begin</syllabic>
      <text>ler </text>
    </lyric>
  </note>
  <note>
    <pitch>
      <step>G</step>
      <alter>-0.03773585</alter>
      <octave>5</octave>
      </pitch>
    <duration>48</duration>
    <type>16th</type>
    <beam number="1">continue</beam>
        <notations>
          <slur type="start" number="1"/>
          </notations>
    <lyric number="1">
      <syllabic>begin</syllabic>
      <text>me </text>
    </lyric>
    <lyric number="2">
      <syllabic>single</syllabic>
      <text>tat</text>
    </lyric>
  </note>
  <note>
    <pitch>
      <step>F</step>
      <alter>0.60377359</alter>
      <octave>5</octave>
      </pitch>
    <duration>48</duration>
    <type>16th</type>
    <beam number="1">end</beam>
        <notations>
          <slur type="stop" number="1"/>
          </notations>
  </note>
  <note>
    <pitch>
      <step>G</step>
      <alter>-0.03773585</alter>
      <octave>5</octave>
      </pitch>
    <duration>48</duration>
    <type>16th</type>
    <beam number="1">begin</beam>
        <notations>
          <slur type="start" number="1"/>
          </notations>
    <lyric number="1">
      <syllabic>single</syllabic>
      <text>gün</text>
    </lyric>
    <lyric number="2">
      <syllabic>begin</syllabic>
      <text>lı </text>
    </lyric>
  </note>
  <note>
    <pitch>
      <step>A</step>
      <alter>0.00000000</alter>
      <octave>5</octave>
      </pitch>
    <duration>48</duration>
    <type>16th</type>
    <beam number="1">continue</beam>
        <notations>
          <slur type="stop" number="1"/>
          </notations>
  </note>
  <note>
    <pitch>
      <step>F</step>
      <alter>0.60377359</alter>
      <octave>5</octave>
      </pitch>
    <duration>48</duration>
    <type>16th</type>
    <beam number="1">continue</beam>
        <notations>
          <slur type="start" number="1"/>
          </notations>
    <lyric number="1">
      <syllabic>begin</syllabic>
      <text>düz </text>
    </lyric>
    <lyric number="2">
      <syllabic>single</syllabic>
      <text>ye</text>
    </lyric>
  </note>
  <note>
    <pitch>
      <step>G</step>
      <alter>-0.03773585</alter>
      <octave>5</octave>
      </pitch>
    <duration>48</duration>
    <type>16th</type>
    <beam number="1">continue</beam>
        <notations>
          <slur type="stop" number="1"/>
          </notations>
  </note>
  <note>
    <pitch>
      <step>E</step>
      <alter>0.01886793</alter>
      <octave>5</octave>
      </pitch>
    <duration>96</duration>
    <type>eighth</type>
    <beam number="1">continue</beam>
        <notations>
          <slur type="start" number="1"/>
          </notations>
    <notations>
      <ornaments>
        <trill-mark default-y="39"/>
      </ornaments>
    </notations>
    <lyric number="1">
      <syllabic>begin</syllabic>
      <text>gel  </text>
    </lyric>
    <lyric number="2">
      <syllabic>begin</syllabic>
      <text>sin  </text>
    </lyric>
  </note>
  <note>
    <pitch>
      <step>D</step>
      <alter>-0.01886792</alter>
      <octave>5</octave>
      </pitch>
    <duration>96</duration>
    <type>eighth</type>
    <beam number="1">end</beam>
        <notations>
          <slur type="stop" number="1"/>
          </notations>
  </note>
</measure>
<measure number="6">
  <note>
    <pitch>
      <step>C</step>
      <alter>-0.05660377</alter>
      <octave>5</octave>
      </pitch>
    <duration>48</duration>
    <type>16th</type>
    <beam number="1">begin</beam>
    <lyric number="1">
      <syllabic>single</syllabic>
      <text>Ho</text>
    </lyric>
    <lyric number="2">
      <syllabic>single</syllabic>
      <text>Kay</text>
    </lyric>
  </note>
  <note>
    <pitch>
      <step>C</step>
      <alter>-0.05660377</alter>
      <octave>5</octave>
      </pitch>
    <duration>48</duration>
    <type>16th</type>
    <beam number="1">continue</beam>
        <notations>
          <slur type="start" number="1"/>
          </notations>
    <lyric number="1">
      <syllabic>single</syllabic>
      <text>roz</text>
    </lyric>
    <lyric number="2">
      <syllabic>single</syllabic>
      <text>na</text>
    </lyric>
  </note>
  <note>
    <pitch>
      <step>D</step>
      <alter>-0.01886792</alter>
      <octave>5</octave>
      </pitch>
    <duration>96</duration>
    <type>eighth</type>
    <beam number="1">continue</beam>
        <notations>
          <slur type="stop" number="1"/>
          </notations>
  </note>
  <note>
    <pitch>
      <step>D</step>
      <alter>-0.01886792</alter>
      <octave>5</octave>
      </pitch>
    <duration>96</duration>
    <type>eighth</type>
    <beam number="1">continue</beam>
    <lyric number="1">
      <syllabic>begin</syllabic>
      <text>dan </text>
    </lyric>
    <lyric number="2">
      <syllabic>begin</syllabic>
      <text>na </text>
    </lyric>
  </note>
  <note>
    <pitch>
      <step>D</step>
      <alter>-0.01886792</alter>
      <octave>5</octave>
      </pitch>
    <duration>48</duration>
    <type>16th</type>
    <beam number="1">continue</beam>
        <notations>
          <slur type="start" number="1"/>
          </notations>
    <lyric number="1">
      <syllabic>single</syllabic>
      <text>kor</text>
    </lyric>
    <lyric number="2">
      <syllabic>single</syllabic>
      <text>se</text>
    </lyric>
  </note>
  <note>
    <pitch>
      <step>B</step>
      <alter>-0.41509434</alter>
      <octave>4</octave>
      </pitch>
    <duration>48</duration>
    <type>16th</type>
    <beam number="1">end</beam>
        <notations>
          <slur type="stop" number="1"/>
          </notations>
  </note>
  <note>
    <pitch>
      <step>C</step>
      <alter>-0.05660377</alter>
      <octave>5</octave>
      </pitch>
    <duration>48</duration>
    <type>16th</type>
    <lyric number="1">
      <syllabic>single</syllabic>
      <text>kan_</text>
    </lyric>
    <lyric number="2">
      <syllabic>single</syllabic>
      <text>miz_</text>
    </lyric>
  </note>
  <note>
    <pitch>
      <step>C</step>
      <alter>-0.05660377</alter>
      <octave>5</octave>
      </pitch>
    <duration>144</duration>
    <type>eighth</type><dot/>
    <lyric number="1">
      <syllabic>single</syllabic>
      <text>oğ</text>
    </lyric>
    <lyric number="2">
      <syllabic>single</syllabic>
      <text>o</text>
    </lyric>
  </note>
<note>
<grace slash="yes"/>
<pitch>
<step>C</step>
<alter>0.00000000</alter>
<octave>5</octave>
</pitch>
<voice>1</voice>
<type>eighth</type>
<notations>
<slur type="start" number="2"/>
</notations>
  </note>
  <note>
    <pitch>
      <step>B</step>
      <alter>-0.41509434</alter>
      <octave>4</octave>
      </pitch>
    <duration>192</duration>
    <type>quarter</type>
    <notations>
      <slur type="stop" number="2"/>
    </notations>
    <lyric number="1">
      <syllabic>begin</syllabic>
      <text>lan  </text>
    </lyric>
    <lyric number="2">
      <syllabic>begin</syllabic>
      <text>tu  </text>
    </lyric>
  </note>
</measure>
<measure number="7">
  <note>
    <pitch>
      <step>A</step>
      <alter>0.00000000</alter>
      <octave>4</octave>
      </pitch>
    <duration>96</duration>
    <type>eighth</type>
    <beam number="1">begin</beam>
    <lyric number="1">
      <syllabic>single</syllabic>
      <text>Am</text>
    </lyric>
  </note>
  <note>
    <pitch>
      <step>A</step>
      <alter>0.00000000</alter>
      <octave>4</octave>
      </pitch>
    <duration>96</duration>
    <type>eighth</type>
    <beam number="1">continue</beam>
    <lyric number="1">
      <syllabic>begin</syllabic>
      <text>man </text>
    </lyric>
  </note>
  <note>
    <pitch>
      <step>A</step>
      <alter>0.00000000</alter>
      <octave>4</octave>
      </pitch>
    <duration>96</duration>
    <type>eighth</type>
    <beam number="1">continue</beam>
    <lyric number="1">
      <syllabic>single</syllabic>
      <text>şe</text>
    </lyric>
  </note>
  <note>
    <pitch>
      <step>A</step>
      <alter>0.00000000</alter>
      <octave>4</octave>
      </pitch>
    <duration>96</duration>
    <type>eighth</type>
    <beam number="1">end</beam>
    <lyric number="1">
      <syllabic>begin</syllabic>
      <text>ker </text>
    </lyric>
  </note>
  <note>
    <pitch>
      <step>A</step>
      <alter>0.00000000</alter>
      <octave>4</octave>
      </pitch>
    <duration>96</duration>
    <type>eighth</type>
    <beam number="1">begin</beam>
    <lyric number="1">
      <syllabic>single</syllabic>
      <text>oğ</text>
    </lyric>
  </note>
  <note>
    <pitch>
      <step>A</step>
      <alter>0.00000000</alter>
      <octave>4</octave>
      </pitch>
    <duration>96</duration>
    <type>eighth</type>
    <beam number="1">continue</beam>
    <notations>
      <articulations>
        <staccato/>
        </articulations>
    </notations>
    <lyric number="1">
      <syllabic>begin</syllabic>
      <text>lan  </text>
    </lyric>
  </note>
  <note>
    <pitch>
      <step>E</step>
      <alter>0.01886793</alter>
      <octave>5</octave>
      </pitch>
    <duration>96</duration>
    <type size="cue">eighth</type>
    <beam number="1">continue</beam>
    <lyric number="1">
      <syllabic>single</syllabic>
      <text>SAZ</text>
    </lyric>
  </note>
  <note>
    <pitch>
      <step>D</step>
      <alter>-0.01886792</alter>
      <octave>5</octave>
      </pitch>
    <duration>96</duration>
    <type size="cue">eighth</type>
    <beam number="1">end</beam>
    <lyric number="1">
      <syllabic>single</syllabic>
      <text>.</text>
    </lyric>
  </note>
</measure>
<measure number="8">
  <note>
    <pitch>
      <step>C</step>
      <alter>-0.05660377</alter>
      <octave>5</octave>
      </pitch>
    <duration>96</duration>
    <type>eighth</type>
    <beam number="1">begin</beam>
    <lyric number="1">
      <syllabic>single</syllabic>
      <text>Yan</text>
    </lyric>
  </note>
  <note>
    <pitch>
      <step>D</step>
      <alter>-0.01886792</alter>
      <octave>5</octave>
      </pitch>
    <duration>96</duration>
    <type>eighth</type>
    <beam number="1">continue</beam>
    <lyric number="1">
      <syllabic>begin</syllabic>
      <text>dım </text>
    </lyric>
  </note>
  <note>
    <pitch>
      <step>D</step>
      <alter>-0.01886792</alter>
      <octave>5</octave>
      </pitch>
    <duration>96</duration>
    <type>eighth</type>
    <beam number="1">continue</beam>
    <lyric number="1">
      <syllabic>single</syllabic>
      <text>be</text>
    </lyric>
  </note>
  <note>
    <pitch>
      <step>D</step>
      <alter>-0.01886792</alter>
      <octave>5</octave>
      </pitch>
    <duration>48</duration>
    <type>16th</type>
    <beam number="1">continue</beam>
        <notations>
          <slur type="start" number="1"/>
          </notations>
    <lyric number="1">
      <syllabic>begin</syllabic>
      <text>kâr </text>
    </lyric>
  </note>
  <note>
    <pitch>
      <step>B</step>
      <alter>-0.41509434</alter>
      <octave>4</octave>
      </pitch>
    <duration>48</duration>
    <type>16th</type>
    <beam number="1">end</beam>
        <notations>
          <slur type="stop" number="1"/>
          </notations>
  </note>
<note>
<grace slash="yes"/>
<pitch>
<step>D</step>
<alter>0.03773585</alter>
<octave>5</octave>
</pitch>
<voice>1</voice>
<type>eighth</type>
<notations>
<slur type="start" number="2"/>
</notations>
  </note>
  <note>
    <pitch>
      <step>C</step>
      <alter>-0.05660377</alter>
      <octave>5</octave>
      </pitch>
    <duration>96</duration>
    <type>eighth</type>
    <beam number="1">begin</beam>
    <notations>
      <slur type="stop" number="2"/>
    </notations>
    <lyric number="1">
      <syllabic>single</syllabic>
      <text>oğ</text>
    </lyric>
  </note>
  <note>
    <pitch>
      <step>C</step>
      <alter>-0.05660377</alter>
      <octave>5</octave>
      </pitch>
    <duration>96</duration>
    <type>eighth</type>
    <beam number="1">continue</beam>
        <notations>
          <slur type="start" number="1"/>
          </notations>
    <lyric number="1">
      <syllabic>begin</syllabic>
      <text>lan  </text>
    </lyric>
  </note>
  <note>
    <pitch>
      <step>B</step>
      <alter>-0.41509434</alter>
      <octave>4</octave>
      </pitch>
    <duration>96</duration>
    <type>eighth</type>
    <beam number="1">continue</beam>
  </note>
  <note>
    <pitch>
      <step>A</step>
      <alter>0.00000000</alter>
      <octave>4</octave>
      </pitch>
    <duration>96</duration>
    <type>eighth</type>
    <beam number="1">end</beam>
        <notations>
          <slur type="stop" number="1"/>
          </notations>
  </note>
</measure>
<measure number="9">
<note>
  <rest/>
  <duration>96</duration>
  </note>
  <note>
    <pitch>
      <step>G</step>
      <alter>-0.03773585</alter>
      <octave>4</octave>
      </pitch>
    <duration>48</duration>
    <type>16th</type>
    <beam number="1">begin</beam>
    <lyric number="1">
      <syllabic>single</syllabic>
      <text>A</text>
    </lyric>
  </note>
  <note>
    <pitch>
      <step>A</step>
      <alter>0.00000000</alter>
      <octave>4</octave>
      </pitch>
    <duration>48</duration>
    <type>16th</type>
    <beam number="1">continue</beam>
    <lyric number="1">
      <syllabic>single</syllabic>
      <text>na</text>
    </lyric>
  </note>
  <note>
    <pitch>
      <step>A</step>
      <alter>0.00000000</alter>
      <octave>4</octave>
      </pitch>
    <duration>48</duration>
    <type>16th</type>
    <beam number="1">end</beam>
    <lyric number="1">
      <syllabic>single</syllabic>
      <text>sı</text>
    </lyric>
  </note>
  <note>
    <pitch>
      <step>A</step>
      <alter>0.00000000</alter>
      <octave>4</octave>
      </pitch>
    <duration>144</duration>
    <type>eighth</type><dot/>
    <lyric number="1">
      <syllabic>begin</syllabic>
      <text>na </text>
    </lyric>
  </note>
  <note>
    <pitch>
      <step>A</step>
      <alter>0.00000000</alter>
      <octave>4</octave>
      </pitch>
    <duration>48</duration>
    <type>16th</type>
    <beam number="1">begin</beam>
    <lyric number="1">
      <syllabic>single</syllabic>
      <text>da</text>
    </lyric>
  </note>
  <note>
    <pitch>
      <step>A</step>
      <alter>0.00000000</alter>
      <octave>4</octave>
      </pitch>
    <duration>96</duration>
    <type>eighth</type>
    <beam number="1">continue</beam>
        <notations>
          <slur type="start" number="1"/>
          </notations>
    <notations>
      <ornaments>
        <trill-mark default-y="39"/>
      </ornaments>
    </notations>
    <lyric number="1">
      <syllabic>single</syllabic>
      <text>rıl</text>
    </lyric>
  </note>
  <note>
    <pitch>
      <step>G</step>
      <alter>-0.03773585</alter>
      <octave>4</octave>
      </pitch>
    <duration>48</duration>
    <type>16th</type>
    <beam number="1">continue</beam>
        <notations>
          <slur type="stop" number="1"/>
          </notations>
  </note>
  <note>
    <pitch>
      <step>E</step>
      <alter>0.01886793</alter>
      <octave>5</octave>
      </pitch>
    <duration>96</duration>
    <type>eighth</type>
    <beam number="1">continue</beam>
        <notations>
          <slur type="start" number="1"/>
          </notations>
    <notations>
      <ornaments>
        <trill-mark default-y="39"/>
      </ornaments>
    </notations>
    <lyric number="1">
      <syllabic>begin</syllabic>
      <text>mış  </text>
    </lyric>
  </note>
  <note>
    <pitch>
      <step>D</step>
      <alter>-0.01886792</alter>
      <octave>5</octave>
      </pitch>
    <duration>96</duration>
    <type>eighth</type>
    <beam number="1">end</beam>
        <notations>
          <slur type="stop" number="1"/>
          </notations>
  </note>
</measure>
<measure number="10">
  <note>
    <pitch>
      <step>C</step>
      <alter>-0.05660377</alter>
      <octave>5</octave>
      </pitch>
    <duration>48</duration>
    <type>16th</type>
    <beam number="1">begin</beam>
        <notations>
          <slur type="start" number="1"/>
          </notations>
    <lyric number="1">
      <syllabic>single</syllabic>
      <text>Dam</text>
    </lyric>
  </note>
  <note>
    <pitch>
      <step>D</step>
      <alter>-0.01886792</alter>
      <octave>5</octave>
      </pitch>
    <duration>96</duration>
    <type>eighth</type>
    <beam number="1">continue</beam>
        <notations>
          <slur type="stop" number="1"/>
          </notations>
  </note>
  <note>
    <pitch>
      <step>D</step>
      <alter>-0.01886792</alter>
      <octave>5</octave>
      </pitch>
    <duration>48</duration>
    <type>16th</type>
    <beam number="1">continue</beam>
    <lyric number="1">
      <syllabic>begin</syllabic>
      <text>da </text>
    </lyric>
  </note>
  <note>
    <pitch>
      <step>D</step>
      <alter>-0.01886792</alter>
      <octave>5</octave>
      </pitch>
    <duration>96</duration>
    <type>eighth</type>
    <beam number="1">continue</beam>
    <lyric number="1">
      <syllabic>single</syllabic>
      <text>ya</text>
    </lyric>
  </note>
  <note>
    <pitch>
      <step>D</step>
      <alter>-0.01886792</alter>
      <octave>5</octave>
      </pitch>
    <duration>48</duration>
    <type>16th</type>
    <beam number="1">continue</beam>
        <notations>
          <slur type="start" number="1"/>
          </notations>
    <lyric number="1">
      <syllabic>begin</syllabic>
      <text>tan </text>
    </lyric>
  </note>
  <note>
    <pitch>
      <step>B</step>
      <alter>-0.41509434</alter>
      <octave>4</octave>
      </pitch>
    <duration>48</duration>
    <type>16th</type>
    <beam number="1">end</beam>
        <notations>
          <slur type="stop" number="1"/>
          </notations>
  </note>
<note>
<grace slash="yes"/>
<pitch>
<step>D</step>
<alter>0.03773585</alter>
<octave>5</octave>
</pitch>
<voice>1</voice>
<type>eighth</type>
<notations>
<slur type="start" number="2"/>
</notations>
  </note>
  <note>
    <pitch>
      <step>C</step>
      <alter>-0.05660377</alter>
      <octave>5</octave>
      </pitch>
    <duration>96</duration>
    <type>eighth</type>
    <beam number="1">begin</beam>
    <notations>
      <slur type="stop" number="2"/>
    </notations>
    <lyric number="1">
      <syllabic>single</syllabic>
      <text>oğ</text>
    </lyric>
  </note>
  <note>
    <pitch>
      <step>C</step>
      <alter>-0.05660377</alter>
      <octave>5</octave>
      </pitch>
    <duration>96</duration>
    <type>eighth</type>
    <beam number="1">continue</beam>
        <notations>
          <slur type="start" number="1"/>
          </notations>
    <lyric number="1">
      <syllabic>begin</syllabic>
      <text>lan  </text>
    </lyric>
  </note>
  <note>
    <pitch>
      <step>B</step>
      <alter>-0.41509434</alter>
      <octave>4</octave>
      </pitch>
    <duration>96</duration>
    <type>eighth</type>
    <beam number="1">continue</beam>
  </note>
  <note>
    <pitch>
      <step>A</step>
      <alter>0.00000000</alter>
      <octave>4</octave>
      </pitch>
    <duration>96</duration>
    <type>eighth</type>
    <beam number="1">end</beam>
        <notations>
          <slur type="stop" number="1"/>
          </notations>
  </note>
</measure>
<measure number="11">
  <note>
    <pitch>
      <step>D</step>
      <alter>-0.01886792</alter>
      <octave>5</octave>
      </pitch>
    <duration>96</duration>
    <type>eighth</type>
    <beam number="1">begin</beam>
    <lyric number="1">
      <syllabic>single</syllabic>
      <text>Am</text>
    </lyric>
  </note>
  <note>
    <pitch>
      <step>D</step>
      <alter>-0.01886792</alter>
      <octave>5</octave>
      </pitch>
    <duration>96</duration>
    <type>eighth</type>
    <beam number="1">continue</beam>
    <lyric number="1">
      <syllabic>begin</syllabic>
      <text>man </text>
    </lyric>
  </note>
  <note>
    <pitch>
      <step>D</step>
      <alter>-0.01886792</alter>
      <octave>5</octave>
      </pitch>
    <duration>96</duration>
    <type>eighth</type>
    <beam number="1">continue</beam>
    <lyric number="1">
      <syllabic>single</syllabic>
      <text>şe</text>
    </lyric>
  </note>
  <note>
    <pitch>
      <step>D</step>
      <alter>-0.01886792</alter>
      <octave>5</octave>
      </pitch>
    <duration>96</duration>
    <type>eighth</type>
    <beam number="1">end</beam>
    <lyric number="1">
      <syllabic>begin</syllabic>
      <text>ker </text>
    </lyric>
  </note>
  <note>
    <pitch>
      <step>D</step>
      <alter>-0.01886792</alter>
      <octave>5</octave>
      </pitch>
    <duration>96</duration>
    <type>eighth</type>
    <beam number="1">begin</beam>
    <lyric number="1">
      <syllabic>single</syllabic>
      <text>oğ</text>
    </lyric>
  </note>
  <note>
    <pitch>
      <step>D</step>
      <alter>-0.01886792</alter>
      <octave>5</octave>
      </pitch>
    <duration>96</duration>
    <type>eighth</type>
    <beam number="1">continue</beam>
    <notations>
      <articulations>
        <staccato/>
        </articulations>
    </notations>
    <lyric number="1">
      <syllabic>begin</syllabic>
      <text>lan  </text>
    </lyric>
  </note>
  <note>
    <pitch>
      <step>E</step>
      <alter>0.01886793</alter>
      <octave>5</octave>
      </pitch>
    <duration>96</duration>
    <type size="cue">eighth</type>
    <beam number="1">continue</beam>
    <lyric number="1">
      <syllabic>single</syllabic>
      <text>SAZ</text>
    </lyric>
  </note>
  <note>
    <pitch>
      <step>D</step>
      <alter>-0.01886792</alter>
      <octave>5</octave>
      </pitch>
    <duration>96</duration>
    <type size="cue">eighth</type>
    <beam number="1">end</beam>
    <lyric number="1">
      <syllabic>single</syllabic>
      <text>.</text>
    </lyric>
  </note>
</measure>
<measure number="12">
  <note>
    <pitch>
      <step>C</step>
      <alter>-0.05660377</alter>
      <octave>5</octave>
      </pitch>
    <duration>96</duration>
    <type>eighth</type>
    <beam number="1">begin</beam>
    <lyric number="1">
      <syllabic>single</syllabic>
      <text>Yan</text>
    </lyric>
  </note>
  <note>
    <pitch>
      <step>D</step>
      <alter>-0.01886792</alter>
      <octave>5</octave>
      </pitch>
    <duration>96</duration>
    <type>eighth</type>
    <beam number="1">continue</beam>
    <lyric number="1">
      <syllabic>begin</syllabic>
      <text>dım </text>
    </lyric>
  </note>
  <note>
    <pitch>
      <step>D</step>
      <alter>-0.01886792</alter>
      <octave>5</octave>
      </pitch>
    <duration>96</duration>
    <type>eighth</type>
    <beam number="1">continue</beam>
    <lyric number="1">
      <syllabic>single</syllabic>
      <text>be</text>
    </lyric>
  </note>
  <note>
    <pitch>
      <step>D</step>
      <alter>-0.01886792</alter>
      <octave>5</octave>
      </pitch>
    <duration>48</duration>
    <type>16th</type>
    <beam number="1">continue</beam>
        <notations>
          <slur type="start" number="1"/>
          </notations>
    <lyric number="1">
      <syllabic>begin</syllabic>
      <text>kâr </text>
    </lyric>
  </note>
  <note>
    <pitch>
      <step>B</step>
      <alter>-0.41509434</alter>
      <octave>4</octave>
      </pitch>
    <duration>48</duration>
    <type>16th</type>
    <beam number="1">end</beam>
        <notations>
          <slur type="stop" number="1"/>
          </notations>
  </note>
<note>
<grace slash="yes"/>
<pitch>
<step>D</step>
<alter>0.03773585</alter>
<octave>5</octave>
</pitch>
<voice>1</voice>
<type>eighth</type>
<notations>
<slur type="start" number="2"/>
</notations>
  </note>
  <note>
    <pitch>
      <step>C</step>
      <alter>-0.05660377</alter>
      <octave>5</octave>
      </pitch>
    <duration>96</duration>
    <type>eighth</type>
    <beam number="1">begin</beam>
    <notations>
      <slur type="stop" number="2"/>
    </notations>
    <lyric number="1">
      <syllabic>single</syllabic>
      <text>oğ</text>
    </lyric>
  </note>
  <note>
    <pitch>
      <step>C</step>
      <alter>-0.05660377</alter>
      <octave>5</octave>
      </pitch>
    <duration>96</duration>
    <type>eighth</type>
    <beam number="1">continue</beam>
        <notations>
          <slur type="start" number="1"/>
          </notations>
    <lyric number="1">
      <syllabic>begin</syllabic>
      <text>lan  </text>
    </lyric>
  </note>
  <note>
    <pitch>
      <step>B</step>
      <alter>-0.41509434</alter>
      <octave>4</octave>
      </pitch>
    <duration>96</duration>
    <type>eighth</type>
    <beam number="1">continue</beam>
  </note>
  <note>
    <pitch>
      <step>A</step>
      <alter>0.00000000</alter>
      <octave>4</octave>
      </pitch>
    <duration>96</duration>
    <type>eighth</type>
    <beam number="1">end</beam>
        <notations>
          <slur type="stop" number="1"/>
          </notations>
  </note>
</measure>
<measure number="13">
<note>
  <rest/>
  <duration>96</duration>
  </note>
  <note>
    <pitch>
      <step>G</step>
      <alter>-0.03773585</alter>
      <octave>4</octave>
      </pitch>
    <duration>48</duration>
    <type>16th</type>
    <beam number="1">begin</beam>
    <lyric number="1">
      <syllabic>single</syllabic>
      <text>A</text>
    </lyric>
  </note>
  <note>
    <pitch>
      <step>A</step>
      <alter>0.00000000</alter>
      <octave>4</octave>
      </pitch>
    <duration>48</duration>
    <type>16th</type>
    <beam number="1">continue</beam>
    <lyric number="1">
      <syllabic>single</syllabic>
      <text>na</text>
    </lyric>
  </note>
  <note>
    <pitch>
      <step>A</step>
      <alter>0.00000000</alter>
      <octave>4</octave>
      </pitch>
    <duration>48</duration>
    <type>16th</type>
    <beam number="1">end</beam>
    <lyric number="1">
      <syllabic>single</syllabic>
      <text>sı</text>
    </lyric>
  </note>
  <note>
    <pitch>
      <step>A</step>
      <alter>0.00000000</alter>
      <octave>4</octave>
      </pitch>
    <duration>144</duration>
    <type>eighth</type><dot/>
    <lyric number="1">
      <syllabic>begin</syllabic>
      <text>na </text>
    </lyric>
  </note>
  <note>
    <pitch>
      <step>A</step>
      <alter>0.00000000</alter>
      <octave>4</octave>
      </pitch>
    <duration>48</duration>
    <type>16th</type>
    <beam number="1">begin</beam>
    <lyric number="1">
      <syllabic>single</syllabic>
      <text>da</text>
    </lyric>
  </note>
  <note>
    <pitch>
      <step>A</step>
      <alter>0.00000000</alter>
      <octave>4</octave>
      </pitch>
    <duration>96</duration>
    <type>eighth</type>
    <beam number="1">continue</beam>
        <notations>
          <slur type="start" number="1"/>
          </notations>
    <notations>
      <ornaments>
        <trill-mark default-y="39"/>
      </ornaments>
    </notations>
    <lyric number="1">
      <syllabic>single</syllabic>
      <text>rıl</text>
    </lyric>
  </note>
  <note>
    <pitch>
      <step>G</step>
      <alter>-0.03773585</alter>
      <octave>4</octave>
      </pitch>
    <duration>48</duration>
    <type>16th</type>
    <beam number="1">continue</beam>
        <notations>
          <slur type="stop" number="1"/>
          </notations>
  </note>
  <note>
    <pitch>
      <step>E</step>
      <alter>0.01886793</alter>
      <octave>5</octave>
      </pitch>
    <duration>96</duration>
    <type>eighth</type>
    <beam number="1">continue</beam>
        <notations>
          <slur type="start" number="1"/>
          </notations>
    <notations>
      <ornaments>
        <trill-mark default-y="39"/>
      </ornaments>
    </notations>
    <lyric number="1">
      <syllabic>begin</syllabic>
      <text>mış  </text>
    </lyric>
  </note>
  <note>
    <pitch>
      <step>D</step>
      <alter>-0.01886792</alter>
      <octave>5</octave>
      </pitch>
    <duration>96</duration>
    <type>eighth</type>
    <beam number="1">end</beam>
        <notations>
          <slur type="stop" number="1"/>
          </notations>
  </note>
</measure>
<measure number="14">
  <note>
    <pitch>
      <step>C</step>
      <alter>-0.05660377</alter>
      <octave>5</octave>
      </pitch>
    <duration>48</duration>
    <type>16th</type>
    <beam number="1">begin</beam>
        <notations>
          <slur type="start" number="1"/>
          </notations>
    <lyric number="1">
      <syllabic>single</syllabic>
      <text>Dam</text>
    </lyric>
  </note>
  <note>
    <pitch>
      <step>D</step>
      <alter>-0.01886792</alter>
      <octave>5</octave>
      </pitch>
    <duration>96</duration>
    <type>eighth</type>
    <beam number="1">continue</beam>
        <notations>
          <slur type="stop" number="1"/>
          </notations>
  </note>
  <note>
    <pitch>
      <step>D</step>
      <alter>-0.01886792</alter>
      <octave>5</octave>
      </pitch>
    <duration>48</duration>
    <type>16th</type>
    <beam number="1">continue</beam>
    <lyric number="1">
      <syllabic>begin</syllabic>
      <text>da </text>
    </lyric>
  </note>
  <note>
    <pitch>
      <step>D</step>
      <alter>-0.01886792</alter>
      <octave>5</octave>
      </pitch>
    <duration>96</duration>
    <type>eighth</type>
    <beam number="1">continue</beam>
    <lyric number="1">
      <syllabic>single</syllabic>
      <text>ya</text>
    </lyric>
  </note>
  <note>
    <pitch>
      <step>D</step>
      <alter>-0.01886792</alter>
      <octave>5</octave>
      </pitch>
    <duration>48</duration>
    <type>16th</type>
    <beam number="1">continue</beam>
        <notations>
          <slur type="start" number="1"/>
          </notations>
    <lyric number="1">
      <syllabic>begin</syllabic>
      <text>tan </text>
    </lyric>
  </note>
  <note>
    <pitch>
      <step>B</step>
      <alter>-0.41509434</alter>
      <octave>4</octave>
      </pitch>
    <duration>48</duration>
    <type>16th</type>
    <beam number="1">end</beam>
        <notations>
          <slur type="stop" number="1"/>
          </notations>
  </note>
  <note>
    <pitch>
      <step>C</step>
      <alter>-0.05660377</alter>
      <octave>5</octave>
      </pitch>
    <duration>96</duration>
    <type>eighth</type>
    <beam number="1">begin</beam>
    <lyric number="1">
      <syllabic>single</syllabic>
      <text>oğ</text>
    </lyric>
  </note>
  <note>
    <pitch>
      <step>C</step>
      <alter>-0.05660377</alter>
      <octave>5</octave>
      </pitch>
    <duration>96</duration>
    <type>eighth</type>
    <beam number="1">continue</beam>
        <notations>
          <slur type="start" number="1"/>
          </notations>
    <lyric number="1">
      <syllabic>begin</syllabic>
      <text>lan  </text>
    </lyric>
  </note>
  <note>
    <pitch>
      <step>B</step>
      <alter>-0.41509434</alter>
      <octave>4</octave>
      </pitch>
    <duration>96</duration>
    <type>eighth</type>
    <beam number="1">continue</beam>
  </note>
  <note>
    <pitch>
      <step>A</step>
      <alter>0.00000000</alter>
      <octave>4</octave>
      </pitch>
    <duration>96</duration>
    <type>eighth</type>
    <beam number="1">end</beam>
        <notations>
          <slur type="stop" number="1"/>
          </notations>
  </note>
     <direction placement="above">
      <direction-type>
        <words>D.S.</words>
        </direction-type>
        <sound dalsegno="segno"/>
        </direction>
</measure>
</part>
</score-partwise>
